<svg xmlns="http://www.w3.org/2000/svg" xmlns:xlink="http://www.w3.org/1999/xlink" width="69" height="69" viewBox="0 0 69 69">
  <defs>
    <polygon id="adoption-a" points="0 .163 32.529 .163 32.529 13.408 0 13.408"/>
    <polygon id="adoption-c" points=".101 .087 32.63 .087 32.63 13.332 .101 13.332"/>
  </defs>
  <g fill="none" fill-rule="evenodd">
    <circle cx="34.5" cy="34.5" r="34.5" fill="#FFBD57" fill-opacity=".13"/>
    <g transform="translate(9 25)">
      <g transform="translate(0 4.689)">
        <mask id="adoption-b" fill="#fff">
          <use xlink:href="#adoption-a"/>
        </mask>
        <path fill="#FFBD57" d="M0,0.163359184 C4.25295918,0.164828571 8.50573469,0.172726531 12.7586939,0.162991837 C13.7310612,0.160787755 14.5669592,0.486808163 15.2533469,1.1428898 C17.531449,3.3201551 19.8038571,5.50366531 22.0477959,7.71582857 C22.8039796,8.46154286 22.7707347,9.56358367 22.0766327,10.2685224 C21.3788571,10.9771347 20.2894898,11.038849 19.528898,10.2718286 C18.4090408,9.14242041 17.3775306,7.92503265 16.2560204,6.78625714 C15.4996531,7.21109388 15.4390408,7.48880816 15.9219184,7.93807347 C16.9071429,8.85478776 17.8400204,9.82752245 18.8206531,10.7495633 C20.4085102,12.2430122 22.2015306,11.8931143 23.2007143,9.94782857 C23.3068776,9.74174694 23.6437347,9.53474694 23.875898,9.53180816 C26.109,9.50242041 28.3430204,9.49470612 30.5763061,9.52721633 C31.716551,9.54393061 32.5430816,10.4387878 32.5285714,11.5292571 C32.5135102,12.6639918 31.807102,13.3838082 30.599449,13.3887673 C26.4383265,13.405849 22.2764694,13.433951 18.1166327,13.3571755 C17.4194082,13.344502 16.6433878,12.9540122 16.0547143,12.5289918 C13.6746735,10.8114612 11.3692041,8.99107347 8.99687755,7.26233878 C8.56689796,6.94917551 7.95710204,6.75595102 7.42187755,6.73574694 C4.94963265,6.64354286 2.47426531,6.63233878 0,6.59193061 L0,0.163359184 Z" mask="url(#adoption-b)"/>
      </g>
      <g transform="translate(16.163 .097)">
        <mask id="adoption-d" fill="#fff">
          <use xlink:href="#adoption-c"/>
        </mask>
        <path fill="#FFBD57" d="M32.629849,13.331351 C28.3770735,13.329698 24.1239306,13.3218 19.8711551,13.3317184 C18.8987878,13.3339224 18.0628898,13.0077184 17.376502,12.3516367 C15.0985837,10.1745551 12.8259918,7.9910449 10.5820531,5.77869796 C9.82605306,5.03316735 9.85911429,3.93112653 10.5534,3.22618776 C11.2509918,2.51757551 12.3403592,2.45586122 13.100951,3.22269796 C14.2208082,4.3522898 15.2523184,5.56967755 16.3738286,6.70845306 C17.1301959,6.28343265 17.1908082,6.00590204 16.7079306,5.55663673 C15.7227061,4.63973878 14.7896449,3.66718776 13.8091959,2.74496327 C12.2213388,1.25169796 10.4283184,1.60159592 9.42913469,3.54688163 C9.32297143,3.75296327 8.98629796,3.95977959 8.75395102,3.96290204 C6.52084898,3.9922898 4.28682857,4.00000408 2.05372653,3.9673102 C0.913297959,3.95059592 0.0867673469,3.05592245 0.101277551,1.96545306 C0.116338776,0.830718367 0.822746939,0.110902041 2.0304,0.105942857 C6.19152245,0.0888612245 10.3535633,0.0607591837 14.5132163,0.137534694 C15.2104408,0.150208163 15.9864612,0.540697959 16.5753184,0.965718367 C18.9551755,2.68324898 21.2608286,4.50363673 23.6331551,6.23218776 C24.062951,6.54535102 24.6727469,6.73875918 25.2079714,6.75877959 C27.6804,6.85098367 30.1555837,6.86237143 32.629849,6.90277959 L32.629849,13.331351 Z" mask="url(#adoption-d)"/>
      </g>
    </g>
  </g>
</svg>
