<svg xmlns="http://www.w3.org/2000/svg" xmlns:xlink="http://www.w3.org/1999/xlink" width="69" height="69" viewBox="0 0 69 69">
  <defs>
    <polygon id="allergices-a" points="0 0 16.893 0 16.893 30.442 0 30.442"/>
  </defs>
  <g fill="none" fill-rule="evenodd">
    <circle cx="34.5" cy="34.5" r="34.5" fill="#58A6FF" fill-opacity=".13"/>
    <g transform="translate(26 13)">
      <g transform="translate(1)">
        <mask id="allergices-b" fill="#fff">
          <use xlink:href="#allergices-a"/>
        </mask>
        <path fill="#58A6FF" d="M9.2835,0.8261 L16.4405,20.5101 C18.1965,25.3381 14.6215,30.4421 9.4835,30.4421 L7.6275,30.4421 C2.4255,30.4421 -1.2475,25.3461 0.3965,20.4101 L6.9145,0.8571 C7.2905,-0.2699 8.8775,-0.2909 9.2835,0.8261" mask="url(#allergices-b)"/>
      </g>
      <path fill="#125CAE" d="M3.29414516,0.293132258 L5.83372581,7.27777742 C6.45682258,8.99093871 5.18827419,10.8020355 3.3651129,10.8020355 L2.70653226,10.8020355 C0.86066129,10.8020355 -0.44266129,8.99377742 0.140693548,7.24229355 L2.45353226,0.304132258 C2.58695161,-0.0957709677 3.15008065,-0.103222581 3.29414516,0.293132258" transform="translate(0 30)"/>
      <path fill="#125CAE" d="M3.29414516,0.293132258 L5.83372581,7.27777742 C6.45682258,8.99093871 5.18827419,10.8020355 3.3651129,10.8020355 L2.70653226,10.8020355 C0.86066129,10.8020355 -0.44266129,8.99377742 0.140693548,7.24229355 L2.45353226,0.304132258 C2.58695161,-0.0957709677 3.15008065,-0.103222581 3.29414516,0.293132258" transform="translate(11 33)"/>
    </g>
  </g>
</svg>
