<svg xmlns="http://www.w3.org/2000/svg" width="69" height="69" viewBox="0 0 69 69">
  <g fill="none" fill-rule="evenodd">
    <circle cx="34.5" cy="34.5" r="34.5" fill="#FF7757" fill-opacity=".13"/>
    <path fill="#FF3607" fill-rule="nonzero" d="M4.49274074,5.616 L4.49274074,1.12318519 C4.49274074,0.502296296 4.99503704,0 5.61607407,0 C6.23681481,0 6.73911111,0.502296296 6.73911111,1.12318519 L6.73911111,5.616 C6.73911111,6.23674074 6.23681481,6.73903704 5.61607407,6.73903704 C4.99503704,6.73911111 4.49274074,6.23674074 4.49274074,5.616 Z M23.586963,6.73911111 C24.2075556,6.73911111 24.7101481,6.23681481 24.7101481,5.61607407 L24.7101481,1.12318519 C24.7101481,0.502296296 24.2075556,0 23.586963,0 C22.9660741,0 22.4634074,0.502296296 22.4634074,1.12318519 L22.4634074,5.616 C22.4634074,6.23674074 22.9660741,6.73911111 23.586963,6.73911111 Z M35.9416296,26.956 C35.9416296,31.9186667 31.9185185,35.9417037 26.9562222,35.9417037 C21.9942963,35.9417037 17.9708889,31.9186667 17.9708889,26.956 C17.9708889,21.9940741 21.9942222,17.9708148 26.9562222,17.9708148 C31.9185185,17.9708148 35.9416296,21.994 35.9416296,26.956 Z M33.6955556,26.956 C33.6955556,23.2403704 30.6725926,20.217037 26.9562963,20.217037 C23.2402963,20.217037 20.2173333,23.2402963 20.2173333,26.956 C20.2173333,30.6723704 23.2402963,33.6952593 26.9562963,33.6952593 C30.6725926,33.6952593 33.6955556,30.6723704 33.6955556,26.956 Z M8.98555556,13.4781481 L4.49274074,13.4781481 L4.49274074,17.9708148 L8.98555556,17.9708148 L8.98555556,13.4781481 Z M4.49274074,24.7099259 L8.98555556,24.7099259 L8.98555556,20.217037 L4.49274074,20.217037 L4.49274074,24.7099259 Z M11.2317778,17.9708148 L15.7246667,17.9708148 L15.7246667,13.4781481 L11.2317778,13.4781481 L11.2317778,17.9708148 Z M11.2317778,24.7099259 L15.7246667,24.7099259 L15.7246667,20.217037 L11.2317778,20.217037 L11.2317778,24.7099259 Z M2.24651852,26.7326667 L2.24651852,11.2317037 L26.9562963,11.2317037 L26.9562963,15.7245185 L29.2027407,15.7245185 L29.2027407,6.96296296 C29.2027407,5.59844444 28.1144444,4.49266667 26.7699259,4.49266667 L25.8331111,4.49266667 L25.8331111,5.61607407 C25.8331111,6.85318519 24.826,7.86237037 23.587037,7.86237037 C22.3477037,7.86237037 21.3406667,6.85318519 21.3406667,5.61607407 L21.3406667,4.49266667 L7.86222222,4.49266667 L7.86222222,5.61607407 C7.86222222,6.85318519 6.85533333,7.86237037 5.61614815,7.86237037 C4.37666667,7.86237037 3.3697037,6.85318519 3.3697037,5.61607407 L3.3697037,4.49266667 L2.434,4.49266667 C1.08940741,4.49266667 7.40740741e-05,5.59844444 7.40740741e-05,6.96296296 L7.40740741e-05,26.7327407 C7.40740741e-05,28.0927407 1.08940741,29.2028148 2.434,29.2028148 L15.7246667,29.2028148 L15.7246667,26.9560741 L2.434,26.9560741 C2.33222222,26.956 2.24651852,26.8508889 2.24651852,26.7326667 Z M22.4634074,17.9708148 L22.4634074,13.4781481 L17.970963,13.4781481 L17.970963,17.9708148 L22.4634074,17.9708148 Z M30.3258519,26.956 L26.9562222,26.956 L26.9562222,23.5863704 C26.9562222,22.9658519 26.4539259,22.4635556 25.833037,22.4635556 C25.2121481,22.4635556 24.7101481,22.9658519 24.7101481,23.5863704 L24.7101481,28.0795556 C24.7101481,28.7001481 25.2121481,29.2027407 25.833037,29.2027407 L30.3258519,29.2027407 C30.9467407,29.2027407 31.449037,28.7001481 31.449037,28.0795556 C31.449037,27.4586667 30.9467407,26.956 30.3258519,26.956 Z" transform="translate(17 16)"/>
  </g>
</svg>
