<svg xmlns="http://www.w3.org/2000/svg" width="69" height="69" viewBox="0 0 69 69">
  <g fill="none" fill-rule="evenodd">
    <circle cx="34.5" cy="34.5" r="34.5" fill="#58A6FF" fill-opacity=".127"/>
    <g transform="translate(16 15)">
      <g stroke="#48B1FB" stroke-width=".2">
        <path fill="#58A6FF" d="M30.1190474,11.7898563 L30.1190474,36.3942854 C30.1190474,36.5435712 29.9959522,36.6666664 29.8466664,36.6666664 L0.27238095,36.6666664 C0.123095237,36.6666664 0,36.5435712 0,36.3942854 L0,0.27238095 C0,0.123095237 0.123095237,0 0.27238095,0 L18.3333332,0 L30.1161185,11.7827853 C30.1179938,11.7846606 30.1190474,11.7872042 30.1190474,11.7898563 Z"/>
        <path fill="#125CAE" d="M29.9472891,11.6150035 L18.4176409,0.0853553391 C18.3981147,0.0658291245 18.3664565,0.0658291245 18.3469302,0.0853553391 C18.3375534,0.094732158 18.3322856,0.107449854 18.3322856,0.120710678 L18.3322856,9.77690469 C18.3322856,10.8873809 19.233238,11.7857142 20.3410951,11.7857142 L29.8765784,11.7857142 C29.9318069,11.7857142 29.9765784,11.7409427 29.9765784,11.6857142 C29.9765784,11.6591926 29.9660427,11.6337572 29.9472891,11.6150035 Z"/>
      </g>
      <path fill="#0E7EFB" d="M4.5833333,18.3333332 C4.22171829,18.3333332 3.9285714,18.0401863 3.9285714,17.6785713 C3.9285714,17.3169563 4.22171829,17.0238094 4.5833333,17.0238094 L25.5357141,17.0238094 C25.8973291,17.0238094 26.190476,17.3169563 26.190476,17.6785713 C26.190476,18.0401863 25.8973291,18.3333332 25.5357141,18.3333332 L4.5833333,18.3333332 Z M4.5833333,24.8809522 C4.22171829,24.8809522 3.9285714,24.5878053 3.9285714,24.2261903 C3.9285714,23.8645753 4.22171829,23.5714284 4.5833333,23.5714284 L25.5357141,23.5714284 C25.8973291,23.5714284 26.190476,23.8645753 26.190476,24.2261903 C26.190476,24.5878053 25.8973291,24.8809522 25.5357141,24.8809522 L4.5833333,24.8809522 Z M4.5833333,31.4285712 C4.22171829,31.4285712 3.9285714,31.1354243 3.9285714,30.7738093 C3.9285714,30.4121943 4.22171829,30.1190474 4.5833333,30.1190474 L21.6071427,30.1190474 C21.9687577,30.1190474 22.2619046,30.4121943 22.2619046,30.7738093 C22.2619046,31.1354243 21.9687577,31.4285712 21.6071427,31.4285712 L4.5833333,31.4285712 Z"/>
      <path fill="#125CAE" stroke="#017457" stroke-width=".2" d="M36.6666664,32.738095 C36.6666664,36.3549997 33.7359521,39.285714 30.1190474,39.285714 C26.5021427,39.285714 23.5714284,36.3549997 23.5714284,32.738095 C23.5714284,29.1211903 26.5021427,26.190476 30.1190474,26.190476 C33.7359521,26.190476 36.6666664,29.1211903 36.6666664,32.738095"/>
      <polygon fill="#FFF" points="32.984 30.119 33.671 30.805 28.96 35.516 26.19 32.746 26.877 32.06 28.96 34.143"/>
    </g>
  </g>
</svg>
