<svg xmlns="http://www.w3.org/2000/svg" width="69" height="69" viewBox="0 0 69 69">
  <g fill="none" fill-rule="evenodd">
    <circle cx="34.5" cy="34.5" r="34.5" fill="#FFBD57" fill-opacity=".13"/>
    <g transform="translate(19 17)">
      <path fill="#FFBD57" d="M29.5714286,11.5755707 L29.5714286,35.7325714 C29.5714286,35.8791429 29.4505714,36 29.304,36 L0.267428571,36 C0.120857143,36 0,35.8791429 0,35.7325714 L0,0.267428571 C0,0.120857143 0.120857143,0 0.267428571,0 L18,0 L29.5684996,11.5684996 C29.570375,11.570375 29.5714286,11.5729185 29.5714286,11.5755707 Z"/>
      <path fill="#FF9D07" d="M29.3996893,11.4007179 L18.1696821,0.170710678 C18.1306297,0.131658249 18.0673132,0.131658249 18.0282608,0.170710678 C18.0095071,0.189464316 17.9989714,0.214899707 17.9989714,0.241421356 L17.9989714,9.59914286 C17.9989714,10.0365728 18.1413581,10.4404756 18.382124,10.7673422 C18.7414626,11.2551844 19.3199411,11.5714286 19.9712571,11.5714286 L29.3289786,11.5714286 C29.3842071,11.5714286 29.4289786,11.526657 29.4289786,11.4714286 C29.4289786,11.4449069 29.418443,11.4194715 29.3996893,11.4007179 Z"/>
      <path fill="#FFF" d="M4.5,18 C4.1449598,18 3.85714286,17.7121831 3.85714286,17.3571429 C3.85714286,17.0021027 4.1449598,16.7142857 4.5,16.7142857 L25.0714286,16.7142857 C25.4264688,16.7142857 25.7142857,17.0021027 25.7142857,17.3571429 C25.7142857,17.7121831 25.4264688,18 25.0714286,18 L4.5,18 Z M4.5,24.4285714 C4.1449598,24.4285714 3.85714286,24.1407545 3.85714286,23.7857143 C3.85714286,23.4306741 4.1449598,23.1428571 4.5,23.1428571 L25.0714286,23.1428571 C25.4264688,23.1428571 25.7142857,23.4306741 25.7142857,23.7857143 C25.7142857,24.1407545 25.4264688,24.4285714 25.0714286,24.4285714 L4.5,24.4285714 Z M4.5,30.8571429 C4.1449598,30.8571429 3.85714286,30.5693259 3.85714286,30.2142857 C3.85714286,29.8592455 4.1449598,29.5714286 4.5,29.5714286 L21.2142857,29.5714286 C21.5693259,29.5714286 21.8571429,29.8592455 21.8571429,30.2142857 C21.8571429,30.5693259 21.5693259,30.8571429 21.2142857,30.8571429 L4.5,30.8571429 Z"/>
    </g>
  </g>
</svg>
