<svg xmlns="http://www.w3.org/2000/svg" width="69" height="69" viewBox="0 0 69 69">
  <g fill="none" fill-rule="evenodd">
    <circle cx="34.5" cy="34.5" r="34.5" fill="#685DD8" fill-opacity=".13"/>
    <g transform="translate(19 14)">
      <rect width="24.255" height="31.5" y="4.5" fill="#685DD8" rx=".2"/>
      <path fill="#4B3FC8" d="M2.775,20.0142857 C2.48505051,20.0142857 2.25,19.7792352 2.25,19.4892857 C2.25,19.1993362 2.48505051,18.9642857 2.775,18.9642857 L19.575,18.9642857 C19.8649495,18.9642857 20.1,19.1993362 20.1,19.4892857 C20.1,19.7792352 19.8649495,20.0142857 19.575,20.0142857 L2.775,20.0142857 Z M2.775,25.2642857 C2.48505051,25.2642857 2.25,25.0292352 2.25,24.7392857 C2.25,24.4493362 2.48505051,24.2142857 2.775,24.2142857 L19.575,24.2142857 C19.8649495,24.2142857 20.1,24.4493362 20.1,24.7392857 C20.1,25.0292352 19.8649495,25.2642857 19.575,25.2642857 L2.775,25.2642857 Z M2.775,30.5142857 C2.48505051,30.5142857 2.25,30.2792352 2.25,29.9892857 C2.25,29.6993362 2.48505051,29.4642857 2.775,29.4642857 L16.425,29.4642857 C16.7149495,29.4642857 16.95,29.6993362 16.95,29.9892857 C16.95,30.2792352 16.7149495,30.5142857 16.425,30.5142857 L2.775,30.5142857 Z M2.775,14.8714286 C2.48505051,14.8714286 2.25,14.6363781 2.25,14.3464286 C2.25,14.0564791 2.48505051,13.8214286 2.775,13.8214286 L19.575,13.8214286 C19.8649495,13.8214286 20.1,14.0564791 20.1,14.3464286 C20.1,14.6363781 19.8649495,14.8714286 19.575,14.8714286 L2.775,14.8714286 Z"/>
      <path fill="#2B1DB8" d="M28.5,5.25 C28.5,8.1501 26.1501,10.5 23.25,10.5 C20.3499,10.5 18,8.1501 18,5.25 C18,2.3499 20.3499,0 23.25,0 C26.1501,0 28.5,2.3499 28.5,5.25"/>
      <path fill="#FFF" d="M25.2160042,6.24216975 C25.2160042,6.63218964 25.0734473,6.95361499 24.7883293,7.20645547 C24.5032114,7.45929594 24.0916793,7.61530156 23.5537209,7.67447699 L23.5537209,8.55 L23.01711,8.55 L23.01711,7.698685 C22.3500415,7.68792583 21.802677,7.58571525 21.375,7.39205021 L21.375,6.54073521 C21.6063221,6.65370648 21.8766422,6.74852024 22.1859683,6.82517932 C22.4952944,6.9018384 22.7723389,6.94151224 23.01711,6.94420203 L23.01711,5.4352361 L22.6781978,5.31016139 C22.2370719,5.14070447 21.9149741,4.93830064 21.7118948,4.70294381 C21.5088155,4.46758699 21.4072773,4.17642134 21.4072773,3.82943814 C21.4072773,3.4582468 21.5518515,3.15295995 21.8410042,2.91356844 C22.1301569,2.67417693 22.5221882,2.52893032 23.01711,2.47782427 L23.01711,1.8 L23.5537209,1.8 L23.5537209,2.46572026 C24.0997487,2.48454881 24.6175259,2.59482864 25.1070681,2.79656306 L24.8125374,3.53490735 C24.39024,3.36814023 23.9706387,3.26861941 23.5537209,3.2363419 L23.5537209,4.70496115 L23.8603556,4.82196653 C24.3714162,5.01832136 24.7251186,5.22543226 24.9214734,5.44330544 C25.1178282,5.66117861 25.2160042,5.92746406 25.2160042,6.24216975 Z M24.2638225,6.30268978 C24.2638225,6.14668183 24.209355,6.01824617 24.1004184,5.91737896 C23.9914818,5.81651175 23.8092511,5.71900824 23.5537209,5.62486551 L23.5537209,6.91192469 C24.0271243,6.83930029 24.2638225,6.63622402 24.2638225,6.30268978 Z M22.3554244,3.8213688 C22.3554244,3.97468696 22.4031675,4.10245018 22.4986551,4.20466228 C22.5941427,4.30687439 22.7669593,4.40774009 23.01711,4.5072624 L23.01711,3.25248057 C22.8019266,3.28475808 22.6378517,3.350657 22.5248805,3.45017932 C22.4119092,3.54970163 22.3554244,3.67343022 22.3554244,3.8213688 Z"/>
    </g>
  </g>
</svg>
