<svg xmlns="http://www.w3.org/2000/svg" width="69" height="69" viewBox="0 0 69 69">
  <g fill="none" fill-rule="evenodd">
    <circle cx="34.5" cy="34.5" r="34.5" fill="#58A6FF" fill-opacity=".13"/>
    <g transform="translate(19 17)">
      <path fill="#58A6FF" d="M29.5714286,11.5714286 L29.5714286,35.7325714 C29.5714286,35.8791429 29.4505714,36 29.304,36 L0.267428571,36 C0.120857143,36 0,35.8791429 0,35.7325714 L0,0.267428571 C0,0.120857143 0.120857143,0 0.267428571,0 L18,0"/>
      <g transform="translate(3 16)">
        <path fill="#2F91FF" d="M9.29846939 3.30612245C9.29846939 5.13216 7.81838449 6.6122449 5.99234694 6.6122449 4.16630939 6.6122449 2.68622449 5.13216 2.68622449 3.30612245 2.68622449 1.4800849 4.16630939 0 5.99234694 0 7.81838449 0 9.29846939 1.4800849 9.29846939 3.30612245M0 12.1913265C0 9.33814286 2.7754898 7.0255102 6.19897959 7.0255102 9.62246939 7.0255102 12.3979592 9.33814286 12.3979592 12.1913265" transform="translate(0 .102)"/>
        <path fill="#58A6FF" d="M9.29846939 3.30612245C9.29846939 5.13216 7.81838449 6.6122449 5.99234694 6.6122449 4.16630939 6.6122449 2.68622449 5.13216 2.68622449 3.30612245 2.68622449 1.4800849 4.16630939 0 5.99234694 0 7.81838449 0 9.29846939 1.4800849 9.29846939 3.30612245M0 12.1913265C0 9.33814286 2.7754898 7.0255102 6.19897959 7.0255102 9.62246939 7.0255102 12.3979592 9.33814286 12.3979592 12.1913265" transform="translate(4.612 .102)"/>
        <path fill="#2F91FF" d="M9.29846939 3.30612245C9.29846939 5.13216 7.81838449 6.6122449 5.99234694 6.6122449 4.16630939 6.6122449 2.68622449 5.13216 2.68622449 3.30612245 2.68622449 1.4800849 4.16630939 0 5.99234694 0 7.81838449 0 9.29846939 1.4800849 9.29846939 3.30612245M0 12.1913265C0 9.33814286 2.7754898 7.0255102 6.19897959 7.0255102 9.62246939 7.0255102 12.3979592 9.33814286 12.3979592 12.1913265" transform="translate(5.612 .102)"/>
        <path fill="#58A6FF" d="M9.29846939 3.30612245C9.29846939 5.13216 7.81838449 6.6122449 5.99234694 6.6122449 4.16630939 6.6122449 2.68622449 5.13216 2.68622449 3.30612245 2.68622449 1.4800849 4.16630939 0 5.99234694 0 7.81838449 0 9.29846939 1.4800849 9.29846939 3.30612245M0 12.1913265C0 9.33814286 2.7754898 7.0255102 6.19897959 7.0255102 9.62246939 7.0255102 12.3979592 9.33814286 12.3979592 12.1913265" transform="translate(9.612 .102)"/>
        <path fill="#2F91FF" d="M9.29846939 3.30612245C9.29846939 5.13216 7.81838449 6.6122449 5.99234694 6.6122449 4.16630939 6.6122449 2.68622449 5.13216 2.68622449 3.30612245 2.68622449 1.4800849 4.16630939 0 5.99234694 0 7.81838449 0 9.29846939 1.4800849 9.29846939 3.30612245M0 12.1913265C0 9.33814286 2.7754898 7.0255102 6.19897959 7.0255102 9.62246939 7.0255102 12.3979592 9.33814286 12.3979592 12.1913265" transform="translate(10.612 .102)"/>
      </g>
      <path fill="#0E7EFB" d="M29.5533289,11.5543575 L18.0843268,0.0853553391 C18.0648006,0.0658291245 18.0331423,0.0658291245 18.0136161,0.0853553391 C18.0042393,0.094732158 17.9989714,0.107449854 17.9989714,0.120710678 L17.9989714,9.59914286 C17.9989714,10.6894286 18.8835429,11.5714286 19.9712571,11.5714286 L29.5462579,11.5714286 C29.5517807,11.5714286 29.5562579,11.5669514 29.5562579,11.5614286 C29.5562579,11.5587764 29.5552043,11.5562329 29.5533289,11.5543575 Z"/>
    </g>
  </g>
</svg>
