<svg xmlns="http://www.w3.org/2000/svg" width="69" height="69" viewBox="0 0 69 69">
  <g fill="none" fill-rule="evenodd">
    <circle cx="34.5" cy="34.5" r="34.5" fill="#FF3607" fill-opacity=".13"/>
    <g transform="translate(16 16)">
      <path fill="#FF7757" d="M18.5,4.35294118 C10.6995294,4.35294118 4.35294118,10.6995294 4.35294118,18.5 C4.35294118,26.3004706 10.6995294,32.6470588 18.5,32.6470588 C26.3004706,32.6470588 32.6470588,26.3004706 32.6470588,18.5 C32.6470588,10.6995294 26.3004706,4.35294118 18.5,4.35294118 M18.5,37 C8.29888235,37 0,28.7011176 0,18.5 C0,8.29888235 8.29888235,0 18.5,0 C28.7011176,0 37,8.29888235 37,18.5 C37,28.7011176 28.7011176,37 18.5,37"/>
      <path fill="#FF5C35" d="M18.5,11.1593583 C14.4521604,11.1593583 11.1593583,14.4521604 11.1593583,18.5 C11.1593583,22.5478396 14.4521604,25.8406417 18.5,25.8406417 C22.5478396,25.8406417 25.8406417,22.5478396 25.8406417,18.5 C25.8406417,14.4521604 22.5478396,11.1593583 18.5,11.1593583 M18.5,30.0352941 C12.140907,30.0352941 6.96470588,24.859093 6.96470588,18.5 C6.96470588,12.1388096 12.140907,6.96470588 18.5,6.96470588 C24.859093,6.96470588 30.0352941,12.1388096 30.0352941,18.5 C30.0352941,24.859093 24.859093,30.0352941 18.5,30.0352941"/>
      <path fill="#FF3607" stroke="#FE8137" stroke-width=".2" d="M21.9823529,18.5 C21.9823529,20.4222588 20.4222588,21.9823529 18.5,21.9823529 C16.5777412,21.9823529 15.0176471,20.4222588 15.0176471,18.5 C15.0176471,16.5754196 16.5777412,15.0176471 18.5,15.0176471 C20.4222588,15.0176471 21.9823529,16.5754196 21.9823529,18.5 Z"/>
    </g>
  </g>
</svg>
