<svg xmlns="http://www.w3.org/2000/svg" width="69" height="69" viewBox="0 0 69 69">
  <g fill="none" fill-rule="evenodd">
    <circle cx="34.5" cy="34.5" r="34.5" fill="#FF9257" fill-opacity=".13"/>
    <g transform="translate(16 14)">
      <g transform="rotate(13 3.93 42.16)">
        <path fill="#FF7B35" d="M28.3459459,11.096034 L28.3459459,34.2517622 C28.3459459,34.3922595 28.2300973,34.5081081 28.0896,34.5081081 L0.256345946,34.5081081 C0.115848649,34.5081081 0,34.3922595 0,34.2517622 L0,0.256345946 C0,0.115848649 0.115848649,0 0.256345946,0 L17.2540541,0 L28.343017,11.088963 C28.3448924,11.0908383 28.3459459,11.0933819 28.3459459,11.096034 Z"/>
        <path fill="#FFF" fill-rule="nonzero" d="M9.93396965,24.4894063 C9.82685371,24.6901419 9.61784069,24.8155184 9.39031351,24.8155184 L3.16324324,24.8155184 C2.82291642,24.8155184 2.54702703,24.539629 2.54702703,24.1993021 C2.54702703,23.8589753 2.82291642,23.5830859 3.16324324,23.5830859 L9.02067631,23.5830859 L11.1133471,19.6614142 C11.3751006,19.1708874 12.1013789,19.2505304 12.2506088,19.7861252 L14.5899222,28.1820562 L17.711891,15.343036 C17.8588862,14.7385219 18.7071746,14.7079017 18.8973721,15.3002443 L21.7316408,24.1271638 L26.6616216,24.1271638 C27.0019484,24.1271638 27.2778378,24.4030532 27.2778378,24.74338 C27.2778378,25.0837068 27.0019484,25.3595962 26.6616216,25.3595962 L21.2823005,25.3595962 C21.0145525,25.3595962 20.7774439,25.1866984 20.6955879,24.9317697 L18.3926314,17.759545 L15.2292203,30.7689953 C15.0792279,31.3858356 14.2072314,31.400312 14.0368464,30.7887904 L11.4763426,21.5989945 L9.93396965,24.4894063 Z"/>
        <path fill="#214D81" d="M8.58594595,19.9440909 C8.92627276,19.9440909 9.20216216,20.2199803 9.20216216,20.5603071 C9.20216216,20.9006339 8.92627276,21.1765233 8.58594595,21.1765233 L5.61430486,21.1765233 C5.27397805,21.1765233 4.99808865,20.9006339 4.99808865,20.5603071 C4.99808865,20.2199803 5.27397805,19.9440909 5.61430486,19.9440909 L8.58594595,19.9440909 Z M3.72178162,20.5603071 C3.72178162,20.9887006 3.37472865,21.3375612 2.94452757,21.3375612 C2.51613405,21.3375612 2.16908108,20.9887006 2.16908108,20.5603071 C2.16908108,20.1319136 2.51613405,19.7830531 2.94452757,19.7830531 C3.37472865,19.7830531 3.72178162,20.1319136 3.72178162,20.5603071 Z M12.2010811,16.3289558 C12.5414079,16.3289558 12.8172973,16.6048452 12.8172973,16.945172 C12.8172973,17.2854988 12.5414079,17.5613882 12.2010811,17.5613882 L5.61430486,17.5613882 C5.27397805,17.5613882 4.99808865,17.2854988 4.99808865,16.945172 C4.99808865,16.6048452 5.27397805,16.3289558 5.61430486,16.3289558 L12.2010811,16.3289558 Z M3.72178162,16.945172 C3.72178162,17.3735655 3.37472865,17.722426 2.94452757,17.722426 C2.51613405,17.722426 2.16908108,17.3735655 2.16908108,16.945172 C2.16908108,16.5167785 2.51613405,16.1679179 2.94452757,16.1679179 C3.37472865,16.1679179 3.72178162,16.5167785 3.72178162,16.945172 Z"/>
        <path fill="#FF9257" d="M28.1742493,10.9211812 L17.3384234,0.0853553391 C17.3188972,0.0658291245 17.287239,0.0658291245 17.2677128,0.0853553391 C17.258336,0.094732158 17.2530681,0.107449854 17.2530681,0.120710678 L17.2530681,9.20134054 C17.2530681,10.2464432 18.1009816,11.0918919 19.1436195,11.0918919 L28.1035386,11.0918919 C28.1587671,11.0918919 28.2035386,11.0471204 28.2035386,10.9918919 C28.2035386,10.9653702 28.193003,10.9399349 28.1742493,10.9211812 Z"/>
      </g>
      <g transform="translate(.086 3.574)">
        <path fill="#FF9257" d="M28.3459459,11.096034 L28.3459459,34.2517622 C28.3459459,34.3922595 28.2300973,34.5081081 28.0896,34.5081081 L0.256345946,34.5081081 C0.115848649,34.5081081 0,34.3922595 0,34.2517622 L0,0.256345946 C0,0.115848649 0.115848649,0 0.256345946,0 L17.2540541,0 L28.343017,11.088963 C28.3448924,11.0908383 28.3459459,11.0933819 28.3459459,11.096034 Z"/>
        <path fill="#FFF" fill-rule="nonzero" d="M9.93396965,24.4894063 C9.82685371,24.6901419 9.61784069,24.8155184 9.39031351,24.8155184 L3.16324324,24.8155184 C2.82291642,24.8155184 2.54702703,24.539629 2.54702703,24.1993021 C2.54702703,23.8589753 2.82291642,23.5830859 3.16324324,23.5830859 L9.02067631,23.5830859 L11.1133471,19.6614142 C11.3751006,19.1708874 12.1013789,19.2505304 12.2506088,19.7861252 L14.5899222,28.1820562 L17.711891,15.343036 C17.8588862,14.7385219 18.7071746,14.7079017 18.8973721,15.3002443 L21.7316408,24.1271638 L26.6616216,24.1271638 C27.0019484,24.1271638 27.2778378,24.4030532 27.2778378,24.74338 C27.2778378,25.0837068 27.0019484,25.3595962 26.6616216,25.3595962 L21.2823005,25.3595962 C21.0145525,25.3595962 20.7774439,25.1866984 20.6955879,24.9317697 L18.3926314,17.759545 L15.2292203,30.7689953 C15.0792279,31.3858356 14.2072314,31.400312 14.0368464,30.7887904 L11.4763426,21.5989945 L9.93396965,24.4894063 Z"/>
        <path fill="#FFF" d="M8.58594595,19.9440909 C8.92627276,19.9440909 9.20216216,20.2199803 9.20216216,20.5603071 C9.20216216,20.9006339 8.92627276,21.1765233 8.58594595,21.1765233 L5.61430486,21.1765233 C5.27397805,21.1765233 4.99808865,20.9006339 4.99808865,20.5603071 C4.99808865,20.2199803 5.27397805,19.9440909 5.61430486,19.9440909 L8.58594595,19.9440909 Z M3.72178162,20.5603071 C3.72178162,20.9887006 3.37472865,21.3375612 2.94452757,21.3375612 C2.51613405,21.3375612 2.16908108,20.9887006 2.16908108,20.5603071 C2.16908108,20.1319136 2.51613405,19.7830531 2.94452757,19.7830531 C3.37472865,19.7830531 3.72178162,20.1319136 3.72178162,20.5603071 Z M12.2010811,16.3289558 C12.5414079,16.3289558 12.8172973,16.6048452 12.8172973,16.945172 C12.8172973,17.2854988 12.5414079,17.5613882 12.2010811,17.5613882 L5.61430486,17.5613882 C5.27397805,17.5613882 4.99808865,17.2854988 4.99808865,16.945172 C4.99808865,16.6048452 5.27397805,16.3289558 5.61430486,16.3289558 L12.2010811,16.3289558 Z M3.72178162,16.945172 C3.72178162,17.3735655 3.37472865,17.722426 2.94452757,17.722426 C2.51613405,17.722426 2.16908108,17.3735655 2.16908108,16.945172 C2.16908108,16.5167785 2.51613405,16.1679179 2.94452757,16.1679179 C3.37472865,16.1679179 3.72178162,16.5167785 3.72178162,16.945172 Z"/>
        <path fill="#FF5E07" d="M28.1742493,10.9211812 L17.3384234,0.0853553391 C17.3188972,0.0658291245 17.287239,0.0658291245 17.2677128,0.0853553391 C17.258336,0.094732158 17.2530681,0.107449854 17.2530681,0.120710678 L17.2530681,9.20134054 C17.2530681,10.2464432 18.1009816,11.0918919 19.1436195,11.0918919 L28.1035386,11.0918919 C28.1587671,11.0918919 28.2035386,11.0471204 28.2035386,10.9918919 C28.2035386,10.9653702 28.193003,10.9399349 28.1742493,10.9211812 Z"/>
      </g>
    </g>
  </g>
</svg>
