<svg xmlns="http://www.w3.org/2000/svg" width="69" height="69" viewBox="0 0 69 69">
  <g fill="none" fill-rule="evenodd">
    <circle cx="34.5" cy="34.5" r="34.5" fill="#685DD8" fill-opacity=".13"/>
    <path fill="#685DD8" d="M49.8139065,19.1419534 C50.0544168,19.5548402 50.2796162,19.9415068 50.519361,20.3531177 C49.9951505,20.6553186 49.4690261,20.9612835 48.9404137,21.2629741 C47.4225827,22.1291304 45.9030931,22.9924159 44.3855811,23.8590826 C43.6736832,24.2657174 42.9580213,24.6667381 42.2593291,25.0951272 C42.0951824,25.1957971 41.938117,25.3763394 41.8705572,25.5551591 C41.4231569,26.7401033 41.0000628,27.9341703 40.5707805,29.1259406 C40.098755,30.4364989 39.6319607,31.7489709 39.1564264,33.058317 C38.6845923,34.3575834 38.2011473,35.6527668 37.7289942,36.9519693 C37.1809878,38.4598481 36.6405731,39.9704063 36.0951824,41.4792421 C35.9554695,41.8659725 35.7804774,42.2426233 35.673747,42.6379662 C35.550302,43.0949359 35.1334599,43.1133729 34.8179256,43.2538513 C33.6535875,43.7718099 32.4746401,44.2571049 31.2999671,44.7517142 C29.8718969,45.3530539 28.4413387,45.9484606 27.0142255,46.5520331 C25.8978618,47.0241863 24.7850708,47.5047604 23.670621,47.9816344 C22.5753738,48.4504063 21.4803818,48.9199438 20.3838586,49.3856536 C20.3298873,49.4085563 20.2618172,49.3982851 20.2256449,49.4012835 C20.0431888,48.9802309 19.8690899,48.5784446 19.6779575,48.1373601 C19.9945125,47.9975196 20.3428379,47.8382851 20.69531,47.6888752 C21.8410197,47.2031336 22.9883881,46.7212835 24.1348634,46.2373282 C25.5711633,45.6310762 27.0078459,45.0256536 28.4432526,44.4172963 C29.5695046,43.9399757 30.6945444,43.4596567 31.8193929,42.9788912 C32.6141617,42.6391783 33.4101425,42.3022724 34.1989145,41.9491623 C34.3173196,41.896148 34.4467613,41.7794016 34.4905253,41.6621448 C34.9147039,40.5251751 35.3201904,39.3812516 35.7340979,38.240518 C36.0724073,37.308014 36.4168411,36.3778067 36.7551505,35.4454303 C37.1835397,34.264569 37.6059958,33.0816663 38.0354695,31.9012516 C38.4394886,30.7907572 38.8520564,29.6832612 39.2559479,28.5727668 C39.7428379,27.2341384 40.2179894,25.8912357 40.716873,24.5572006 C40.7799671,24.3885244 40.9281649,24.2141703 41.0840181,24.1235164 C42.9219767,23.0548721 44.7688666,22.0017939 46.6134599,20.9445052 C47.6263467,20.363963 48.6389782,19.7829103 49.6527582,19.2038354 C49.7067294,19.1729582 49.7700787,19.1584127 49.8139065,19.1419534"/>
    <path fill="#2B1DB8" d="M19.6430165 49.8909678C19.6464615 51.1617812 18.6041649 52.2142851 17.3330963 52.2234079 16.0560947 52.2325308 15.0146274 51.2014622 15.0001457 49.9139343 14.9858554 48.6409518 16.0245157 47.5926583 17.3047071 47.5881288 18.5899384 47.5836631 19.6395078 48.6172835 19.6430165 49.8909678M52.6432908 16.0000714C53.9223977 15.9901193 54.9622701 17.0215068 54.9685859 18.3064829 54.9749017 19.5927987 53.9502765 20.6254622 52.6633865 20.6298003 51.3727964 20.6341384 50.3372621 19.6072804 50.3362414 18.3220491 50.3351569 17.0341384 51.3526369 16.0101512 52.6432908 16.0000714"/>
  </g>
</svg>
