<svg xmlns="http://www.w3.org/2000/svg" width="69" height="69" viewBox="0 0 69 69">
  <g fill="#685DD8" fill-rule="evenodd">
    <circle cx="34.5" cy="34.5" r="34.5" fill-opacity=".13"/>
    <path d="M15.12001,37.94205 C14.99651,37.89835 14.87111,37.85275 14.74761,37.81095 C13.71591,37.46515 13.04141,36.50185 13.07181,35.41125 C13.10031,34.32635 13.82611,33.38015 14.88631,33.11985 C15.84771,32.88425 16.81671,32.67525 17.78951,32.49665 C18.44311,32.37695 19.04161,32.57455 19.58691,32.96215 C19.68571,33.03245 19.85861,33.09135 19.96311,33.05715 C22.27351,32.27435 24.55541,31.43075 26.74421,30.34015 C28.22241,29.60485 29.10781,28.38695 29.81461,26.97905 C29.85261,26.90305 29.81841,26.73965 29.75571,26.67125 C29.19711,26.07465 28.90071,25.37545 28.90071,24.55845 C28.89881,21.51655 28.89691,18.47275 28.91401,15.43085 C28.91971,14.49415 29.35481,13.73795 30.08631,13.16985 C30.29721,13.00455 30.35231,12.84875 30.29341,12.60745 C29.00901,7.18105 25.67831,3.74965 20.26521,2.39115 C19.46341,2.18975 18.61601,2.14415 17.78381,2.08715 C14.56711,1.87435 11.76651,2.97065 9.30221,4.95615 C6.82651,6.95305 5.31221,9.55795 4.70231,12.68535 C4.66431,12.87725 4.70421,12.97985 4.86571,13.09955 C5.70931,13.72465 6.12541,14.57775 6.12541,15.62655 C6.12731,18.55825 6.12731,21.48995 6.12541,24.42165 C6.12541,26.15635 4.85241,27.47685 3.12531,27.54145 C1.70221,27.59655 0.33231,26.48695 0.08151,25.08095 C0.06251,24.97455 0.02831,24.86815 -0.00019,24.76175 L-0.00019,15.26175 C0.02261,15.20095 0.05491,15.14205 0.06821,15.07935 C0.30191,13.85385 1.00301,13.01785 2.19811,12.66635 C2.58951,12.55045 2.79281,12.39275 2.80231,11.99375 C4.43251,4.20185 11.93561,-1.25305 20.22531,0.24985 C26.40601,1.37085 31.13131,6.12465 32.30551,12.27875 C32.34161,12.47065 32.43281,12.54855 32.62281,12.59605 C33.84831,12.89245 34.61401,13.66955 34.94461,14.87985 C34.98451,15.02995 35.02061,15.18005 35.05671,15.33015 L35.05671,24.83015 C35.03011,24.92325 34.99401,25.01635 34.97691,25.11135 C34.72041,26.58765 33.25741,27.75235 31.80201,27.60225 C31.53221,27.57375 31.40491,27.62885 31.29281,27.87205 C30.34281,29.88605 28.86651,31.33765 26.81451,32.25725 C24.85181,33.13505 22.85681,33.91975 20.82381,34.61705 C20.64521,34.67785 20.52551,34.72915 20.52171,34.97235 C20.50271,36.16365 19.71611,37.08895 18.55711,37.33785 C17.65461,37.53165 16.75401,37.74065 15.85531,37.94205 L15.12001,37.94205 Z" transform="translate(17 16)"/>
  </g>
</svg>
