<svg xmlns="http://www.w3.org/2000/svg" width="69" height="69" viewBox="0 0 69 69">
  <g fill="none" fill-rule="evenodd">
    <circle cx="34.5" cy="34.5" r="34.5" fill="#48D3A9" fill-opacity=".13"/>
    <g fill-rule="nonzero" transform="translate(17 17)">
      <path fill="#48D3A9" d="M24.6368124,0 C18.3777563,0 13.3172147,5.06054159 13.3172147,11.3195977 C13.3172147,12.6513191 13.583559,13.9830406 13.9830406,15.3147621 L0,29.2978723 L0,35.9564797 L6.65860735,35.9564797 L6.65860735,31.9613153 L10.6537718,31.9613153 L10.6537718,27.9661509 L14.6489362,27.9661509 L20.641648,21.9734391 C21.8402321,22.3729207 23.1719536,22.639265 24.6368124,22.639265 C30.8959381,22.639265 35.9564101,17.5787234 35.9564101,11.3196673 C35.9564101,5.06061122 30.8959381,0 24.6368124,0 Z"/>
      <path fill="#05B07C" d="M27.9661509,11.9854932 C25.7021896,11.9854932 23.9709865,10.2542901 23.9709865,7.99032882 C23.9709865,5.7263675 25.7021896,3.99516441 27.9661509,3.99516441 C30.2301122,3.99516441 31.9613153,5.7263675 31.9613153,7.99032882 C31.9613153,10.2542901 30.2301122,11.9854932 27.9661509,11.9854932 Z"/>
    </g>
  </g>
</svg>
