<svg xmlns="http://www.w3.org/2000/svg" width="69" height="69" viewBox="0 0 69 69">
  <g fill="none" fill-rule="evenodd">
    <circle cx="34.5" cy="34.5" r="34.5" fill="#48D3A9" fill-opacity=".13"/>
    <g transform="translate(19 14)">
      <path fill="#05B07C" d="M27.189238,38.548246 L4.69271814,38.548246 C3.79939324,38.548246 3.07504099,37.8241082 3.07504099,36.9305689 L3.07504099,3.71243483 C3.07504099,2.8188955 3.79939324,2.09475767 4.69271814,2.09475767 L27.189238,2.09475767 C28.0825629,2.09475767 28.8069151,2.8188955 28.8069151,3.71243483 L28.8069151,36.9305689 C28.8069151,37.8241082 28.0825629,38.548246 27.189238,38.548246" transform="rotate(10 15.941 20.322)"/>
      <path fill="#48D3A9" d="M1.61767715,38.4534884 C0.724352257,38.4534884 0,37.7293505 0,36.8358112 L0,3.61767715 C0,2.72413782 0.724352257,2 1.61767715,2 L24.114197,2 C25.0075219,2 25.7318741,2.72413782 25.7318741,3.61767715 L25.7318741,36.8358112 C25.7318741,37.7293505 25.0075219,38.4534884 24.114197,38.4534884 L1.61767715,38.4534884 Z"/>
      <g transform="translate(3.02 9.817)">
        <circle cx="10" cy="10" r="10" fill="#04B07C"/>
        <path fill="#A3F1D9" fill-rule="nonzero" d="M2.52283019,9.92886792 C1.85584906,9.92886792 1.23056604,9.67075472 0.762075472,9.20207547 C0.293584906,8.73339623 0.0352830189,8.10830189 0.0352830189,7.44132075 C0.0352830189,6.7745283 0.293396226,6.14924528 0.762075472,5.68075472 L5.91188679,0.530943396 C6.64867925,-0.205471698 7.79358491,-0.17245283 8.57490566,0.608867925 C9.35622642,1.39018868 9.38981132,2.53490566 8.65301887,3.27188679 L3.81509434,8.10981132 C3.3609434,8.56396226 2.62132075,8.56471698 2.16641509,8.10981132 C1.71188679,7.65509434 1.71207547,6.9154717 2.16641509,6.46113208 L5.44358491,3.18396226 C5.55415094,3.07339623 5.73320755,3.07339623 5.84377358,3.18396226 C5.95433962,3.2945283 5.95433962,3.47358491 5.84377358,3.58415094 L2.56660377,6.86132075 C2.33283019,7.09509434 2.33283019,7.47566038 2.56660377,7.70962264 C2.80075472,7.94339623 3.18113208,7.94301887 3.41490566,7.70962264 L8.25283019,2.87169811 C8.76132075,2.36301887 8.72792453,1.56226415 8.17471698,1.0090566 C7.62150943,0.455849057 6.82075472,0.42245283 6.31207547,0.931132075 L1.16226415,6.0809434 C0.800566038,6.44264151 0.601320755,6.92584906 0.601320755,7.44132075 C0.601320755,7.95698113 0.800566038,8.44018868 1.16226415,8.80188679 C1.52396226,9.16358491 2.00716981,9.36283019 2.52283019,9.36283019 C3.03830189,9.36283019 3.52150943,9.16358491 3.88320755,8.80188679 L9.03301887,3.65207547 C9.14358491,3.54150943 9.32264151,3.54150943 9.43320755,3.65207547 C9.54377358,3.76264151 9.54377358,3.94169811 9.43320755,4.05226415 L4.28339623,9.20207547 C3.81490566,9.67056604 3.18962264,9.92886792 2.52283019,9.92886792 Z" transform="translate(5 5)"/>
      </g>
    </g>
  </g>
</svg>
