<svg xmlns="http://www.w3.org/2000/svg" width="69" height="69" viewBox="0 0 69 69">
  <g fill="none" fill-rule="evenodd">
    <circle cx="34.5" cy="34.5" r="34.5" fill="#E7F9F4"/>
    <g transform="translate(11 19)">
      <path fill="#05B07C" d="M41.4545455 6.31688312C41.4545455 9.805824 38.6266032 12.6337662 35.1376623 12.6337662 31.6487215 12.6337662 28.8207792 9.805824 28.8207792 6.31688312 28.8207792 2.82794223 31.6487215 0 35.1376623 0 38.6266032 0 41.4545455 2.82794223 41.4545455 6.31688312M23.6883117 23.2935065C23.6883117 17.8420364 28.9913351 13.4233766 35.5324675 13.4233766 42.0736 13.4233766 47.3766234 17.8420364 47.3766234 23.2935065M17.7662338 6.31688312C17.7662338 9.805824 14.9382915 12.6337662 11.4493506 12.6337662 7.96040977 12.6337662 5.13246753 9.805824 5.13246753 6.31688312 5.13246753 2.82794223 7.96040977 0 11.4493506 0 14.9382915 0 17.7662338 2.82794223 17.7662338 6.31688312M0 23.2935065C0 17.8420364 5.30302338 13.4233766 11.8441558 13.4233766 18.3852883 13.4233766 23.6883117 17.8420364 23.6883117 23.2935065"/>
      <path fill="#48D3A9" d="M15.7922078,31.8465662 C15.7922078,28.2143584 19.3265039,25.2675325 23.6883117,25.2675325 C28.0501195,25.2675325 31.5844156,28.2143584 31.5844156,31.8465662"/>
      <path fill="#48D3A9" d="M28.9510333,20.7923998 C28.9510333,23.5553479 26.711389,25.7949922 23.9508413,25.7949922 C21.1902937,25.7949922 18.9506494,23.5553479 18.9506494,20.7923998 C18.9506494,18.0318521 21.1902937,15.7922078 23.9508413,15.7922078 C26.711389,15.7922078 28.9510333,18.0318521 28.9510333,20.7923998"/>
    </g>
  </g>
</svg>
