<svg xmlns="http://www.w3.org/2000/svg" width="69" height="69" viewBox="0 0 69 69">
  <g fill="none" fill-rule="evenodd">
    <circle cx="34.5" cy="34.5" r="34.5" fill="#FFBD57" fill-opacity=".13"/>
    <g transform="translate(19 17)">
      <path fill="#FFBD57" d="M29.5714286,11.5755707 L29.5714286,35.7325714 C29.5714286,35.8791429 29.4505714,36 29.304,36 L0.267428571,36 C0.120857143,36 0,35.8791429 0,35.7325714 L0,0.267428571 C0,0.120857143 0.120857143,0 0.267428571,0 L17.9792893,-1.2490009e-16 C17.9925501,8.14902187e-16 18.0052678,0.00526784202 18.0146447,0.0146446609 L29.5684996,11.5684996 C29.570375,11.570375 29.5714286,11.5729185 29.5714286,11.5755707 Z"/>
      <g fill="#FFF" transform="translate(2.571 5.143)">
        <path d="M0,8.71371429 C0,6.74228571 1.91828571,5.14285714 4.28571429,5.14285714 C6.65314286,5.14285714 8.57142857,6.74228571 8.57142857,8.71371429"/>
        <path d="M7.14212568,2.71391998 C7.14212568,4.21354644 5.92652926,5.42914286 4.4282057,5.42914286 C2.92988214,5.42914286 1.71428571,4.21354644 1.71428571,2.71391998 C1.71428571,1.21559642 2.92988214,0 4.4282057,0 C5.92652926,0 7.14212568,1.21559642 7.14212568,2.71391998"/>
      </g>
      <path fill="#FF9D07" d="M29.3996893,11.4007179 L18.0843268,0.0853553391 C18.0648006,0.0658291245 18.0331423,0.0658291245 18.0136161,0.0853553391 C18.0042393,0.094732158 17.9989714,0.107449854 17.9989714,0.120710678 L17.9989714,9.59914286 C17.9989714,10.6894286 18.8835429,11.5714286 19.9712571,11.5714286 L29.3289786,11.5714286 C29.3842071,11.5714286 29.4289786,11.526657 29.4289786,11.4714286 C29.4289786,11.4449069 29.418443,11.4194715 29.3996893,11.4007179 Z"/>
      <path fill="#FFF" d="M3.21428571,19.2857143 C2.85924552,19.2857143 2.57142857,18.9978973 2.57142857,18.6428571 C2.57142857,18.2878169 2.85924552,18 3.21428571,18 L23.7857143,18 C24.1407545,18 24.4285714,18.2878169 24.4285714,18.6428571 C24.4285714,18.9978973 24.1407545,19.2857143 23.7857143,19.2857143 L3.21428571,19.2857143 Z M3.21428571,25.7142857 C2.85924552,25.7142857 2.57142857,25.4264688 2.57142857,25.0714286 C2.57142857,24.7163884 2.85924552,24.4285714 3.21428571,24.4285714 L23.7857143,24.4285714 C24.1407545,24.4285714 24.4285714,24.7163884 24.4285714,25.0714286 C24.4285714,25.4264688 24.1407545,25.7142857 23.7857143,25.7142857 L3.21428571,25.7142857 Z M3.21428571,32.1428571 C2.85924552,32.1428571 2.57142857,31.8550402 2.57142857,31.5 C2.57142857,31.1449598 2.85924552,30.8571429 3.21428571,30.8571429 L19.9285714,30.8571429 C20.2836116,30.8571429 20.5714286,31.1449598 20.5714286,31.5 C20.5714286,31.8550402 20.2836116,32.1428571 19.9285714,32.1428571 L3.21428571,32.1428571 Z"/>
    </g>
  </g>
</svg>
