<svg xmlns="http://www.w3.org/2000/svg" width="69" height="69" viewBox="0 0 69 69">
  <g fill="none" fill-rule="evenodd">
    <circle cx="34.5" cy="34.5" r="34.5" fill="#58A6FF" fill-opacity=".13"/>
    <g transform="translate(12 16)">
      <path fill="#58A6FF" d="M21.3828125,7.8701 L6.1309375,20.44535 C6.1309375,20.459725 6.1251875,20.488475 6.1165625,20.522975 C6.1108125,20.56035 6.1050625,20.58335 6.1050625,20.603475 L6.1050625,33.333975 C6.1050625,33.79685 6.2718125,34.190725 6.6081875,34.5271 C6.9445625,34.863475 7.3413125,35.0331 7.8013125,35.0331 L17.9874375,35.0331 L17.9874375,24.846975 L24.7781875,24.846975 L24.7781875,35.0331 L34.9643125,35.0331 C35.4243125,35.0331 35.8210625,34.86635 36.1574375,34.5271 C36.4938125,34.1936 36.6605625,33.79685 36.6605625,33.333975 L36.6605625,20.603475 C36.6605625,20.5316 36.6548125,20.476975 36.6375625,20.44535 L21.3828125,7.8701 Z"/>
      <path fill="#125CAE" d="M42.4709375,17.578975 L36.6605625,12.75185 L36.6605625,1.927475 C36.6605625,1.680225 36.5829375,1.4761 36.4219375,1.317975 C36.2638125,1.15985 36.0625625,1.07935 35.8153125,1.07935 L30.7208125,1.07935 C30.4706875,1.07935 30.2694375,1.15985 30.1084375,1.317975 C29.9531875,1.4761 29.8698125,1.680225 29.8698125,1.927475 L29.8698125,7.0996 L23.3981875,1.68885 C22.8346875,1.22885 22.1619375,0.99885 21.3828125,0.99885 C20.6065625,0.99885 19.9338125,1.22885 19.3674375,1.68885 L0.2946875,17.578975 C0.1193125,17.71985 0.0186875,17.9096 0.0043125,18.148225 C-0.0129375,18.38685 0.0474375,18.596725 0.1883125,18.7721 L1.8328125,20.735725 C1.9736875,20.89385 2.1605625,20.9916 2.3905625,21.028975 C2.6033125,21.046225 2.8160625,20.982975 3.0259375,20.8421 L21.3828125,5.5356 L39.7396875,20.8421 C39.8805625,20.965725 40.0645625,21.0261 40.2945625,21.0261 L40.3750625,21.0261 C40.6050625,20.9916 40.7890625,20.89385 40.9328125,20.735725 L42.5773125,18.7721 C42.7181875,18.596725 42.7785625,18.38685 42.7641875,18.148225 C42.7440625,17.9096 42.6491875,17.71985 42.4709375,17.578975"/>
    </g>
  </g>
</svg>
