<svg xmlns="http://www.w3.org/2000/svg" width="69" height="69" viewBox="0 0 69 69">
  <g fill="none" fill-rule="evenodd">
    <circle cx="34.5" cy="34.5" r="34.5" fill="#685DD8" fill-opacity=".13"/>
    <g transform="translate(18 17)">
      <path fill="#2B1DB8" d="M32.0552682,35.6302326 L10.4222512,35.6302326 C9.5632155,35.6302326 8.86666667,34.9338899 8.86666667,34.0746481 L8.86666667,2.13155349 C8.86666667,1.27231163 9.5632155,0.575968992 10.4222512,0.575968992 L32.0552682,0.575968992 C32.9143039,0.575968992 33.6108527,1.27231163 33.6108527,2.13155349 L33.6108527,34.0746481 C33.6108527,34.9338899 32.9143039,35.6302326 32.0552682,35.6302326"/>
      <path fill="#4B3FC8" d="M30.2436609,35.6302326 L8.61064388,35.6302326 C7.75160822,35.6302326 7.05505938,34.9338899 7.05505938,34.0746481 L7.05505938,2.13155349 C7.05505938,1.27231163 7.75160822,0.575968992 8.61064388,0.575968992 L30.2436609,0.575968992 C31.1026966,0.575968992 31.7992454,1.27231163 31.7992454,2.13155349 L31.7992454,34.0746481 C31.7992454,34.9338899 31.1026966,35.6302326 30.2436609,35.6302326"/>
      <path fill="#685DD8" d="M28.2405602,35.6302326 L6.6075431,35.6302326 C5.74850744,35.6302326 5.0519586,34.9338899 5.0519586,34.0746481 L5.0519586,2.13155349 C5.0519586,1.27231163 5.74850744,0.575968992 6.6075431,0.575968992 L28.2405602,0.575968992 C29.0995958,0.575968992 29.7961447,1.27231163 29.7961447,2.13155349 L29.7961447,34.0746481 C29.7961447,34.9338899 29.0995958,35.6302326 28.2405602,35.6302326"/>
      <path stroke="#2B1DB8" stroke-linecap="round" stroke-linejoin="round" d="M8.96976744 8.20542636L2.16511628 8.20542636C.969353488 8.20542636 0 9.17477984 0 10.3705426 0 11.5663054.969353488 12.5356589 2.16511628 12.5356589L4.84573643 12.5356589M8.96976744 15.6286822L2.16511628 15.6286822C.969353488 15.6286822 0 16.5980357 0 17.7937984 0 18.9895612.969353488 19.9589147 2.16511628 19.9589147L4.84573643 19.9589147M8.96976744 23.4643411L2.16511628 23.4643411C.969353488 23.4643411 0 24.4336946 0 25.6294574 0 26.8252202.969353488 27.7945736 2.16511628 27.7945736L4.84573643 27.7945736"/>
      <path fill="#FFF" d="M11.6375 3.8C11.6375 5.898816 9.936316 7.6 7.8375 7.6 5.738684 7.6 4.0375 5.898816 4.0375 3.8 4.0375 1.701184 5.738684 0 7.8375 0 9.936316 0 11.6375 1.701184 11.6375 3.8M.95 14.0125C.95 10.7331 4.1401 8.075 8.075 8.075 12.0099 8.075 15.2 10.7331 15.2 14.0125" transform="translate(10.133 9.133)"/>
    </g>
  </g>
</svg>
