<svg xmlns="http://www.w3.org/2000/svg" width="69" height="69" viewBox="0 0 69 69">
  <g fill="none" fill-rule="evenodd">
    <circle cx="34.5" cy="34.5" r="34.5" fill="#48D3A9" fill-opacity=".13"/>
    <g transform="translate(12 17)">
      <path fill="#48D3A9" d="M27.0681,11.8974 C26.6931,10.6254 26.3811,9.4914 26.0211,8.3754 C25.8171,7.7424 25.8621,7.3884 26.6211,7.1694 C29.9901,6.2004 33.3411,5.1774 36.6921,4.1514 C37.3491,3.9534 37.6881,4.0794 37.8951,4.7934 C39.0051,8.6184 40.1481,12.4374 41.3151,16.2474 C41.5221,16.9194 41.4081,17.2554 40.7031,17.4594 C37.3401,18.4374 33.9771,19.4334 30.6291,20.4654 C29.9181,20.6874 29.6241,20.5224 29.4531,19.8264 C29.2431,18.9654 28.9011,18.1404 28.7031,17.2794 C28.5111,16.4694 28.1541,16.3284 27.3651,16.5684 C20.9721,18.5064 14.5701,20.4024 8.1681,22.3074 C6.4731,22.8144 4.7781,23.3304 3.0711,23.8014 C1.6971,24.1824 0.5031,23.5854 0.1251,22.3854 C-0.2829,21.1014 0.3351,19.9194 1.7841,19.4784 C7.4661,17.7444 13.1601,16.0524 18.8511,14.3454 C21.5301,13.5444 24.2151,12.7464 27.0681,11.8974"/>
      <path fill="#05B07C" stroke="#062954" stroke-width=".2" d="M25.0407,31.9848 C25.4247,30.0138 25.5357,29.9238 27.5337,29.9208 C31.7397,29.9178 35.9487,29.9208 40.1517,29.9208 C42.1287,29.9238 42.2397,30.0138 42.6237,31.9398 C42.7137,31.9758 42.8097,32.0418 42.9087,32.0478 C43.6887,32.1018 44.5107,32.2488 44.4957,33.2028 C44.4807,34.2108 43.6377,34.3698 42.8127,34.3698 C36.7977,34.3728 30.7827,34.3698 24.7677,34.3668 C23.9637,34.3668 23.2047,34.1568 23.1927,33.2148 C23.1807,32.3388 23.8857,32.0928 24.6597,32.0598 C24.7677,32.0568 24.8727,32.0208 25.0407,31.9848"/>
      <path fill="#48D3A9" d="M30.5895 22.3551C33.6375 21.4401 36.6315 20.5431 39.6225 19.6461 39.8685 19.5741 40.1115 19.4571 40.3635 19.4331 41.0085 19.3701 41.8065 18.4791 42.1785 19.8651 42.6075 21.4521 42.4995 21.8751 41.0985 22.3071 38.6025 23.0811 36.0945 23.8191 33.5895 24.5631 31.3875 25.2171 30.9135 24.8901 30.5895 22.3551M35.2449-1.77635684e-15C36.3849.024 36.5139.918 36.7149 1.683 36.9279 2.499 36.1689 2.433 35.7369 2.565 32.7069 3.495 29.6709 4.395 26.6319 5.301 26.0439 5.478 25.4319 5.811 25.1799 4.818 24.9579 3.966 24.8109 3.177 25.8519 2.805 26.7879 2.466 27.7479 2.202 28.6989 1.914 30.6039 1.341 32.5119.774 34.4199.207 34.6989.126 34.9899.063 35.2449-1.77635684e-15"/>
    </g>
  </g>
</svg>
