<svg xmlns="http://www.w3.org/2000/svg" width="69" height="69" viewBox="0 0 69 69">
  <g fill="#FF9257" fill-rule="evenodd">
    <circle cx="34.5" cy="34.5" r="34.5" fill-opacity=".13"/>
    <g fill-rule="nonzero" transform="translate(17 17)">
      <path d="M4.73560855,6.42853619 C4.84802632,6.45674341 4.95090461,6.51504935 5.03289474,6.59695724 L14.192352,15.7565789 L15.8497533,14.0993421 L6.69013158,4.9397204 C6.60797697,4.85764802 6.54991777,4.7544408 6.52154606,4.64169408 L5.94506579,2.34366777 L2.12351975,0.158881579 L0.252138147,2.03018093 L2.43758223,5.85435855 L4.73560855,6.42853619 Z"/>
      <path d="M12.8805099 27.321875L27.4151316 12.7870066C27.5743421 12.6276316 27.8053454 12.5637336 28.0237664 12.6180921 29.9374178 13.1085526 31.9700658 12.6835526 33.5275493 11.4684211 35.0852796 10.2532072 35.9913651 8.38445724 35.9809211 6.40904606 35.9809211 6.28873356 35.9773849 6.16751644 35.9695724 6.04523027L32.5889803 9.42541118C32.4176809 9.59687499 32.1636513 9.65699013 31.9333882 9.58018093L28.0884046 8.29835526C27.8969572 8.23495065 27.7467928 8.08478619 27.6828947 7.89350328L26.401398 4.04843749C26.3245066 3.81850328 26.3844572 3.56439145 26.5561678 3.39276316L29.9366776.0123355368C27.9009868-.114309221 25.9273849.740953937 24.6271381 2.31233554 23.3270559 3.88404606 22.8572368 5.98289474 23.3629112 7.95863486 23.4176809 8.17738486 23.3538651 8.40830592 23.1944901 8.56759869L8.66011514 23.1014803C8.50065789 23.2596217 8.26990131 23.3237664 8.05131579 23.2702303 7.54531251 23.140296 7.02491777 23.0729441 6.5022204 23.0708882 3.74226973 23.0527138 1.27623356 24.7925987.367516442 27.3992599-.540707242 30.0056743.309868421 32.9014803 2.48355263 34.6026316 4.65723684 36.3037829 7.67253288 36.4338816 9.98437499 34.9256579 12.2963816 33.4175164 13.3925987 30.6056743 12.7112664 27.9305099 12.6570724 27.7121711 12.7211349 27.4808388 12.8805099 27.321875zM8.06208882 32.0427632L4.94284539 32.0427632 3.4044408 29.479523 4.94284539 26.9158717 8.06208882 26.9158717 9.60016446 29.479523 8.06208882 32.0427632zM10.5352796 24.5403783L24.6336349 10.4418585 25.5396381 11.3480263 11.4412829 25.4465461 10.5352796 24.5403783zM30.7263158 35.6393092C32.1537007 36.1759868 33.7629934 35.8279605 34.8413651 34.7496711 35.9198191 33.6710526 36.2679276 32.0615132 35.7310033 30.6344572L30.7263158 35.6393092z"/>
      <path d="M34.8414474,29.2462993 L27.6438322,22.0458059 C26.8499178,22.7131579 25.6775493,22.6624178 24.94375,21.929523 C24.2098684,21.1967928 24.1581415,20.0247533 24.8243421,19.2300164 L23.8050164,18.2094572 L18.302796,23.7119243 L19.3282895,24.7373355 C20.122204,24.0699836 21.2947368,24.1205592 22.028125,24.8532072 C22.7619243,25.586102 22.8139803,26.7583059 22.1476974,27.553125 L29.339227,34.7484375 C29.4176809,34.8268915 29.5004934,34.8995888 29.5841283,34.9703125 L35.0634868,29.4909539 C34.9929276,29.4071546 34.9199013,29.3246711 34.8414474,29.2462993 Z M31.0419408,31.854852 L24.6336349,25.4465461 L25.5396381,24.5403783 L31.9481085,30.9490132 L31.0419408,31.854852 Z"/>
    </g>
  </g>
</svg>
