<svg xmlns="http://www.w3.org/2000/svg" width="69" height="69" viewBox="0 0 69 69">
  <g fill="none" fill-rule="evenodd">
    <circle cx="34.5" cy="34.5" r="34.5" fill="#58A6FF" fill-opacity=".127"/>
    <g transform="translate(13 16)">
      <path fill="#58A6FF" d="M27.3734976 9.59134615C27.3734976 14.8888385 23.0796437 19.1826923 17.7821514 19.1826923 12.4846591 19.1826923 8.19080529 14.8888385 8.19080529 9.59134615 8.19080529 4.29385385 12.4846591 0 17.7821514 0 23.0796437 0 27.3734976 4.29385385 27.3734976 9.59134615M32.2446298 25.8209286C30.6604191 27.2685419 29.6666667 29.3515526 29.6666667 31.6666667 29.6666667 33.0038005 29.9981664 34.2635084 30.5834644 35.3680889L.397836538 35.3680889C.397836538 27.0907572 8.44977163 20.3816106 18.3816106 20.3816106 23.960355 20.3816106 28.9459703 22.4984157 32.2446298 25.8209286z"/>
      <path fill="#125CAE" fill-rule="nonzero" d="M1.29823151,7.16017104 C1.40217488,7.51654832 1.54642283,7.86019784 1.72885406,8.18263442 L1.20913719,8.83811406 C1.03943373,9.05236468 1.05852537,9.35783092 1.24944176,9.55086861 L2.14462755,10.4460544 C2.33766524,10.6390921 2.64313148,10.6560412 2.8573821,10.4863378 L3.50861915,9.97086348 C3.84378349,10.1639224 4.20016077,10.314513 4.5713871,10.4205777 L4.6689666,11.2584885 C4.70078599,11.5300141 4.92988567,11.7336582 5.20141122,11.7336582 L6.46782333,11.7336582 C6.73934887,11.7336582 6.96844855,11.5299929 7.00026795,11.2584885 L7.09360486,10.4502758 C7.492408,10.3463324 7.8742408,10.191478 8.23273937,9.98995512 L8.86276349,10.488459 C9.07701411,10.6581625 9.38248035,10.6390709 9.57551804,10.4481545 L10.4707038,9.55296869 C10.6637415,9.359931 10.6807119,9.05446476 10.5110084,8.84021414 L10.0209896,8.2186752 C10.2246338,7.86651929 10.3837308,7.49107159 10.4897955,7.09863232 L11.2449759,7.0116593 C11.5165226,6.9798399 11.7201456,6.75074022 11.7201456,6.47921467 L11.7201456,5.21280256 C11.7201456,4.94127702 11.5165014,4.71217734 11.2449759,4.68035794 L10.5004019,4.59338491 C10.3985586,4.20518824 10.2458467,3.83396191 10.050709,3.4860698 L10.5089083,2.90695673 C10.6786118,2.6927061 10.6595201,2.38723986 10.4686037,2.19420217 L9.57553926,1.30113768 C9.38250156,1.10809999 9.07703533,1.09112964 8.8627847,1.26083311 L8.30064197,1.70630471 C7.93577952,1.49205408 7.54544034,1.3287145 7.13605194,1.21840724 L7.05120021,0.490803635 C7.01938081,0.21927809 6.79028113,0.0156339318 6.51875558,0.0156339318 L5.25234347,0.0156339318 C4.98081793,0.0156339318 4.75171825,0.21927809 4.71989885,0.490803635 L4.63504712,1.21840724 C4.21503104,1.33083579 3.8141066,1.50053926 3.44075898,1.72327505 L2.85740331,1.26083311 C2.64315269,1.09112964 2.33768645,1.11022128 2.14464876,1.30113768 L1.24946298,2.19632346 C1.05642529,2.38936116 1.03945494,2.69482739 1.2091584,2.90907802 L1.69705587,3.52637437 C1.50189688,3.87850907 1.35340635,4.25397798 1.25582686,4.64429595 L0.475190916,4.73339027 C0.203665372,4.76520967 2.12129332e-05,4.99430935 2.12129332e-05,5.2658349 L2.12129332e-05,6.53224701 C2.12129332e-05,6.80377255 0.203665372,7.03287223 0.475190916,7.06469163 L1.29823151,7.16017104 Z M5.88658896,3.73428233 C7.04057253,3.73428233 7.98030547,4.67401527 7.98030547,5.82799884 C7.98030547,6.9819824 7.04057253,7.92171534 5.88658896,7.92171534 C4.73262661,7.92171534 3.79287245,6.9819824 3.79287245,5.82799884 C3.79287245,4.67401527 4.73260539,3.73428233 5.88658896,3.73428233 Z" transform="translate(31.646 25.73)"/>
    </g>
  </g>
</svg>
