<svg xmlns="http://www.w3.org/2000/svg" width="69" height="69" viewBox="0 0 69 69">
  <g fill="none" fill-rule="evenodd">
    <circle cx="34.5" cy="34.5" r="34.5" fill="#FFD957" fill-opacity=".13"/>
    <g transform="translate(20 17)">
      <path fill="#FFD957" d="M4.5,30.9375 L20.25,30.9375 C22.73175,30.9375 24.75,28.91925 24.75,26.4375 L24.75,4.5 L9,4.5 C6.51825,4.5 4.5,6.51825 4.5,9 L4.5,30.9375 Z M20.25,35.4375 L0,35.4375 L0,9 C0,4.0365 4.0365,0 9,0 L29.25,0 L29.25,26.4375 C29.25,31.401 25.2135,35.4375 20.25,35.4375 L20.25,35.4375 Z"/>
      <path fill="#FFD957" d="M19.2621038,10.3527 L19.2621038,17.7192 L27.000225,17.7192 L27.000225,1.9692 L9.42856165,1.9692 C5.78903087,1.9692 2.83918789,4.99095 2.83918789,8.7192 L2.83918789,17.7192 L9.46370497,17.7192 L9.46370497,11.60145 L5.81758483,15.34095 C5.61770716,15.5412 5.29263138,15.5412 5.09714663,15.34095 C4.8950725,15.13395 4.8950725,14.80995 5.09714663,14.6052 L9.61306411,9.97695 C9.80854887,9.77895 10.1314282,9.77895 10.3269129,9.97695 L14.8428304,14.6052 C15.0449045,14.80995 15.0449045,15.13395 14.8428304,15.34095 C14.6473457,15.5412 14.3222699,15.5412 14.1311781,15.34095 L10.4762721,11.60145 L10.4762721,17.7192 L18.2495366,17.7192 L18.2495366,10.3527 C18.2495366,10.0647 18.4713789,9.82845 18.7525255,9.82845"/>
      <path fill="#FFC707" d="M9.46260674 23.9436C9.46260674 24.2316 9.69103837 24.46785 9.97218498 24.46785 10.2533316 24.46785 10.4773703 24.2316 10.4773703 23.9436L10.4773703 17.71785 9.46260674 17.71785 9.46260674 23.9436zM18.2484384 17.71875L18.2484384 22.69575 14.5957289 18.95625C14.4024406 18.756 14.0795613 18.756 13.8840765 18.95625 13.6820024 19.16325 13.6820024 19.485 13.8840765 19.692L18.3977976 24.32025C18.5932823 24.51825 18.9183581 24.51825 19.1138428 24.32025L23.6275639 19.692C23.829638 19.485 23.829638 19.16325 23.6275639 18.95625 23.4342756 18.756 23.1091998 18.756 22.9071257 18.95625L19.263202 22.69575 19.263202 17.71875 18.2484384 17.71875z"/>
    </g>
  </g>
</svg>
