<svg xmlns="http://www.w3.org/2000/svg" width="69" height="69" viewBox="0 0 69 69">
  <g fill="none" fill-rule="evenodd">
    <circle cx="34.5" cy="34.5" r="34.5" fill="#FFBD57" fill-opacity=".13"/>
    <g transform="translate(15 16)">
      <path fill="#FFBD57" d="M27.6666667,36 L1.66666667,36 C0.930666667,36 0.333333333,35.4026667 0.333333333,34.6666667 L0.333333333,5.33333333 C0.333333333,4.59733333 0.930666667,4 1.66666667,4 L27.6666667,4 C28.4026667,4 29,4.59733333 29,5.33333333 L29,34.6666667 C29,35.4026667 28.4026667,36 27.6666667,36 Z"/>
      <path fill="#FF9D07" d="M27.6666667,11 L1.66666667,11 C0.930666667,11 0.333333333,10.4026667 0.333333333,9.66666667 L0.333333333,5 C0.333333333,4.264 0.930666667,3.66666667 1.66666667,3.66666667 L27.6666667,3.66666667 C28.4026667,3.66666667 29,4.264 29,5 L29,9.66666667 C29,10.4026667 28.4026667,11 27.6666667,11 Z"/>
      <path fill="#FFCB7A" d="M20,7 L20,7 C19.264,7 18.6666667,6.40266667 18.6666667,5.66666667 L18.6666667,1.66666667 C18.6666667,0.930666667 19.264,0.333333333 20,0.333333333 C20.736,0.333333333 21.3333333,0.930666667 21.3333333,1.66666667 L21.3333333,5.66666667 C21.3333333,6.40266667 20.736,7 20,7 Z"/>
      <path fill="#EAA130" d="M14,26 L14,26 C13.264,26 12.6666667,25.4026667 12.6666667,24.6666667 L12.6666667,17 C12.6666667,16.264 13.264,15.6666667 14,15.6666667 C14.736,15.6666667 15.3333333,16.264 15.3333333,17 L15.3333333,24.6666667 C15.3333333,25.4026667 14.736,26 14,26 Z"/>
      <path fill="#EAA130" d="M19.1666667,20.8333333 L19.1666667,20.8333333 C19.1666667,21.5693333 18.5693333,22.1666667 17.8333333,22.1666667 L10.1666667,22.1666667 C9.43066667,22.1666667 8.83333333,21.5693333 8.83333333,20.8333333 C8.83333333,20.0973333 9.43066667,19.5 10.1666667,19.5 L17.8333333,19.5 C18.5693333,19.5 19.1666667,20.0973333 19.1666667,20.8333333 Z"/>
      <path fill="#FFCB7A" d="M8.66666667,7 L8.66666667,7 C7.93066667,7 7.33333333,6.40266667 7.33333333,5.66666667 L7.33333333,1.66666667 C7.33333333,0.930666667 7.93066667,0.333333333 8.66666667,0.333333333 C9.40266667,0.333333333 10,0.930666667 10,1.66666667 L10,5.66666667 C10,6.40266667 9.40266667,7 8.66666667,7 Z"/>
      <path stroke="#FF9D07" d="M36.3333333,37 L29,37 C27.8953333,37 27,36.1046667 27,35 C27,33.8953333 27.8953333,33 29,33 L36.3333333,33 C37.438,33 38.3333333,33.8953333 38.3333333,35 C38.3333333,36.1046667 37.438,37 36.3333333,37 Z"/>
      <path fill="#FF9D07" d="M32.612,37 L29,37 C27.8953333,37 27,36.1046667 27,35 C27,33.8953333 27.8953333,33 29,33 L32.6853333,33"/>
    </g>
  </g>
</svg>
