<svg xmlns="http://www.w3.org/2000/svg" xmlns:xlink="http://www.w3.org/1999/xlink" width="69" height="69" viewBox="0 0 69 69">
  <defs>
    <polygon id="referal-events-a" points=".547 33.833 36.014 33.833 36.014 .9 .547 .9"/>
    <path id="referal-events-c" d="M0.47,11.5494667 L12.0549333,11.5494667 C12.0549333,8.8844 9.46333333,6.72093333 6.26373333,6.72093333 L6.26373333,6.72093333 C3.06413333,6.72093333 0.47,8.8844 0.47,11.5494667 L0.47,11.5494667 Z"/>
  </defs>
  <g fill="none" fill-rule="evenodd">
    <circle cx="34.5" cy="34.5" r="34.5" fill="#685DD8" fill-opacity=".1"/>
    <g transform="translate(16 16)">
      <path fill="#2B1DB8" d="M8.78002667,0.633333333 C8.78002667,0.283552992 9.06357966,0 9.41336,0 C9.76314034,0 10.0466933,0.283552992 10.0466933,0.633333333 L10.0466933,8.23333333 C10.0466933,8.58311367 9.76314034,8.86666667 9.41336,8.86666667 C9.06357966,8.86666667 8.78002667,8.58311367 8.78002667,8.23333333 L8.78002667,0.633333333 Z M26.51336,0.633333333 C26.51336,0.283552992 26.796913,0 27.1466933,0 C27.4964737,0 27.7800267,0.283552992 27.7800267,0.633333333 L27.7800267,8.23333333 C27.7800267,8.58311367 27.4964737,8.86666667 27.1466933,8.86666667 C26.796913,8.86666667 26.51336,8.58311367 26.51336,8.23333333 L26.51336,0.633333333 Z"/>
      <g transform="translate(0 3.533)">
        <mask id="referal-events-b" fill="#fff">
          <use xlink:href="#referal-events-a"/>
        </mask>
        <use fill="#685DD8" xlink:href="#referal-events-a"/>
        <path fill="#2B1DB8" d="M36.01336,9.13333333 L0.546693333,9.13333333 C0.196912992,9.13333333 -0.08664,9.41688633 -0.08664,9.76666667 C-0.08664,10.116447 0.196912992,10.4 0.546693333,10.4 L36.01336,10.4 C36.3631403,10.4 36.6466933,10.116447 36.6466933,9.76666667 C36.6466933,9.41688633 36.3631403,9.13333333 36.01336,9.13333333 Z" mask="url(#referal-events-b)"/>
      </g>
      <path fill="#FFF" d="M2.54093333 3.23826667C2.54093333 4.94573333 3.92413333 6.32893333 5.62906667 6.32893333L5.62906667 6.32893333C7.33653333 6.32893333 8.72226667 4.94573333 8.72226667 3.23826667L8.72226667 3.23826667C8.72226667 1.53586667 7.33653333.150133333 5.62906667.150133333L5.62906667.150133333C3.92413333.150133333 2.54093333 1.53586667 2.54093333 3.23826667L2.54093333 3.23826667zM.0329333333 11.5425333L11.6153333 11.5425333C11.6153333 8.87746667 9.0212 6.71653333 5.82413333 6.71653333L5.82413333 6.71653333C2.62453333 6.71653333.0329333333 8.87746667.0329333333 11.5425333L.0329333333 11.5425333z" transform="translate(12.667 23.529)"/>
      <g transform="translate(22.267 17.462)">
        <path fill="#FFF" d="M2.98053333,3.2452 C2.98053333,4.95266667 4.36626667,6.33333333 6.0712,6.33333333 L6.0712,6.33333333 C7.77613333,6.33333333 9.15933333,4.95266667 9.15933333,3.2452 L9.15933333,3.2452 C9.15933333,1.54026667 7.77613333,0.154533333 6.0712,0.154533333 L6.0712,0.154533333 C4.36626667,0.154533333 2.98053333,1.54026667 2.98053333,3.2452 L2.98053333,3.2452 Z"/>
        <use fill="#FFF" xlink:href="#referal-events-c"/>
      </g>
      <path fill="#B5AFF3" d="M30.2094933,31.8001733 L31.4204267,31.8001733 C30.6680267,31.0781733 29.9764267,30.4169733 29.25696,29.7279067 C28.5476267,30.4017733 27.8484267,31.06804 27.0884267,31.7925733 L28.34496,31.7925733 C28.36016,33.1251067 27.9396267,34.22964 26.9110933,35.0707067 C28.7072267,34.6907067 29.87256,33.6697733 30.2094933,31.8001733"/>
      <path fill="#FFF" d="M3.01973333 3.50746667C3.01973333 5.21493333 4.40293333 6.5956 6.1104 6.5956L6.1104 6.5956C7.81533333 6.5956 9.19853333 5.21493333 9.19853333 3.50746667L9.19853333 3.50746667C9.19853333 1.80253333 7.81533333.4168 6.1104.4168L6.1104.4168C4.40293333.4168 3.01973333 1.80253333 3.01973333 3.50746667L3.01973333 3.50746667zM.124133333 11.8117333L11.7090667 11.8117333C11.7090667 9.14666667 9.11746667 6.9832 5.91533333 6.9832L5.91533333 6.9832C2.71573333 6.9832.124133333 9.14666667.124133333 11.8117333L.124133333 11.8117333z" transform="translate(2.533 17.2)"/>
      <path fill="#B5AFF3" d="M6.77109333,31.8001733 L5.56016,31.8001733 C6.31256,31.0781733 7.00416,30.4169733 7.72362667,29.7279067 C8.43296,30.4017733 9.13216,31.06804 9.89216,31.7925733 L8.63562667,31.7925733 C8.62042667,33.1251067 9.04096,34.22964 10.0694933,35.0707067 C8.27336,34.6907067 7.10802667,33.6697733 6.77109333,31.8001733"/>
    </g>
  </g>
</svg>
