<svg xmlns="http://www.w3.org/2000/svg" width="69" height="69" viewBox="0 0 69 69">
  <g fill="none" fill-rule="evenodd">
    <circle cx="34.5" cy="34.5" r="34.5" fill="#FF7757" fill-opacity=".13"/>
    <path fill="#FF3607" d="M28.8604039,12.0288132 C28.8220039,13.8816132 28.8676039,15.7416132 28.7332039,17.5896132 C28.4572039,21.3504132 27.1300039,24.7560132 24.9268039,27.8112132 C22.6540039,30.9648132 19.7452039,33.3288132 16.0516039,34.6296132 C14.1244039,35.3088132 14.7076039,35.3280132 12.7588039,34.6200132 C8.03560393,32.9016132 4.66360393,29.6328132 2.32600393,25.2432132 C1.18120393,23.0904132 0.444403925,20.7912132 0.173203925,18.3696132 C0.0268039251,17.0688132 0.0220039251,15.7464132 0.0100039251,14.4336132 C-0.0115960749,11.8752132 0.0100039251,9.31441323 0.000403925129,6.75601323 C-0.00199607487,6.42001323 0.120403925,6.24961323 0.418003925,6.12001323 C4.97560393,4.10161323 9.52600393,2.07361323 14.0860039,0.0624132334 C14.2708039,-0.0191867666 14.5564039,-0.0215867666 14.7412039,0.0600132334 C19.2148039,2.03281323 23.6788039,4.02721323 28.1500039,6.00241323 C28.6372039,6.21601323 28.8364039,6.53281323 28.8292039,7.06081323 C28.8100039,8.71681323 28.8220039,10.3728132 28.8220039,12.0288132 C28.8340039,12.0288132 28.8460039,12.0288132 28.8604039,12.0288132 Z M23.1514719,11.1514719 L13.2,21.1029437 L8.04852814,15.9514719 L6.35147186,17.6485281 L13.2,24.4970563 L24.8485281,12.8485281 L23.1514719,11.1514719 Z" transform="translate(19 17)"/>
  </g>
</svg>
