<svg xmlns="http://www.w3.org/2000/svg" width="69" height="69" viewBox="0 0 69 69">
  <g fill="none" fill-rule="evenodd">
    <circle cx="34.5" cy="34.5" r="34.5" fill="#48D3A9" fill-opacity=".13"/>
    <g transform="translate(19 14)">
      <path fill="#05B07C" d="M27.189238,38.548246 L4.69271814,38.548246 C3.79939324,38.548246 3.07504099,37.8241082 3.07504099,36.9305689 L3.07504099,3.71243483 C3.07504099,2.8188955 3.79939324,2.09475767 4.69271814,2.09475767 L27.189238,2.09475767 C28.0825629,2.09475767 28.8069151,2.8188955 28.8069151,3.71243483 L28.8069151,36.9305689 C28.8069151,37.8241082 28.0825629,38.548246 27.189238,38.548246" transform="rotate(10 15.941 20.322)"/>
      <path fill="#48D3A9" d="M24.5547842,38.548246 L2.05826436,38.548246 C1.16493946,38.548246 0.440587204,37.8241082 0.440587204,36.9305689 L0.440587204,3.71243483 C0.440587204,2.8188955 1.16493946,2.09475767 2.05826436,2.09475767 L24.5547842,2.09475767 C25.4481091,2.09475767 26.1724613,2.8188955 26.1724613,3.71243483 L26.1724613,36.9305689 C26.1724613,37.8241082 25.4481091,38.548246 24.5547842,38.548246"/>
      <g transform="translate(2.02 11.817)">
        <path fill="#FFF" d="M8.57226563 2.79910714C8.57226563 4.34511 7.31916134 5.59821429 5.77315848 5.59821429 4.22715563 5.59821429 2.97405134 4.34511 2.97405134 2.79910714 2.97405134 1.25310429 4.22715563 0 5.77315848 0 7.31916134 0 8.57226563 1.25310429 8.57226563 2.79910714M.699776786 10.3217076C.699776786 7.90607812 3.04962723 5.94810268 5.94810268 5.94810268 8.84657813 5.94810268 11.1964286 7.90607812 11.1964286 10.3217076" transform="translate(4.199 2.8)"/>
        <g stroke="#05B07C" stroke-linecap="round" stroke-linejoin="round" transform="translate(.626 .494)">
          <polyline points="10.058 .104 2.8 .104 2.8 4.873"/>
          <polyline points=".104 2.177 2.8 4.873 5.599 2.074"/>
          <g transform="rotate(180 10.726 7.903)">
            <polyline points="10.058 .104 2.8 .104 2.8 4.873"/>
            <polyline points=".104 2.177 2.8 4.873 5.599 2.074"/>
          </g>
        </g>
      </g>
    </g>
  </g>
</svg>
