<svg xmlns="http://www.w3.org/2000/svg" width="69" height="69" viewBox="0 0 69 69">
  <g fill="none" fill-rule="evenodd">
    <circle cx="34.5" cy="34.5" r="34.5" fill="#58A6FF" fill-opacity=".13"/>
    <g transform="translate(15 16.118)">
      <path fill="#58A6FF" d="M19.3242994,31.8225116 C23.2583321,31.8225116 27.1923649,31.8141312 31.1263977,31.8268788 C32.56026,31.8316001 32.7649289,31.539823 32.1129157,30.2615279 C28.2085092,22.6073378 24.2999715,14.9551542 20.392142,7.30261647 C20.2581748,7.04022959 20.1024895,6.79554762 19.8960502,6.57742303 C19.6226862,6.28883287 19.373401,6.29945582 19.0789092,6.54106893 C18.7639977,6.7994427 18.5867125,7.14634106 18.4044698,7.49323942 C14.4254666,15.0675214 10.4494141,22.6431017 6.46604362,30.2151411 C5.80399772,31.4738427 5.99615509,31.8219214 7.40428624,31.8221575 C11.3776239,31.8228657 15.3509617,31.8223935 19.3242994,31.8225116 L19.3242994,31.8225116 Z M38.7087059,33.9819214 C38.2106076,35.4554427 37.049283,35.7893575 35.66346,35.791482 C29.647919,35.8004525 23.63226,35.8352722 17.616601,35.8369247 C12.7220174,35.838105 7.82755181,35.8061181 2.93285017,35.7867607 C2.36180755,35.7845181 1.79442395,35.7448591 1.26174198,35.5089116 C0.270148536,35.0699476 -0.173182612,34.1728984 0.0617026339,33.1041116 C0.154830503,32.6806099 0.29068624,32.2743411 0.498305913,31.8936853 C5.97066001,21.8560591 11.4414797,11.8177247 16.9176108,1.78222303 C18.1985026,-0.564976971 20.3353682,-0.610655659 21.673742,1.7457509 C23.5300436,5.0141968 25.2934535,8.33540336 27.0943977,11.635246 C30.7705289,18.3712591 34.4425289,25.1096329 38.1252698,31.841987 C38.3955649,32.3360722 38.4772436,32.8895279 38.7087059,33.3917575 L38.7087059,33.9819214 Z"/>
      <path fill="#125CAE" d="M17.5527689 18.8723319C17.5527689 17.5750335 17.5240869 16.2767909 17.5631557 14.9805548 17.5875885 14.1699057 18.1244017 13.530404 18.8647033 13.357604 19.6319164 13.1785483 20.2990377 13.375663 20.8128344 14.0082007 21.0333197 14.2795581 21.1499361 14.5905745 21.1593787 14.9282663 21.2331492 17.5611057 21.2482574 20.1953614 21.1527689 22.8269024 21.1198377 23.7344565 20.4858836 24.3245024 19.6490312 24.4653155 18.8612803 24.5977483 18.1370312 24.2299581 17.7374902 23.4993352 17.5404935 23.1389811 17.5341197 22.7451057 17.5324672 22.3526466 17.5277459 21.1925024 17.5308148 20.0324761 17.5308148 18.8723319L17.5527689 18.8723319zM19.5337367 25.1292263C20.5085695 25.1343017 21.3143794 25.9585247 21.3119007 26.9483476 21.309658 27.9126755 20.4483728 28.7685312 19.4959662 28.753187 18.5327007 28.7376066 17.7141433 27.8882427 17.7194548 26.9098689 17.7248843 25.9376329 18.5534744 25.1241509 19.5337367 25.1292263"/>
    </g>
  </g>
</svg>
