<svg xmlns="http://www.w3.org/2000/svg" width="69" height="69" viewBox="0 0 69 69">
  <g fill="none" fill-rule="evenodd">
    <circle cx="34.5" cy="34.5" r="34.5" fill="#FF9257" fill-opacity=".13"/>
    <g transform="translate(15 16)">
      <path fill="#FF9257" d="M19.3243279,31.9405456 C23.2583607,31.9405456 27.1923934,31.9321652 31.1264262,31.9449128 C32.5602885,31.9496341 32.7649574,31.657857 32.1129443,30.379562 C28.2085377,22.7253718 24.3,15.0731882 20.3921705,7.42065049 C20.2582033,7.15826361 20.102518,6.91358164 19.8960787,6.69545705 C19.6227148,6.40686689 19.3734295,6.41748984 19.0789377,6.65910295 C18.7640262,6.91747672 18.586741,7.26437508 18.4044984,7.61127344 C14.4254951,15.1855554 10.4494426,22.7611357 6.46607213,30.3331751 C5.80402623,31.5918767 5.99618361,31.9399554 7.40431475,31.9401915 C11.3776525,31.9408997 15.3509902,31.9404275 19.3243279,31.9405456 L19.3243279,31.9405456 Z M38.7087344,34.0999554 C38.2106361,35.5734767 37.0493115,35.9073915 35.6634885,35.9095161 C29.6479475,35.9184866 23.6322885,35.9533062 17.6166295,35.9549587 C12.7220459,35.956139 7.82758033,35.9241521 2.93287869,35.9047948 C2.36183607,35.9025521 1.79445246,35.8628931 1.26177049,35.6269456 C0.270177049,35.1879816 -0.173154098,34.2909325 0.0617311475,33.2221456 C0.154859016,32.7986439 0.290714754,32.3923751 0.498334426,32.0117193 C5.97068852,21.9740931 11.4415082,11.9357587 16.9176393,1.90025705 C18.1985311,-0.446942951 20.3353967,-0.492621639 21.6737705,1.86378492 C23.5300721,5.13223082 25.293482,8.45343738 27.0944262,11.75328 C30.7705574,18.4892931 34.4425574,25.2276669 38.1252984,31.960021 C38.3955934,32.4541062 38.4772721,33.007562 38.7087344,33.5097915 L38.7087344,34.0999554 Z"/>
      <path fill="#FF5E07" d="M17.5527974 18.9903659C17.5527974 17.6930675 17.5241154 16.3948249 17.5631843 15.0985889 17.587617 14.2879397 18.1244302 13.648438 18.8647318 13.475638 19.6319449 13.2965823 20.2990662 13.493697 20.812863 14.1262348 21.0333482 14.3975921 21.1499646 14.7086085 21.1594072 15.0463003 21.2331777 17.6791397 21.2482859 20.3133954 21.1527974 22.9449364 21.1198662 23.8524905 20.4859121 24.4425364 19.6490597 24.5833495 18.8613089 24.7157823 18.1370597 24.3479921 17.7375187 23.6173692 17.540522 23.2570151 17.5341482 22.8631397 17.5324957 22.4706807 17.5277744 21.3105364 17.5308433 20.1505102 17.5308433 18.9903659L17.5527974 18.9903659zM19.5337652 25.2472603C20.508598 25.2523357 21.3144079 26.0765587 21.3119292 27.0663816 21.3096866 28.0307095 20.4484013 28.8865652 19.4959948 28.871221 18.5327292 28.8556407 17.7141718 28.0062767 17.7194833 27.027903 17.7249128 26.0556669 18.553503 25.2421849 19.5337652 25.2472603"/>
    </g>
  </g>
</svg>
