<?xml version="1.0" encoding="UTF-8" standalone="no"?>
<svg width="29px" height="26px" viewBox="0 0 29 26" version="1.1" xmlns="http://www.w3.org/2000/svg" xmlns:xlink="http://www.w3.org/1999/xlink">
    <!-- Generator: sketchtool 50.2 (55047) - http://www.bohemiancoding.com/sketch -->
    <title>9E62CD64-6307-4D13-BC62-AFD3B25D8490</title>
    <desc>Created with sketchtool.</desc>
    <defs></defs>
    <g id="Person-Master" stroke="none" stroke-width="1" fill="none" fill-rule="evenodd">
        <g id="Person-master-list-view" transform="translate(-210.000000, -58.000000)" fill-rule="nonzero">
            <g id="add-user" transform="translate(210.000000, 58.000000)">
                <g id="Group" fill="#58A6FF" stroke="#58A6FF" stroke-width="0.5">
                    <g transform="translate(0.428571, 0.285714)" id="Shape">
                        <path d="M1.07142857,2.14285714 L18.9285714,2.14285714 C19.3228571,2.14285714 19.6428571,1.82357143 19.6428571,1.42857143 C19.6428571,1.03357143 19.3228571,0.714285714 18.9285714,0.714285714 L1.07142857,0.714285714 C0.677142857,0.714285714 0.357142857,1.03357143 0.357142857,1.42857143 C0.357142857,1.82357143 0.677142857,2.14285714 1.07142857,2.14285714 Z"></path>
                        <path d="M18.9285714,6.42857143 L1.07142857,6.42857143 C0.677142857,6.42857143 0.357142857,6.74785714 0.357142857,7.14285714 C0.357142857,7.53785714 0.677142857,7.85714286 1.07142857,7.85714286 L18.9285714,7.85714286 C19.3228571,7.85714286 19.6428571,7.53785714 19.6428571,7.14285714 C19.6428571,6.74785714 19.3228571,6.42857143 18.9285714,6.42857143 Z"></path>
                        <path d="M18.9285714,12.1428571 L1.07142857,12.1428571 C0.677142857,12.1428571 0.357142857,12.4621429 0.357142857,12.8571429 C0.357142857,13.2521429 0.677142857,13.5714286 1.07142857,13.5714286 L18.9285714,13.5714286 C19.3228571,13.5714286 19.6428571,13.2521429 19.6428571,12.8571429 C19.6428571,12.4621429 19.3228571,12.1428571 18.9285714,12.1428571 Z"></path>
                        <path d="M18.9285714,17.8571429 L1.07142857,17.8571429 C0.677142857,17.8571429 0.357142857,18.1764286 0.357142857,18.5714286 C0.357142857,18.9664286 0.677142857,19.2857143 1.07142857,19.2857143 L18.9285714,19.2857143 C19.3228571,19.2857143 19.6428571,18.9664286 19.6428571,18.5714286 C19.6428571,18.1764286 19.3228571,17.8571429 18.9285714,17.8571429 Z"></path>
                    </g>
                </g>
                <g id="Group" transform="translate(10.142857, 8.285714)">
                    <circle id="Oval" stroke="#FFFFFF" fill="#58A6FF" cx="8.92857143" cy="8.57142857" r="8.57142857"></circle>
                    <path d="M13.2142857,7.85714286 L9.64285714,7.85714286 L9.64285714,4.28571429 C9.64285714,3.89142857 9.32285714,3.57142857 8.92857143,3.57142857 C8.53428571,3.57142857 8.21428571,3.89142857 8.21428571,4.28571429 L8.21428571,7.85714286 L4.64285714,7.85714286 C4.24857143,7.85714286 3.92857143,8.17714286 3.92857143,8.57142857 C3.92857143,8.96571429 4.24857143,9.28571429 4.64285714,9.28571429 L8.21428571,9.28571429 L8.21428571,12.8571429 C8.21428571,13.2514286 8.53428571,13.5714286 8.92857143,13.5714286 C9.32285714,13.5714286 9.64285714,13.2514286 9.64285714,12.8571429 L9.64285714,9.28571429 L13.2142857,9.28571429 C13.6085714,9.28571429 13.9285714,8.96571429 13.9285714,8.57142857 C13.9285714,8.17714286 13.6085714,7.85714286 13.2142857,7.85714286 Z" id="Shape" fill="#FFFFFF"></path>
                </g>
            </g>
        </g>
    </g>
</svg>