<svg width="19" height="20" xmlns="http://www.w3.org/2000/svg"><g fill="#9E9FA0" fill-rule="nonzero"><path d="M15.475 14.102h-2.353c-.487 0-.965.126-1.388.366-.36.204-.672.484-.914.82a2.822 2.822 0 0 0-.487-.041H7.977c-.163 0-.326.014-.487.042a2.86 2.86 0 0 0-.913-.821 2.812 2.812 0 0 0-1.388-.366H2.835A2.84 2.84 0 0 0 0 16.937v1.598a.304.304 0 0 0 .305.302h4.83v.84c0 .168.135.305.304.305h7.424a.304.304 0 0 0 .305-.305v-.84h4.83a.304.304 0 0 0 .304-.304v-1.596a2.841 2.841 0 0 0-2.827-2.835zm-10.31 3.706V18.228H.61v-1.291a2.232 2.232 0 0 1 2.226-2.226h2.354c.38 0 .756.098 1.087.286.223.126.422.288.59.48a2.85 2.85 0 0 0-1.7 2.331zm7.387.273v1.294h-6.8v-1.317-.069-.164V17.605l.012-.05.021-.076.015-.05a2.238 2.238 0 0 1 2.116-1.538l.061-.033h2.356A2.234 2.234 0 0 1 12.54 17.8c0 .046 0 .092.012.139v.142zm5.149.15h-4.535v-.183-.07-.07V17.348l-.015-.053v-.103l-.03-.082a2.858 2.858 0 0 0-1.545-1.619c.126-.187.28-.354.456-.495a2.205 2.205 0 0 1 1.087-.286h2.356a2.232 2.232 0 0 1 2.226 2.226v1.293z"/><circle cx="9.168" cy="4.087" r="1"/><path d="M5.527 9.93a2.144 2.144 0 1 0-3.036 3.028A2.144 2.144 0 0 0 5.527 9.93zm-.43 2.598a1.535 1.535 0 1 1-2.172-2.17 1.535 1.535 0 0 1 2.171 2.17z"/><circle cx="11.393" cy="4.087" r="1"/><path d="M12.741 1.193A5.755 5.755 0 0 0 9.155.001 5.755 5.755 0 0 0 5.57 1.193c-.94.752-1.523 1.798-1.523 2.955a3.49 3.49 0 0 0 .435 1.68c.27.485.633.913 1.069 1.26l-.242 1.605A.302.302 0 0 0 5.76 9l1.642-.957a6 6 0 0 0 .794.178c.318.049.64.074.961.073a5.755 5.755 0 0 0 3.587-1.192c.938-.754 1.52-1.798 1.52-2.954 0-1.157-.582-2.203-1.523-2.955zm-.377 5.438a5.146 5.146 0 0 1-3.209 1.05 5.696 5.696 0 0 1-1.707-.26.302.302 0 0 0-.244.027l-1.198.708L6.18 7a.304.304 0 0 0-.124-.292 3.685 3.685 0 0 1-1.05-1.176 2.885 2.885 0 0 1-.357-1.385c0-.966.494-1.844 1.291-2.482A5.146 5.146 0 0 1 9.15.616a5.146 5.146 0 0 1 3.208 1.05c.798.63 1.292 1.516 1.292 2.482 0 .965-.488 1.843-1.285 2.483zM14.301 9.298a2.144 2.144 0 1 0-.004 4.288 2.144 2.144 0 0 0 .004-4.288zm1.084 3.229a1.535 1.535 0 1 1-2.171-2.17 1.535 1.535 0 0 1 2.171 2.17z"/><circle cx="6.942" cy="4.087" r="1"/><path d="M10.668 11.067a2.142 2.142 0 1 0-3.024 3.034 2.142 2.142 0 0 0 3.024-3.034zm-1.513 3.056a1.535 1.535 0 1 1 0-3.07 1.535 1.535 0 0 1 0 3.07z"/></g></svg>