<?xml version="1.0" encoding="UTF-8" standalone="no"?>
<svg width="93px" height="93px" viewBox="0 0 93 93" version="1.1" xmlns="http://www.w3.org/2000/svg" xmlns:xlink="http://www.w3.org/1999/xlink">
    <!-- Generator: Sketch 49 (51002) - http://www.bohemiancoding.com/sketch -->
    <title>Group 2</title>
    <desc>Created with Sketch.</desc>
    <defs></defs>
    <g id="Page-1" stroke="none" stroke-width="1" fill="none" fill-rule="evenodd">
        <g id="my-user-form" transform="translate(-199.000000, -258.000000)">
            <g id="logo-insert-area" transform="translate(200.000000, 259.000000)">
                <g id="contact">
                    <g id="Group-2">
                        <g id="user-image-with-black-background" transform="translate(10.000000, 10.000000)" fill="#7E94A1" fill-rule="nonzero">
                            <path d="M36.0001156,0 C16.1175576,0 0,16.1635359 0,36.1028125 C0,44.7913504 3.06219727,52.7630283 8.16139128,58.9925023 C8.94808709,52.6754198 15.2395736,47.3326921 24.0617062,44.8024753 C27.2847555,47.8140753 31.4479571,49.6413382 35.9998844,49.6413382 C40.4448082,49.6413382 44.5264283,47.9060874 47.7166601,45.0208012 C56.6150587,47.7721252 62.7713463,53.4270451 62.973798,60 C68.5860545,53.6328555 72,45.2699524 72,36.1028125 C72,16.1635359 55.8824424,0 36.0001156,0 Z M36.0001156,45.3659045 C33.7019654,45.3659045 31.5364719,44.732713 29.6136431,43.6359844 C24.9799031,40.9917375 21.7894402,35.5806381 21.7894402,29.3333179 C21.7894402,20.4929716 28.1641261,13.3004995 36.0001156,13.3004995 C43.8367984,13.3004995 50.2107909,20.4929716 50.2107909,29.3333179 C50.2107909,35.6765902 46.9204888,41.1544389 42.1714253,43.7527957 C40.3005961,44.7758219 38.2129864,45.3659045 36.0001156,45.3659045 Z" id="Shape"></path>
                        </g>
                        <circle id="Oval-3" stroke="#979797" cx="45.5" cy="45.5" r="45.5"></circle>
                    </g>
                </g>
            </g>
        </g>
    </g>
</svg>