<?xml version="1.0" encoding="UTF-8" standalone="no"?>
<svg width="30px" height="36px" viewBox="0 0 30 36" version="1.1" xmlns="http://www.w3.org/2000/svg" xmlns:xlink="http://www.w3.org/1999/xlink">
    <!-- Generator: Sketch 49 (51002) - http://www.bohemiancoding.com/sketch -->
    <title>export</title>
    <desc>Created with Sketch.</desc>
    <defs></defs>
    <g id="Page-1" stroke="none" stroke-width="1" fill="none" fill-rule="evenodd">
        <g id="customized-1" transform="translate(-1110.000000, -131.000000)" fill="#79909D" fill-rule="nonzero">
            <g id="export" transform="translate(1110.000000, 131.000000)">
                <path d="M26.4285714,12.2727273 L20.7142857,12.2727273 C20.3214286,12.2727273 20,12.5867647 20,12.9705882 C20,13.3544118 20.3214286,13.6684492 20.7142857,13.6684492 L26.4285714,13.6684492 C27.6071429,13.6684492 28.5714286,14.6105615 28.5714286,15.7620321 L28.5714286,32.5106952 C28.5714286,33.6621658 27.6071429,34.6042781 26.4285714,34.6042781 L3.57142857,34.6042781 C2.39285714,34.6042781 1.42857143,33.6621658 1.42857143,32.5106952 L1.42857143,15.7620321 C1.42857143,14.6105615 2.39285714,13.6684492 3.57142857,13.6684492 L10,13.6684492 C10.3928571,13.6684492 10.7142857,13.3544118 10.7142857,12.9705882 C10.7142857,12.5867647 10.3928571,12.2727273 10,12.2727273 L3.57142857,12.2727273 C1.60714286,12.2727273 0,13.8429144 0,15.7620321 L0,32.5106952 C0,34.4298128 1.60714286,36 3.57142857,36 L26.4285714,36 C28.3928571,36 30,34.4298128 30,32.5106952 L30,15.7620321 C30,13.8429144 28.3928571,12.2727273 26.4285714,12.2727273 Z" id="Shape"></path>
                <g id="Group-4" transform="translate(15.500000, 12.000000) rotate(180.000000) translate(-15.500000, -12.000000) translate(8.000000, 0.000000)">
                    <path d="M7,21.2727273 C6.54166667,21.2727273 6.16666667,21.5883117 6.16666667,21.974026 L6.16666667,23.025974 C6.16666667,23.4116883 6.54166667,23.7272727 7,23.7272727 C7.45833333,23.7272727 7.83333333,23.4116883 7.83333333,23.025974 L7.83333333,21.974026 C7.83333333,21.5883117 7.45833333,21.2727273 7,21.2727273 Z" id="Shape"></path>
                    <path d="M1.55583756,7.30735931 L6.69754653,2.35497835 L6.69754653,18.9437229 C6.69754653,19.3246753 7.02115059,19.6363636 7.41666667,19.6363636 C7.81218274,19.6363636 8.1357868,19.3246753 8.1357868,18.9437229 L8.1357868,2.35497835 L13.2774958,7.30735931 C13.4213198,7.44588745 13.6010998,7.51515152 13.7808799,7.51515152 C13.9606599,7.51515152 14.1404399,7.44588745 14.284264,7.30735931 C14.571912,7.03030303 14.571912,6.61471861 14.284264,6.33766234 L7.92005076,0.207792208 C7.63240271,-0.0692640693 7.20093063,-0.0692640693 6.91328257,0.207792208 L0.549069374,6.33766234 C0.26142132,6.61471861 0.26142132,7.03030303 0.549069374,7.30735931 C0.836717428,7.58441558 1.26818951,7.58441558 1.55583756,7.30735931 Z" id="Shape"></path>
                </g>
            </g>
        </g>
    </g>
</svg>