<?xml version="1.0" encoding="UTF-8" standalone="no"?>
<svg width="37px" height="36px" viewBox="0 0 37 36" version="1.1" xmlns="http://www.w3.org/2000/svg" xmlns:xlink="http://www.w3.org/1999/xlink">
    <!-- Generator: Sketch 49 (51002) - http://www.bohemiancoding.com/sketch -->
    <title>home (2)</title>
    <desc>Created with Sketch.</desc>
    <defs></defs>
    <g id="Page-1" stroke="none" stroke-width="1" fill="none" fill-rule="evenodd">
        <g id="customized-1" transform="translate(-865.000000, -22.000000)" fill="#79909D" fill-rule="nonzero">
            <g id="home-(2)" transform="translate(865.000000, 22.000000)">
                <path d="M36.7841912,18.076 L19.0212449,0.217042127 C18.7332667,-0.0723473758 18.2667202,-0.0723473758 17.9788142,0.217042127 L0.215867914,18.076 C0.00514154752,18.2878654 -0.0579462843,18.6066806 0.0560887656,18.8835006 C0.170196081,19.1603206 0.438879424,19.3409438 0.737047115,19.3409438 L3.6661147,19.3409438 L3.6661147,34.4989815 C3.6661147,34.9082536 3.9961515,35.2400017 4.40315112,35.2400017 L14.7410282,35.2400017 C15.1480278,35.2400017 15.4780646,34.9082536 15.4780646,34.4989815 L15.4780646,23.6223536 L21.52185,23.6223536 L21.52185,34.4989815 C21.52185,34.9082536 21.8518868,35.2400017 22.2588864,35.2400017 L32.6905642,35.2400017 C33.0976361,35.2400017 33.4276006,34.9082536 33.4276729,34.4989815 L33.4276729,19.3409438 L36.2628675,19.3409438 C36.5610352,19.3409438 36.8297185,19.1603933 36.9438259,18.8835006 C37.0580054,18.6066806 36.9948453,18.287938 36.7841912,18.076 Z M32.6906365,17.8589034 C32.2836368,17.8589034 31.9536,18.1906514 31.9536,18.5999236 L31.9536,33.7579612 L22.9959951,33.7579612 L22.9959951,22.8813334 C22.9959951,22.4720612 22.6659583,22.1403132 22.2589587,22.1403132 L14.7410282,22.1403132 C14.3340286,22.1403132 14.0039918,22.4720612 14.0039918,22.8813334 L14.0039918,33.7579612 L5.14018754,33.7579612 L5.14018754,18.5999236 C5.14018754,18.1906514 4.81015074,17.8589034 4.40315112,17.8589034 L2.51651421,17.8589034 L18.4999934,1.78895825 L34.4834727,17.8589034 L32.6906365,17.8589034 Z" id="Shape"></path>
                <path d="M12.1125675,10.7927788 C11.8180653,10.4984077 11.3409496,10.4984077 11.0465212,10.7927788 L5.50648009,16.3331342 C5.21212568,16.6275792 5.21212568,17.1048699 5.50648009,17.399241 C5.65369425,17.5464635 5.84650636,17.6200008 6.03946628,17.6200008 C6.2324262,17.6200008 6.42523832,17.5464635 6.57252638,17.399241 L12.1125675,11.8588856 C12.4069219,11.5644406 12.4069219,11.0871499 12.1125675,10.7927788 Z" id="Shape"></path>
                <path d="M13.9005085,8.12373515 C13.6407386,7.86408879 13.2198918,7.86408879 12.9601871,8.12373515 L12.528063,8.55593584 C12.2684235,8.81564739 12.2684235,9.23663563 12.528063,9.49628199 C12.6579153,9.62613776 12.827988,9.69100046 12.9981911,9.69100046 C13.1683941,9.69100046 13.3384668,9.62613776 13.4683843,9.49628199 L13.9005085,9.0640813 C14.160148,8.80436975 14.160148,8.3833815 13.9005085,8.12373515 Z" id="Shape"></path>
            </g>
        </g>
    </g>
</svg>