<?xml version="1.0" encoding="UTF-8" standalone="no"?>
<svg width="76px" height="80px" viewBox="0 0 76 80" version="1.1" xmlns="http://www.w3.org/2000/svg" xmlns:xlink="http://www.w3.org/1999/xlink">
    <!-- Generator: Sketch 49 (51002) - http://www.bohemiancoding.com/sketch -->
    <title>Group 4</title>
    <desc>Created with Sketch.</desc>
    <defs></defs>
    <g id="Page-1" stroke="none" stroke-width="1" fill="none" fill-rule="evenodd">
        <g id="customized-without-left-side" transform="translate(-140.000000, 0.000000)">
            <g id="Group-4" transform="translate(140.000000, 0.000000)">
                <rect id="Rectangle-16" fill="#F4F7F9" x="0" y="0" width="76" height="80"></rect>
                <g id="maximize" transform="translate(24.000000, 26.000000)" fill="#79909D" fill-rule="nonzero">
                    <path d="M26.9045717,0 L18.5954283,0 C17.9904057,0 17.5,0.490458679 17.5,1.09542834 C17.5,1.700398 17.9904057,2.19085668 18.5954283,2.19085668 L25.8091433,2.19085668 L25.8091433,9.40457166 C25.8091433,10.0095413 26.299549,10.5 26.9045717,10.5 C27.5095943,10.5 28,10.0095413 28,9.40457166 L28,1.09542834 C28,0.490458679 27.5095943,0 26.9045717,0 Z" id="Shape"></path>
                    <path d="M9.40457166,25.8091433 L2.19090964,25.8091433 L2.19090964,18.5954283 C2.19090964,17.9904057 1.70045096,17.5 1.0954813,17.5 C0.490458679,17.5 0,17.9904057 0,18.5954283 L0,26.9045717 C0,27.5095943 0.490458679,28 1.09542834,28 L9.40457166,28 C10.0095413,28 10.5,27.5095943 10.5,26.9045717 C10.500053,26.299549 10.0095413,25.8091433 9.40457166,25.8091433 Z" id="Shape"></path>
                    <path d="M27.6693306,0.330707786 C27.2283834,-0.110235929 26.5134889,-0.110235929 26.0725418,0.330707786 L16.0806694,10.3225022 C15.6397769,10.7634459 15.6397769,11.4783349 16.0806694,11.9192786 C16.3011157,12.1397231 16.5901307,12.25 16.8790911,12.25 C17.167997,12.25 17.457012,12.1397777 17.6775128,11.9192786 L27.6693306,1.92748415 C28.1102231,1.48654044 28.1102231,0.771651501 27.6693306,0.330707786 Z" id="Shape"></path>
                    <path d="M11.9192918,16.0807093 C11.4784022,15.6397636 10.7634579,15.6397636 10.3225137,16.0807093 L0.330708155,26.0724936 C-0.110236052,26.5134393 -0.110236052,27.2283314 0.330708155,27.6692771 C0.551152962,27.8898318 0.840166039,28 1.12906993,28 C1.41802842,28 1.7069869,27.8897772 1.9274863,27.6692771 L11.9192918,17.6774382 C12.3602361,17.2365471 12.3602361,16.5216549 11.9192918,16.0807093 Z" id="Shape"></path>
                </g>
            </g>
        </g>
    </g>
</svg>