<?xml version="1.0" encoding="UTF-8" standalone="no"?>
<svg width="76px" height="80px" viewBox="0 0 76 80" version="1.1" xmlns="http://www.w3.org/2000/svg" xmlns:xlink="http://www.w3.org/1999/xlink">
    <!-- Generator: Sketch 49 (51002) - http://www.bohemiancoding.com/sketch -->
    <title>Toogle</title>
    <desc>Created with Sketch.</desc>
    <defs></defs>
    <g id="Page-1" stroke="none" stroke-width="1" fill="none" fill-rule="evenodd">
        <g id="customized-1" transform="translate(-140.000000, 0.000000)">
            <g id="Toogle" transform="translate(140.000000, 0.000000)">
                <rect id="Rectangle-16" fill="#F4F7F9" x="0" y="0" width="76" height="80"></rect>
                <g id="maximize" transform="translate(24.000000, 26.000000)" fill="#79909D" fill-rule="nonzero">
                    <g id="top" transform="translate(21.500000, 6.500000) rotate(180.000000) translate(-21.500000, -6.500000) translate(15.000000, 0.000000)">
                        <path d="M11.9045717,0 L3.59542834,0 C2.99040571,0 2.5,0.490458679 2.5,1.09542834 C2.5,1.700398 2.99040571,2.19085668 3.59542834,2.19085668 L10.8091433,2.19085668 L10.8091433,9.40457166 C10.8091433,10.0095413 11.299549,10.5 11.9045717,10.5 C12.5095943,10.5 13,10.0095413 13,9.40457166 L13,1.09542834 C13,0.490458679 12.5095943,0 11.9045717,0 Z" id="Shape"></path>
                        <path d="M12.6693306,0.330707786 C12.2283834,-0.110235929 11.5134889,-0.110235929 11.0725418,0.330707786 L1.08066942,10.3225022 C0.63977686,10.7634459 0.63977686,11.4783349 1.08066942,11.9192786 C1.3011157,12.1397231 1.59013071,12.25 1.87909113,12.25 C2.16799695,12.25 2.45701196,12.1397777 2.67751283,11.9192786 L12.6693306,1.92748415 C13.1102231,1.48654044 13.1102231,0.771651501 12.6693306,0.330707786 Z" id="Shape"></path>
                    </g>
                    <g id="bottom" transform="translate(6.500000, 21.500000) rotate(180.000000) translate(-6.500000, -21.500000) translate(0.000000, 15.000000)">
                        <path d="M9.40457166,10.8091433 L2.19090964,10.8091433 L2.19090964,3.59542834 C2.19090964,2.99040571 1.70045096,2.5 1.0954813,2.5 C0.490458679,2.5 0,2.99040571 0,3.59542834 L0,11.9045717 C0,12.5095943 0.490458679,13 1.09542834,13 L9.40457166,13 C10.0095413,13 10.5,12.5095943 10.5,11.9045717 C10.500053,11.299549 10.0095413,10.8091433 9.40457166,10.8091433 Z" id="Shape"></path>
                        <path d="M11.9192918,1.08070926 C11.4784022,0.63976358 10.7634579,0.63976358 10.3225137,1.08070926 L0.330708155,11.0724936 C-0.110236052,11.5134393 -0.110236052,12.2283314 0.330708155,12.6692771 C0.551152962,12.8898318 0.840166039,13 1.12906993,13 C1.41802842,13 1.7069869,12.8897772 1.9274863,12.6692771 L11.9192918,2.67743815 C12.3602361,2.23654706 12.3602361,1.52165494 11.9192918,1.08070926 Z" id="Shape"></path>
                    </g>
                </g>
            </g>
        </g>
    </g>
</svg>