<?xml version="1.0" encoding="UTF-8" standalone="no"?>
<svg width="29px" height="33px" viewBox="0 0 29 33" version="1.1" xmlns="http://www.w3.org/2000/svg" xmlns:xlink="http://www.w3.org/1999/xlink">
    <!-- Generator: Sketch 48.2 (47327) - http://www.bohemiancoding.com/sketch -->
    <title>notification (1)</title>
    <desc>Created with Sketch.</desc>
    <defs></defs>
    <g id="Predefined" stroke="none" stroke-width="1" fill="none" fill-rule="evenodd" transform="translate(-1121.000000, -21.000000)">
        <g id="notification-(1)" transform="translate(1121.000000, 21.000000)" fill="#79909D" fill-rule="nonzero">
            <path d="M28.5408994,24.3044037 C28.5301745,24.2824381 28.5186188,24.2611685 28.5059301,24.2403631 C28.3111445,23.8845048 28.0628098,23.6127964 27.7640227,23.4362981 C25.5898104,22.1513874 24.2740445,18.6552206 23.8531293,13.0450187 C23.5409738,8.88392822 20.6436604,5.47345822 16.8739279,4.4454059 C17.15625,3.99580703 17.3206736,3.46159417 17.3206736,2.88855477 C17.3207491,1.29581618 16.0552845,0 14.4998696,0 C12.9446057,0 11.6792167,1.29581618 11.6792167,2.88863212 C11.6792167,3.46167151 11.8437913,3.99580703 12.1259623,4.44548325 C8.35622988,5.47345822 5.45891648,8.88400556 5.14660995,13.0450961 C4.72569476,18.6552979 3.40992883,22.1513874 1.23586752,23.4363754 C0.606194104,23.8084759 0.19698569,24.5986191 0.0527280169,25.7217268 C-0.0408506515,26.4507684 -0.0697021861,27.9814774 0.492071935,28.5562957 C0.643127089,28.7109057 0.848033407,28.7977627 1.06147434,28.7977627 L9.65824978,28.7977627 C10.0437425,31.1784788 12.0675795,33 14.5000962,33 C16.9325373,33 18.9562988,31.1784788 19.3419426,28.7977627 L27.938567,28.7977627 C28.1520834,28.7977627 28.3569142,28.7109057 28.5079694,28.5562957 C29.0698946,27.9810906 29.040892,26.4499176 28.9470867,25.720644 C28.8751845,25.1628413 28.7379509,24.6874096 28.5408994,24.3044037 Z M14.4998696,1.64997293 C15.1668536,1.64997293 15.7094438,2.20561 15.7094438,2.88863212 C15.7094438,3.5715769 15.1669292,4.12721396 14.4998696,4.12721396 C13.8330366,4.12721396 13.2904465,3.5715769 13.2904465,2.88863212 C13.290522,2.20561 13.8331122,1.64997293 14.4998696,1.64997293 Z M14.4998696,31.3499497 C12.9592581,31.3499497 11.662374,30.2624201 11.3019564,28.7977627 L17.6977072,28.7977627 C17.3373652,30.2624201 16.0404811,31.3499497 14.4998696,31.3499497 Z M27.3573823,27.1477897 L1.64243247,27.1477897 C1.60904928,26.8780923 1.59145135,26.4871199 1.63737212,26.0468023 C1.71448577,25.3095623 1.9210537,24.9364563 2.04114255,24.8653774 C4.74110238,23.2696998 6.28246918,19.4445903 6.75308152,13.1714756 C7.06410408,9.02515779 10.4669991,5.77718689 14.4997941,5.77718689 C18.5326646,5.77718689 21.9354841,9.02523514 22.2465066,13.1714756 C22.4729383,16.1893491 22.9477802,18.6389784 23.6796424,20.5480527 L20.6509866,20.5480527 C20.2062047,20.5480527 19.8453339,20.9173688 19.8453339,21.3730778 C19.8453339,21.8287869 20.2062047,22.198103 20.6509866,22.198103 L24.4517608,22.198103 C24.8159548,22.8361111 25.2237282,23.3853286 25.675081,23.8480759 L17.6416658,23.8480759 C17.1968839,23.8480759 16.8360131,24.217392 16.8360131,24.673101 C16.8360131,25.1287327 17.1968839,25.4981262 17.6416658,25.4981262 L27.2679576,25.4981262 C27.3066277,25.6518854 27.3399354,25.8336431 27.362216,26.046725 C27.4083634,26.4870426 27.3906899,26.8780149 27.3573823,27.1477897 Z" id="Shape"></path>
            <path d="M14.2307637,23 L13.7692363,23 C13.3444148,23 13,23.4476423 13,24 C13,24.552264 13.3443427,25 13.7692363,25 L14.2307637,25 C14.655441,25 15,24.5523577 15,24 C15,23.4476423 14.6555131,23 14.2307637,23 Z" id="Shape"></path>
        </g>
    </g>
</svg>