<?xml version="1.0" encoding="UTF-8" standalone="no"?>
<svg width="30px" height="35px" viewBox="0 0 30 35" version="1.1" xmlns="http://www.w3.org/2000/svg" xmlns:xlink="http://www.w3.org/1999/xlink">
    <!-- Generator: Sketch 48.2 (47327) - http://www.bohemiancoding.com/sketch -->
    <title>save</title>
    <desc>Created with Sketch.</desc>
    <defs></defs>
    <g id="Predefined" stroke="none" stroke-width="1" fill="none" fill-rule="evenodd" transform="translate(-1170.000000, -132.000000)">
        <g id="save" transform="translate(1170.000000, 132.000000)" fill="#79909D" fill-rule="nonzero">
            <path d="M24.63375,0 L23.125,0 L5.625,0 L0,0 L0,35 L4.375,35 L25,35 L30,35 L30,6.13285714 L24.63375,0 Z M21.875,1.42857143 L21.875,11.4285714 L6.875,11.4285714 L6.875,1.42857143 L21.875,1.42857143 Z M5.625,33.5714286 L5.625,20 L23.75,20 L23.75,33.5714286 L5.625,33.5714286 Z M28.75,33.5714286 L25,33.5714286 L25,18.5714286 L4.375,18.5714286 L4.375,33.5714286 L1.25,33.5714286 L1.25,1.42857143 L5.625,1.42857143 L5.625,12.8571429 L23.125,12.8571429 L23.125,1.42857143 L24.11625,1.42857143 L28.75,6.72428571 L28.75,33.5714286 Z" id="Shape"></path>
            <path d="M8.52941176,23 L12.6470588,23 C12.9723529,23 13.2352941,22.7765 13.2352941,22.5 C13.2352941,22.2235 12.9723529,22 12.6470588,22 L8.52941176,22 C8.20411765,22 7.94117647,22.2235 7.94117647,22.5 C7.94117647,22.7765 8.20411765,23 8.52941176,23 Z" id="Shape"></path>
            <path d="M15.2205882,25 L8.60294118,25 C8.23698529,25 7.94117647,25.2235 7.94117647,25.5 C7.94117647,25.7765 8.23698529,26 8.60294118,26 L15.2205882,26 C15.5865441,26 15.8823529,25.7765 15.8823529,25.5 C15.8823529,25.2235 15.5865441,25 15.2205882,25 Z" id="Shape"></path>
            <path d="M16.0102941,25.1396226 C15.9304412,25.234717 15.8823529,25.3660377 15.8823529,25.4968553 C15.8823529,25.627673 15.9304412,25.7584906 16.0102941,25.8540881 C16.0936765,25.9446541 16.2039706,26 16.3235294,26 C16.4382353,26 16.5529412,25.9446541 16.6367647,25.8540881 C16.7161765,25.7584906 16.7647059,25.627673 16.7647059,25.4968553 C16.7647059,25.3660377 16.7161765,25.234717 16.6367647,25.1396226 C16.4735294,24.9534591 16.1735294,24.9534591 16.0102941,25.1396226 Z" id="Shape"></path>
            <path d="M21.1764706,3 L17.6470588,3 L17.6470588,10 L21.1764706,10 L21.1764706,3 Z M20,8.6 L18.8235294,8.6 L18.8235294,4.4 L20,4.4 L20,8.6 Z" id="Shape"></path>
        </g>
    </g>
</svg>