<?xml version="1.0" encoding="UTF-8" standalone="no"?>
<svg width="6px" height="11px" viewBox="0 0 6 11" version="1.1" xmlns="http://www.w3.org/2000/svg" xmlns:xlink="http://www.w3.org/1999/xlink">
    <!-- Generator: sketchtool 50.2 (55047) - http://www.bohemiancoding.com/sketch -->
    <title>B3B0F8C6-1259-4073-8B20-A090EC09497B</title>
    <desc>Created with sketchtool.</desc>
    <defs></defs>
    <g id="Reports" stroke="none" stroke-width="1" fill="none" fill-rule="evenodd">
        <g id="Report-table-view" transform="translate(-1042.000000, -106.000000)" fill="#B0BAC5" fill-rule="nonzero" stroke="#B0BAC5" stroke-width="0.2">
            <g id="Group-10" transform="translate(1001.000000, 103.000000)">
                <g id="Group-8" transform="translate(41.000000, 3.000000)">
                    <g id="arrow" transform="translate(3.000000, 5.500000) scale(-1, 1) translate(-3.000000, -5.500000) ">
                        <path d="M7.89768225,3.09661836 C7.75985551,2.96779388 7.53588707,2.96779388 7.39806034,3.09661836 L3.00483323,7.21095008 L-1.39700804,3.09661836 C-1.53483478,2.96779388 -1.75880322,2.96779388 -1.89662995,3.09661836 C-2.03445668,3.22544283 -2.03445668,3.43478261 -1.89662995,3.56360709 L2.74640811,7.90338164 C2.81532148,7.96779388 2.90146318,8 2.99621906,8 C3.08236077,8 3.17711665,7.96779388 3.24603002,7.90338164 L7.88906808,3.56360709 C8.03550898,3.43478261 8.03550898,3.22544283 7.89768225,3.09661836 Z" transform="translate(3.000000, 5.500000) rotate(270.000000) translate(-3.000000, -5.500000) "></path>
                    </g>
                </g>
            </g>
        </g>
    </g>
</svg>