<?xml version="1.0" encoding="UTF-8" standalone="no"?>
<svg width="701px" height="192px" viewBox="0 0 701 192" version="1.1" xmlns="http://www.w3.org/2000/svg" xmlns:xlink="http://www.w3.org/1999/xlink">
    <!-- Generator: Sketch 50.2 (55047) - http://www.bohemiancoding.com/sketch -->
    <title>download icon with the text</title>
    <desc>Created with Sketch.</desc>
    <defs></defs>
    <g id="Export" stroke="none" stroke-width="1" fill="none" fill-rule="evenodd">
        <g id="Export-empty" transform="translate(-391.000000, -288.000000)">
            <g id="download-icon-with-the-text" transform="translate(391.000000, 288.000000)">
                <g id="download-icon" transform="translate(275.000000, 0.000000)">
                    <g id="Group-3" fill="#58A6FF" fill-opacity="0.1">
                        <path d="M149.999866,75.0002226 C149.999866,116.421588 116.421677,150.000223 74.9998665,150.000223 C33.5785015,150.000223 -0.000133531157,116.421588 -0.000133531157,75.0002226 C-0.000133531157,33.5784125 33.5785015,0.000222551929 74.9998665,0.000222551929 C116.421677,0.000222551929 149.999866,33.5784125 149.999866,75.0002226" id="Fill-1"></path>
                    </g>
                    <g id="Group-6" transform="translate(32.937685, 26.261128)">
                        <polyline id="Fill-4" fill="#FFFFFF" points="43.6365579 0.995830861 43.6365579 13.7921217 56.820089 14.1798071 43.6365579 0.995830861 0.983590504 0.995830861 0.983590504 78.5467211 56.2383383 78.7403412 56.820089 13.7921217"></polyline>
                        <path d="M1.87379822,1.88603858 L1.87379822,77.6596273 L55.3560963,77.8470366 L55.9186333,15.0438907 L43.610391,14.6819447 C43.1291403,14.6677927 42.7463501,14.2735804 42.7463501,13.7921217 L42.7463501,1.88603858 L1.87379822,1.88603858 Z M57.1285103,78.7483146 C57.1241237,79.2380486 56.7249694,79.6322596 56.2352189,79.6305435 L0.980471114,79.4369233 C0.490043739,79.4352048 0.0933827893,79.0371515 0.0933827893,78.5467211 L0.0933827893,0.995830861 C0.0933827893,0.504182715 0.491942359,0.105623145 0.983590504,0.105623145 L43.6365579,0.105623145 C43.7546093,0.105623145 43.8702432,0.129071545 43.9772325,0.173389048 C44.0895789,0.220631936 44.1854922,0.285818631 44.2660407,0.366369823 L56.801351,12.9021034 C57.3196908,12.9063532 57.7146646,13.3084666 57.710261,13.8000951 L57.7077214,14.0836236 C57.7121933,14.1271549 57.5191229,35.682052 57.1285103,78.7483146 Z M44.5267656,3.14503371 L44.5267656,12.9277073 L54.6054817,13.2240901 L44.5267656,3.14503371 Z" id="Stroke-5" fill="#1C4980" fill-rule="nonzero"></path>
                    </g>
                    <g id="Group-9" transform="translate(42.284866, 34.718101)">
                        <polyline id="Fill-7" fill="#FFFFFF" points="43.5952522 1.06949555 43.5952522 13.8653412 56.7787834 14.2530267 43.5952522 1.06949555 0.942284866 1.06949555 0.942284866 78.6199407 56.1970326 78.814451 56.7787834 13.8653412"></polyline>
                        <path d="M1.83249258,1.95970326 L1.83249258,77.7328612 L55.3147907,77.9211321 L55.8773278,15.1171103 L43.5690854,14.7551643 C43.0878347,14.7410123 42.7050445,14.3468 42.7050445,13.8653412 L42.7050445,1.95970326 L1.83249258,1.95970326 Z M57.0872046,78.8224243 C57.082818,79.3121639 56.6836551,79.7063773 56.1938989,79.7046532 L0.939151134,79.5101429 C0.448729383,79.5084164 0.0520771513,79.1103654 0.0520771513,78.6199407 L0.0520771513,1.06949555 C0.0520771513,0.577847404 0.450636721,0.179287834 0.942284866,0.179287834 L43.5952522,0.179287834 C43.7133011,0.179287834 43.8289325,0.202735202 43.93592,0.247050861 C44.2612702,0.384385655 44.4854599,0.70075944 44.4854599,1.06949555 L44.4854599,3.21864709 L42.9657803,1.69896746 L43.5952522,1.95970326 L42.7050445,1.95970326 L42.7050445,1.06949555 C42.7050445,0.577847404 43.1036041,0.179287834 43.5952522,0.179287834 C43.7181643,0.179287834 43.8352583,0.204197807 43.9417612,0.249244769 C44.0429074,0.291366521 44.141251,0.356550471 44.2247241,0.440023637 L56.760024,12.9753235 C57.2783851,12.9795728 57.6733589,13.3816861 57.6689554,13.8733145 L57.6664158,14.156843 C57.6708876,14.2003742 57.4778173,35.755568 57.0872046,78.8224243 Z M44.4854599,3.21864709 L44.4854599,13.0009269 L54.5641209,13.297308 L44.4854599,3.21864709 Z" id="Stroke-8" fill="#1C4980" fill-rule="nonzero"></path>
                    </g>
                    <g id="Group-39" transform="translate(47.626113, 64.540059)">
                        <g id="Group-26">
                            <g id="Group-13">
                                <path d="M1.02956973,1.10470326 L42.1317953,1.10470326" id="Fill-10" fill="#FFFFFF"></path>
                                <path d="M1.02956973,1.99491098 C0.537921588,1.99491098 0.139362018,1.59635141 0.139362018,1.10470326 C0.139362018,0.613055119 0.537921588,0.214495549 1.02956973,0.214495549 L42.1317953,0.214495549 C42.6234434,0.214495549 43.022003,0.613055119 43.022003,1.10470326 C43.022003,1.59635141 42.6234434,1.99491098 42.1317953,1.99491098 L1.02956973,1.99491098 Z" id="Stroke-12" fill="#062954" fill-rule="nonzero"></path>
                            </g>
                            <g id="Group-17" transform="translate(0.000000, 9.347181)">
                                <path d="M1.02956973,1.06339763 L42.1317953,1.06339763" id="Fill-14" fill="#FFFFFF"></path>
                                <path d="M1.02956973,1.95360534 C0.537921588,1.95360534 0.139362018,1.55504577 0.139362018,1.06339763 C0.139362018,0.571749481 0.537921588,0.173189911 1.02956973,0.173189911 L42.1317953,0.173189911 C42.6234434,0.173189911 43.022003,0.571749481 43.022003,1.06339763 C43.022003,1.55504577 42.6234434,1.95360534 42.1317953,1.95360534 L1.02956973,1.95360534 Z" id="Stroke-16" fill="#062954" fill-rule="nonzero"></path>
                            </g>
                            <g id="Group-21" transform="translate(0.000000, 18.694362)">
                                <path d="M1.02956973,1.02253709 L42.1317953,1.02253709" id="Fill-18" fill="#FFFFFF"></path>
                                <path d="M1.02956973,1.91274481 C0.537921588,1.91274481 0.139362018,1.51418524 0.139362018,1.02253709 C0.139362018,0.530888947 0.537921588,0.132329377 1.02956973,0.132329377 L42.1317953,0.132329377 C42.6234434,0.132329377 43.022003,0.530888947 43.022003,1.02253709 C43.022003,1.51418524 42.6234434,1.91274481 42.1317953,1.91274481 L1.02956973,1.91274481 Z" id="Stroke-20" fill="#062954" fill-rule="nonzero"></path>
                            </g>
                            <g id="Group-25" transform="translate(0.000000, 28.041543)">
                                <path d="M1.02956973,0.981275964 L42.1317953,0.981275964" id="Fill-22" fill="#FFFFFF"></path>
                                <path d="M1.02956973,1.87148368 C0.537921588,1.87148368 0.139362018,1.47292411 0.139362018,0.981275964 C0.139362018,0.489627819 0.537921588,0.0910682493 1.02956973,0.0910682493 L42.1317953,0.0910682493 C42.6234434,0.0910682493 43.022003,0.489627819 43.022003,0.981275964 C43.022003,1.47292411 42.6234434,1.87148368 42.1317953,1.87148368 L1.02956973,1.87148368 Z" id="Stroke-24" fill="#062954" fill-rule="nonzero"></path>
                            </g>
                        </g>
                        <path d="M68.4528338,39.2028338 C68.4528338,49.6961573 59.946454,58.2029822 49.4526855,58.2029822 C38.959362,58.2029822 30.4529822,49.6961573 30.4529822,39.2028338 C30.4529822,28.7095104 38.959362,20.2026855 49.4526855,20.2026855 C59.946454,20.2026855 68.4528338,28.7095104 68.4528338,39.2028338" id="Fill-27" fill="#FE8137"></path>
                        <path d="M67.5626261,39.2028338 C67.5626261,29.2010016 59.4546489,21.0928932 49.4526855,21.0928932 C39.4511015,21.0928932 31.3431899,29.2010672 31.3431899,39.2028338 C31.3431899,49.2046005 39.4511015,57.3127745 49.4526855,57.3127745 C59.4546489,57.3127745 67.5626261,49.2046661 67.5626261,39.2028338 Z M69.3430415,39.2028338 C69.3430415,50.1879559 60.4379517,59.0931899 49.4526855,59.0931899 C38.4677923,59.0931899 29.5627745,50.1878839 29.5627745,39.2028338 C29.5627745,28.2177838 38.4677923,19.3124777 49.4526855,19.3124777 C60.4379517,19.3124777 69.3430415,28.2177117 69.3430415,39.2028338 Z" id="Stroke-29" fill="#062954" fill-rule="nonzero"></path>
                        <path d="M49.4528635,25.3485312 C48.9612154,25.3485312 48.5626558,24.9499716 48.5626558,24.4583234 C48.5626558,23.9666753 48.9612154,23.5681157 49.4528635,23.5681157 C51.5691199,23.5681157 53.6291359,23.9898626 55.5387784,24.7974732 C55.9915971,24.9889756 56.2034357,25.511301 56.0119333,25.9641197 C55.8204309,26.4169383 55.2981055,26.628777 54.8452869,26.4372746 C53.1540284,25.7220212 51.3297221,25.3485312 49.4528635,25.3485312 Z" id="Stroke-31" fill-opacity="0.3" fill="#FFFFFF" fill-rule="nonzero"></path>
                        <path d="M35.6730161,40.6499101 C35.7233859,41.1389712 35.3677564,41.5762664 34.8786953,41.6266362 C34.3896341,41.6770061 33.9523389,41.3213766 33.9019691,40.8323154 C33.846226,40.2910831 33.8180564,39.7479639 33.8180564,39.2028338 C33.8180564,32.4684489 38.1153719,26.5550559 44.3857541,24.4079615 C44.8508892,24.2486907 45.3570703,24.4966427 45.5163411,24.9617778 C45.675612,25.426913 45.42766,25.933094 44.9625248,26.0923649 C39.4067697,27.9947578 35.5984718,33.2352299 35.5984718,39.2028338 C35.5984718,39.6867392 35.6234841,40.168984 35.6730161,40.6499101 Z" id="Stroke-33" fill-opacity="0.3" fill="#FFFFFF" fill-rule="nonzero"></path>
                        <path d="M54.5532581,44.9195637 C54.9009058,44.571916 55.4645541,44.571916 55.8122019,44.9195637 C56.1598496,45.2672114 56.1598496,45.8308598 55.8122019,46.1785075 L50.0258517,51.9648577 C49.678204,52.3125054 49.1145556,52.3125054 48.7669079,51.9648577 C48.4192602,51.6172099 48.4192602,51.0535616 48.7669079,50.7059138 L54.5532581,44.9195637 Z" id="Stroke-35" fill="#EA5D09" fill-rule="nonzero"></path>
                        <path d="M48.5061721,49.1861007 L48.5061721,29.5678932 C48.5061721,29.076245 48.9047317,28.6776855 49.3963798,28.6776855 C49.888028,28.6776855 50.2865875,29.076245 50.2865875,29.5678932 L50.2865875,51.3352522 C50.2865875,52.1283426 49.3277075,52.5255237 48.7669079,51.9647241 L42.9805578,46.178374 C42.63291,45.8307263 42.63291,45.2670779 42.9805578,44.9194302 C43.3282055,44.5717824 43.8918538,44.5717824 44.2395016,44.9194302 L48.5061721,49.1861007 Z" id="Stroke-37" fill="#EA5D09" fill-rule="nonzero"></path>
                    </g>
                </g>
                <path d="M8.784,175 L10.17,175 L10.17,187.69 L9.036,187.69 L1.386,177.484 L1.386,187.69 L0,187.69 L0,175 L1.134,175 L8.784,185.206 L8.784,175 Z M14.535,187.258 C13.9049969,186.885998 13.4190017,186.355003 13.077,185.665 C12.7349983,184.974997 12.564,184.174005 12.564,183.262 C12.564,182.349995 12.7349983,181.549003 13.077,180.859 C13.4190017,180.168997 13.9049969,179.638002 14.535,179.266 C15.1650032,178.893998 15.8939959,178.708 16.722,178.708 C17.5500041,178.708 18.2819968,178.893998 18.918,179.266 C19.5540032,179.638002 20.0429983,180.168997 20.385,180.859 C20.7270017,181.549003 20.898,182.349995 20.898,183.262 C20.898,184.174005 20.7270017,184.974997 20.385,185.665 C20.0429983,186.355003 19.5540032,186.885998 18.918,187.258 C18.2819968,187.630002 17.5500041,187.816 16.722,187.816 C15.8939959,187.816 15.1650032,187.630002 14.535,187.258 Z M18.711,185.755 C19.1730023,185.184997 19.404,184.354005 19.404,183.262 C19.404,182.193995 19.1700023,181.369003 18.702,180.787 C18.2339977,180.204997 17.5740043,179.914 16.722,179.914 C15.8699957,179.914 15.2100023,180.204997 14.742,180.787 C14.2739977,181.369003 14.04,182.193995 14.04,183.262 C14.04,184.342005 14.2709977,185.169997 14.733,185.746 C15.1950023,186.322003 15.8579957,186.61 16.722,186.61 C17.5860043,186.61 18.2489977,186.325003 18.711,185.755 Z M37.926,187.69 L36.306,187.69 L34.146,183.622 C33.8819987,183.129998 33.5730018,182.791001 33.219,182.605 C32.8649982,182.418999 32.3820031,182.326 31.77,182.326 L29.394,182.326 L29.394,187.69 L27.936,187.69 L27.936,175 L33.156,175 C34.5360069,175 35.5889964,175.305997 36.315,175.918 C37.0410036,176.530003 37.404,177.429994 37.404,178.618 C37.404,179.602005 37.1250028,180.396997 36.567,181.003 C36.0089972,181.609003 35.2140052,181.989999 34.182,182.146 C34.5060016,182.242 34.7909988,182.403999 35.037,182.632 C35.2830012,182.860001 35.507999,183.165998 35.712,183.55 L37.926,187.69 Z M33.03,181.102 C34.0140049,181.102 34.7489976,180.898002 35.235,180.49 C35.7210024,180.081998 35.964,179.464004 35.964,178.636 C35.964,177.819996 35.7240024,177.214002 35.244,176.818 C34.7639976,176.421998 34.026005,176.224 33.03,176.224 L29.394,176.224 L29.394,181.102 L33.03,181.102 Z M47.412,183.532 L41.004,183.532 C41.0520002,184.552005 41.3279975,185.322997 41.832,185.845 C42.3360025,186.367003 43.0499954,186.628 43.974,186.628 C44.9940051,186.628 45.9299957,186.280003 46.782,185.584 L47.268,186.646 C46.8839981,187.006002 46.392003,187.290999 45.792,187.501 C45.191997,187.711001 44.5800031,187.816 43.956,187.816 C42.5879932,187.816 41.5110039,187.414004 40.725,186.61 C39.9389961,185.805996 39.546,184.696007 39.546,183.28 C39.546,182.379996 39.7199983,181.585003 40.068,180.895 C40.4160017,180.204997 40.9049969,179.668002 41.535,179.284 C42.1650032,178.899998 42.881996,178.708 43.686,178.708 C44.8500058,178.708 45.7619967,179.088996 46.422,179.851 C47.0820033,180.613004 47.412,181.659993 47.412,182.992 L47.412,183.532 Z M41.859,180.562 C41.3969977,181.042002 41.1240004,181.719996 41.04,182.596 L46.134,182.596 C46.1099999,181.707996 45.8880021,181.027002 45.468,180.553 C45.0479979,180.078998 44.4600038,179.842 43.704,179.842 C42.9359962,179.842 42.3210023,180.081998 41.859,180.562 Z M55.998,179.284 C56.5860029,179.668002 57.0419984,180.204997 57.366,180.895 C57.6900016,181.585003 57.852,182.385995 57.852,183.298 C57.852,184.210005 57.6900016,185.004997 57.366,185.683 C57.0419984,186.361003 56.5890029,186.885998 56.007,187.258 C55.4249971,187.630002 54.7440039,187.816 53.964,187.816 C53.2799966,187.816 52.6830026,187.666001 52.173,187.366 C51.6629975,187.065998 51.2760013,186.640003 51.012,186.088 L51.012,190.93 L49.554,190.93 L49.554,178.924 L51.012,178.924 L51.012,180.436 C51.2760013,179.883997 51.6629975,179.458002 52.173,179.158 C52.6830026,178.857999 53.2799966,178.708 53.964,178.708 C54.7320038,178.708 55.4099971,178.899998 55.998,179.284 Z M55.656,185.746 C56.1240023,185.169997 56.358,184.354005 56.358,183.298 C56.358,182.241995 56.1240023,181.417003 55.656,180.823 C55.1879977,180.228997 54.5280043,179.932 53.676,179.932 C52.8239957,179.932 52.1670023,180.219997 51.705,180.796 C51.2429977,181.372003 51.012,182.193995 51.012,183.262 C51.012,184.330005 51.2429977,185.154997 51.705,185.737 C52.1670023,186.319003 52.8239957,186.61 53.676,186.61 C54.5280043,186.61 55.1879977,186.322003 55.656,185.746 Z M61.479,187.258 C60.8489968,186.885998 60.3630017,186.355003 60.021,185.665 C59.6789983,184.974997 59.508,184.174005 59.508,183.262 C59.508,182.349995 59.6789983,181.549003 60.021,180.859 C60.3630017,180.168997 60.8489968,179.638002 61.479,179.266 C62.1090032,178.893998 62.8379959,178.708 63.666,178.708 C64.4940041,178.708 65.2259968,178.893998 65.862,179.266 C66.4980032,179.638002 66.9869983,180.168997 67.329,180.859 C67.6710017,181.549003 67.842,182.349995 67.842,183.262 C67.842,184.174005 67.6710017,184.974997 67.329,185.665 C66.9869983,186.355003 66.4980032,186.885998 65.862,187.258 C65.2259968,187.630002 64.4940041,187.816 63.666,187.816 C62.8379959,187.816 62.1090032,187.630002 61.479,187.258 Z M65.655,185.755 C66.1170023,185.184997 66.348,184.354005 66.348,183.262 C66.348,182.193995 66.1140023,181.369003 65.646,180.787 C65.1779977,180.204997 64.5180043,179.914 63.666,179.914 C62.8139957,179.914 62.1540023,180.204997 61.686,180.787 C61.2179977,181.369003 60.984,182.193995 60.984,183.262 C60.984,184.342005 61.2149977,185.169997 61.677,185.746 C62.1390023,186.322003 62.8019957,186.61 63.666,186.61 C64.5300043,186.61 65.1929977,186.325003 65.655,185.755 Z M74.988,179.968 L74.034,180.058 C73.1339955,180.142 72.483002,180.423998 72.081,180.904 C71.678998,181.384002 71.478,181.977996 71.478,182.686 L71.478,187.69 L70.02,187.69 L70.02,178.924 L71.442,178.924 L71.442,180.454 C71.9340025,179.433995 72.8999928,178.864001 74.34,178.744 L74.862,178.708 L74.988,179.968 Z M81.018,186.592 L80.946,187.744 C80.6699986,187.792 80.3700016,187.816 80.046,187.816 C78.9899947,187.816 78.1950027,187.540003 77.661,186.988 C77.1269973,186.435997 76.86,185.668005 76.86,184.684 L76.86,180.076 L75.15,180.076 L75.15,178.924 L76.86,178.924 L76.86,176.26 L78.318,176.26 L78.318,178.924 L80.802,178.924 L80.802,180.076 L78.318,180.076 L78.318,184.576 C78.318,185.956007 78.9539936,186.646 80.226,186.646 C80.4900013,186.646 80.7539987,186.628 81.018,186.592 Z M81.954,186.682 L82.44,185.602 C82.9080023,185.974002 83.3849976,186.240999 83.871,186.403 C84.3570024,186.565001 84.9059969,186.646 85.518,186.646 C86.1660032,186.646 86.6609983,186.535001 87.003,186.313 C87.3450017,186.090999 87.516,185.770002 87.516,185.35 C87.516,185.001998 87.4020011,184.726001 87.174,184.522 C86.9459989,184.317999 86.5680026,184.156001 86.04,184.036 L84.564,183.694 C83.8199963,183.525999 83.250002,183.238002 82.854,182.83 C82.457998,182.421998 82.26,181.918003 82.26,181.318 C82.26,180.537996 82.5659969,179.908002 83.178,179.428 C83.7900031,178.947998 84.6059949,178.708 85.626,178.708 C86.2380031,178.708 86.8199972,178.806999 87.372,179.005 C87.9240028,179.203001 88.3859981,179.487998 88.758,179.86 L88.272,180.922 C87.467996,180.237997 86.5860048,179.896 85.626,179.896 C85.0139969,179.896 84.5370017,180.012999 84.195,180.247 C83.8529983,180.481001 83.682,180.807998 83.682,181.228 C83.682,181.576002 83.786999,181.854999 83.997,182.065 C84.2070011,182.275001 84.5459977,182.433999 85.014,182.542 L86.508,182.902 C87.3240041,183.094001 87.929998,183.384998 88.326,183.775 C88.722002,184.165002 88.92,184.671997 88.92,185.296 C88.92,186.064004 88.6110031,186.675998 87.993,187.132 C87.3749969,187.588002 86.5320053,187.816 85.464,187.816 C83.9879926,187.816 82.8180043,187.438004 81.954,186.682 Z M103.338,182.182 L103.338,187.69 L101.88,187.69 L101.88,182.272 C101.88,181.455996 101.721002,180.862002 101.403,180.49 C101.084998,180.117998 100.578003,179.932 99.882,179.932 C99.077996,179.932 98.4360024,180.177998 97.956,180.67 C97.4759976,181.162002 97.236,181.827996 97.236,182.668 L97.236,187.69 L95.778,187.69 L95.778,175 L97.236,175 L97.236,180.328 C97.5240014,179.799997 97.9229975,179.398001 98.433,179.122 C98.9430026,178.845999 99.5279967,178.708 100.188,178.708 C102.288011,178.708 103.338,179.865988 103.338,182.182 Z M112.059,179.563 C112.605003,180.133003 112.878,180.999994 112.878,182.164 L112.878,187.69 L111.456,187.69 L111.456,186.196 C111.227999,186.712003 110.880002,187.110999 110.412,187.393 C109.943998,187.675001 109.404003,187.816 108.792,187.816 C108.227997,187.816 107.709002,187.702001 107.235,187.474 C106.760998,187.245999 106.386001,186.928002 106.11,186.52 C105.833999,186.111998 105.696,185.662002 105.696,185.17 C105.696,184.509997 105.863998,183.997002 106.2,183.631 C106.536002,183.264998 107.087996,183.001001 107.856,182.839 C108.624004,182.676999 109.691993,182.596 111.06,182.596 L111.456,182.596 L111.456,182.002 C111.456,181.269996 111.306002,180.739002 111.006,180.409 C110.705999,180.078998 110.220003,179.914 109.548,179.914 C108.539995,179.914 107.538005,180.225997 106.542,180.85 L106.056,179.788 C106.512002,179.463998 107.060997,179.203001 107.703,179.005 C108.345003,178.806999 108.965997,178.708 109.566,178.708 C110.682006,178.708 111.512997,178.992997 112.059,179.563 Z M110.763,185.935 C111.225002,185.448998 111.456,184.822004 111.456,184.054 L111.456,183.532 L111.132,183.532 C110.075995,183.532 109.272003,183.577 108.72,183.667 C108.167997,183.757 107.775001,183.906999 107.541,184.117 C107.306999,184.327001 107.19,184.635998 107.19,185.044 C107.19,185.512002 107.360998,185.898998 107.703,186.205 C108.045002,186.511002 108.473997,186.664 108.99,186.664 C109.710004,186.664 110.300998,186.421002 110.763,185.935 Z M115.002,186.682 L115.488,185.602 C115.956002,185.974002 116.432998,186.240999 116.919,186.403 C117.405002,186.565001 117.953997,186.646 118.566,186.646 C119.214003,186.646 119.708998,186.535001 120.051,186.313 C120.393002,186.090999 120.564,185.770002 120.564,185.35 C120.564,185.001998 120.450001,184.726001 120.222,184.522 C119.993999,184.317999 119.616003,184.156001 119.088,184.036 L117.612,183.694 C116.867996,183.525999 116.298002,183.238002 115.902,182.83 C115.505998,182.421998 115.308,181.918003 115.308,181.318 C115.308,180.537996 115.613997,179.908002 116.226,179.428 C116.838003,178.947998 117.653995,178.708 118.674,178.708 C119.286003,178.708 119.867997,178.806999 120.42,179.005 C120.972003,179.203001 121.433998,179.487998 121.806,179.86 L121.32,180.922 C120.515996,180.237997 119.634005,179.896 118.674,179.896 C118.061997,179.896 117.585002,180.012999 117.243,180.247 C116.900998,180.481001 116.73,180.807998 116.73,181.228 C116.73,181.576002 116.834999,181.854999 117.045,182.065 C117.255001,182.275001 117.593998,182.433999 118.062,182.542 L119.556,182.902 C120.372004,183.094001 120.977998,183.384998 121.374,183.775 C121.770002,184.165002 121.968,184.671997 121.968,185.296 C121.968,186.064004 121.659003,186.675998 121.041,187.132 C120.422997,187.588002 119.580005,187.816 118.512,187.816 C117.035993,187.816 115.866004,187.438004 115.002,186.682 Z M135.27,179.266 C135.858003,179.638002 136.313998,180.165997 136.638,180.85 C136.962002,181.534003 137.124,182.325995 137.124,183.226 C137.124,184.138005 136.962002,184.938997 136.638,185.629 C136.313998,186.319003 135.858003,186.855998 135.27,187.24 C134.681997,187.624002 134.004004,187.816 133.236,187.816 C132.551997,187.816 131.955003,187.666001 131.445,187.366 C130.934997,187.065998 130.548001,186.640003 130.284,186.088 L130.284,187.69 L128.826,187.69 L128.826,175 L130.284,175 L130.284,180.436 C130.548001,179.883997 130.934997,179.458002 131.445,179.158 C131.955003,178.857999 132.551997,178.708 133.236,178.708 C134.004004,178.708 134.681997,178.893998 135.27,179.266 Z M134.928,185.719 C135.396002,185.124997 135.63,184.294005 135.63,183.226 C135.63,182.181995 135.396002,181.372003 134.928,180.796 C134.459998,180.219997 133.800004,179.932 132.948,179.932 C132.095996,179.932 131.439002,180.219997 130.977,180.796 C130.514998,181.372003 130.284,182.193995 130.284,183.262 C130.284,184.330005 130.514998,185.154997 130.977,185.737 C131.439002,186.319003 132.095996,186.61 132.948,186.61 C133.800004,186.61 134.459998,186.313003 134.928,185.719 Z M146.646,183.532 L140.238,183.532 C140.286,184.552005 140.561997,185.322997 141.066,185.845 C141.570003,186.367003 142.283995,186.628 143.208,186.628 C144.228005,186.628 145.163996,186.280003 146.016,185.584 L146.502,186.646 C146.117998,187.006002 145.626003,187.290999 145.026,187.501 C144.425997,187.711001 143.814003,187.816 143.19,187.816 C141.821993,187.816 140.745004,187.414004 139.959,186.61 C139.172996,185.805996 138.78,184.696007 138.78,183.28 C138.78,182.379996 138.953998,181.585003 139.302,180.895 C139.650002,180.204997 140.138997,179.668002 140.769,179.284 C141.399003,178.899998 142.115996,178.708 142.92,178.708 C144.084006,178.708 144.995997,179.088996 145.656,179.851 C146.316003,180.613004 146.646,181.659993 146.646,182.992 L146.646,183.532 Z M141.093,180.562 C140.630998,181.042002 140.358,181.719996 140.274,182.596 L145.368,182.596 C145.344,181.707996 145.122002,181.027002 144.702,180.553 C144.281998,180.078998 143.694004,179.842 142.938,179.842 C142.169996,179.842 141.555002,180.081998 141.093,180.562 Z M156.132,183.532 L149.724,183.532 C149.772,184.552005 150.047997,185.322997 150.552,185.845 C151.056003,186.367003 151.769995,186.628 152.694,186.628 C153.714005,186.628 154.649996,186.280003 155.502,185.584 L155.988,186.646 C155.603998,187.006002 155.112003,187.290999 154.512,187.501 C153.911997,187.711001 153.300003,187.816 152.676,187.816 C151.307993,187.816 150.231004,187.414004 149.445,186.61 C148.658996,185.805996 148.266,184.696007 148.266,183.28 C148.266,182.379996 148.439998,181.585003 148.788,180.895 C149.136002,180.204997 149.624997,179.668002 150.255,179.284 C150.885003,178.899998 151.601996,178.708 152.406,178.708 C153.570006,178.708 154.481997,179.088996 155.142,179.851 C155.802003,180.613004 156.132,181.659993 156.132,182.992 L156.132,183.532 Z M150.579,180.562 C150.116998,181.042002 149.844,181.719996 149.76,182.596 L154.854,182.596 C154.83,181.707996 154.608002,181.027002 154.188,180.553 C153.767998,180.078998 153.180004,179.842 152.424,179.842 C151.655996,179.842 151.041002,180.081998 150.579,180.562 Z M165.834,182.182 L165.834,187.69 L164.376,187.69 L164.376,182.272 C164.376,181.455996 164.217002,180.862002 163.899,180.49 C163.580998,180.117998 163.074003,179.932 162.378,179.932 C161.573996,179.932 160.932002,180.177998 160.452,180.67 C159.971998,181.162002 159.732,181.827996 159.732,182.668 L159.732,187.69 L158.274,187.69 L158.274,178.924 L159.714,178.924 L159.714,180.364 C160.002001,179.823997 160.403997,179.413001 160.92,179.131 C161.436003,178.848999 162.023997,178.708 162.684,178.708 C164.78401,178.708 165.834,179.865988 165.834,182.182 Z M180.918,175 L180.918,187.69 L179.46,187.69 L179.46,186.088 C179.195999,186.640003 178.809003,187.065998 178.299,187.366 C177.788997,187.666001 177.192003,187.816 176.508,187.816 C175.739996,187.816 175.062003,187.624002 174.474,187.24 C173.885997,186.855998 173.430002,186.319003 173.106,185.629 C172.781998,184.938997 172.62,184.138005 172.62,183.226 C172.62,182.325995 172.781998,181.534003 173.106,180.85 C173.430002,180.165997 173.885997,179.638002 174.474,179.266 C175.062003,178.893998 175.739996,178.708 176.508,178.708 C177.192003,178.708 177.788997,178.857999 178.299,179.158 C178.809003,179.458002 179.195999,179.883997 179.46,180.436 L179.46,175 L180.918,175 Z M178.767,185.737 C179.229002,185.154997 179.46,184.330005 179.46,183.262 C179.46,182.193995 179.229002,181.372003 178.767,180.796 C178.304998,180.219997 177.648004,179.932 176.796,179.932 C175.943996,179.932 175.281002,180.219997 174.807,180.796 C174.332998,181.372003 174.096,182.181995 174.096,183.226 C174.096,184.294005 174.332998,185.124997 174.807,185.719 C175.281002,186.313003 175.943996,186.61 176.796,186.61 C177.648004,186.61 178.304998,186.319003 178.767,185.737 Z M185.067,187.258 C184.436997,186.885998 183.951002,186.355003 183.609,185.665 C183.266998,184.974997 183.096,184.174005 183.096,183.262 C183.096,182.349995 183.266998,181.549003 183.609,180.859 C183.951002,180.168997 184.436997,179.638002 185.067,179.266 C185.697003,178.893998 186.425996,178.708 187.254,178.708 C188.082004,178.708 188.813997,178.893998 189.45,179.266 C190.086003,179.638002 190.574998,180.168997 190.917,180.859 C191.259002,181.549003 191.43,182.349995 191.43,183.262 C191.43,184.174005 191.259002,184.974997 190.917,185.665 C190.574998,186.355003 190.086003,186.885998 189.45,187.258 C188.813997,187.630002 188.082004,187.816 187.254,187.816 C186.425996,187.816 185.697003,187.630002 185.067,187.258 Z M189.243,185.755 C189.705002,185.184997 189.936,184.354005 189.936,183.262 C189.936,182.193995 189.702002,181.369003 189.234,180.787 C188.765998,180.204997 188.106004,179.914 187.254,179.914 C186.401996,179.914 185.742002,180.204997 185.274,180.787 C184.805998,181.369003 184.572,182.193995 184.572,183.262 C184.572,184.342005 184.802998,185.169997 185.265,185.746 C185.727002,186.322003 186.389996,186.61 187.254,186.61 C188.118004,186.61 188.780998,186.325003 189.243,185.755 Z M205.506,178.924 L206.964,178.924 L203.706,187.69 L202.302,187.69 L199.836,180.904 L197.352,187.69 L195.966,187.69 L192.708,178.924 L194.22,178.924 L196.704,185.962 L199.242,178.924 L200.502,178.924 L203.004,185.962 L205.506,178.924 Z M216.324,182.182 L216.324,187.69 L214.866,187.69 L214.866,182.272 C214.866,181.455996 214.707002,180.862002 214.389,180.49 C214.070998,180.117998 213.564003,179.932 212.868,179.932 C212.063996,179.932 211.422002,180.177998 210.942,180.67 C210.461998,181.162002 210.222,181.827996 210.222,182.668 L210.222,187.69 L208.764,187.69 L208.764,178.924 L210.204,178.924 L210.204,180.364 C210.492001,179.823997 210.893997,179.413001 211.41,179.131 C211.926003,178.848999 212.513997,178.708 213.174,178.708 C215.27401,178.708 216.324,179.865988 216.324,182.182 Z M218.988,187.69 L218.988,175 L220.446,175 L220.446,187.69 L218.988,187.69 Z M224.613,187.258 C223.982997,186.885998 223.497002,186.355003 223.155,185.665 C222.812998,184.974997 222.642,184.174005 222.642,183.262 C222.642,182.349995 222.812998,181.549003 223.155,180.859 C223.497002,180.168997 223.982997,179.638002 224.613,179.266 C225.243003,178.893998 225.971996,178.708 226.8,178.708 C227.628004,178.708 228.359997,178.893998 228.996,179.266 C229.632003,179.638002 230.120998,180.168997 230.463,180.859 C230.805002,181.549003 230.976,182.349995 230.976,183.262 C230.976,184.174005 230.805002,184.974997 230.463,185.665 C230.120998,186.355003 229.632003,186.885998 228.996,187.258 C228.359997,187.630002 227.628004,187.816 226.8,187.816 C225.971996,187.816 225.243003,187.630002 224.613,187.258 Z M228.789,185.755 C229.251002,185.184997 229.482,184.354005 229.482,183.262 C229.482,182.193995 229.248002,181.369003 228.78,180.787 C228.311998,180.204997 227.652004,179.914 226.8,179.914 C225.947996,179.914 225.288002,180.204997 224.82,180.787 C224.351998,181.369003 224.118,182.193995 224.118,183.262 C224.118,184.342005 224.348998,185.169997 224.811,185.746 C225.273002,186.322003 225.935996,186.61 226.8,186.61 C227.664004,186.61 228.326998,186.325003 228.789,185.755 Z M239.211,179.563 C239.757003,180.133003 240.03,180.999994 240.03,182.164 L240.03,187.69 L238.608,187.69 L238.608,186.196 C238.379999,186.712003 238.032002,187.110999 237.564,187.393 C237.095998,187.675001 236.556003,187.816 235.944,187.816 C235.379997,187.816 234.861002,187.702001 234.387,187.474 C233.912998,187.245999 233.538001,186.928002 233.262,186.52 C232.985999,186.111998 232.848,185.662002 232.848,185.17 C232.848,184.509997 233.015998,183.997002 233.352,183.631 C233.688002,183.264998 234.239996,183.001001 235.008,182.839 C235.776004,182.676999 236.843993,182.596 238.212,182.596 L238.608,182.596 L238.608,182.002 C238.608,181.269996 238.458002,180.739002 238.158,180.409 C237.857999,180.078998 237.372003,179.914 236.7,179.914 C235.691995,179.914 234.690005,180.225997 233.694,180.85 L233.208,179.788 C233.664002,179.463998 234.212997,179.203001 234.855,179.005 C235.497003,178.806999 236.117997,178.708 236.718,178.708 C237.834006,178.708 238.664997,178.992997 239.211,179.563 Z M237.915,185.935 C238.377002,185.448998 238.608,184.822004 238.608,184.054 L238.608,183.532 L238.284,183.532 C237.227995,183.532 236.424003,183.577 235.872,183.667 C235.319997,183.757 234.927001,183.906999 234.693,184.117 C234.458999,184.327001 234.342,184.635998 234.342,185.044 C234.342,185.512002 234.512998,185.898998 234.855,186.205 C235.197002,186.511002 235.625997,186.664 236.142,186.664 C236.862004,186.664 237.452998,186.421002 237.915,185.935 Z M250.47,175 L250.47,187.69 L249.012,187.69 L249.012,186.088 C248.747999,186.640003 248.361003,187.065998 247.851,187.366 C247.340997,187.666001 246.744003,187.816 246.06,187.816 C245.291996,187.816 244.614003,187.624002 244.026,187.24 C243.437997,186.855998 242.982002,186.319003 242.658,185.629 C242.333998,184.938997 242.172,184.138005 242.172,183.226 C242.172,182.325995 242.333998,181.534003 242.658,180.85 C242.982002,180.165997 243.437997,179.638002 244.026,179.266 C244.614003,178.893998 245.291996,178.708 246.06,178.708 C246.744003,178.708 247.340997,178.857999 247.851,179.158 C248.361003,179.458002 248.747999,179.883997 249.012,180.436 L249.012,175 L250.47,175 Z M248.319,185.737 C248.781002,185.154997 249.012,184.330005 249.012,183.262 C249.012,182.193995 248.781002,181.372003 248.319,180.796 C247.856998,180.219997 247.200004,179.932 246.348,179.932 C245.495996,179.932 244.833002,180.219997 244.359,180.796 C243.884998,181.372003 243.648,182.181995 243.648,183.226 C243.648,184.294005 243.884998,185.124997 244.359,185.719 C244.833002,186.313003 245.495996,186.61 246.348,186.61 C247.200004,186.61 247.856998,186.319003 248.319,185.737 Z M260.514,183.532 L254.106,183.532 C254.154,184.552005 254.429997,185.322997 254.934,185.845 C255.438003,186.367003 256.151995,186.628 257.076,186.628 C258.096005,186.628 259.031996,186.280003 259.884,185.584 L260.37,186.646 C259.985998,187.006002 259.494003,187.290999 258.894,187.501 C258.293997,187.711001 257.682003,187.816 257.058,187.816 C255.689993,187.816 254.613004,187.414004 253.827,186.61 C253.040996,185.805996 252.648,184.696007 252.648,183.28 C252.648,182.379996 252.821998,181.585003 253.17,180.895 C253.518002,180.204997 254.006997,179.668002 254.637,179.284 C255.267003,178.899998 255.983996,178.708 256.788,178.708 C257.952006,178.708 258.863997,179.088996 259.524,179.851 C260.184003,180.613004 260.514,181.659993 260.514,182.992 L260.514,183.532 Z M254.961,180.562 C254.498998,181.042002 254.226,181.719996 254.142,182.596 L259.236,182.596 C259.212,181.707996 258.990002,181.027002 258.57,180.553 C258.149998,180.078998 257.562004,179.842 256.806,179.842 C256.037996,179.842 255.423002,180.081998 254.961,180.562 Z M270.432,175 L270.432,187.69 L268.974,187.69 L268.974,186.088 C268.709999,186.640003 268.323003,187.065998 267.813,187.366 C267.302997,187.666001 266.706003,187.816 266.022,187.816 C265.253996,187.816 264.576003,187.624002 263.988,187.24 C263.399997,186.855998 262.944002,186.319003 262.62,185.629 C262.295998,184.938997 262.134,184.138005 262.134,183.226 C262.134,182.325995 262.295998,181.534003 262.62,180.85 C262.944002,180.165997 263.399997,179.638002 263.988,179.266 C264.576003,178.893998 265.253996,178.708 266.022,178.708 C266.706003,178.708 267.302997,178.857999 267.813,179.158 C268.323003,179.458002 268.709999,179.883997 268.974,180.436 L268.974,175 L270.432,175 Z M268.281,185.737 C268.743002,185.154997 268.974,184.330005 268.974,183.262 C268.974,182.193995 268.743002,181.372003 268.281,180.796 C267.818998,180.219997 267.162004,179.932 266.31,179.932 C265.457996,179.932 264.795002,180.219997 264.321,180.796 C263.846998,181.372003 263.61,182.181995 263.61,183.226 C263.61,184.294005 263.846998,185.124997 264.321,185.719 C264.795002,186.313003 265.457996,186.61 266.31,186.61 C267.162004,186.61 267.818998,186.319003 268.281,185.737 Z M272.916,185.854 L274.752,185.854 L274.752,187.69 L272.916,187.69 L272.916,185.854 Z M291.672,175 L286.686,181.696 L286.686,187.69 L285.21,187.69 L285.21,181.678 L280.224,175 L281.934,175 L285.966,180.472 L289.998,175 L291.672,175 Z M294.165,187.258 C293.534997,186.885998 293.049002,186.355003 292.707,185.665 C292.364998,184.974997 292.194,184.174005 292.194,183.262 C292.194,182.349995 292.364998,181.549003 292.707,180.859 C293.049002,180.168997 293.534997,179.638002 294.165,179.266 C294.795003,178.893998 295.523996,178.708 296.352,178.708 C297.180004,178.708 297.911997,178.893998 298.548,179.266 C299.184003,179.638002 299.672998,180.168997 300.015,180.859 C300.357002,181.549003 300.528,182.349995 300.528,183.262 C300.528,184.174005 300.357002,184.974997 300.015,185.665 C299.672998,186.355003 299.184003,186.885998 298.548,187.258 C297.911997,187.630002 297.180004,187.816 296.352,187.816 C295.523996,187.816 294.795003,187.630002 294.165,187.258 Z M298.341,185.755 C298.803002,185.184997 299.034,184.354005 299.034,183.262 C299.034,182.193995 298.800002,181.369003 298.332,180.787 C297.863998,180.204997 297.204004,179.914 296.352,179.914 C295.499996,179.914 294.840002,180.204997 294.372,180.787 C293.903998,181.369003 293.67,182.193995 293.67,183.262 C293.67,184.342005 293.900998,185.169997 294.363,185.746 C294.825002,186.322003 295.487996,186.61 296.352,186.61 C297.216004,186.61 297.878998,186.325003 298.341,185.755 Z M310.086,178.924 L310.086,187.69 L308.664,187.69 L308.664,186.196 C308.387999,186.724003 308.001002,187.125999 307.503,187.402 C307.004998,187.678001 306.444003,187.816 305.82,187.816 C304.775995,187.816 303.990003,187.525003 303.462,186.943 C302.933997,186.360997 302.67,185.500006 302.67,184.36 L302.67,178.924 L304.128,178.924 L304.128,184.324 C304.128,185.104004 304.283998,185.676998 304.596,186.043 C304.908002,186.409002 305.399997,186.592 306.072,186.592 C306.840004,186.592 307.457998,186.343002 307.926,185.845 C308.394002,185.346998 308.628,184.690004 308.628,183.874 L308.628,178.924 L310.086,178.924 Z M318.906,187.258 C318.269997,186.885998 317.781002,186.361003 317.439,185.683 C317.096998,185.004997 316.926,184.210005 316.926,183.298 C316.926,182.385995 317.102998,181.585003 317.457,180.895 C317.811002,180.204997 318.308997,179.668002 318.951,179.284 C319.593003,178.899998 320.345996,178.708 321.21,178.708 C321.798003,178.708 322.373997,178.812999 322.938,179.023 C323.502003,179.233001 323.957998,179.511998 324.306,179.86 L323.82,180.94 C322.991996,180.267997 322.152004,179.932 321.3,179.932 C320.399995,179.932 319.698003,180.225997 319.194,180.814 C318.689997,181.402003 318.438,182.229995 318.438,183.298 C318.438,184.354005 318.689997,185.169997 319.194,185.746 C319.698003,186.322003 320.399995,186.61 321.3,186.61 C322.152004,186.61 322.991996,186.274003 323.82,185.602 L324.306,186.682 C323.933998,187.030002 323.466003,187.305999 322.902,187.51 C322.337997,187.714001 321.756003,187.816 321.156,187.816 C320.291996,187.816 319.542003,187.630002 318.906,187.258 Z M332.127,179.563 C332.673003,180.133003 332.946,180.999994 332.946,182.164 L332.946,187.69 L331.524,187.69 L331.524,186.196 C331.295999,186.712003 330.948002,187.110999 330.48,187.393 C330.011998,187.675001 329.472003,187.816 328.86,187.816 C328.295997,187.816 327.777002,187.702001 327.303,187.474 C326.828998,187.245999 326.454001,186.928002 326.178,186.52 C325.901999,186.111998 325.764,185.662002 325.764,185.17 C325.764,184.509997 325.931998,183.997002 326.268,183.631 C326.604002,183.264998 327.155996,183.001001 327.924,182.839 C328.692004,182.676999 329.759993,182.596 331.128,182.596 L331.524,182.596 L331.524,182.002 C331.524,181.269996 331.374002,180.739002 331.074,180.409 C330.773999,180.078998 330.288003,179.914 329.616,179.914 C328.607995,179.914 327.606005,180.225997 326.61,180.85 L326.124,179.788 C326.580002,179.463998 327.128997,179.203001 327.771,179.005 C328.413003,178.806999 329.033997,178.708 329.634,178.708 C330.750006,178.708 331.580997,178.992997 332.127,179.563 Z M330.831,185.935 C331.293002,185.448998 331.524,184.822004 331.524,184.054 L331.524,183.532 L331.2,183.532 C330.143995,183.532 329.340003,183.577 328.788,183.667 C328.235997,183.757 327.843001,183.906999 327.609,184.117 C327.374999,184.327001 327.258,184.635998 327.258,185.044 C327.258,185.512002 327.428998,185.898998 327.771,186.205 C328.113002,186.511002 328.541997,186.664 329.058,186.664 C329.778004,186.664 330.368998,186.421002 330.831,185.935 Z M343.17,182.182 L343.17,187.69 L341.712,187.69 L341.712,182.272 C341.712,181.455996 341.553002,180.862002 341.235,180.49 C340.916998,180.117998 340.410003,179.932 339.714,179.932 C338.909996,179.932 338.268002,180.177998 337.788,180.67 C337.307998,181.162002 337.068,181.827996 337.068,182.668 L337.068,187.69 L335.61,187.69 L335.61,178.924 L337.05,178.924 L337.05,180.364 C337.338001,179.823997 337.739997,179.413001 338.256,179.131 C338.772003,178.848999 339.359997,178.708 340.02,178.708 C342.12001,178.708 343.17,179.865988 343.17,182.182 Z M349.938,186.682 L350.424,185.602 C350.892002,185.974002 351.368998,186.240999 351.855,186.403 C352.341002,186.565001 352.889997,186.646 353.502,186.646 C354.150003,186.646 354.644998,186.535001 354.987,186.313 C355.329002,186.090999 355.5,185.770002 355.5,185.35 C355.5,185.001998 355.386001,184.726001 355.158,184.522 C354.929999,184.317999 354.552003,184.156001 354.024,184.036 L352.548,183.694 C351.803996,183.525999 351.234002,183.238002 350.838,182.83 C350.441998,182.421998 350.244,181.918003 350.244,181.318 C350.244,180.537996 350.549997,179.908002 351.162,179.428 C351.774003,178.947998 352.589995,178.708 353.61,178.708 C354.222003,178.708 354.803997,178.806999 355.356,179.005 C355.908003,179.203001 356.369998,179.487998 356.742,179.86 L356.256,180.922 C355.451996,180.237997 354.570005,179.896 353.61,179.896 C352.997997,179.896 352.521002,180.012999 352.179,180.247 C351.836998,180.481001 351.666,180.807998 351.666,181.228 C351.666,181.576002 351.770999,181.854999 351.981,182.065 C352.191001,182.275001 352.529998,182.433999 352.998,182.542 L354.492,182.902 C355.308004,183.094001 355.913998,183.384998 356.31,183.775 C356.706002,184.165002 356.904,184.671997 356.904,185.296 C356.904,186.064004 356.595003,186.675998 355.977,187.132 C355.358997,187.588002 354.516005,187.816 353.448,187.816 C351.971993,187.816 350.802004,187.438004 349.938,186.682 Z M366.462,183.532 L360.054,183.532 C360.102,184.552005 360.377997,185.322997 360.882,185.845 C361.386003,186.367003 362.099995,186.628 363.024,186.628 C364.044005,186.628 364.979996,186.280003 365.832,185.584 L366.318,186.646 C365.933998,187.006002 365.442003,187.290999 364.842,187.501 C364.241997,187.711001 363.630003,187.816 363.006,187.816 C361.637993,187.816 360.561004,187.414004 359.775,186.61 C358.988996,185.805996 358.596,184.696007 358.596,183.28 C358.596,182.379996 358.769998,181.585003 359.118,180.895 C359.466002,180.204997 359.954997,179.668002 360.585,179.284 C361.215003,178.899998 361.931996,178.708 362.736,178.708 C363.900006,178.708 364.811997,179.088996 365.472,179.851 C366.132003,180.613004 366.462,181.659993 366.462,182.992 L366.462,183.532 Z M360.909,180.562 C360.446998,181.042002 360.174,181.719996 360.09,182.596 L365.184,182.596 C365.16,181.707996 364.938002,181.027002 364.518,180.553 C364.097998,180.078998 363.510004,179.842 362.754,179.842 C361.985996,179.842 361.371002,180.081998 360.909,180.562 Z M375.948,183.532 L369.54,183.532 C369.588,184.552005 369.863997,185.322997 370.368,185.845 C370.872003,186.367003 371.585995,186.628 372.51,186.628 C373.530005,186.628 374.465996,186.280003 375.318,185.584 L375.804,186.646 C375.419998,187.006002 374.928003,187.290999 374.328,187.501 C373.727997,187.711001 373.116003,187.816 372.492,187.816 C371.123993,187.816 370.047004,187.414004 369.261,186.61 C368.474996,185.805996 368.082,184.696007 368.082,183.28 C368.082,182.379996 368.255998,181.585003 368.604,180.895 C368.952002,180.204997 369.440997,179.668002 370.071,179.284 C370.701003,178.899998 371.417996,178.708 372.222,178.708 C373.386006,178.708 374.297997,179.088996 374.958,179.851 C375.618003,180.613004 375.948,181.659993 375.948,182.992 L375.948,183.532 Z M370.395,180.562 C369.932998,181.042002 369.66,181.719996 369.576,182.596 L374.67,182.596 C374.646,181.707996 374.424002,181.027002 374.004,180.553 C373.583998,180.078998 372.996004,179.842 372.24,179.842 C371.471996,179.842 370.857002,180.081998 370.395,180.562 Z M387.378,186.592 L387.306,187.744 C387.029999,187.792 386.730002,187.816 386.406,187.816 C385.349995,187.816 384.555003,187.540003 384.021,186.988 C383.486997,186.435997 383.22,185.668005 383.22,184.684 L383.22,180.076 L381.51,180.076 L381.51,178.924 L383.22,178.924 L383.22,176.26 L384.678,176.26 L384.678,178.924 L387.162,178.924 L387.162,180.076 L384.678,180.076 L384.678,184.576 C384.678,185.956007 385.313994,186.646 386.586,186.646 C386.850001,186.646 387.113999,186.628 387.378,186.592 Z M396.414,182.182 L396.414,187.69 L394.956,187.69 L394.956,182.272 C394.956,181.455996 394.797002,180.862002 394.479,180.49 C394.160998,180.117998 393.654003,179.932 392.958,179.932 C392.153996,179.932 391.512002,180.177998 391.032,180.67 C390.551998,181.162002 390.312,181.827996 390.312,182.668 L390.312,187.69 L388.854,187.69 L388.854,175 L390.312,175 L390.312,180.328 C390.600001,179.799997 390.998997,179.398001 391.509,179.122 C392.019003,178.845999 392.603997,178.708 393.264,178.708 C395.364011,178.708 396.414,179.865988 396.414,182.182 Z M406.422,183.532 L400.014,183.532 C400.062,184.552005 400.337997,185.322997 400.842,185.845 C401.346003,186.367003 402.059995,186.628 402.984,186.628 C404.004005,186.628 404.939996,186.280003 405.792,185.584 L406.278,186.646 C405.893998,187.006002 405.402003,187.290999 404.802,187.501 C404.201997,187.711001 403.590003,187.816 402.966,187.816 C401.597993,187.816 400.521004,187.414004 399.735,186.61 C398.948996,185.805996 398.556,184.696007 398.556,183.28 C398.556,182.379996 398.729998,181.585003 399.078,180.895 C399.426002,180.204997 399.914997,179.668002 400.545,179.284 C401.175003,178.899998 401.891996,178.708 402.696,178.708 C403.860006,178.708 404.771997,179.088996 405.432,179.851 C406.092003,180.613004 406.422,181.659993 406.422,182.992 L406.422,183.532 Z M400.869,180.562 C400.406998,181.042002 400.134,181.719996 400.05,182.596 L405.144,182.596 C405.12,181.707996 404.898002,181.027002 404.478,180.553 C404.057998,180.078998 403.470004,179.842 402.714,179.842 C401.945996,179.842 401.331002,180.081998 400.869,180.562 Z M418.176,179.968 L417.222,180.058 C416.321996,180.142 415.671002,180.423998 415.269,180.904 C414.866998,181.384002 414.666,181.977996 414.666,182.686 L414.666,187.69 L413.208,187.69 L413.208,178.924 L414.63,178.924 L414.63,180.454 C415.122002,179.433995 416.087993,178.864001 417.528,178.744 L418.05,178.708 L418.176,179.968 Z M426.906,183.532 L420.498,183.532 C420.546,184.552005 420.821997,185.322997 421.326,185.845 C421.830003,186.367003 422.543995,186.628 423.468,186.628 C424.488005,186.628 425.423996,186.280003 426.276,185.584 L426.762,186.646 C426.377998,187.006002 425.886003,187.290999 425.286,187.501 C424.685997,187.711001 424.074003,187.816 423.45,187.816 C422.081993,187.816 421.005004,187.414004 420.219,186.61 C419.432996,185.805996 419.04,184.696007 419.04,183.28 C419.04,182.379996 419.213998,181.585003 419.562,180.895 C419.910002,180.204997 420.398997,179.668002 421.029,179.284 C421.659003,178.899998 422.375996,178.708 423.18,178.708 C424.344006,178.708 425.255997,179.088996 425.916,179.851 C426.576003,180.613004 426.906,181.659993 426.906,182.992 L426.906,183.532 Z M421.353,180.562 C420.890998,181.042002 420.618,181.719996 420.534,182.596 L425.628,182.596 C425.604,181.707996 425.382002,181.027002 424.962,180.553 C424.541998,180.078998 423.954004,179.842 423.198,179.842 C422.429996,179.842 421.815002,180.081998 421.353,180.562 Z M435.492,179.284 C436.080003,179.668002 436.535998,180.204997 436.86,180.895 C437.184002,181.585003 437.346,182.385995 437.346,183.298 C437.346,184.210005 437.184002,185.004997 436.86,185.683 C436.535998,186.361003 436.083003,186.885998 435.501,187.258 C434.918997,187.630002 434.238004,187.816 433.458,187.816 C432.773997,187.816 432.177003,187.666001 431.667,187.366 C431.156997,187.065998 430.770001,186.640003 430.506,186.088 L430.506,190.93 L429.048,190.93 L429.048,178.924 L430.506,178.924 L430.506,180.436 C430.770001,179.883997 431.156997,179.458002 431.667,179.158 C432.177003,178.857999 432.773997,178.708 433.458,178.708 C434.226004,178.708 434.903997,178.899998 435.492,179.284 Z M435.15,185.746 C435.618002,185.169997 435.852,184.354005 435.852,183.298 C435.852,182.241995 435.618002,181.417003 435.15,180.823 C434.681998,180.228997 434.022004,179.932 433.17,179.932 C432.317996,179.932 431.661002,180.219997 431.199,180.796 C430.736998,181.372003 430.506,182.193995 430.506,183.262 C430.506,184.330005 430.736998,185.154997 431.199,185.737 C431.661002,186.319003 432.317996,186.61 433.17,186.61 C434.022004,186.61 434.681998,186.322003 435.15,185.746 Z M440.973,187.258 C440.342997,186.885998 439.857002,186.355003 439.515,185.665 C439.172998,184.974997 439.002,184.174005 439.002,183.262 C439.002,182.349995 439.172998,181.549003 439.515,180.859 C439.857002,180.168997 440.342997,179.638002 440.973,179.266 C441.603003,178.893998 442.331996,178.708 443.16,178.708 C443.988004,178.708 444.719997,178.893998 445.356,179.266 C445.992003,179.638002 446.480998,180.168997 446.823,180.859 C447.165002,181.549003 447.336,182.349995 447.336,183.262 C447.336,184.174005 447.165002,184.974997 446.823,185.665 C446.480998,186.355003 445.992003,186.885998 445.356,187.258 C444.719997,187.630002 443.988004,187.816 443.16,187.816 C442.331996,187.816 441.603003,187.630002 440.973,187.258 Z M445.149,185.755 C445.611002,185.184997 445.842,184.354005 445.842,183.262 C445.842,182.193995 445.608002,181.369003 445.14,180.787 C444.671998,180.204997 444.012004,179.914 443.16,179.914 C442.307996,179.914 441.648002,180.204997 441.18,180.787 C440.711998,181.369003 440.478,182.193995 440.478,183.262 C440.478,184.342005 440.708998,185.169997 441.171,185.746 C441.633002,186.322003 442.295996,186.61 443.16,186.61 C444.024004,186.61 444.686998,186.325003 445.149,185.755 Z M454.482,179.968 L453.528,180.058 C452.627995,180.142 451.977002,180.423998 451.575,180.904 C451.172998,181.384002 450.972,181.977996 450.972,182.686 L450.972,187.69 L449.514,187.69 L449.514,178.924 L450.936,178.924 L450.936,180.454 C451.428002,179.433995 452.393993,178.864001 453.834,178.744 L454.356,178.708 L454.482,179.968 Z M460.512,186.592 L460.44,187.744 C460.163999,187.792 459.864002,187.816 459.54,187.816 C458.483995,187.816 457.689003,187.540003 457.155,186.988 C456.620997,186.435997 456.354,185.668005 456.354,184.684 L456.354,180.076 L454.644,180.076 L454.644,178.924 L456.354,178.924 L456.354,176.26 L457.812,176.26 L457.812,178.924 L460.296,178.924 L460.296,180.076 L457.812,180.076 L457.812,184.576 C457.812,185.956007 458.447994,186.646 459.72,186.646 C459.984001,186.646 460.247999,186.628 460.512,186.592 Z M461.448,186.682 L461.934,185.602 C462.402002,185.974002 462.878998,186.240999 463.365,186.403 C463.851002,186.565001 464.399997,186.646 465.012,186.646 C465.660003,186.646 466.154998,186.535001 466.497,186.313 C466.839002,186.090999 467.01,185.770002 467.01,185.35 C467.01,185.001998 466.896001,184.726001 466.668,184.522 C466.439999,184.317999 466.062003,184.156001 465.534,184.036 L464.058,183.694 C463.313996,183.525999 462.744002,183.238002 462.348,182.83 C461.951998,182.421998 461.754,181.918003 461.754,181.318 C461.754,180.537996 462.059997,179.908002 462.672,179.428 C463.284003,178.947998 464.099995,178.708 465.12,178.708 C465.732003,178.708 466.313997,178.806999 466.866,179.005 C467.418003,179.203001 467.879998,179.487998 468.252,179.86 L467.766,180.922 C466.961996,180.237997 466.080005,179.896 465.12,179.896 C464.507997,179.896 464.031002,180.012999 463.689,180.247 C463.346998,180.481001 463.176,180.807998 463.176,181.228 C463.176,181.576002 463.280999,181.854999 463.491,182.065 C463.701001,182.275001 464.039998,182.433999 464.508,182.542 L466.002,182.902 C466.818004,183.094001 467.423998,183.384998 467.82,183.775 C468.216002,184.165002 468.414,184.671997 468.414,185.296 C468.414,186.064004 468.105003,186.675998 467.487,187.132 C466.868997,187.588002 466.026005,187.816 464.958,187.816 C463.481993,187.816 462.312004,187.438004 461.448,186.682 Z M476.721,187.258 C476.090997,186.885998 475.605002,186.355003 475.263,185.665 C474.920998,184.974997 474.75,184.174005 474.75,183.262 C474.75,182.349995 474.920998,181.549003 475.263,180.859 C475.605002,180.168997 476.090997,179.638002 476.721,179.266 C477.351003,178.893998 478.079996,178.708 478.908,178.708 C479.736004,178.708 480.467997,178.893998 481.104,179.266 C481.740003,179.638002 482.228998,180.168997 482.571,180.859 C482.913002,181.549003 483.084,182.349995 483.084,183.262 C483.084,184.174005 482.913002,184.974997 482.571,185.665 C482.228998,186.355003 481.740003,186.885998 481.104,187.258 C480.467997,187.630002 479.736004,187.816 478.908,187.816 C478.079996,187.816 477.351003,187.630002 476.721,187.258 Z M480.897,185.755 C481.359002,185.184997 481.59,184.354005 481.59,183.262 C481.59,182.193995 481.356002,181.369003 480.888,180.787 C480.419998,180.204997 479.760004,179.914 478.908,179.914 C478.055996,179.914 477.396002,180.204997 476.928,180.787 C476.459998,181.369003 476.226,182.193995 476.226,183.262 C476.226,184.342005 476.456998,185.169997 476.919,185.746 C477.381002,186.322003 478.043996,186.61 478.908,186.61 C479.772004,186.61 480.434998,186.325003 480.897,185.755 Z M492.822,182.182 L492.822,187.69 L491.364,187.69 L491.364,182.272 C491.364,181.455996 491.205002,180.862002 490.887,180.49 C490.568998,180.117998 490.062003,179.932 489.366,179.932 C488.561996,179.932 487.920002,180.177998 487.44,180.67 C486.959998,181.162002 486.72,181.827996 486.72,182.668 L486.72,187.69 L485.262,187.69 L485.262,178.924 L486.702,178.924 L486.702,180.364 C486.990001,179.823997 487.391997,179.413001 487.908,179.131 C488.424003,178.848999 489.011997,178.708 489.672,178.708 C491.772011,178.708 492.822,179.865988 492.822,182.182 Z M496.944,187.258 C496.307997,186.885998 495.819002,186.361003 495.477,185.683 C495.134998,185.004997 494.964,184.210005 494.964,183.298 C494.964,182.385995 495.140998,181.585003 495.495,180.895 C495.849002,180.204997 496.346997,179.668002 496.989,179.284 C497.631003,178.899998 498.383996,178.708 499.248,178.708 C499.836003,178.708 500.411997,178.812999 500.976,179.023 C501.540003,179.233001 501.995998,179.511998 502.344,179.86 L501.858,180.94 C501.029996,180.267997 500.190004,179.932 499.338,179.932 C498.437995,179.932 497.736003,180.225997 497.232,180.814 C496.727997,181.402003 496.476,182.229995 496.476,183.298 C496.476,184.354005 496.727997,185.169997 497.232,185.746 C497.736003,186.322003 498.437995,186.61 499.338,186.61 C500.190004,186.61 501.029996,186.274003 501.858,185.602 L502.344,186.682 C501.971998,187.030002 501.504003,187.305999 500.94,187.51 C500.375997,187.714001 499.794003,187.816 499.194,187.816 C498.329996,187.816 497.580003,187.630002 496.944,187.258 Z M511.452,183.532 L505.044,183.532 C505.092,184.552005 505.367997,185.322997 505.872,185.845 C506.376003,186.367003 507.089995,186.628 508.014,186.628 C509.034005,186.628 509.969996,186.280003 510.822,185.584 L511.308,186.646 C510.923998,187.006002 510.432003,187.290999 509.832,187.501 C509.231997,187.711001 508.620003,187.816 507.996,187.816 C506.627993,187.816 505.551004,187.414004 504.765,186.61 C503.978996,185.805996 503.586,184.696007 503.586,183.28 C503.586,182.379996 503.759998,181.585003 504.108,180.895 C504.456002,180.204997 504.944997,179.668002 505.575,179.284 C506.205003,178.899998 506.921996,178.708 507.726,178.708 C508.890006,178.708 509.801997,179.088996 510.462,179.851 C511.122003,180.613004 511.452,181.659993 511.452,182.992 L511.452,183.532 Z M505.899,180.562 C505.436998,181.042002 505.164,181.719996 505.08,182.596 L510.174,182.596 C510.15,181.707996 509.928002,181.027002 509.508,180.553 C509.087998,180.078998 508.500004,179.842 507.744,179.842 C506.975996,179.842 506.361002,180.081998 505.899,180.562 Z M524.52,178.942 L525.978,178.942 L520.794,190.93 L519.3,190.93 L520.776,187.582 L517.068,178.942 L518.616,178.942 L521.55,186.106 L524.52,178.942 Z M528.939,187.258 C528.308997,186.885998 527.823002,186.355003 527.481,185.665 C527.138998,184.974997 526.968,184.174005 526.968,183.262 C526.968,182.349995 527.138998,181.549003 527.481,180.859 C527.823002,180.168997 528.308997,179.638002 528.939,179.266 C529.569003,178.893998 530.297996,178.708 531.126,178.708 C531.954004,178.708 532.685997,178.893998 533.322,179.266 C533.958003,179.638002 534.446998,180.168997 534.789,180.859 C535.131002,181.549003 535.302,182.349995 535.302,183.262 C535.302,184.174005 535.131002,184.974997 534.789,185.665 C534.446998,186.355003 533.958003,186.885998 533.322,187.258 C532.685997,187.630002 531.954004,187.816 531.126,187.816 C530.297996,187.816 529.569003,187.630002 528.939,187.258 Z M533.115,185.755 C533.577002,185.184997 533.808,184.354005 533.808,183.262 C533.808,182.193995 533.574002,181.369003 533.106,180.787 C532.637998,180.204997 531.978004,179.914 531.126,179.914 C530.273996,179.914 529.614002,180.204997 529.146,180.787 C528.677998,181.369003 528.444,182.193995 528.444,183.262 C528.444,184.342005 528.674998,185.169997 529.137,185.746 C529.599002,186.322003 530.261996,186.61 531.126,186.61 C531.990004,186.61 532.652998,186.325003 533.115,185.755 Z M544.86,178.924 L544.86,187.69 L543.438,187.69 L543.438,186.196 C543.161999,186.724003 542.775002,187.125999 542.277,187.402 C541.778998,187.678001 541.218003,187.816 540.594,187.816 C539.549995,187.816 538.764003,187.525003 538.236,186.943 C537.707997,186.360997 537.444,185.500006 537.444,184.36 L537.444,178.924 L538.902,178.924 L538.902,184.324 C538.902,185.104004 539.057998,185.676998 539.37,186.043 C539.682002,186.409002 540.173997,186.592 540.846,186.592 C541.614004,186.592 542.231998,186.343002 542.7,185.845 C543.168002,185.346998 543.402,184.690004 543.402,183.874 L543.402,178.924 L544.86,178.924 Z M551.682,186.682 L552.168,185.602 C552.636002,185.974002 553.112998,186.240999 553.599,186.403 C554.085002,186.565001 554.633997,186.646 555.246,186.646 C555.894003,186.646 556.388998,186.535001 556.731,186.313 C557.073002,186.090999 557.244,185.770002 557.244,185.35 C557.244,185.001998 557.130001,184.726001 556.902,184.522 C556.673999,184.317999 556.296003,184.156001 555.768,184.036 L554.292,183.694 C553.547996,183.525999 552.978002,183.238002 552.582,182.83 C552.185998,182.421998 551.988,181.918003 551.988,181.318 C551.988,180.537996 552.293997,179.908002 552.906,179.428 C553.518003,178.947998 554.333995,178.708 555.354,178.708 C555.966003,178.708 556.547997,178.806999 557.1,179.005 C557.652003,179.203001 558.113998,179.487998 558.486,179.86 L558,180.922 C557.195996,180.237997 556.314005,179.896 555.354,179.896 C554.741997,179.896 554.265002,180.012999 553.923,180.247 C553.580998,180.481001 553.41,180.807998 553.41,181.228 C553.41,181.576002 553.514999,181.854999 553.725,182.065 C553.935001,182.275001 554.273998,182.433999 554.742,182.542 L556.236,182.902 C557.052004,183.094001 557.657998,183.384998 558.054,183.775 C558.450002,184.165002 558.648,184.671997 558.648,185.296 C558.648,186.064004 558.339003,186.675998 557.721,187.132 C557.102997,187.588002 556.260005,187.816 555.192,187.816 C553.715993,187.816 552.546004,187.438004 551.682,186.682 Z M565.506,186.592 L565.434,187.744 C565.157999,187.792 564.858002,187.816 564.534,187.816 C563.477995,187.816 562.683003,187.540003 562.149,186.988 C561.614997,186.435997 561.348,185.668005 561.348,184.684 L561.348,180.076 L559.638,180.076 L559.638,178.924 L561.348,178.924 L561.348,176.26 L562.806,176.26 L562.806,178.924 L565.29,178.924 L565.29,180.076 L562.806,180.076 L562.806,184.576 C562.806,185.956007 563.441994,186.646 564.714,186.646 C564.978001,186.646 565.241999,186.628 565.506,186.592 Z M573.039,179.563 C573.585003,180.133003 573.858,180.999994 573.858,182.164 L573.858,187.69 L572.436,187.69 L572.436,186.196 C572.207999,186.712003 571.860002,187.110999 571.392,187.393 C570.923998,187.675001 570.384003,187.816 569.772,187.816 C569.207997,187.816 568.689002,187.702001 568.215,187.474 C567.740998,187.245999 567.366001,186.928002 567.09,186.52 C566.813999,186.111998 566.676,185.662002 566.676,185.17 C566.676,184.509997 566.843998,183.997002 567.18,183.631 C567.516002,183.264998 568.067996,183.001001 568.836,182.839 C569.604004,182.676999 570.671993,182.596 572.04,182.596 L572.436,182.596 L572.436,182.002 C572.436,181.269996 572.286001,180.739002 571.986,180.409 C571.685998,180.078998 571.200003,179.914 570.528,179.914 C569.519995,179.914 568.518005,180.225997 567.522,180.85 L567.036,179.788 C567.492002,179.463998 568.040997,179.203001 568.683,179.005 C569.325003,178.806999 569.945997,178.708 570.546,178.708 C571.662006,178.708 572.492997,178.992997 573.039,179.563 Z M571.743,185.935 C572.205002,185.448998 572.436,184.822004 572.436,184.054 L572.436,183.532 L572.112,183.532 C571.055995,183.532 570.252003,183.577 569.7,183.667 C569.147997,183.757 568.755001,183.906999 568.521,184.117 C568.286999,184.327001 568.17,184.635998 568.17,185.044 C568.17,185.512002 568.340998,185.898998 568.683,186.205 C569.025002,186.511002 569.453997,186.664 569.97,186.664 C570.690004,186.664 571.280998,186.421002 571.743,185.935 Z M581.49,179.968 L580.536,180.058 C579.635995,180.142 578.985002,180.423998 578.583,180.904 C578.180998,181.384002 577.98,181.977996 577.98,182.686 L577.98,187.69 L576.522,187.69 L576.522,178.924 L577.944,178.924 L577.944,180.454 C578.436002,179.433995 579.401993,178.864001 580.842,178.744 L581.364,178.708 L581.49,179.968 Z M587.52,186.592 L587.448,187.744 C587.171999,187.792 586.872002,187.816 586.548,187.816 C585.491995,187.816 584.697003,187.540003 584.163,186.988 C583.628997,186.435997 583.362,185.668005 583.362,184.684 L583.362,180.076 L581.652,180.076 L581.652,178.924 L583.362,178.924 L583.362,176.26 L584.82,176.26 L584.82,178.924 L587.304,178.924 L587.304,180.076 L584.82,180.076 L584.82,184.576 C584.82,185.956007 585.455994,186.646 586.728,186.646 C586.992001,186.646 587.255999,186.628 587.52,186.592 Z M601.416,175 L601.416,187.69 L599.958,187.69 L599.958,186.088 C599.693999,186.640003 599.307003,187.065998 598.797,187.366 C598.286997,187.666001 597.690003,187.816 597.006,187.816 C596.237996,187.816 595.560003,187.624002 594.972,187.24 C594.383997,186.855998 593.928002,186.319003 593.604,185.629 C593.279998,184.938997 593.118,184.138005 593.118,183.226 C593.118,182.325995 593.279998,181.534003 593.604,180.85 C593.928002,180.165997 594.383997,179.638002 594.972,179.266 C595.560003,178.893998 596.237996,178.708 597.006,178.708 C597.690003,178.708 598.286997,178.857999 598.797,179.158 C599.307003,179.458002 599.693999,179.883997 599.958,180.436 L599.958,175 L601.416,175 Z M599.265,185.737 C599.727002,185.154997 599.958,184.330005 599.958,183.262 C599.958,182.193995 599.727002,181.372003 599.265,180.796 C598.802998,180.219997 598.146004,179.932 597.294,179.932 C596.441996,179.932 595.779002,180.219997 595.305,180.796 C594.830998,181.372003 594.594,182.181995 594.594,183.226 C594.594,184.294005 594.830998,185.124997 595.305,185.719 C595.779002,186.313003 596.441996,186.61 597.294,186.61 C598.146004,186.61 598.802998,186.319003 599.265,185.737 Z M605.565,187.258 C604.934997,186.885998 604.449002,186.355003 604.107,185.665 C603.764998,184.974997 603.594,184.174005 603.594,183.262 C603.594,182.349995 603.764998,181.549003 604.107,180.859 C604.449002,180.168997 604.934997,179.638002 605.565,179.266 C606.195003,178.893998 606.923996,178.708 607.752,178.708 C608.580004,178.708 609.311997,178.893998 609.948,179.266 C610.584003,179.638002 611.072998,180.168997 611.415,180.859 C611.757002,181.549003 611.928,182.349995 611.928,183.262 C611.928,184.174005 611.757002,184.974997 611.415,185.665 C611.072998,186.355003 610.584003,186.885998 609.948,187.258 C609.311997,187.630002 608.580004,187.816 607.752,187.816 C606.923996,187.816 606.195003,187.630002 605.565,187.258 Z M609.741,185.755 C610.203002,185.184997 610.434,184.354005 610.434,183.262 C610.434,182.193995 610.200002,181.369003 609.732,180.787 C609.263998,180.204997 608.604004,179.914 607.752,179.914 C606.899996,179.914 606.240002,180.204997 605.772,180.787 C605.303998,181.369003 605.07,182.193995 605.07,183.262 C605.07,184.342005 605.300998,185.169997 605.763,185.746 C606.225002,186.322003 606.887996,186.61 607.752,186.61 C608.616004,186.61 609.278998,186.325003 609.741,185.755 Z M626.004,178.924 L627.462,178.924 L624.204,187.69 L622.8,187.69 L620.334,180.904 L617.85,187.69 L616.464,187.69 L613.206,178.924 L614.718,178.924 L617.202,185.962 L619.74,178.924 L621,178.924 L623.502,185.962 L626.004,178.924 Z M636.822,182.182 L636.822,187.69 L635.364,187.69 L635.364,182.272 C635.364,181.455996 635.205002,180.862002 634.887,180.49 C634.568998,180.117998 634.062003,179.932 633.366,179.932 C632.561996,179.932 631.920002,180.177998 631.44,180.67 C630.959998,181.162002 630.72,181.827996 630.72,182.668 L630.72,187.69 L629.262,187.69 L629.262,178.924 L630.702,178.924 L630.702,180.364 C630.990001,179.823997 631.391997,179.413001 631.908,179.131 C632.424003,178.848999 633.011997,178.708 633.672,178.708 C635.77201,178.708 636.822,179.865988 636.822,182.182 Z M639.486,187.69 L639.486,175 L640.944,175 L640.944,187.69 L639.486,187.69 Z M645.111,187.258 C644.480997,186.885998 643.995002,186.355003 643.653,185.665 C643.310998,184.974997 643.14,184.174005 643.14,183.262 C643.14,182.349995 643.310998,181.549003 643.653,180.859 C643.995002,180.168997 644.480997,179.638002 645.111,179.266 C645.741003,178.893998 646.469996,178.708 647.298,178.708 C648.126004,178.708 648.857997,178.893998 649.494,179.266 C650.130003,179.638002 650.618998,180.168997 650.961,180.859 C651.303002,181.549003 651.474,182.349995 651.474,183.262 C651.474,184.174005 651.303002,184.974997 650.961,185.665 C650.618998,186.355003 650.130003,186.885998 649.494,187.258 C648.857997,187.630002 648.126004,187.816 647.298,187.816 C646.469996,187.816 645.741003,187.630002 645.111,187.258 Z M649.287,185.755 C649.749002,185.184997 649.98,184.354005 649.98,183.262 C649.98,182.193995 649.746002,181.369003 649.278,180.787 C648.809998,180.204997 648.150004,179.914 647.298,179.914 C646.445996,179.914 645.786002,180.204997 645.318,180.787 C644.849998,181.369003 644.616,182.193995 644.616,183.262 C644.616,184.342005 644.846998,185.169997 645.309,185.746 C645.771002,186.322003 646.433996,186.61 647.298,186.61 C648.162004,186.61 648.824998,186.325003 649.287,185.755 Z M659.709,179.563 C660.255003,180.133003 660.528,180.999994 660.528,182.164 L660.528,187.69 L659.106,187.69 L659.106,186.196 C658.877999,186.712003 658.530002,187.110999 658.062,187.393 C657.593998,187.675001 657.054003,187.816 656.442,187.816 C655.877997,187.816 655.359002,187.702001 654.885,187.474 C654.410998,187.245999 654.036001,186.928002 653.76,186.52 C653.483999,186.111998 653.346,185.662002 653.346,185.17 C653.346,184.509997 653.513998,183.997002 653.85,183.631 C654.186002,183.264998 654.737996,183.001001 655.506,182.839 C656.274004,182.676999 657.341993,182.596 658.71,182.596 L659.106,182.596 L659.106,182.002 C659.106,181.269996 658.956001,180.739002 658.656,180.409 C658.355999,180.078998 657.870003,179.914 657.198,179.914 C656.189995,179.914 655.188005,180.225997 654.192,180.85 L653.706,179.788 C654.162002,179.463998 654.710997,179.203001 655.353,179.005 C655.995003,178.806999 656.615997,178.708 657.216,178.708 C658.332006,178.708 659.162997,178.992997 659.709,179.563 Z M658.413,185.935 C658.875002,185.448998 659.106,184.822004 659.106,184.054 L659.106,183.532 L658.782,183.532 C657.725995,183.532 656.922003,183.577 656.37,183.667 C655.817997,183.757 655.425001,183.906999 655.191,184.117 C654.956999,184.327001 654.84,184.635998 654.84,185.044 C654.84,185.512002 655.010998,185.898998 655.353,186.205 C655.695002,186.511002 656.123997,186.664 656.64,186.664 C657.360004,186.664 657.950998,186.421002 658.413,185.935 Z M670.968,175 L670.968,187.69 L669.51,187.69 L669.51,186.088 C669.245999,186.640003 668.859003,187.065998 668.349,187.366 C667.838997,187.666001 667.242003,187.816 666.558,187.816 C665.789996,187.816 665.112003,187.624002 664.524,187.24 C663.935997,186.855998 663.480002,186.319003 663.156,185.629 C662.831998,184.938997 662.67,184.138005 662.67,183.226 C662.67,182.325995 662.831998,181.534003 663.156,180.85 C663.480002,180.165997 663.935997,179.638002 664.524,179.266 C665.112003,178.893998 665.789996,178.708 666.558,178.708 C667.242003,178.708 667.838997,178.857999 668.349,179.158 C668.859003,179.458002 669.245999,179.883997 669.51,180.436 L669.51,175 L670.968,175 Z M668.817,185.737 C669.279002,185.154997 669.51,184.330005 669.51,183.262 C669.51,182.193995 669.279002,181.372003 668.817,180.796 C668.354998,180.219997 667.698004,179.932 666.846,179.932 C665.993996,179.932 665.331002,180.219997 664.857,180.796 C664.382998,181.372003 664.146,182.181995 664.146,183.226 C664.146,184.294005 664.382998,185.124997 664.857,185.719 C665.331002,186.313003 665.993996,186.61 666.846,186.61 C667.698004,186.61 668.354998,186.319003 668.817,185.737 Z M673.668,187.69 L673.668,178.924 L675.126,178.924 L675.126,187.69 L673.668,187.69 Z M673.524,175.126 L675.288,175.126 L675.288,176.764 L673.524,176.764 L673.524,175.126 Z M685.404,182.182 L685.404,187.69 L683.946,187.69 L683.946,182.272 C683.946,181.455996 683.787002,180.862002 683.469,180.49 C683.150998,180.117998 682.644003,179.932 681.948,179.932 C681.143996,179.932 680.502002,180.177998 680.022,180.67 C679.541998,181.162002 679.302,181.827996 679.302,182.668 L679.302,187.69 L677.844,187.69 L677.844,178.924 L679.284,178.924 L679.284,180.364 C679.572001,179.823997 679.973997,179.413001 680.49,179.131 C681.006003,178.848999 681.593997,178.708 682.254,178.708 C684.35401,178.708 685.404,179.865988 685.404,182.182 Z M695.916,178.924 L695.916,187.096 C695.916,188.404007 695.580003,189.390997 694.908,190.057 C694.235997,190.723003 693.240007,191.056 691.92,191.056 C690.383992,191.056 689.094005,190.660004 688.05,189.868 L688.536,188.788 C689.124003,189.172002 689.675997,189.447999 690.192,189.616 C690.708003,189.784001 691.283997,189.868 691.92,189.868 C692.760004,189.868 693.395998,189.643002 693.828,189.193 C694.260002,188.742998 694.476,188.086004 694.476,187.222 L694.476,185.674 C694.223999,186.238003 693.837003,186.669999 693.315,186.97 C692.792997,187.270001 692.178004,187.42 691.47,187.42 C690.701996,187.42 690.021003,187.240002 689.427,186.88 C688.832997,186.519998 688.371002,186.010003 688.041,185.35 C687.710998,184.689997 687.546,183.928004 687.546,183.064 C687.546,182.199996 687.710998,181.438003 688.041,180.778 C688.371002,180.117997 688.832997,179.608002 689.427,179.248 C690.021003,178.887998 690.701996,178.708 691.47,178.708 C692.166003,178.708 692.771997,178.857999 693.288,179.158 C693.804003,179.458002 694.193999,179.883997 694.458,180.436 L694.458,178.924 L695.916,178.924 Z M693.738,185.377 C694.218002,184.818997 694.458,184.048005 694.458,183.064 C694.458,182.091995 694.221002,181.327003 693.747,180.769 C693.272998,180.210997 692.610004,179.932 691.758,179.932 C690.905996,179.932 690.237002,180.210997 689.751,180.769 C689.264998,181.327003 689.022,182.091995 689.022,183.064 C689.022,184.048005 689.264998,184.818997 689.751,185.377 C690.237002,185.935003 690.905996,186.214 691.758,186.214 C692.598004,186.214 693.257998,185.935003 693.738,185.377 Z M698.4,185.854 L700.236,185.854 L700.236,187.69 L698.4,187.69 L698.4,185.854 Z" id="No-Reports-has-been" fill="#1B232C"></path>
            </g>
        </g>
    </g>
</svg>