<?xml version="1.0" encoding="UTF-8" standalone="no"?>
<svg width="10px" height="12px" viewBox="0 0 10 12" version="1.1" xmlns="http://www.w3.org/2000/svg" xmlns:xlink="http://www.w3.org/1999/xlink">
    <!-- Generator: sketchtool 50.2 (55047) - http://www.bohemiancoding.com/sketch -->
    <title>65E0B020-D622-4F3C-A674-1B73F64E842B</title>
    <desc>Created with sketchtool.</desc>
    <defs></defs>
    <g id="Reports" stroke="none" stroke-width="1" fill="none" fill-rule="evenodd">
        <g id="Report-filter-option" transform="translate(-1148.000000, -65.000000)" fill="#010F21" fill-rule="nonzero">
            <g id="Export" transform="translate(1143.000000, 59.000000)">
                <g id="Group-4">
                    <g id="export" transform="translate(5.000000, 6.000000)">
                        <path d="M2.9322,3.759525 C3.13930678,3.759525 3.3072,3.92741822 3.3072,4.134525 C3.3072,4.34163178 3.13930678,4.509525 2.9322,4.509525 L0.77295,4.509525 C0.760300514,4.509525 0.75045,4.51938836 0.75045,4.532775 L0.75045,10.946025 C0.75045,10.9590298 0.760668587,10.969275 0.77295,10.969275 L8.92245,10.969275 C8.93545383,10.969275 8.94645,10.9583074 8.94645,10.946025 L8.94645,4.532775 C8.94645,4.52011103 8.93582262,4.509525 8.92245,4.509525 L6.7962,4.509525 C6.58909322,4.509525 6.4212,4.34163178 6.4212,4.134525 C6.4212,3.92741822 6.58909322,3.759525 6.7962,3.759525 L8.92245,3.759525 C9.34938304,3.759525 9.69645,4.1052415 9.69645,4.532775 L9.69645,10.946025 C9.69645,11.3729576 9.34923193,11.719275 8.92245,11.719275 L0.77295,11.719275 C0.346017174,11.719275 0.00045,11.3728067 0.00045,10.946025 L0.00045,4.532775 C0.00045,4.10539339 0.345868041,3.759525 0.77295,3.759525 L2.9322,3.759525 Z" id="Stroke-1"></path>
                        <path d="M7.41169004,2.24373496 C7.55813665,2.39018157 7.55813665,2.62761843 7.41169004,2.77406504 C7.26524343,2.92051165 7.02780657,2.92051165 6.88135996,2.77406504 L4.86397178,0.756675323 C4.85520707,0.747868272 4.84113681,0.747868272 4.83164074,0.757364335 L2.81414074,2.77411433 C2.66766691,2.92053372 2.43023005,2.92048957 2.28381067,2.77401574 C2.13739128,2.62754191 2.13743543,2.39010505 2.28390926,2.24368567 L4.30135996,0.226984957 C4.60391319,-0.0755682723 5.09384293,-0.0755682723 5.39494004,0.226984957 L7.41169004,2.24373496 Z" id="Stroke-3"></path>
                        <path d="M4.473225,0.47685 C4.473225,0.269743219 4.64111822,0.10185 4.848225,0.10185 C5.05533178,0.10185 5.223225,0.269743219 5.223225,0.47685 L5.223225,7.3851 C5.223225,7.59220678 5.05533178,7.7601 4.848225,7.7601 C4.64111822,7.7601 4.473225,7.59220678 4.473225,7.3851 L4.473225,0.47685 Z" id="Stroke-5"></path>
                    </g>
                </g>
            </g>
        </g>
    </g>
</svg>