<?xml version="1.0" encoding="UTF-8" standalone="no"?>
<svg width="12px" height="8px" viewBox="0 0 12 8" version="1.1" xmlns="http://www.w3.org/2000/svg" xmlns:xlink="http://www.w3.org/1999/xlink">
    <!-- Generator: sketchtool 50.2 (55047) - http://www.bohemiancoding.com/sketch -->
    <title>2831F9C5-A9C4-4774-914C-DAA14E4DB63F</title>
    <desc>Created with sketchtool.</desc>
    <defs></defs>
    <g id="Electron" stroke="none" stroke-width="1" fill="none" fill-rule="evenodd">
        <g id="List-view" transform="translate(-1200.000000, -80.000000)" fill="#25334D">
            <g id="container" transform="translate(210.000000, 66.000000)">
                <g id="filter-by" transform="translate(979.000000, 7.000000)">
                    <g transform="translate(11.000000, 2.000000)" id="Fill-1">
                        <path d="M2.3495,9.6665 L9.6505,9.6665 C9.843,9.6665 10,9.51 10,9.317 L10,8.6825 C10,8.4895 9.843,8.333 9.6505,8.333 L2.3495,8.333 C2.1565,8.333 2,8.4895 2,8.6825 L2,9.317 C2,9.51 2.1565,9.6665 2.3495,9.6665 M0,5.3495 L0,5.9835 C0,6.1765 0.1565,6.333 0.3495,6.333 L11.6505,6.333 C11.843,6.333 12,6.1765 12,5.9835 L12,5.3495 C12,5.156 11.843,5 11.6505,5 L0.3495,5 C0.1565,5 0,5.156 0,5.3495 M5.016,13 L6.984,13 C7.1765,13 7.3335,12.843 7.3335,12.65 L7.3335,12.016 C7.3335,11.823 7.1765,11.6665 6.984,11.6665 L5.016,11.6665 C4.823,11.6665 4.6665,11.823 4.6665,12.016 L4.6665,12.65 C4.6665,12.843 4.823,13 5.016,13"></path>
                    </g>
                </g>
            </g>
        </g>
    </g>
</svg>