<?xml version="1.0" encoding="UTF-8" standalone="no"?>
<svg width="12px" height="10px" viewBox="0 0 12 10" version="1.1" xmlns="http://www.w3.org/2000/svg" xmlns:xlink="http://www.w3.org/1999/xlink">
    <!-- Generator: sketchtool 50.2 (55047) - http://www.bohemiancoding.com/sketch -->
    <title>DECBA578-2A09-492A-81C4-94ACB9B53634</title>
    <desc>Created with sketchtool.</desc>
    <defs></defs>
    <g id="Reports" stroke="none" stroke-width="1" fill="none" fill-rule="evenodd">
        <g id="Report-filter-option" transform="translate(-1221.000000, -66.000000)" fill="#FFFFFF">
            <g id="filter" transform="translate(1216.000000, 59.000000)">
                <g id="Group-4">
                    <path d="M16.2132695,9.2429686 L15.4831836,9.2429686 L6.51681636,9.2429686 L5.78673048,9.2429686 L5.78673048,7.78673048 L16.2132695,7.78673048 L16.2132695,9.2429686 Z M11.5629057,13.0003934 C11.488953,13.074346 11.4472563,13.1742608 11.4472563,13.2781092 L11.4472563,14.8932669 L10.6935685,15.6469547 L10.6935685,13.5605455 C10.6935685,13.4551236 10.6518718,13.3552088 10.5771324,13.2804694 L7.28545204,10.0296991 L14.5335999,10.0296991 L11.5629057,13.0003934 Z M16.6066348,7 L5.39336524,7 C5.17622763,7 5,7.17622763 5,7.39336524 L5,9.63633384 C5,9.85347145 5.17622763,10.0296991 5.39336524,10.0296991 L6.19110995,10.0296991 C6.20605782,10.0548745 6.21864551,10.0816233 6.23988724,10.102865 L9.906838,13.7249721 L9.906838,16.5965384 C9.906838,16.7554579 10.0028191,16.8994296 10.1499377,16.9600079 C10.1979283,16.9804629 10.2498525,16.9899036 10.3002032,16.9899036 C10.4024782,16.9899036 10.5031797,16.9497804 10.5787058,16.875041 L12.1191241,15.333836 C12.1930768,15.2598833 12.2339868,15.1599685 12.2339868,15.0561201 L12.2339868,13.4409624 L15.6460368,10.0296991 L16.6066348,10.0296991 C16.8237724,10.0296991 17,9.85347145 17,9.63633384 L17,7.39336524 C17,7.17622763 16.8237724,7 16.6066348,7 Z" id="Fill-1"></path>
                </g>
            </g>
        </g>
    </g>
</svg>