<?xml version="1.0" encoding="UTF-8" standalone="no"?>
<svg width="15px" height="15px" viewBox="0 0 15 15" version="1.1" xmlns="http://www.w3.org/2000/svg" xmlns:xlink="http://www.w3.org/1999/xlink">
    <!-- Generator: sketchtool 49 (51002) - http://www.bohemiancoding.com/sketch -->
    <title>93274DCB-C212-4F59-9955-2FCD443526CE</title>
    <desc>Created with sketchtool.</desc>
    <defs></defs>
    <g id="Page-1" stroke="none" stroke-width="1" fill="none" fill-rule="evenodd">
        <g id="Landing-page-2" transform="translate(-1016.000000, -619.000000)" fill="#416FA3" fill-rule="nonzero">
            <g id="card" transform="translate(139.000000, 313.000000)">
                <g id="card-4" transform="translate(762.000000, 0.000000)">
                    <g id="forward-move" transform="translate(122.500000, 313.500000) scale(-1, 1) rotate(180.000000) translate(-122.500000, -313.500000) translate(115.000000, 306.000000)">
                        <path d="M14.7380773,6.83138026 L8.33445475,0.276742714 C7.97249644,-0.0922475712 7.38412133,-0.0922475712 7.02216302,0.276742714 C6.65927899,0.645732998 6.65927899,1.24506975 7.02216302,1.61406003 L12.7724555,7.5 L7.02216302,13.38594 C6.65927899,13.7549302 6.65927899,14.354267 7.02216302,14.7232573 C7.38504706,15.0922476 7.97249644,15.0922476 8.33445475,14.7232573 L14.7371516,8.16861974 C15.0869984,7.81379743 15.0879241,7.18729241 14.7380773,6.83138026 Z" id="Shape"></path>
                        <path d="M7.98807734,6.83138026 L1.58538048,0.276742714 C1.22249644,-0.0922475712 0.635047057,-0.0922475712 0.273088749,0.276742714 C-0.0897952836,0.645732998 -0.0897952836,1.24506975 0.273088749,1.61406003 L6.0224555,7.5 L0.272163025,13.38594 C-0.0907210082,13.7549302 -0.0907210082,14.354267 0.272163025,14.7232573 C0.635047057,15.0922476 1.22249644,15.0922476 1.58445475,14.7232573 L7.98715162,8.16861974 C8.33699836,7.81379743 8.33792409,7.18729241 7.98807734,6.83138026 Z" id="Shape"></path>
                    </g>
                </g>
            </g>
        </g>
    </g>
</svg>