<?xml version="1.0" encoding="UTF-8" standalone="no"?>
<svg width="20px" height="20px" viewBox="0 0 20 20" version="1.1" xmlns="http://www.w3.org/2000/svg" xmlns:xlink="http://www.w3.org/1999/xlink">
    <!-- Generator: Sketch 50.2 (55047) - http://www.bohemiancoding.com/sketch -->
    <title>info</title>
    <desc>Created with Sketch.</desc>
    <defs></defs>
    <g id="Users" stroke="none" stroke-width="1" fill="none" fill-rule="evenodd">
        <g transform="translate(-1208.000000, -15.000000)" fill="#7A94B3" id="info">
            <g transform="translate(1208.000000, 15.000000)">
                <path d="M10,0 C4.48615385,0 0,4.48584615 0,10 C0,15.5141538 4.48615385,20 10,20 C15.5138462,20 20,15.5141538 20,10 C20,4.48584615 15.5138462,0 10,0 Z M10,18.7692308 C5.16461538,18.7692308 1.23076923,14.8353846 1.23076923,10 C1.23076923,5.16461538 5.16461538,1.23076923 10,1.23076923 C14.8353846,1.23076923 18.7692308,5.16461538 18.7692308,10 C18.7692308,14.8353846 14.8353846,18.7692308 10,18.7692308 Z" id="Shape" fill-rule="nonzero"></path>
                <path d="M9.14453125,12.015625 L9.14453125,11.6148437 C9.14453125,11.0359346 9.23359286,10.5597024 9.41171875,10.1861328 C9.58984464,9.81256324 9.92135174,9.41797083 10.40625,9.00234375 C11.07917,8.43333049 11.5034496,8.00533998 11.6791016,7.71835938 C11.8547535,7.43137877 11.9425781,7.08502807 11.9425781,6.67929688 C11.9425781,6.17460685 11.7805355,5.78496231 11.4564453,5.51035156 C11.1323552,5.23574081 10.6660187,5.0984375 10.0574219,5.0984375 C9.6665345,5.0984375 9.28554873,5.14420527 8.91445312,5.23574219 C8.54335752,5.3272791 8.11784094,5.49426962 7.63789062,5.73671875 L7.2,4.73476562 C8.13516093,4.24491943 9.1123647,4 10.1316406,4 C11.0766974,4 11.8114557,4.23254976 12.3359375,4.69765625 C12.8604193,5.16276274 13.1226563,5.81835514 13.1226563,6.66445312 C13.1226563,7.02565285 13.0744145,7.34355331 12.9779297,7.61816406 C12.8814448,7.89277481 12.7391936,8.15253784 12.5511719,8.39746094 C12.3631501,8.64238404 11.957425,9.03697645 11.3339844,9.58125 C10.8342423,10.006773 10.5039722,10.3605455 10.3431641,10.6425781 C10.182356,10.9246108 10.1019531,11.3006487 10.1019531,11.7707031 L10.1019531,12.015625 L9.14453125,12.015625 Z M8.78085938,14.2199219 C8.78085938,13.5470018 9.07773141,13.2105469 9.67148438,13.2105469 C9.95846498,13.2105469 10.179882,13.2971346 10.3357422,13.4703125 C10.4916023,13.6434904 10.5695313,13.8933577 10.5695313,14.2199219 C10.5695313,14.5365901 10.4903654,14.7827465 10.3320312,14.9583984 C10.1736971,15.1340504 9.95351704,15.221875 9.67148438,15.221875 C9.41419142,15.221875 9.20143313,15.1439461 9.03320312,14.9880859 C8.86497312,14.8322258 8.78085938,14.5761737 8.78085938,14.2199219 Z" id="?"></path>
            </g>
        </g>
    </g>
</svg>