<?xml version="1.0" encoding="UTF-8" standalone="no"?>
<svg width="21px" height="20px" viewBox="0 0 21 20" version="1.1" xmlns="http://www.w3.org/2000/svg" xmlns:xlink="http://www.w3.org/1999/xlink">
    <!-- Generator: Sketch 50.2 (55047) - http://www.bohemiancoding.com/sketch -->
    <title>Page 1</title>
    <desc>Created with Sketch.</desc>
    <defs>
        <polygon id="path-1" points="8e-05 0.00032 20.2315957 0.00032 20.2315957 19.23192 8e-05 19.23192"></polygon>
    </defs>
    <g id="Users" stroke="none" stroke-width="1" fill="none" fill-rule="evenodd">
        <g transform="translate(-1137.000000, -15.000000)" id="Page-1">
            <g transform="translate(1137.000000, 15.000000)">
                <mask id="mask-2" fill="white">
                    <use xlink:href="#path-1"></use>
                </mask>
                <g id="Clip-2"></g>
                <path d="M14.59688,5.33112 L10.11768,1.15912 L5.63928,5.33112 L1.73848,8.96232 L3.41448,8.96232 C3.68568,8.96232 3.90808,9.18392 3.90808,9.45592 L3.90808,18.24552 L6.75928,18.24552 L6.75928,11.49272 C6.75928,11.22152 6.97528,10.99832 7.24648,10.99832 L12.98328,10.99832 C13.25448,10.99832 13.47768,11.22152 13.47768,11.49272 L13.47768,18.24472 L16.32808,18.24472 L16.32808,9.45512 C16.32808,9.18392 16.54408,8.96152 16.81448,8.96152 L18.49768,8.96152 L14.59688,5.33112 Z M10.45128,0.13592 L15.26408,4.61432 L20.07688,9.09352 C20.27128,9.28072 20.28488,9.58712 20.10408,9.78872 C20.00728,9.89272 19.87448,9.94152 19.74328,9.94152 L19.74328,9.94792 L17.30888,9.94792 L17.30888,18.73832 C17.30888,19.00952 17.08648,19.23192 16.81448,19.23192 L12.98328,19.23192 C12.71288,19.23192 12.49688,19.00952 12.49688,18.73832 L12.49688,11.97912 L7.74008,11.97912 L7.74008,18.73832 C7.74008,19.00952 7.51688,19.23192 7.24648,19.23192 L3.41448,19.23192 C3.14328,19.23192 2.92808,19.00952 2.92808,18.73832 L2.92808,9.94792 L0.48648,9.94792 C0.21528,9.94792 8e-05,9.72632 8e-05,9.45512 C8e-05,9.30232 0.06968,9.16312 0.18088,9.07272 L4.97208,4.61512 L9.78408,0.12952 C9.97208,-0.04408 10.26408,-0.04408 10.45128,0.13592 Z" id="Fill-1" fill="#7A94B3" mask="url(#mask-2)"></path>
            </g>
        </g>
    </g>
</svg>