<?xml version="1.0" encoding="UTF-8" standalone="no"?>
<svg width="25px" height="25px" viewBox="0 0 25 25" version="1.1" xmlns="http://www.w3.org/2000/svg" xmlns:xlink="http://www.w3.org/1999/xlink">
    <!-- Generator: sketchtool 50.2 (55047) - http://www.bohemiancoding.com/sketch -->
    <title>91DBE6B0-1458-495E-BDDC-BA576F0A04ED</title>
    <desc>Created with sketchtool.</desc>
    <defs></defs>
    <g id="Authentication" stroke="none" stroke-width="1" fill="none" fill-rule="evenodd">
        <g id="account-verification-screen1" transform="translate(-998.000000, -661.000000)" fill="#FF894A">
            <g id="verified" transform="translate(232.000000, 140.000000)">
                <g id="Group-5">
                    <g id="info" transform="translate(766.000000, 521.000000)">
                        <path d="M12.5,0 C5.60769231,0 0,5.60730769 0,12.5 C0,19.3926923 5.60769231,25 12.5,25 C19.3923077,25 25,19.3926923 25,12.5 C25,5.60730769 19.3923077,0 12.5,0 Z M12.5,23.4615385 C6.45576923,23.4615385 1.53846154,18.5442308 1.53846154,12.5 C1.53846154,6.45576923 6.45576923,1.53846154 12.5,1.53846154 C18.5442308,1.53846154 23.4615385,6.45576923 23.4615385,12.5 C23.4615385,18.5442308 18.5442308,23.4615385 12.5,23.4615385 Z" id="Shape" fill-rule="nonzero"></path>
                        <path d="M11.0793651,15.5714286 L11.0793651,15.1428571 C11.0793651,14.5238064 11.1746022,14.0145523 11.3650794,13.6150794 C11.5555565,13.2156065 11.9100503,12.793653 12.4285714,12.3492063 C13.1481517,11.7407377 13.6018509,11.2830703 13.7896825,10.9761905 C13.9775142,10.6693106 14.0714286,10.298944 14.0714286,9.86507937 C14.0714286,9.32539413 13.8981499,8.90873163 13.5515873,8.61507937 C13.2050247,8.3214271 12.7063525,8.17460317 12.0555556,8.17460317 C11.637564,8.17460317 11.2301607,8.22354448 10.8333333,8.32142857 C10.436506,8.41931266 9.98148405,8.5978823 9.46825397,8.85714286 L9,7.78571429 C10.000005,7.26190214 11.0449681,7 12.1349206,7 C13.1455077,7 13.9312141,7.24867476 14.4920635,7.74603175 C15.0529129,8.24338873 15.3333333,8.94443992 15.3333333,9.84920635 C15.3333333,10.2354517 15.2817465,10.5753954 15.1785714,10.8690476 C15.0753963,11.1626999 14.9232814,11.4404749 14.7222222,11.702381 C14.521163,11.964287 14.0873049,12.3862405 13.4206349,12.968254 C12.8862407,13.4232827 12.5330696,13.8015858 12.3611111,14.1031746 C12.1891526,14.4047634 12.1031746,14.8068758 12.1031746,15.3095238 L12.1031746,15.5714286 L11.0793651,15.5714286 Z M10.6904762,17.9285714 C10.6904762,17.2089911 11.0079333,16.8492063 11.6428571,16.8492063 C11.949737,16.8492063 12.1865071,16.941798 12.3531746,17.1269841 C12.5198421,17.3121702 12.6031746,17.5793633 12.6031746,17.9285714 C12.6031746,18.2671975 12.5185194,18.5304223 12.3492063,18.718254 C12.1798933,18.9060856 11.944446,19 11.6428571,19 C11.3677235,19 11.1402125,18.9166675 10.9603175,18.75 C10.7804224,18.5833325 10.6904762,18.3095257 10.6904762,17.9285714 Z" id="?"></path>
                    </g>
                </g>
            </g>
        </g>
    </g>
</svg>