<?xml version="1.0" encoding="UTF-8" standalone="no"?>
<svg width="170px" height="45px" viewBox="0 0 170 45" version="1.1" xmlns="http://www.w3.org/2000/svg" xmlns:xlink="http://www.w3.org/1999/xlink">
    <!-- Generator: sketchtool 50.2 (55047) - http://www.bohemiancoding.com/sketch -->
    <title>DF24C4C1-DA72-4F33-8D65-27AAB25F70AC</title>
    <desc>Created with sketchtool.</desc>
    <defs>
        <polygon id="path-1" points="0.33503006 0.215776966 9.40653409 0.215776966 9.40653409 11.2687408 0.33503006 11.2687408"></polygon>
    </defs>
    <g id="Application" stroke="none" stroke-width="1" fill="none" fill-rule="evenodd">
        <g id="home-page" transform="translate(-10.000000, -7.000000)">
            <g id="logo-with-text" transform="translate(10.000000, 7.000000)">
                <g id="Group-2">
                    <path d="M42.8240966,22.5218864 C41.7804034,22.1184205 40.7402898,21.7072841 39.6935284,21.3140455 C38.5363125,20.878875 37.3760284,20.4523977 36.2106307,20.04075 C35.9794943,19.9594432 35.8767102,19.8612614 35.8894943,19.6086477 C35.9503466,18.426375 35.8122784,17.2533068 35.6726761,16.0833068 C35.4425625,14.1508636 34.6167102,12.50325 33.2063693,11.1629659 C31.683017,9.71427273 29.8093807,9.01932955 27.779267,8.62353409 C26.3106307,8.33717045 24.8644943,7.93472727 23.4045511,7.60131818 C22.2524489,7.33745455 21.0916534,7.10836364 19.938017,6.84859091 C18.8963693,6.61336364 17.8618807,6.34540909 16.8186989,6.11427273 C15.736142,5.87444318 14.6484716,5.65557955 13.5602898,5.43927273 C13.1200057,5.35131818 12.7216534,5.09205682 12.1596648,5.22654545 C17.5146648,10.0522841 22.8691534,14.8780227 28.223642,19.7037614 C28.2072784,19.7559205 28.1904034,19.8080795 28.1735284,19.8602386 C18.7879602,17.8219432 9.40290341,15.7831364 -5.11363636e-05,13.7412614 C0.708698864,12.0696136 1.62352841,10.5314318 2.67898295,9.06432955 C3.85921023,7.423875 5.27364205,6.01251136 6.85119886,4.77756818 C8.6394375,3.37796591 10.6081875,2.28364773 12.7461989,1.46904545 C14.4290966,0.827284091 16.1575057,0.395181818 17.9247784,0.187568182 C20.0832443,-0.0655568182 22.2478466,-0.0445909091 24.415517,0.332795455 C26.0815398,0.62325 27.6805739,1.08040909 29.2427898,1.69660227 C31.2739261,2.49688636 33.1066534,3.632625 34.8186989,4.98006818 C36.7925625,6.53359091 38.4452898,8.39342045 39.7835284,10.4935909 C40.9463693,12.3186477 41.8167102,14.3078523 42.3827898,16.4197841 C42.9171648,18.4161477 43.214267,20.4324545 43.1421648,22.4998977 C43.0363125,22.5070568 42.9299489,22.5142159 42.8240966,22.5218864" id="Fill-1" fill="#EAB603"></path>
                    <path d="M42.8240966,22.5218864 C42.9299489,22.5142159 43.0363125,22.5070568 43.1421648,22.4998977 C43.2608011,25.6856932 42.5443807,28.6955795 41.2971648,31.611375 C40.4288693,33.642 39.2726761,35.4951818 37.8342102,37.1438182 C36.2535852,38.9540455 34.4530739,40.5367159 32.3667102,41.7788182 C29.8855739,43.2561477 27.2285284,44.2446136 24.391483,44.7150682 C22.4646648,45.0341591 20.5194375,45.0730227 18.5624489,44.8925114 C15.741767,44.6327386 13.0760284,43.8702955 10.5565398,42.5990455 C8.89921023,41.7619432 7.38148295,40.7141591 5.96602841,39.5006932 C4.12051705,37.9190455 2.61710795,36.072 1.37398295,33.996375 C0.907619318,33.2175682 0.516426136,32.4009205 0.125232955,31.58325 C-0.00107386364,31.318875 0.0638693182,31.2718295 0.3425625,31.2130227 C2.92801705,30.6689318 5.50784659,30.0967159 8.09074432,29.5403523 C11.7388125,28.753875 15.3909716,27.9817159 19.0369943,27.1870568 C21.9988125,26.5417159 24.9550057,25.8713182 27.914267,25.21575 C28.0022216,25.1958068 28.0978466,25.2131932 28.2763125,25.2131932 C27.7884716,25.8733636 27.158983,26.301375 26.6061989,26.785125 C26.0922784,27.235125 25.591142,27.7045568 25.0772216,28.1545568 C23.363642,29.6533636 21.7032443,31.2130227 20.0157443,32.742 C18.5220511,34.0960909 17.0217102,35.4435341 15.5193239,36.7873977 C14.609608,37.6014886 13.6911989,38.4058636 12.7733011,39.2102386 C12.5483011,39.407625 12.3534716,39.6264886 12.134608,39.9639886 C12.6740966,39.8499545 13.1419943,39.7558636 13.6078466,39.6510341 C16.8156307,38.9300114 20.032108,38.2458068 23.2260852,37.4705795 C25.4699489,36.9264886 27.762392,36.5736477 29.9535852,35.8209205 C33.0769943,34.7470568 34.9782443,32.5609773 35.6266534,29.3429659 C35.8588125,28.1888182 35.962108,26.9922273 35.8767102,25.8058636 C35.8393807,25.288875 36.0244943,25.0587614 36.4949489,24.8900114 C38.5501193,24.1536477 40.5935284,23.3845568 42.640517,22.6256932 C42.7054602,22.6016591 42.762733,22.5566591 42.8240966,22.5218864" id="Fill-4" fill="#48B1FB"></path>
                </g>
                <path d="M66.529892,18.9231136 C66.1821648,19.0806136 65.8226761,19.2156136 65.4897784,19.3997045 C64.5437557,19.9212955 64.4757443,21.4778864 65.3578466,22.0480568 C66.7415966,22.9429432 68.9384148,22.4029432 69.6579034,21.0815795 C70.034267,20.3907273 70.2751193,19.6282841 70.0761989,18.8090795 C70.0301761,18.7809545 69.9841534,18.7287955 69.9381307,18.7287955 C68.8918807,18.7231705 67.8456307,18.7236818 66.7993807,18.7231705 C66.6602898,18.7231705 66.5406307,18.7502727 66.529892,18.9231136 M83.2770511,14.0457273 C83.6053466,13.422375 84.2506875,13.2853295 84.8300625,13.1528864 C86.014892,12.8828864 87.1854034,12.9774886 88.3129602,13.5133977 C89.438983,14.0498182 89.8276193,15.0249886 89.8618807,16.1438523 C89.918642,17.9822045 89.8976761,19.823625 89.8659716,21.6624886 C89.856767,22.1687386 89.9866534,22.3691932 90.498017,22.2965795 C90.6974489,22.2684545 90.9050625,22.3016932 91.1090966,22.3068068 C91.1285284,22.3579432 91.1413125,22.4489659 91.1694375,22.4540795 C91.7104602,22.5491932 91.5606307,22.9587955 91.5253466,23.2814659 C91.4829034,23.6629432 91.1709716,23.6353295 90.8835852,23.6337955 C89.7683011,23.6297045 88.653017,23.6327727 87.537733,23.6322614 C86.2035852,23.63175 86.2035852,23.63175 86.178017,22.3129432 C86.6234148,22.3047614 87.0693239,22.2807273 87.5142102,22.2945341 C87.7872784,22.3032273 87.8619375,22.1999318 87.8609148,21.9416932 C87.8517102,20.138625 87.893642,18.3340227 87.835858,16.5324886 C87.8067102,15.6263523 87.2125057,15.0321477 86.3953466,14.6721477 C86.0716534,14.3714659 85.0591534,14.3745341 84.7359716,14.6777727 C83.2939261,15.1354432 82.6659716,16.2768068 82.6199489,17.5812955 C82.5693239,19.013625 82.6163693,20.4490227 82.6035852,21.8828864 C82.6010284,22.1840795 82.6659716,22.3180568 82.9988693,22.2976023 C83.3875057,22.2735682 83.7792102,22.3062955 84.169892,22.3144773 C84.2159148,22.3922045 84.2644943,22.4683977 84.3069375,22.5471477 C84.6004602,23.0932841 84.394892,23.6307273 83.8855739,23.6312386 C79.3692102,23.6312386 74.8523352,23.6281705 70.3359716,23.6256136 L70.3359716,22.1866364 C69.646142,23.3254432 68.6418239,23.8235114 67.372108,23.997375 C66.1412557,24.1656136 64.988642,24.0306136 63.931142,23.4052159 C63.2612557,23.0094205 62.7984716,22.3538523 62.7350625,21.5811818 C62.652733,20.583 62.5780739,19.5495341 63.3778466,18.7108977 C63.9306307,18.1320341 64.582108,17.7720341 65.3517102,17.618625 C66.8131875,17.3276591 68.2956307,17.3629432 69.775517,17.3747045 C69.8951761,17.3757273 70.0138125,17.4350455 70.1350057,17.4677727 C70.3901761,16.0374886 69.8685852,14.9482841 68.7533011,14.7094773 C67.2458011,14.3868068 65.5516534,14.6522045 65.1497216,16.0369773 C64.6368239,16.1520341 64.1315966,16.3299886 63.5941534,16.2512386 C63.3947216,16.2226023 63.1298352,16.2548182 63.1410852,15.9229432 C63.3665966,14.3648182 64.1735284,13.7240795 65.635517,13.2469773 C66.0200625,13.1216932 66.4250625,13.0976591 66.8305739,13.1170909 C67.400233,13.1170909 67.969892,13.1170909 68.5395511,13.1170909 C69.7765398,13.1702727 70.9051193,13.4581705 71.6184716,14.5933977 C71.9922784,15.1876023 72.087392,15.8687386 72.0950625,16.5483409 C72.1160284,18.2977159 72.1129602,20.0476023 72.0940398,21.7974886 C72.0899489,22.1805 72.1860852,22.3139659 72.5859716,22.298625 C73.385233,22.2679432 74.1865398,22.2822614 74.9868239,22.2955568 C75.2465966,22.2996477 75.344267,22.2214091 75.3432443,21.9508977 C75.3345511,19.6799318 75.333017,17.4089659 75.3417102,15.138 C75.342733,14.8495909 75.2138693,14.7912955 74.9704602,14.8045909 C74.7664261,14.8158409 74.5598352,14.823 74.3568239,14.8030568 C74.0668807,14.7739091 73.656767,14.9615795 73.5115398,14.72175 C73.3054602,14.3816932 73.4558011,13.9265795 73.4476193,13.5210682 C73.4435284,13.293 73.6521648,13.3512955 73.786142,13.3507841 C74.8288125,13.3472045 75.871483,13.3686818 76.9131307,13.3420909 C77.301767,13.3318636 77.3723352,13.4765795 77.3687557,13.8232841 C77.3518807,15.3312955 77.3600625,16.8387955 77.3590398,18.3468068 C77.3590398,19.5004432 77.3774489,20.6551023 77.3483011,21.8087386 C77.3385852,22.2122045 77.4669375,22.3124318 77.8489261,22.2991364 C78.6302898,22.2720341 79.4126761,22.2776591 80.1940398,22.2981136 C80.5105739,22.3068068 80.6031307,22.2065795 80.6010852,21.8910682 C80.5893239,19.6758409 80.5893239,17.461125 80.6015966,15.2458977 C80.6031307,14.9160682 80.5269375,14.7682841 80.1684716,14.7999886 C79.8171648,14.8311818 79.460233,14.7887386 79.1084148,14.8153295 C78.7525057,14.8424318 78.6763125,14.6874886 78.6747784,14.3622614 C78.6711989,13.3482273 78.6589261,13.3487386 79.6453466,13.3497614 C80.4456307,13.3507841 81.2474489,13.3727727 82.0461989,13.3400455 C82.4333011,13.3241932 82.5130739,13.4678864 82.5130739,13.8145909 C82.5130739,14.1745909 82.413358,14.5483977 82.5913125,14.8976591 C83.0418239,14.7928295 83.2448352,14.4880568 83.2770511,14.0457273" id="Fill-6" fill="#FFFFFF"></path>
                <path d="M129.308727,20.2709659 C129.604807,20.0270455 129.666682,18.9271023 129.39617,18.6949432 C129.346568,18.6525 129.321,18.5783523 129.221795,18.6059659 C128.372932,18.8401705 127.503614,18.646875 126.64708,18.7210227 C126.478841,18.7353409 126.255375,18.6432955 126.203727,18.9209659 C125.554295,19.02375 124.875716,19.1444318 124.450261,19.6701136 C123.90617,20.3425568 123.92867,21.1034659 124.413443,21.8336932 C124.443614,22.1088068 124.560716,22.2831818 124.8435,22.4028409 C125.532818,22.6963636 126.245148,22.8298295 126.973841,22.7025 C127.149239,22.6723295 127.635034,22.7894318 127.531227,22.2826705 C128.392875,21.8495455 129.029011,21.2175 129.308727,20.2709659 M139.620886,22.5173864 C139.63725,22.4514205 139.638273,22.3389205 139.673045,22.3276705 C139.775318,22.2934091 139.890375,22.2985227 140.00083,22.2893182 C140.456455,22.2509659 141.080318,22.4979545 141.322705,22.1763068 C141.549239,21.8761364 141.394295,21.2839773 141.39583,20.8201705 C141.399409,19.5177273 141.397875,18.2147727 141.397875,16.9123295 C141.397364,15.7464205 140.939693,15.0939205 139.835148,14.6827841 C139.531909,14.3775 138.816,14.3713636 138.492818,14.6715341 C137.372932,14.8096023 136.454011,15.7300568 136.244352,16.9225568 C135.945205,16.9921023 136.038784,17.2380682 136.037761,17.4221591 C136.02958,18.9040909 136.02958,20.3855114 136.030602,21.8674432 C136.030602,22.0075568 135.981,22.1706818 136.145148,22.2673295 C136.512307,22.275 136.879466,22.2867614 137.246114,22.2893182 C137.947705,22.2944318 138.051511,22.3997727 138.04742,23.124375 C138.046398,23.2159091 138.036682,23.3074432 138.031057,23.3994886 C137.816284,23.43375 137.702761,23.6464773 137.437364,23.6439205 C135.022705,23.6239773 132.607534,23.6290909 130.192364,23.6377841 C129.87992,23.6388068 129.766909,23.5263068 129.764352,23.2159091 C129.761795,22.910625 129.872761,22.5869318 129.674864,22.2985227 C129.657989,22.2085227 129.641114,22.1185227 129.619636,22.0044886 C128.635261,23.8392614 127.036739,24.215625 125.149295,23.9931818 C124.448216,23.9103409 123.806455,23.7513068 123.188216,23.3815909 C122.067818,22.7106818 121.79475,21.2108523 121.995205,20.1666477 C122.329125,18.4346591 123.674523,17.8072159 124.85117,17.5934659 C126.190943,17.3500568 127.536341,17.3495455 128.886852,17.3925 C128.937989,17.6768182 129.148159,17.6067614 129.320489,17.5699432 C129.488216,17.5341477 129.548557,17.3930114 129.548557,17.2309091 C129.548557,16.7497159 129.575659,16.2654545 129.53475,15.7873295 C129.489239,15.2555114 129.114409,14.9256818 128.636284,14.9164773 C127.422818,14.4756818 126.244125,14.4634091 125.062364,15.075 C124.718216,15.2534659 124.623614,15.5106818 124.50958,15.8067614 C124.161852,15.7520455 124.124523,16.2332386 123.979295,16.2250568 C123.456682,16.1953977 122.902875,16.3201705 122.410943,16.03125 L122.415545,15.811875 C122.735659,15.5423864 122.881909,15.2028409 122.831795,14.7835227 C123.251625,13.8906818 124.034011,13.4795455 124.928898,13.2432955 C125.298614,13.1451136 125.684693,13.0888636 126.074352,13.1169886 C126.640943,13.1180114 127.208045,13.1190341 127.774125,13.1200568 C128.780489,13.0868182 129.676398,13.3772727 130.447023,14.0338636 C130.398955,14.5390909 130.945602,14.7584659 131.02333,15.2319886 C131.047364,15.3833523 130.96708,15.7566477 131.321966,15.8016477 C131.328102,17.7908523 131.345489,19.7805682 131.331682,21.7697727 C131.328614,22.1671023 131.395091,22.3322727 131.838955,22.3000568 C132.450034,22.2560795 133.066739,22.275 133.679352,22.2980114 C134.00458,22.3102841 134.134466,22.2366477 134.131398,21.8740909 C134.114011,19.6614205 134.114523,17.4482386 134.129352,15.2355682 C134.131398,14.8929545 134.03833,14.7569318 133.692136,14.8029545 C133.527989,14.8249432 133.358216,14.8065341 133.191,14.8065341 C132.196909,14.8065341 132.196909,14.8065341 132.24958,13.7976136 C133.212477,13.7976136 134.175375,13.8078409 135.13725,13.7919886 C135.459409,13.7863636 135.750375,13.8334091 136.013727,14.0205682 C136.027023,14.2895455 136.040318,14.5585227 136.057193,14.9036932 C136.800205,13.6539205 137.827534,13.044375 139.222534,13.1169886 C140.058614,13.1609659 140.893159,13.0433523 141.713386,13.4340341 C142.916625,14.0077841 143.375318,14.9880682 143.400886,16.2117614 C143.439239,18.03375 143.43208,19.8582955 143.39475,21.6807955 C143.3835,22.2121023 143.556341,22.3455682 144.04367,22.2990341 C144.520773,22.2535227 145.024977,22.2248864 145.189125,22.8564205 C145.083784,22.9096023 144.982534,22.9934659 144.995318,23.1075 C145.05617,23.6434091 144.730943,23.6423864 144.339239,23.6377841 C142.999466,23.6219318 141.659693,23.6163068 140.320432,23.6393182 C139.917477,23.6464773 139.80242,23.5078977 139.812136,23.1269318 C139.817761,22.9223864 139.981909,22.6232386 139.620886,22.5173864" id="Fill-8" fill="#FFFFFF"></path>
                <path d="M106.41825,21.2522216 C106.283761,21.5794943 106.236716,21.9036989 106.453534,22.214608 C106.513875,21.8919375 106.573705,21.5718239 106.41825,21.2522216 M114.337227,22.3076761 C114.430295,22.3020511 114.523364,22.2984716 114.61592,22.2913125 C115.036261,22.2575625 115.610523,22.4774489 115.835011,22.1931307 C116.046205,21.9261989 115.911205,21.3769943 115.911716,20.9520511 C115.914273,19.071767 115.902,17.191483 115.917341,15.3106875 C115.920409,14.9465966 115.866205,14.7717102 115.442795,14.7962557 C115.0245,14.8197784 114.476318,14.9844375 114.210409,14.7175057 C113.943477,14.4490398 114.135239,13.9039261 114.129102,13.480517 C114.116318,12.6244943 114.110693,11.7674489 114.13217,10.9119375 C114.141375,10.5672784 114.072341,10.4312557 113.684216,10.435858 C111.822341,10.4578466 109.960977,10.4552898 108.099102,10.437392 C107.737568,10.4338125 107.628648,10.527392 107.635295,10.8965966 C107.661375,12.4971648 107.656773,14.0982443 107.662909,15.6988125 C108.535295,15.9519375 109.427625,15.7438125 110.308193,15.8046648 C110.459557,15.8154034 110.64467,15.8726761 110.754102,15.6885852 C110.76075,15.0759716 110.786318,14.4628466 110.766375,13.8507443 C110.755636,13.5270511 110.866091,13.4539261 111.175466,13.4477898 C112.565352,13.4217102 112.566375,13.411483 112.562284,14.817733 C112.55717,16.3405739 112.548989,17.8629034 112.542852,19.3857443 L110.791943,19.3857443 C110.778136,18.6805739 110.764841,17.9759148 110.752057,17.2712557 C110.178818,17.013017 109.57183,17.2257443 108.985807,17.148017 C108.601261,16.6929034 108.09092,16.928642 107.662398,16.9787557 C107.315182,17.018642 107.197057,17.3689261 107.179159,17.7790398 C107.124955,19.0052898 107.425125,20.253017 106.984841,21.462392 C106.941375,21.5825625 106.893818,21.794267 107.087114,21.8950057 C107.29217,21.8121648 107.08967,21.5135284 107.330011,21.4547216 C107.466034,21.5856307 107.454784,21.7625625 107.40467,21.8781307 C107.144386,22.4743807 107.649102,22.4457443 107.941602,22.4999489 C108.283705,22.5623352 108.647284,22.5326761 108.999614,22.5101761 C109.355011,22.4871648 109.45217,22.6472216 109.435807,22.9729602 C109.415352,23.3897216 109.100352,23.6275057 108.486205,23.6295511 C107.034443,23.6341534 105.582682,23.6351761 104.131432,23.6259716 C103.952455,23.6249489 103.651773,23.7359148 103.649216,23.4209148 C103.646148,23.0629602 103.972909,23.193358 104.163136,23.1913125 C105.558136,23.1805739 106.954159,23.1882443 108.34967,23.1826193 C108.538364,23.182108 108.744955,23.2358011 108.916773,23.0368807 C108.47342,23.200517 108.127739,22.5403466 107.65933,22.936142 C107.630693,22.9606875 107.525352,22.9489261 107.50592,22.9197784 C107.358136,22.7034716 107.289102,22.761767 107.077909,22.9054602 C106.809955,23.0890398 106.370693,23.0348352 106.11808,22.872733 C105.727909,22.6226761 106.394216,22.7934716 106.283761,22.5904602 C106.258705,22.5439261 106.247455,22.4600625 106.215239,22.4518807 C105.608761,22.2969375 105.860864,21.8535852 105.922739,21.5109716 C105.97183,21.2404602 105.88592,21.1693807 105.650693,21.1729602 C105.644045,17.8040966 105.626148,14.435233 105.644045,11.0663693 C105.647114,10.5585852 105.52183,10.381142 105.009955,10.435858 C104.586545,10.480858 104.15342,10.4276761 103.726432,10.4501761 C103.40683,10.4675625 103.273364,10.402108 103.270295,10.0334148 C103.262114,8.87875568 103.243705,8.87926705 104.396318,8.87926705 C108.063818,8.87875568 111.731318,8.88438068 115.398307,8.86852841 C115.799727,8.86648295 115.940864,8.94063068 115.92808,9.37886932 C115.891773,10.5504034 115.929614,11.7244943 115.907114,12.8965398 C115.899955,13.2636989 116.015523,13.3618807 116.3745,13.360858 C116.848534,13.3593239 117.484159,13.1343239 117.755693,13.4667102 C117.985807,13.748983 117.816034,14.3575057 117.823705,14.8213125 C117.824727,14.8847216 117.823705,14.9476193 117.823705,15.0800625 C118.49308,13.687108 119.512227,13.0366534 121.011545,13.1097784 C122.063932,13.1604034 122.066489,13.1169375 122.07058,14.1570511 C122.071602,14.3979034 122.07058,14.6387557 122.07058,14.9292102 C121.492227,14.7420511 121.003364,14.5400625 120.385636,14.6581875 C119.234557,14.8785852 118.252227,15.892108 118.044102,17.1853466 C117.786375,18.7920511 117.993989,20.4100057 117.924443,22.0208011 C117.914216,22.2550057 118.027227,22.3000057 118.228193,22.2943807 C118.581034,22.2851761 118.935409,22.2887557 119.288761,22.2928466 C119.96325,22.2994943 120.17342,22.5204034 120.147341,23.1872216 C119.868648,23.7149489 119.378761,23.637733 118.903193,23.6346648 C117.553193,23.6259716 116.203705,23.6341534 114.853705,23.6305739 C114.121943,23.6290398 113.87342,23.1575625 114.250807,22.5040398 C114.287114,22.4426761 114.309102,22.3731307 114.337227,22.3076761" id="Fill-10" fill="#FFFFFF"></path>
                <path d="M57.1365511,8.64818182 C58.1669489,8.71875 58.9539375,9.23880682 59.6294489,9.98488636 C59.642233,9.97056818 59.6739375,9.95113636 59.6795625,9.92659091 C59.7537102,9.58806818 59.5195057,9.03426136 59.7889943,8.94272727 C60.2558693,8.78369318 60.8132557,8.87676136 61.3322898,8.89363636 C61.5496193,8.90130682 61.488767,9.11556818 61.4892784,9.24903409 C61.492858,10.6813636 61.483142,12.1131818 61.4938807,13.5455114 C61.4959261,13.8375 61.3962102,13.9581818 61.1093352,13.9259659 C61.072517,13.921875 61.0351875,13.9249432 60.997858,13.9239205 C60.5903011,13.9121591 60.0794489,14.0440909 59.805358,13.8472159 C59.5404716,13.6564773 59.6258693,13.1103409 59.5711534,12.7155682 C59.4070057,11.5358523 58.2605284,10.4405114 57.0230284,10.3530682 C56.115358,10.2891477 55.192858,10.2421023 54.3501307,10.7744318 C53.5339943,11.2903977 53.0430852,12.4895455 53.3642216,13.3808523 C53.392858,13.460625 53.4854148,13.5173864 53.5483125,13.5853977 C53.5089375,13.8855682 53.471608,14.1842045 53.9338807,13.9418182 C53.9338807,13.9418182 53.9599602,13.9719886 53.9594489,13.9725 C53.8305852,14.1867614 54.0264375,14.3263636 54.136892,14.3642045 C54.5342216,14.4986932 54.8747898,14.8791477 55.357517,14.6853409 C57.0557557,15.165 58.8046193,15.5884091 60.290642,16.5364773 C61.3010966,17.1813068 62.028767,18.2071023 61.8385398,19.5934091 C61.7710398,20.0878977 61.8958125,20.5915909 61.7577443,21.0968182 C61.2837102,22.8313636 60.0099034,23.6285795 58.3806989,23.9619886 C57.2950739,24.1849432 56.1915511,24.1869886 55.1125739,23.8525568 C55.1233125,23.8172727 55.1463239,23.7518182 55.1432557,23.7502841 C54.590983,23.5217045 54.1414943,23.0829545 53.535017,22.9673864 C53.2685966,22.8692045 53.2225739,22.5848864 53.0599602,22.3956818 C53.0374602,22.4253409 53.0052443,22.4488636 53.0042216,22.4728977 C52.961267,23.8985795 52.9622898,23.8919318 51.5074602,23.7574432 C51.2630284,23.7349432 51.1945057,23.6526136 51.1955284,23.4209659 C51.2011534,21.9697159 51.200642,20.5184659 51.1909261,19.0672159 C51.189392,18.8074432 51.2671193,18.6790909 51.5401875,18.7169318 C51.5764943,18.7220455 51.6143352,18.7169318 51.6516648,18.7159091 C52.9336534,18.6842045 52.9336534,18.6842045 53.2230852,19.9084091 C53.5570057,21.3177273 54.7643352,22.2478977 56.206892,22.2990341 C57.3661534,22.3404545 58.4369489,22.17375 59.3451307,21.3928977 C59.9802443,21.2093182 59.7782557,20.6897727 59.8007557,20.2602273 C59.7992216,18.9838636 59.266892,18.286875 58.0881989,17.8194886 C56.3480284,17.1296591 54.4892216,16.7625 52.831892,15.8430682 C51.9676875,15.3634091 51.4542784,14.6746023 51.2911534,13.7101705 C51.2926875,13.0228977 51.2937102,12.335625 51.2952443,11.6483523 C51.5355852,9.93835227 53.4639375,8.66965909 54.984733,8.64818182 L57.1365511,8.64818182 Z" id="Fill-12" fill="#FFFFFF"></path>
                <g id="Group-16" transform="translate(160.056818, 12.784091)">
                    <mask id="mask-2" fill="white">
                        <use xlink:href="#path-1"></use>
                    </mask>
                    <g id="Clip-15"></g>
                    <path d="M0.562448864,2.59123295 C0.908130682,1.14202841 2.07966477,0.684869318 3.31869886,0.371403409 C4.35011932,0.110096591 5.38921023,0.182198864 6.40324432,0.554982955 C6.86296023,0.723732955 7.15392614,1.11185795 7.54716477,1.40282386 C7.64994886,0.565210227 7.64994886,0.565210227 8.52642614,0.566232955 C9.28580114,0.566744318 9.28477841,0.566744318 9.28375568,1.33021023 C9.28324432,2.03742614 9.26023295,2.74566477 9.29602841,3.45083523 C9.31903977,3.89316477 9.22341477,4.12634659 8.73148295,4.03941477 C8.60517614,4.01691477 8.4706875,4.02765341 8.3413125,4.03736932 C7.88671023,4.07060795 7.56199432,4.07776705 7.56301705,3.41094886 C7.56455114,2.84691477 7.04960795,2.47566477 6.5975625,2.14941477 C6.59040341,2.11310795 6.59705114,2.06146023 6.5750625,2.04305114 C6.14807386,1.68049432 4.41608523,1.51685795 3.95432386,1.7960625 C3.93080114,1.81038068 3.93080114,1.8635625 3.91903977,1.89884659 C3.52222159,2.04100568 3.1381875,2.20259659 2.82523295,2.50225568 C2.24432386,3.05861932 2.35477841,3.83128977 3.0481875,4.25316477 C3.60864205,4.59373295 4.24784659,4.54566477 4.84716477,4.68986932 C5.16421023,4.7660625 5.4950625,4.78600568 5.82028977,4.83100568 C5.8269375,4.97367614 5.89290341,5.12248295 6.02534659,5.12708523 C6.68653977,5.15214205 7.28432386,5.51674432 7.95472159,5.47685795 C8.99688068,5.84197159 9.29347159,6.72202841 9.38960795,7.67776705 C9.59466477,9.72833523 7.93171023,10.9888466 6.17926705,11.2041307 C5.24858523,11.3181648 4.35114205,11.2956648 3.45830114,11.0195284 C2.84210795,10.8287898 2.34761932,10.4810625 2.0300625,9.90219886 C1.81426705,9.99117614 1.94466477,10.1629943 1.91244886,10.2852102 C1.85364205,10.5040739 2.03210795,10.8819716 1.78767614,10.9285057 C1.34330114,11.0128807 0.868244318,10.9540739 0.408528409,10.9193011 C0.305232955,10.9116307 0.341028409,10.7260057 0.341028409,10.6186193 C0.338982955,9.61430114 0.347676136,8.60998295 0.335403409,7.60566477 C0.331823864,7.33361932 0.428471591,7.24873295 0.690801136,7.2635625 C1.04261932,7.28299432 1.42205114,7.19350568 1.74421023,7.29526705 C2.08375568,7.40265341 1.97534659,7.8485625 2.10983523,8.13083523 C2.66210795,9.28702841 4.03972159,9.95282386 5.31301705,9.64651705 C5.58046023,9.58157386 5.85608523,9.55089205 6.12761932,9.50435795 C7.01176705,9.49413068 7.48886932,9.01089205 7.49500568,8.11958523 C7.50063068,7.17663068 7.23421023,6.84475568 6.45386932,6.82430114 C5.00313068,6.48066477 3.47517614,6.55532386 2.05869886,6.04089205 C1.27886932,5.75708523 0.707676136,5.2498125 0.554267045,4.38100568 C0.556823864,3.78475568 0.559380682,3.18799432 0.562448864,2.59123295" id="Fill-14" fill="#FFFFFF" mask="url(#mask-2)"></path>
                </g>
                <path d="M146.772,16.610267 C146.736716,17.0623125 146.575636,17.4872557 146.517341,17.9413466 C146.372114,19.072483 146.683534,20.0895852 147.116659,21.0939034 C147.265977,21.440608 147.629045,21.5817443 147.884216,21.8266875 C147.877057,21.9846989 147.949159,22.0670284 148.110239,22.064983 L148.106148,22.0614034 C148.092341,22.2414034 148.243193,22.3211761 148.345977,22.4116875 C148.805182,22.814642 150.731489,22.8903239 151.123705,22.4975966 C151.227511,22.3932784 151.430523,22.3344716 151.371205,22.117142 C151.371205,22.117142 151.400352,22.0997557 151.400352,22.100267 C151.675466,22.1191875 151.927057,22.1079375 151.903023,21.7259489 C152.073818,21.425267 152.252284,21.127142 152.413875,20.8213466 C152.526886,20.608108 152.453761,20.2261193 152.739102,20.1898125 C153.233591,20.1269148 153.743932,20.152483 154.243534,20.1898125 C154.42558,20.203108 154.387739,20.4414034 154.360125,20.5707784 C153.959727,22.4505511 152.939557,23.5673693 150.875182,23.971858 C149.709273,24.2009489 148.572,24.0454943 147.474102,23.628733 C146.85842,23.3945284 146.288761,23.062142 145.865864,22.5303239 C145.873023,22.4638466 145.880693,22.3978807 145.887852,22.3314034 C145.825466,22.3472557 145.76308,22.3625966 145.700693,22.3779375 C145.700693,22.3779375 145.68433,22.3513466 145.684841,22.3508352 C145.657227,22.0082216 145.643932,21.6548693 145.17092,21.6293011 C145.105977,21.2207216 144.774102,20.935892 144.682568,20.5232216 C144.607909,20.1852102 144.508705,19.8574261 144.513818,19.5076534 L144.513818,17.4760057 C144.649841,15.1549261 146.59558,13.0731648 149.01075,13.1202102 C149.382,13.1273693 149.752739,13.1350398 150.1245,13.1421989 C150.3945,13.5497557 150.804102,13.263392 151.140068,13.3457216 C151.17075,13.3436761 151.198875,13.3503239 151.225466,13.3661761 C151.230068,13.696517 151.375295,13.8085057 151.686205,13.6632784 C152.017568,13.8800966 152.389841,14.0386193 152.678761,14.431858 C152.678761,14.1981648 152.68183,14.0375966 152.67825,13.8770284 C152.67058,13.5006648 152.872057,13.3610625 153.228989,13.3446989 C154.364216,13.2930511 154.363705,13.2869148 154.364216,14.4057784 C154.364216,15.2618011 154.353477,16.1178239 154.370864,16.9733352 C154.377,17.2801534 154.29467,17.4310057 153.969443,17.3778239 C153.933648,17.3716875 153.895295,17.3768011 153.857966,17.3773125 C152.797909,17.3839602 152.797909,17.3839602 152.47217,16.4098125 C152.035977,15.1058352 150.680352,14.358733 149.33342,14.6420284 C148.992852,14.7141307 148.667625,14.8204943 148.337284,14.9161193 C148.045807,14.9104943 147.629557,14.8859489 147.516034,15.0736193 C147.224045,15.5553239 146.676375,15.9383352 146.772,16.610267" id="Fill-17" fill="#FFFFFF"></path>
                <path d="M56.6893636,34.2543068 C56.6683977,34.4690795 56.5420909,34.6378295 56.4444205,34.8188523 C55.9969773,35.1369205 55.548,35.0801591 55.098,34.8260114 C54.5794773,33.4166932 54.0640227,32.0058409 53.5378295,30.5990795 C53.4749318,30.4298182 53.5209545,30.1183977 53.2627159,30.139875 C52.9656136,30.1644205 53.1093068,30.4640795 53.1087955,30.6328295 C53.1041932,31.7629432 53.1226023,32.8930568 53.1333409,34.0231705 C53.2483977,34.2036818 53.4350455,34.1177727 53.5910114,34.1397614 C53.7490227,34.1622614 53.9489659,34.1049886 53.9827159,34.3468636 C54.0087955,34.5324886 53.9980568,34.6981705 53.8472045,34.8587386 C53.6815227,35.0351591 53.4933409,35.0346477 53.2893068,35.0341364 C52.4153864,35.0320909 51.5409545,35.0310682 50.6670341,35.0290227 C50.5969773,34.128 50.5954432,34.1131705 51.4622045,34.0272614 C51.7194205,34.0016932 51.7628864,33.903 51.7618636,33.6846477 C51.7562386,32.0513523 51.7495909,30.4180568 51.7639091,28.7852727 C51.7669773,28.4533977 51.6023182,28.4452159 51.3532841,28.4401023 C50.6169205,28.4268068 50.6174318,28.4191364 50.6578295,27.6510682 C50.9196477,27.4618636 51.211125,27.417375 51.5302159,27.4296477 C51.9720341,27.4470341 52.4164091,27.451125 52.8577159,27.4255568 C53.3353295,27.3969205 53.7490227,27.4097045 53.8737955,28.0085114 C53.899875,28.1337955 53.9949886,28.3301591 54.2077159,28.3327159 C54.743625,29.8637386 55.2795341,31.39425 55.834875,32.9820341 C56.4551591,31.2183409 57.078,29.509875 57.6481705,27.7835114 C57.7739659,27.4020341 57.9422045,27.3023182 58.3068068,27.3115227 C59.1255,27.3314659 59.9457273,27.3406705 60.7633977,27.3074318 C61.2916364,27.2859545 61.1372045,27.6393068 61.1453864,27.901125 C61.1530568,28.1578295 61.2568636,28.4528864 60.7741364,28.4503295 C59.9268068,28.4462386 59.9247614,28.4779432 59.92425,29.34675 C59.9237386,30.7427727 59.9431705,32.1393068 59.9165795,33.5348182 C59.907375,34.0006705 60.0505568,34.1929432 60.5164091,34.1285114 C61.0528295,34.0543636 61.2108409,34.3305 61.1341364,34.81425 C60.8682273,34.9937386 60.5782841,35.0479432 60.256125,35.03925 C59.5340795,35.0208409 58.8110114,35.0249318 58.0889659,35.0372045 C57.7780568,35.0423182 57.5566364,35.0310682 57.5643068,34.6102159 C57.5709545,34.2512386 57.6711818,34.0947614 58.0414091,34.1346477 C58.1799886,34.1494773 58.3420909,34.1822045 58.4520341,34.038 C58.5006136,33.9940227 58.5497045,33.9500455 58.5982841,33.9060682 C58.6780568,33.841125 58.6918636,33.7536818 58.6918636,33.6570341 C58.6903295,32.4113523 58.6903295,31.1661818 58.6882841,29.9205 C58.6882841,29.7926591 58.7061818,29.6566364 58.5803864,29.5651023 C58.5553295,29.4623182 58.5338523,29.3007273 58.444875,29.5354432 C58.25925,30.0248182 58.0838523,30.5187955 57.9023182,31.0102159 C57.6394773,31.7189659 57.3756136,32.4272045 57.1122614,33.1354432 C56.8243636,33.1911818 56.9164091,33.4115795 56.9138523,33.5910682 C56.9138523,33.5910682 56.9133409,33.5920909 56.9133409,33.5920909 C56.5891364,33.728625 56.5722614,33.9684545 56.6893636,34.2543068" id="Fill-19" fill="#FFFFFF"></path>
                <path d="M91.0878239,13.3662784 C91.5531648,13.3611648 92.019017,13.337642 92.4833352,13.3565625 C92.7891307,13.3693466 92.9139034,13.2895739 92.8970284,12.960767 C92.8704375,12.4591193 92.913392,11.953892 92.8821989,11.4527557 C92.8602102,11.1152557 92.9885625,10.9505966 93.294358,10.8544602 C93.8103239,10.692358 94.3191307,10.5087784 94.904642,10.3088352 C94.904642,11.228267 94.9230511,12.0801989 94.8954375,12.9305966 C94.8836761,13.287017 94.998733,13.365767 95.3352102,13.3555398 C96.153392,13.332017 96.9741307,13.3662784 97.7923125,13.3427557 C98.144642,13.3330398 98.3057216,13.4153693 98.261233,13.7963352 C98.2269716,14.0908807 98.2433352,14.3910511 98.2371989,14.6886648 C97.3024261,14.6891761 96.3676534,14.6871307 95.4328807,14.693267 C95.2595284,14.6948011 95.0611193,14.6170739 94.9266307,14.805767 C94.919983,17.038892 94.908733,19.2715057 94.9118011,21.5046307 C94.9123125,22.0589489 95.398108,22.5028125 95.9575398,22.5109943 C96.3983352,22.517642 96.9122557,22.009858 97.0119716,21.469858 C97.2078239,20.4092898 97.2078239,20.4108239 98.268392,20.4992898 C98.4182216,20.5120739 98.538392,20.5008239 98.593108,20.7089489 C98.9505511,22.0778693 98.188108,23.4953693 96.822767,23.894233 C95.7995284,24.1928693 94.790608,24.1652557 93.864017,23.551108 C93.1133352,23.0535511 92.9016307,22.2905966 92.8944716,21.4570739 C92.8760625,19.2428693 92.8791307,17.0281534 92.8735057,14.8139489 C92.4454943,14.5531534 91.9765739,14.7147443 91.5291307,14.7019602 C91.0504943,14.687642 90.877142,14.490767 90.8612898,14.0249148 C90.8515739,13.753892 91.0366875,13.5923011 91.0878239,13.3662784" id="Fill-21" fill="#FFFFFF"></path>
                <path d="M70.976608,34.0395852 C71.2527443,34.0104375 71.2062102,33.8023125 71.2056989,33.6228239 C71.201608,31.8949261 71.1964943,30.1670284 71.191892,28.4391307 C70.9980852,28.2151534 70.7398466,28.3302102 70.5179148,28.3363466 C70.1660966,28.3460625 70.0842784,28.1967443 70.082233,27.8750966 C70.0801875,27.539642 70.1937102,27.4092443 70.5312102,27.4296989 C71.3954148,27.4823693 72.277517,27.303392 73.119733,27.6357784 C74.1312102,29.377483 75.1426875,31.1191875 76.185358,32.9150966 C76.2160398,32.7473693 76.2329148,32.656858 76.2497898,32.5663466 C76.423142,32.398108 76.3505284,32.1818011 76.3515511,31.9864602 C76.3566648,31.0971989 76.355642,30.2079375 76.3413239,29.3186761 C76.3367216,29.0691307 76.4430852,28.8001534 76.248767,28.573108 C75.9823466,28.3112898 75.650983,28.4503807 75.3579716,28.460608 C74.9110398,28.4754375 74.9821193,28.1824261 75.0174034,27.9482216 C75.0526875,27.7150398 74.7826875,27.3049261 75.3410966,27.3120852 C76.3070625,27.3238466 77.2735398,27.3279375 78.2395057,27.3079943 C78.566267,27.3013466 78.6271193,27.4568011 78.5810966,27.7109489 C78.532517,27.9799261 78.7754148,28.381858 78.249733,28.4478239 C77.4668352,28.546517 77.469392,28.5526534 77.4668352,29.3534489 C77.4606989,31.2480511 77.4530284,33.1426534 77.4458693,35.0372557 C76.849108,34.9845852 76.2216648,35.176858 75.6627443,34.816858 C75.409108,34.424642 75.1160966,34.053392 74.9964375,33.5885625 C74.9274034,32.9631648 74.5740511,32.5116307 74.1015511,32.1332216 L74.105642,32.139358 C74.0135966,31.9956648 74.3495625,31.6361761 73.8765511,31.6842443 C73.3339943,30.9903239 73.0000739,30.1654943 72.4467784,29.3754375 L72.4467784,33.821233 C72.4467784,33.9194148 72.4692784,34.0032784 72.5720625,34.042142 C72.6855852,34.1817443 72.8487102,34.147483 72.9878011,34.1341875 C73.372858,34.0963466 73.4551875,34.2855511 73.4562102,34.6296989 C73.4567216,35.0121989 73.2470625,35.0393011 72.9545625,35.036233 C72.1542784,35.0285625 71.3539943,35.0244716 70.5542216,35.0408352 C70.234108,35.0479943 70.083767,34.9728239 70.0827443,34.6112898 C70.0817216,34.2477102 70.1921761,34.0937898 70.561892,34.1352102 C70.7030284,34.1505511 70.864108,34.1796989 70.976608,34.0395852" id="Fill-23" fill="#FFFFFF"></path>
                <path d="M125.079494,30.5429318 C125.154153,30.5424205 125.228301,30.5424205 125.302449,30.5419091 C125.609778,30.607875 125.796937,30.5465114 125.750403,30.169125 C125.725858,29.9717386 125.752449,29.7682159 125.756028,29.5677614 C126.98279,29.5355455 126.983301,29.5355455 126.98279,30.7490114 C126.98279,31.305375 126.971028,31.8617386 126.984835,32.4175909 C126.990972,32.6896364 126.930631,32.8404886 126.618699,32.8031591 C126.435631,32.7811705 126.247449,32.7908864 126.062847,32.8046932 C125.826085,32.8220795 125.70029,32.7320795 125.749892,32.4896932 C125.892051,31.7896364 125.478358,31.7395227 124.962392,31.8054886 C124.805915,31.8254318 124.622335,31.7379886 124.502676,31.9144091 C124.287392,32.5720227 124.464324,33.2490682 124.407562,33.9148636 C124.095631,33.8606591 124.200972,33.6126477 124.187165,33.4280455 C124.151881,32.9463409 124.251597,32.4544091 124.077222,31.8152045 C123.893131,32.3945795 123.964722,32.8317955 123.970347,33.2557159 C123.974437,33.6029318 123.846085,33.7338409 123.51421,33.6919091 L123.51421,31.9767955 L123.304551,31.9798636 C123.304551,32.4994091 123.299437,33.0199773 123.309153,33.5395227 C123.311199,33.6407727 123.419097,33.6765682 123.51421,33.6919091 C123.460517,34.0779886 123.655858,34.1920227 124.001028,34.1316818 C124.18154,34.0999773 124.360517,34.0570227 124.540006,34.0191818 L124.652506,34.0355455 C125.536653,34.2073636 126.420801,34.1986705 127.305972,34.0416818 C127.737562,33.9296932 127.517676,33.5814545 127.523812,33.3513409 C127.550403,32.4344659 127.743699,32.2769659 128.664153,32.4503182 C128.877903,32.4912273 128.879437,32.6067955 128.877903,32.7576477 C128.870744,33.5154886 128.862562,34.2733295 128.855403,35.0311705 C127.164835,35.0332159 125.473756,35.0260568 123.78421,35.0444659 C123.442108,35.0485568 123.136312,34.9969091 122.848926,34.8204886 C122.847392,34.5965114 122.845858,34.3715114 122.844324,34.1470227 C122.915403,34.0994659 122.98546,34.0524205 123.05654,34.005375 C123.074949,34.1061136 123.041199,34.2267955 123.147562,34.2927614 C123.166994,34.3045227 123.252392,34.2615682 123.262619,34.2293523 C123.314267,34.0703182 123.278983,33.9470795 123.088756,33.9158864 C123.081597,32.2626477 123.058074,30.6099205 123.076994,28.9566818 C123.081597,28.5399205 122.978812,28.3885568 122.555915,28.4361136 C122.368756,28.4570795 122.053756,28.5521932 121.994949,28.3635 C121.90546,28.0771364 121.941767,27.7411705 121.97296,27.4307727 C121.989324,27.2650909 122.182108,27.3192955 122.301767,27.3192955 C124.364097,27.3152045 126.426426,27.3223636 128.488244,27.3080455 C128.818585,27.306 128.896824,27.4282159 128.888131,27.7294091 C128.870233,28.3604318 128.861028,28.9935 128.887108,29.6235 C128.903472,30.0013977 128.751085,30.0775909 128.43046,29.9896364 C128.415631,29.8704886 128.459097,29.6674773 128.263756,29.7186136 C128.009097,29.7850909 127.793301,29.6086705 127.55296,29.6669659 C127.539665,29.2957159 127.525347,28.9239545 127.512051,28.5516818 C127.49671,28.521 127.481369,28.4627045 127.466028,28.4627045 C126.572676,28.4509432 125.679835,28.4488977 124.786483,28.4350909 C124.545119,28.4315114 124.520062,28.5634432 124.523131,28.7541818 C124.529778,29.1821932 124.555347,29.6137841 124.514949,30.0382159 C124.47046,30.5045795 124.653528,30.6400909 125.079494,30.5429318" id="Fill-25" fill="#FFFFFF"></path>
                <path d="M133.330756,33.4657841 C133.831381,33.9935114 134.705301,34.2297614 135.343483,33.95925 C135.714733,33.8012386 136.038937,33.5777727 136.035358,33.0725455 C136.031267,32.5381705 135.661551,32.3254432 135.280585,32.1597614 C134.815244,31.9572614 134.312574,31.8427159 133.829847,31.6785682 C133.537858,31.5793636 133.24229,31.4796477 132.967687,31.3420909 C131.935756,30.8240795 131.53996,29.9573182 131.806381,28.8420341 C132.025756,27.9210682 133.003994,27.2072045 134.02979,27.2010682 C134.657744,27.1969773 135.283653,27.1780568 135.835926,27.5518636 C135.98371,27.6515795 136.022574,27.5528864 136.056324,27.4383409 C137.154222,27.4296477 137.154222,27.4296477 137.154733,28.5546477 C137.154733,28.7213523 137.15371,28.8875455 137.152687,29.0537386 C137.147062,30.1373182 137.147062,30.1373182 136.049676,30.1040795 C135.884506,28.6594773 134.821381,28.024875 133.639619,28.632375 C133.325642,28.7934545 133.192176,29.0276591 133.200869,29.3119773 C133.210074,29.6131705 133.308767,29.8969773 133.662631,30.0508977 C134.475699,30.4057841 135.362915,30.5586818 136.146835,30.9841364 C136.47104,31.343625 136.820812,31.6708977 137.248824,31.9056136 C138.014335,33.5762386 136.929733,35.2269205 135.300528,35.2785682 C134.561608,35.3015795 133.859506,35.3133409 133.198312,34.9446477 C133.135415,34.9093636 133.10729,34.8290795 133.008085,34.9671477 C132.714562,35.3772614 132.270699,35.0960114 131.895869,35.1272045 C131.745528,35.1394773 131.785415,34.9231705 131.785926,34.803 C131.787972,33.9878864 131.797687,33.1722614 131.804847,32.3566364 C132.318256,32.3525455 132.926778,32.1658977 133.010642,32.9876591 C133.012176,33.0024886 133.076097,33.0111818 133.110869,33.0229432 C133.127233,33.0515795 133.133369,33.0822614 133.130301,33.1155 C133.127744,33.2719773 133.097574,33.4443068 133.330756,33.4657841" id="Fill-27" fill="#FFFFFF"></path>
                <path d="M108.035744,31.982625 C107.989722,31.9836477 107.943699,31.9841591 107.897676,31.9851818 C107.852165,32.5287614 107.84296,33.0723409 108.035744,33.6123409 L108.035744,31.982625 Z M107.640972,32.6325682 C107.640972,32.3548977 107.644551,32.0767159 107.638926,31.7985341 C107.636369,31.6635341 107.598017,31.5198409 107.440517,31.5091023 C107.242108,31.4958068 107.202222,31.6589318 107.200687,31.8123409 C107.195062,32.3502955 107.198131,32.8877386 107.201199,33.4246705 C107.20171,33.5709205 107.256937,33.6793295 107.427222,33.6747273 C107.598528,33.6696136 107.639437,33.5540455 107.64046,33.4108636 C107.641483,33.1516023 107.640972,32.8918295 107.640972,32.6325682 Z M109.854665,28.5258068 L109.810687,28.5048409 C109.589267,28.3284205 108.55529,28.242 108.399324,28.3923409 C108.363528,28.4271136 108.327222,28.4869432 108.328756,28.5339886 C108.359949,29.2739318 108.178926,30.0235909 108.426937,30.7543295 C109.015006,30.7824545 109.602562,30.8468864 110.18654,30.68325 C110.725517,30.5323977 111.134608,30.0348409 111.086028,29.5490455 C111.024665,28.9292727 110.660574,28.5938182 109.989153,28.540125 C109.949267,28.4884773 109.90529,28.4716023 109.854665,28.5258068 Z M112.116937,30.8064886 C112.108244,30.8612045 112.115403,30.9512045 112.08779,30.9639886 C111.407165,31.2667159 111.603528,31.6573977 111.873017,32.1723409 C112.115915,32.6356364 112.183926,33.1904659 112.329153,33.7054091 C112.36904,33.8971705 112.281085,34.1093864 112.418131,34.2939886 C112.583301,34.2745568 112.690176,34.1206364 112.873756,34.1354659 C113.084437,34.1523409 113.252676,34.1912045 113.22404,34.4417727 C113.200006,34.6519432 113.364665,35.0078523 112.993415,35.0119432 C112.406881,35.0185909 111.787619,35.1939886 111.24046,34.8140455 C111.08296,34.2587045 110.924949,33.7033636 110.76796,33.1480227 C110.766937,32.7445568 110.888131,32.2858636 110.315403,32.1380795 C110.253528,31.7422841 109.947222,31.9545 109.744722,31.9095 C109.308528,31.9125682 108.872847,31.9161477 108.436653,31.9192159 C108.222392,32.5778523 108.266369,33.2400682 108.408017,33.9038182 C108.502108,34.0950682 108.66421,34.1518295 108.863642,34.1308636 C109.392392,34.0756364 109.481881,34.378875 109.416426,34.8079091 C108.709722,35.2093295 107.169494,35.1208636 106.783926,34.5992727 C106.818187,35.3090455 106.196881,34.8600682 105.977506,35.1331364 C105.768358,35.082 105.877278,34.9270568 105.871653,34.8094432 C106.239835,34.6846705 106.015858,34.37325 106.078756,34.1518295 C106.24546,34.1441591 106.412676,34.1267727 106.578869,34.1308636 C106.863187,34.1375114 106.977733,34.002 106.977222,33.7238182 C106.972619,32.0710909 106.964949,30.4173409 106.979778,28.7641023 C106.982847,28.3473409 106.713869,28.4521705 106.49296,28.4475682 C105.91154,28.4352955 105.642051,28.0083068 105.858869,27.4575682 C105.928926,27.2806364 106.059324,27.3205227 106.177449,27.3200114 C107.552506,27.3154091 108.927051,27.3108068 110.301597,27.3200114 C110.460119,27.3210341 110.618131,27.4043864 110.776142,27.4493864 C110.797108,27.7285909 111.04921,27.6467727 111.198528,27.7040455 C111.729835,27.9060341 111.980915,28.3974545 112.345006,28.7722841 C112.345006,28.7722841 112.341426,28.7666591 112.341426,28.7671705 C112.450858,29.4672273 112.16654,30.1238182 112.116937,30.8064886 Z" id="Fill-29" fill="#FFFFFF"></path>
                <path d="M158.499409,22.2634943 C158.925375,22.2711648 159.352364,22.298267 159.776795,22.2793466 C160.088216,22.2655398 160.214523,22.3570739 160.18333,22.680767 C160.153159,22.9932102 160.16492,23.3102557 160.158273,23.6252557 C158.306114,23.6247443 156.453955,23.6237216 154.601795,23.6226989 C154.530716,22.2951989 154.531739,22.2650284 155.832648,22.3054261 C156.377761,22.3217898 156.502534,22.168892 156.49333,21.6334943 C156.458045,19.5721875 156.456,17.509858 156.494864,15.4490625 C156.506114,14.8865625 156.327136,14.7239489 155.813216,14.8067898 C155.686398,14.8272443 155.553955,14.811392 155.423557,14.8108807 C154.585432,14.8083239 154.623273,14.805767 154.570602,13.960483 C154.537875,13.4271307 154.7235,13.3187216 155.211852,13.3386648 C156.268841,13.381108 157.327364,13.3667898 158.384864,13.3749716 C158.384352,16.2043466 158.382307,19.034233 158.384864,21.863608 C158.384864,22.0390057 158.416568,22.213892 158.433443,22.3892898 C158.452875,22.365767 158.475886,22.3442898 158.491227,22.3182102 C158.500432,22.303892 158.497364,22.2819034 158.499409,22.2634943" id="Fill-31" fill="#FFFFFF"></path>
                <path d="M88.8730568,29.0218295 C88.8689659,29.8630227 88.9768636,29.9898409 90.0174886,30.3345 C90.4823182,30.4889318 90.9655568,30.5978523 91.4155568,30.7860341 C93.1010114,31.4922273 93.6568636,32.8028523 92.6704432,34.4980227 C92.5047614,34.783875 92.2163523,34.9265455 91.9294773,35.0334205 C90.9599318,35.3949545 89.9827159,35.4604091 89.01675,35.0150114 C88.9078295,34.9648977 88.8249886,34.8994432 88.7416364,35.0349545 C88.5007841,35.0334205 88.2583977,35.0104091 88.021125,35.0354659 C87.6258409,35.0779091 87.4990227,34.9137614 87.5194773,34.5312614 C87.5450455,34.0331932 87.5245909,33.5325682 87.526125,33.0334773 C87.5281705,32.3165455 87.5307273,32.3666591 88.2287386,32.3380227 C88.8127159,32.3139886 88.5391364,32.8197273 88.7436818,33.0135341 C89.3450455,34.0388182 89.8865795,34.2356932 91.2038523,33.9104659 C91.3756705,33.9181364 91.548,33.9273409 91.5393068,33.6762614 L91.5321477,33.6829091 C91.8650455,33.4277386 91.879875,32.9041023 91.5638523,32.5737614 C91.1869773,32.1493295 90.6372614,32.0889886 90.1478864,31.9089886 C89.5158409,31.6763182 88.8664091,31.4917159 88.2808977,31.1445 C87.4622045,30.6597273 87.3026591,29.8737614 87.4299886,29.0494432 C87.5608977,28.2016023 88.0610114,27.5404091 88.9344205,27.3302386 C89.7802159,27.1272273 90.6306136,27.0842727 91.4764091,27.4785341 C91.7469205,27.6048409 92.1493636,27.4616591 92.4894205,27.4227955 C92.8039091,27.387 92.9087386,27.5000114 92.8969773,27.820125 C92.869875,28.5825682 92.8770341,29.3455227 92.8703864,30.1084773 C92.7778295,30.1100114 92.6847614,30.1120568 92.5911818,30.1125682 C91.8251591,30.1192159 91.8195341,30.1192159 91.7735114,29.3741591 C91.7510114,29.0003523 91.5914659,28.7840455 91.1987386,28.782 L90.8765795,28.5380795 C90.428625,28.1213182 89.9147045,28.3539886 89.4237955,28.3995 C89.2933977,28.4117727 89.2044205,28.5227386 89.2156705,28.6761477 L89.2156705,28.6771705 C88.9374886,28.6285909 88.8393068,28.7595 88.8730568,29.0218295" id="Fill-33" fill="#FFFFFF"></path>
                <path d="M101.728074,28.5664091 C101.279097,28.3066364 100.795347,28.4856136 100.328472,28.4631136 C100.10654,28.4518636 100.16279,28.6778864 100.162278,28.8077727 C100.157676,30.4247045 100.16279,32.041125 100.158188,33.6575455 C100.157676,33.8983977 100.203188,34.0160114 100.48904,34.0318636 C101.421767,34.083 101.421256,34.0973182 101.367051,35.0331136 C100.287051,35.0331136 99.2065398,35.0249318 98.1265398,35.0366932 C97.7859716,35.0407841 97.568642,35.0101023 97.5732443,34.5698182 C97.578358,34.1530568 97.7890398,34.1310682 98.1019943,34.1341364 C98.2958011,34.1356705 98.5151761,34.2159545 98.682392,34.0354432 C98.7279034,34.021125 98.7739261,34.0068068 98.8189261,33.9919773 C98.8465398,33.9965795 98.8751761,34.00425 98.9033011,34.0027159 C98.9094375,34.0022045 98.9196648,33.9725455 98.9196648,33.9561818 C98.9222216,32.1909545 98.9237557,30.4252159 98.924267,28.6599886 C98.924267,28.5045341 98.9048352,28.3373182 98.703358,28.3383409 C98.2052898,28.3403864 97.645858,28.1655 97.2285852,28.4170909 C96.910517,28.6088523 97.1968807,29.1120341 97.1421648,29.4720341 C97.1314261,29.5451591 97.1329602,29.6213523 97.1401193,29.6949886 C97.1892102,30.1812955 96.8506875,30.1071477 96.5551193,30.1091932 C96.2697784,30.1112386 95.9885284,30.1577727 96.010517,29.7093068 C96.0381307,29.1340227 96.049892,28.5556705 96.0115398,27.9814091 C95.9813693,27.518625 96.172108,27.4199318 96.5909148,27.4245341 C98.412392,27.4424318 100.233358,27.4388523 102.055347,27.4301591 C102.374438,27.428625 102.67154,27.45675 102.933869,27.6515795 C102.931824,28.4707841 102.930801,29.2899886 102.929267,30.1097045 C102.746199,30.1112386 102.561085,30.0943636 102.381085,30.1178864 C101.952563,30.1746477 101.799153,30.0166364 101.817563,29.5737955 C101.831881,29.2424318 101.946938,28.8834545 101.728074,28.5664091" id="Fill-35" fill="#FFFFFF"></path>
                <path d="M115.937386,35.0243693 C115.928693,34.912892 115.92767,34.8009034 115.910795,34.6914716 C115.83,34.1841989 115.977784,33.9070398 116.551023,34.0231193 C116.952443,34.1039148 117.045,33.911642 117.039375,33.5316989 C117.019432,32.0063011 117.015852,30.480392 117.04142,28.9555057 C117.04858,28.5418125 116.949886,28.3873807 116.523409,28.4339148 C116.329091,28.455392 116.012045,28.5694261 115.937386,28.314767 C115.857102,28.0422102 115.908239,27.724142 115.938409,27.4290852 C115.951193,27.2991989 116.109205,27.3165852 116.218125,27.3165852 C117.240852,27.3160739 118.264602,27.3257898 119.28733,27.3150511 C119.804318,27.3089148 119.58392,27.6868125 119.600795,27.9113011 C119.617159,28.1316989 119.745511,28.4318693 119.28017,28.448233 C118.37608,28.4789148 118.370966,28.5070398 118.375057,29.4499943 C118.380682,30.9743693 118.396023,32.4992557 118.406761,34.0236307 C118.60108,34.2440284 118.857784,34.1131193 119.084318,34.1361307 C119.462216,34.174483 119.619716,34.4383466 119.438693,34.7727784 C119.315966,34.9977784 119.108864,35.0381761 118.870568,35.0361307 C117.892841,35.0269261 116.915114,35.0274375 115.937386,35.0243693" id="Fill-37" fill="#FFFFFF"></path>
                <path d="M83.3719091,33.9032557 C83.505375,34.1901307 83.7723068,34.1594489 84.000375,34.1251875 C84.5168523,34.0459261 84.7106591,34.2448466 84.6227045,34.7490511 C84.6068523,34.8400739 84.6073636,34.9341648 84.6002045,35.0262102 C83.5698068,35.028767 82.5394091,35.023142 81.5090114,35.038483 C81.1970795,35.0430852 81.0339545,34.9796761 81.0354886,34.6160966 C81.0370227,34.2658125 81.1265114,34.0924602 81.5044091,34.132858 C81.6429886,34.1481989 81.8040682,34.1804148 81.9170795,34.0418352 C82.1257159,33.9160398 82.0392955,33.706892 82.0403182,33.5371193 C82.0500341,32.0147898 82.031625,30.4909261 82.0577045,28.969108 C82.065375,28.5180852 81.9094091,28.368767 81.4849773,28.4413807 C81.0702614,28.513483 80.88975,28.3861534 80.9112273,27.9151875 C80.9296364,27.5020057 80.9552045,27.271892 81.4732159,27.3030852 C82.3057159,27.3526875 83.1463977,27.3598466 83.9783864,27.3046193 C84.540375,27.2672898 84.7152614,27.4580284 84.6237273,27.9796193 C84.6048068,28.0885398 84.6068523,28.2015511 84.5991818,28.3120057 C84.3588409,28.3160966 84.1149205,28.3488239 83.8796932,28.3176307 C83.3739545,28.2511534 83.2583864,28.4710398 83.2675909,28.9450739 C83.2952045,30.4408125 83.2757727,31.9380852 83.2798636,33.4348466 C83.280375,33.5938807 83.2195227,33.7713239 83.3719091,33.9032557" id="Fill-39" fill="#FFFFFF"></path>
                <path d="M67.3928182,27.6455455 C67.4332159,28.425375 67.4332159,28.4396932 66.7035,28.4381591 C66.4089545,28.4376477 66.2790682,28.4898068 66.2821364,28.8267955 C66.2979886,30.4554886 66.3000341,32.0846932 66.2811136,33.712875 C66.2734432,34.399125 66.8027045,34.0181591 67.0696364,34.1546932 C67.086,34.4456591 67.2419659,34.7361136 67.0727045,35.0275909 C66.6763977,35.1099205 66.4508864,34.956 66.4007727,34.4681591 C66.3629318,35.1129886 65.9640682,35.0577614 65.5708295,35.0393523 C65.2185,35.0229886 64.8636136,35.0240114 64.5102614,35.0342386 C64.1768523,35.0439545 63.8674773,34.9452614 63.8613409,34.5924205 C63.8552045,34.2349773 64.1656023,34.1321932 64.4974773,34.1352614 C64.9249773,34.1398636 65.1883295,34.0248068 64.9638409,33.5154886 C64.9086136,33.3907159 64.9510568,33.2214545 64.9510568,33.0726477 C64.9505455,31.7144659 64.9270227,30.3552614 64.9633295,28.9975909 C64.9771364,28.4627045 64.8252614,28.2423068 64.2816818,28.3164545 C64.1154886,28.3389545 63.8874205,28.3870227 63.8424205,28.1088409 C63.8071364,27.8930455 63.862875,27.7202045 64.0326477,27.5616818 C64.1937273,27.4103182 64.3732159,27.4333295 64.5542386,27.4328182 C65.2052045,27.4307727 65.8571932,27.4486705 66.5081591,27.4317955 C66.8298068,27.4231023 67.1233295,27.4675909 67.3928182,27.6455455" id="Fill-41" fill="#FFFFFF"></path>
                <path d="M105.650693,21.1731136 C105.88592,21.1695341 105.97183,21.2401023 105.922739,21.511125 C105.860864,21.8537386 105.608761,22.2970909 106.215239,22.4520341 C106.247455,22.4602159 106.258193,22.5440795 106.283761,22.5901023 C106.394216,22.793625 105.727909,22.6228295 106.11808,22.8728864 C106.370693,23.0349886 106.809955,23.0891932 107.077909,22.9056136 C107.289102,22.7614091 107.358136,22.703625 107.50592,22.9199318 C107.525352,22.9490795 107.630693,22.9608409 107.65933,22.9362955 C108.127739,22.5405 108.47342,23.2006705 108.916773,23.0370341 C108.744955,23.2359545 108.537852,23.1822614 108.34967,23.1827727 C106.954159,23.1878864 105.558136,23.1807273 104.163136,23.1914659 C103.972909,23.1935114 103.646148,23.0626023 103.649216,23.4210682 C103.651773,23.7360682 103.952455,23.6251023 104.131432,23.626125 C105.582682,23.6348182 107.034443,23.6337955 108.486205,23.6297045 C109.100352,23.6276591 109.415352,23.389875 109.435807,22.9731136 C109.45217,22.647375 109.355011,22.4868068 108.999614,22.5103295 C108.647284,22.5328295 108.283705,22.5624886 107.941602,22.5001023 C107.649102,22.4458977 107.144386,22.4745341 107.40467,21.8777727 C107.454784,21.7627159 107.466034,21.5857841 107.330011,21.454875 C107.08967,21.5136818 107.29217,21.8123182 107.087114,21.8951591 C106.893818,21.7944205 106.941375,21.5827159 106.984841,21.4620341 C107.425125,20.2531705 107.124955,19.0054432 107.179159,17.7786818 C107.197057,17.3690795 107.315182,17.0187955 107.662398,16.9783977 C108.090409,16.9287955 108.601261,16.6930568 108.985295,17.1476591 C108.616091,17.1993068 108.227966,17.0433409 107.872568,17.2489091 C107.634273,17.2560682 107.657284,17.4447614 107.629159,17.5981705 C107.433307,17.6262955 107.418989,17.7679432 107.4195,17.9244205 C107.420523,18.8980568 107.420523,19.8716932 107.4195,20.8448182 C107.418989,21.0002727 107.429727,21.1439659 107.62558,21.1741364 C107.679784,22.1743636 107.679784,22.1743636 108.729614,22.1738523 C109.138705,22.1733409 109.548818,22.1856136 109.957909,22.1672045 C110.253477,22.1539091 110.327625,22.2751023 110.339386,22.5578864 C110.386943,23.7529432 110.396148,23.7524318 109.203136,23.7514091 C107.398023,23.7503864 105.592909,23.7345341 103.787795,23.7606136 C103.35467,23.7662386 103.264159,23.6297045 103.269273,23.22675 C103.282057,22.1764091 103.262625,22.1758977 104.319614,22.1758977 L104.598818,22.1758977 C105.597,22.1758977 105.597,22.1758977 105.650693,21.1731136" id="Fill-43" fill="#FFFFFF"></path>
                <path d="M76.2432955,11.012983 C75.1213636,11.0150284 75.1213636,11.0150284 75.11625,9.89514205 C75.1121591,8.87957386 75.1121591,8.87957386 76.1144318,8.8790625 C77.3514205,8.87803977 77.3514205,8.87803977 77.3626705,10.0986648 C77.3708523,11.0109375 77.3708523,11.0109375 76.2432955,11.012983" id="Fill-45" fill="#FFFFFF"></path>
                <path d="M156.381034,8.89961932 C157.049898,8.90115341 157.71825,8.9026875 158.387114,8.90422159 C158.191261,9.41251705 158.422398,9.91978977 158.395807,10.4301307 C158.379443,10.751267 158.308364,10.9149034 157.953989,10.895983 C157.56433,10.8755284 157.172114,10.879108 156.781943,10.8964943 C156.457739,10.9113239 156.361602,10.7655852 156.371318,10.4623466 C156.388705,9.94228977 156.378989,9.42069886 156.381034,8.89961932" id="Fill-47" fill="#FFFFFF"></path>
                <path d="M102.934074,27.6515284 C102.671233,27.4566989 102.374131,27.4285739 102.05504,27.430108 C100.233562,27.4388011 98.4120852,27.4423807 96.5911193,27.424483 C96.1718011,27.4198807 95.9810625,27.5185739 96.0117443,27.9818693 C96.0495852,28.5556193 96.0383352,29.1339716 96.0107216,29.7092557 C95.988733,30.1577216 96.269983,30.1116989 96.5548125,30.109142 C96.850892,30.1070966 97.1894148,30.1812443 97.1403239,29.6949375 C97.1326534,29.6218125 97.1311193,29.545108 97.1423693,29.4724943 C97.1965739,29.111983 96.9107216,28.6088011 97.2287898,28.4170398 C97.6455511,28.1654489 98.2054943,28.3403352 98.7035625,28.3382898 C98.9050398,28.337267 98.9239602,28.504483 98.9239602,28.6599375 C98.9234489,30.4251648 98.9219148,32.1909034 98.919358,33.9561307 C98.919358,33.9724943 98.909642,34.0021534 98.9029943,34.0026648 C98.8753807,34.0041989 98.8467443,33.9965284 98.8186193,33.9919261 C98.8155511,32.3187443 98.7950966,30.6450511 98.8201534,28.9723807 C98.8273125,28.517267 98.6800398,28.4241989 98.2576534,28.4359602 C97.2589602,28.4645966 97.267142,28.4431193 97.2507784,29.4730057 C97.2466875,29.719483 97.3944716,30.101983 97.1413466,30.1873807 C96.8084489,30.2998807 96.4080511,30.2349375 96.0388466,30.2124375 C95.860892,30.2011875 95.904358,30.0170966 95.9038466,29.8964148 C95.8992443,29.152892 95.9079375,28.4083466 95.8951534,27.6648239 C95.8915739,27.4055625 95.9728807,27.3094261 96.2454375,27.3109602 C98.3839602,27.3196534 100.521972,27.3170966 102.660494,27.3099375 C102.922824,27.3094261 102.987767,27.4214148 102.934074,27.6515284" id="Fill-49" fill="#FFFFFF"></path>
                <path d="M67.3928182,27.6455455 C67.1233295,27.4675909 66.8298068,27.4231023 66.5081591,27.4317955 C65.8571932,27.4486705 65.2052045,27.4307727 64.5542386,27.4328182 C64.3732159,27.4333295 64.1937273,27.4103182 64.0326477,27.5616818 C63.862875,27.7202045 63.8071364,27.8930455 63.8424205,28.1088409 C63.8874205,28.3870227 64.1154886,28.3389545 64.2816818,28.3164545 C64.8252614,28.2423068 64.9771364,28.4627045 64.9633295,28.9975909 C64.9270227,30.3552614 64.9505455,31.7144659 64.9510568,33.0726477 C64.9510568,33.2214545 64.9086136,33.3907159 64.9638409,33.5154886 C65.1883295,34.0248068 64.9249773,34.1398636 64.4974773,34.1352614 C64.1656023,34.1321932 63.8552045,34.2349773 63.8613409,34.5924205 C63.8674773,34.9452614 64.1768523,35.0439545 64.5102614,35.0342386 C64.8636136,35.0240114 65.2185,35.0229886 65.5708295,35.0393523 C65.9640682,35.0577614 66.3629318,35.1129886 66.4007727,34.4681591 C66.4508864,34.956 66.6763977,35.1099205 67.0721932,35.0275909 C67.1775341,35.0337273 67.2823636,35.040375 67.3871932,35.0470227 C67.3580455,35.1712841 67.2583295,35.1544091 67.1688409,35.1544091 C66.1461136,35.1538977 65.1223636,35.1298636 64.1006591,35.1625909 C63.6276477,35.1774205 63.6951477,34.8864545 63.7130455,34.6225909 C63.7294091,34.3694659 63.5509432,34.0104886 64.0842955,34.0094659 C64.830375,34.0079318 64.8308864,33.9757159 64.8308864,33.2357727 C64.8313977,31.8034432 64.8216818,30.3711136 64.8380455,28.9392955 C64.8421364,28.5777614 64.7858864,28.4044091 64.3588977,28.4350909 C63.7825909,28.4765114 63.486,27.9733295 63.7227614,27.4481591 C63.7969091,27.2835 63.9273068,27.31725 64.0495227,27.31725 C65.07225,27.3152045 66.0954886,27.3213409 67.1182159,27.3106023 C67.3815682,27.3075341 67.4485568,27.4133864 67.3928182,27.6455455" id="Fill-51" fill="#FFFFFF"></path>
                <path d="M70.336125,23.6255114 C74.8524886,23.6280682 79.3693636,23.6311364 83.8857273,23.6311364 C84.3950455,23.630625 84.6006136,23.0931818 84.3070909,22.5475568 C84.2646477,22.4682955 84.2160682,22.3921023 84.1700455,22.3148864 C84.3122045,22.2969886 84.4957841,22.2269318 84.5060114,22.4616477 C84.522375,22.8328977 84.5418068,23.2097727 84.4973182,23.5759091 C84.4605,23.8847727 84.1690227,23.7472159 83.9956705,23.7477273 C81.6694773,23.7569318 79.3427727,23.7518182 77.0160682,23.7513068 C74.9506705,23.7507955 72.8847614,23.7548864 70.8188523,23.7472159 C70.6577727,23.7461932 70.4440227,23.8684091 70.336125,23.6255114" id="Fill-53" fill="#FFFFFF"></path>
                <path d="M129.674813,22.2984205 C129.87271,22.5868295 129.761744,22.9105227 129.764301,23.2158068 C129.766858,23.5262045 129.879869,23.6392159 130.192313,23.6381932 C132.607483,23.6289886 135.022653,23.623875 137.437824,23.6438182 C137.70271,23.646375 137.816233,23.4336477 138.031006,23.3993864 C138.098506,23.6739886 137.973733,23.7583636 137.711403,23.7578523 C135.144358,23.7527386 132.577313,23.7496705 130.010267,23.7593864 C129.698335,23.7609205 129.634926,23.6223409 129.648733,23.3569432 C129.667142,23.0046136 129.666631,22.6512614 129.674813,22.2984205" id="Fill-55" fill="#FFFFFF"></path>
                <path d="M86.1779148,22.3129432 C86.203483,23.63175 86.203483,23.6322614 87.5376307,23.6327727 C88.6529148,23.6332841 89.7681989,23.6297045 90.883483,23.6337955 C91.1708693,23.6353295 91.4828011,23.6629432 91.5252443,23.2814659 C91.5605284,22.9587955 91.710358,22.5491932 91.1693352,22.4540795 C91.1412102,22.4489659 91.1289375,22.3579432 91.1095057,22.3068068 C91.5155284,22.2260114 91.7016648,22.3262386 91.682233,22.804875 C91.644392,23.7514091 91.6735398,23.7514091 90.7024602,23.7514091 C89.3130852,23.7514091 87.9237102,23.74425 86.5343352,23.7595909 C86.1932557,23.7631705 85.9892216,23.6910682 86.068483,23.3065227 C86.1364943,22.9777159 85.9217216,22.61925 86.1779148,22.3129432" id="Fill-57" fill="#FFFFFF"></path>
                <path d="M139.620886,22.5174375 C139.981909,22.6232898 139.817761,22.9224375 139.812136,23.126983 C139.80242,23.5079489 139.917477,23.6465284 140.320432,23.6393693 C141.659693,23.6158466 142.999466,23.621983 144.339239,23.6378352 C144.730943,23.6424375 145.05617,23.6434602 144.995318,23.1075511 C144.982534,22.993517 145.083784,22.9096534 145.189125,22.8564716 C145.193727,22.8927784 145.203443,22.930108 145.20242,22.9669261 C145.187591,23.8970966 145.311341,23.747267 144.403159,23.7498239 C142.992818,23.7544261 141.582477,23.7293693 140.173159,23.7631193 C139.705773,23.7743693 139.527818,23.6521534 139.599409,23.1837443 C139.632136,22.965392 139.615261,22.7398807 139.620886,22.5174375" id="Fill-59" fill="#FFFFFF"></path>
                <path d="M158.499409,22.2634943 C158.497364,22.2819034 158.500432,22.303892 158.491227,22.3182102 C158.475886,22.3442898 158.452875,22.365767 158.433443,22.3892898 C158.416568,22.213892 158.384864,22.0390057 158.384864,21.863608 C158.382307,19.034233 158.384352,16.2043466 158.384864,13.3749716 C158.595545,13.4741761 158.500432,13.6664489 158.500943,13.8126989 C158.505545,16.6292898 158.501455,19.446392 158.499409,22.2634943" id="Fill-61" fill="#FFFFFF"></path>
                <path d="M114.337381,22.3076761 C114.308744,22.3731307 114.286756,22.4426761 114.25096,22.5040398 C113.873574,23.1575625 114.122097,23.6290398 114.853858,23.6305739 C116.203347,23.6341534 117.553347,23.6259716 118.903347,23.6346648 C119.378403,23.637733 119.86829,23.7149489 120.146983,23.1872216 C120.247722,23.6085852 120.121926,23.7706875 119.65096,23.763017 C117.947097,23.7354034 116.24221,23.7338693 114.538347,23.7635284 C114.081187,23.7706875 113.951301,23.620858 114.002437,23.200517 C114.028517,22.981142 114.013687,22.7566534 114.009597,22.5342102 C114.006017,22.289267 114.146642,22.265233 114.337381,22.3076761" id="Fill-63" fill="#FFFFFF"></path>
                <path d="M151.371307,22.117142 C151.430625,22.3344716 151.227614,22.3932784 151.123807,22.4975966 C150.731591,22.8903239 148.804773,22.814642 148.34608,22.4116875 C148.243295,22.3211761 148.092443,22.2414034 148.10625,22.0614034 C148.476477,22.1488466 148.82267,22.308392 149.192898,22.4065739 C149.97733,22.6157216 150.670227,22.3958352 151.371307,22.117142" id="Fill-65" fill="#FFFFFF"></path>
                <path d="M136.013881,14.0204659 C135.750017,13.8333068 135.459562,13.7862614 135.137403,13.7918864 C134.175017,13.8077386 133.212119,13.7975114 132.249733,13.7975114 C132.250756,13.7233636 132.251267,13.6492159 132.251778,13.5745568 C133.270926,13.5745568 134.290074,13.5791591 135.309222,13.5704659 C135.491778,13.5689318 135.739278,13.6706932 135.808824,13.3674545 C136.261892,13.4641023 135.956097,13.7995568 136.013881,14.0204659" id="Fill-67" fill="#FFFFFF"></path>
                <path d="M70.976608,34.0395852 C70.864108,34.1796989 70.7030284,34.1505511 70.561892,34.1352102 C70.1921761,34.0937898 70.0817216,34.2477102 70.0827443,34.6112898 C70.083767,34.9728239 70.234108,35.0479943 70.5542216,35.0408352 C71.3539943,35.0244716 72.1542784,35.0285625 72.9545625,35.036233 C73.2470625,35.0393011 73.4567216,35.0121989 73.4562102,34.6296989 C73.4551875,34.2855511 73.372858,34.0963466 72.9878011,34.1341875 C72.8487102,34.147483 72.6855852,34.1817443 72.5720625,34.042142 C72.6830284,34.034983 72.7945057,34.023733 72.9054716,34.0227102 C73.513483,34.0191307 73.7717216,34.4241307 73.5549034,35.0055511 C73.4874034,35.1865739 73.3595625,35.150267 73.2409261,35.1507784 C72.2539943,35.1548693 71.2670625,35.1518011 70.2801307,35.154358 C69.7692784,35.1553807 70.003483,34.766233 69.9814943,34.5437898 C69.9595057,34.3223693 69.8490511,33.9782216 70.3082557,34.0186193 C70.5296761,34.0385625 70.7536534,34.0334489 70.976608,34.0395852" id="Fill-69" fill="#FFFFFF"></path>
                <path d="M122.848773,34.8205909 C123.136159,34.9970114 123.441955,35.0481477 123.784057,35.0440568 C125.474114,35.0256477 127.164682,35.0333182 128.85525,35.0312727 C128.804114,35.2189432 128.646102,35.1504205 128.533091,35.1504205 C126.437011,35.1550227 124.34042,35.1545114 122.243318,35.1524659 C122.144114,35.1524659 122.013716,35.2025795 121.969739,35.0461023 C122.253034,34.9325795 122.64525,35.2424659 122.848773,34.8205909" id="Fill-71" fill="#FFFFFF"></path>
                <path d="M166.510432,19.6082898 C167.290773,19.6287443 167.557705,19.9606193 167.551568,20.9035739 C167.545432,21.7948807 167.068841,22.2781193 166.184182,22.2883466 C166.536,22.0735739 166.947136,21.9395966 167.181341,21.5652784 C167.645659,20.8238011 167.433443,20.207608 166.510432,19.6082898" id="Fill-73" fill="#FFFFFF"></path>
                <path d="M122.848773,34.8205909 C122.64525,35.2424659 122.253034,34.9325795 121.969739,35.0461023 C121.909909,34.1092841 121.909909,34.1092841 122.84417,34.147125 C122.845705,34.3716136 122.847239,34.5966136 122.848773,34.8205909" id="Fill-75" fill="#FFFFFF"></path>
                <path d="M107.625733,21.1743409 C107.429881,21.1436591 107.419142,21.0004773 107.419653,20.8445114 C107.420676,19.8713864 107.420676,18.8982614 107.419653,17.924625 C107.419142,17.7676364 107.43346,17.6265 107.629312,17.598375 C107.627778,18.7903636 107.626756,19.9823523 107.625733,21.1743409" id="Fill-77" fill="#FFFFFF"></path>
                <path d="M135.80867,13.3673011 C135.739125,13.6710511 135.492136,13.5692898 135.309068,13.5703125 C134.28992,13.5790057 133.270773,13.5749148 132.251625,13.5749148 C132.199977,13.274233 132.427534,13.3540057 132.571227,13.3540057 C133.650205,13.3540057 134.729693,13.3616761 135.80867,13.3673011" id="Fill-79" fill="#FFFFFF"></path>
                <path d="M83.3719091,33.9032557 C83.2195227,33.7713239 83.280375,33.5938807 83.2798636,33.4348466 C83.2757727,31.9380852 83.2952045,30.4408125 83.2675909,28.9450739 C83.2583864,28.4710398 83.3739545,28.2511534 83.8796932,28.3176307 C84.1149205,28.3488239 84.3588409,28.3160966 84.5991818,28.3120057 C84.4299205,28.5830284 84.1563409,28.453142 83.9538409,28.430642 C83.4670227,28.3759261 83.3800909,28.5743352 83.3846932,29.0166648 C83.4031023,30.645358 83.3795795,32.2740511 83.3719091,33.9032557" id="Fill-81" fill="#FFFFFF"></path>
                <path d="M156.381034,8.89961932 C156.378989,9.42069886 156.388705,9.94228977 156.371318,10.4623466 C156.361602,10.7655852 156.457739,10.9113239 156.781943,10.8964943 C157.172114,10.879108 157.56433,10.8755284 157.953989,10.895983 C158.308364,10.9149034 158.379443,10.751267 158.395807,10.4301307 C158.422398,9.91978977 158.191261,9.41251705 158.387114,8.90422159 C158.645864,9.53780114 158.44592,10.1964375 158.491943,10.8417784 C158.50217,10.9880284 158.37842,11.008483 158.261318,11.0089943 C158.113534,11.0105284 157.964216,11.0238239 157.817966,11.0095057 C157.310182,10.9599034 156.540068,11.2524034 156.350864,10.8985398 C156.061432,10.3564943 156.23683,9.60683523 156.288477,8.94564205 C156.290011,8.92774432 156.34933,8.91496023 156.381034,8.89961932" id="Fill-83" fill="#FFFFFF"></path>
                <path d="M123.514466,33.6920114 C123.84583,33.7339432 123.974182,33.6030341 123.970602,33.2553068 C123.964977,32.8313864 123.892875,32.3946818 124.077477,31.8153068 C124.251341,32.4545114 124.151625,32.9464432 124.186909,33.4276364 C124.201227,33.61275 124.095886,33.8607614 124.407307,33.9149659 C124.439523,33.9159886 124.470716,33.9139432 124.501909,33.9072955 C124.514693,33.944625 124.526966,33.9814432 124.540261,34.0192841 C124.360261,34.057125 124.181795,34.1000795 124.000773,34.1312727 C123.655602,34.192125 123.460773,34.0780909 123.514466,33.6920114" id="Fill-85" fill="#FFFFFF"></path>
                <path d="M115.937386,35.0243693 C116.915114,35.0274375 117.892841,35.0269261 118.870568,35.0361307 C119.108864,35.0381761 119.315966,34.9977784 119.438693,34.7727784 C119.619716,34.4383466 119.462216,34.174483 119.084318,34.1361307 C118.857784,34.1131193 118.60108,34.2440284 118.406761,34.0236307 C118.572955,34.0231193 118.739148,34.0205625 118.905341,34.0215852 C119.617159,34.0272102 119.77875,34.2465852 119.614602,34.9435739 C119.575739,35.109767 119.496477,35.1486307 119.350739,35.1481193 C118.243636,35.143517 117.136534,35.1424943 116.029432,35.1343125 C115.998239,35.1338011 115.968068,35.0622102 115.937386,35.0243693" id="Fill-87" fill="#FFFFFF"></path>
                <path d="M58.4519318,34.0381023 C58.3425,34.1823068 58.1798864,34.1495795 58.0413068,34.1342386 C57.6715909,34.0948636 57.5708523,34.2513409 57.5647159,34.6103182 C57.5570455,35.0306591 57.7779545,35.0424205 58.089375,35.0373068 C58.8114205,35.0250341 59.5339773,35.0209432 60.2560227,35.0393523 C60.5786932,35.0480455 60.868125,34.9938409 61.1345455,34.8143523 C61.1785227,35.0311705 61.14375,35.1605455 60.868125,35.1574773 C59.8310795,35.1462273 58.7935227,35.1600341 57.7564773,35.1503182 C57.2159659,35.1452045 57.5125568,34.7187273 57.4634659,34.4850341 C57.4174432,34.264125 57.38625,33.9767386 57.7871591,34.0171364 C58.0070455,34.039125 58.23,34.0319659 58.4519318,34.0381023" id="Fill-89" fill="#FFFFFF"></path>
                <path d="M88.743733,33.0133295 C88.5391875,32.8195227 88.812767,32.3142955 88.2287898,32.3383295 C87.5307784,32.3664545 87.5282216,32.3168523 87.5261761,33.0332727 C87.524642,33.532875 87.5450966,34.0329886 87.519017,34.5315682 C87.4990739,34.9140682 87.6253807,35.0777045 88.0211761,35.0352614 C88.2584489,35.0102045 88.5008352,35.0332159 88.7416875,35.03475 C88.3755511,35.2817386 87.9685057,35.1094091 87.5824261,35.1406023 C87.399358,35.1549205 87.4116307,34.9861705 87.4116307,34.8578182 C87.4100966,34.0815682 87.4146989,33.3048068 87.4080511,32.5285568 C87.4060057,32.3204318 87.4735057,32.2161136 87.691858,32.2319659 C87.8023125,32.239125 87.9143011,32.2304318 88.025267,32.2299205 C88.7923125,32.2268523 88.7923125,32.2268523 88.743733,33.0133295" id="Fill-91" fill="#FFFFFF"></path>
                <path d="M98.6823409,34.0355966 C98.515125,34.216108 98.29575,34.1353125 98.1019432,34.1337784 C97.7889886,34.1312216 97.5783068,34.1526989 97.5731932,34.5699716 C97.5685909,35.0097443 97.7859205,35.0409375 98.1264886,35.0368466 C99.2064886,35.0250852 100.287,35.0327557 101.367,35.0327557 C101.321489,35.2291193 101.161943,35.1503693 101.050977,35.1508807 C100.01342,35.157017 98.9743295,35.1222443 97.9393295,35.1687784 C97.3875682,35.1938352 97.4852386,34.8829261 97.457625,34.5474716 C97.4254091,34.1455398 97.5266591,33.9542898 97.9623409,34.0115625 C98.1991023,34.043267 98.442,34.0289489 98.6823409,34.0355966" id="Fill-93" fill="#FFFFFF"></path>
                <path d="M73.1196818,27.6355227 C72.2774659,27.3036477 71.3953636,27.4821136 70.5311591,27.4299545 C70.1936591,27.4095 70.0801364,27.5398977 70.0821818,27.8753523 C70.0842273,28.197 70.1660455,28.3463182 70.5178636,28.3360909 C70.7397955,28.3299545 70.9985455,28.2154091 71.1918409,28.438875 C71.024625,28.4398977 70.8574091,28.4424545 70.6907045,28.4419432 C69.9722386,28.4409205 69.8172955,28.2327955 69.9661023,27.5235341 C70.0095682,27.313875 70.1287159,27.3133636 70.2846818,27.313875 C71.0829205,27.3159205 71.8816705,27.3266591 72.6793977,27.3077386 C72.9412159,27.3016023 73.0353068,27.44325 73.1196818,27.6355227" id="Fill-95" fill="#FFFFFF"></path>
                <path d="M50.6668807,35.0288693 C51.5408011,35.0309148 52.415233,35.0324489 53.2891534,35.0344943 C53.4936989,35.0350057 53.6813693,35.035517 53.8475625,34.8585852 C53.9979034,34.6985284 54.008642,34.5323352 53.9825625,34.3467102 C53.9488125,34.1048352 53.7493807,34.1626193 53.5913693,34.1401193 C53.434892,34.1181307 53.2487557,34.2040398 53.1331875,34.023017 C53.226767,34.0209716 53.3193239,34.0168807 53.412392,34.017392 C54.1017102,34.021483 54.2919375,34.2853466 54.1124489,34.9577898 C54.0766534,35.091767 54.0168239,35.148017 53.8900057,35.1469943 C52.8309716,35.1403466 51.7719375,35.1326761 50.712392,35.1204034 C50.6970511,35.1204034 50.6822216,35.0605739 50.6668807,35.0288693" id="Fill-97" fill="#FFFFFF"></path>
                <path d="M81.917233,34.0420909 C81.8037102,34.1806705 81.6426307,34.1479432 81.5040511,34.1331136 C81.1266648,34.0927159 81.0366648,34.2655568 81.0351307,34.6158409 C81.034108,34.9799318 81.1967216,35.0428295 81.5091648,35.0382273 C82.5395625,35.0233977 83.5699602,35.0290227 84.600358,35.0264659 C84.5333693,35.236125 84.3554148,35.1507273 84.2265511,35.15175 C83.2641648,35.1594205 82.3007557,35.1318068 81.3399034,35.1665795 C80.9042216,35.1819205 80.8858125,34.954875 80.928767,34.6582841 C80.9660966,34.4026023 80.7237102,33.9618068 81.3087102,34.021125 C81.5101875,34.0410682 81.714733,34.0359545 81.917233,34.0420909" id="Fill-99" fill="#FFFFFF"></path>
                <path d="M128.63608,14.9166307 C129.114716,14.9258352 129.489034,15.2556648 129.535057,15.787483 C129.575966,16.2650966 129.548352,16.749358 129.548352,17.2310625 C129.548352,17.3931648 129.488011,17.5343011 129.320795,17.5695852 C129.147955,17.6064034 128.938295,17.6764602 128.886648,17.3926534 C129.357102,17.5071989 129.418466,17.3036761 129.452216,16.8587898 C129.514091,16.0411193 129.193466,15.4438466 128.63608,14.9166307" id="Fill-101" fill="#FFFFFF"></path>
                <path d="M136.14525,22.2672273 C135.981102,22.1705795 136.030705,22.0079659 136.030705,21.8673409 C136.02917,20.3854091 136.02917,18.9039886 136.037864,17.4220568 C136.038886,17.2384773 135.944795,16.9925114 136.244455,16.9224545 C136.064455,17.6460341 136.166727,18.3823977 136.154455,19.112625 C136.136045,20.1639886 136.146784,21.2153523 136.14525,22.2672273" id="Fill-103" fill="#FFFFFF"></path>
                <path d="M154.601744,23.6225455 C156.453903,23.6235682 158.306063,23.6245909 160.158222,23.6251023 C160.133676,23.7907841 160.003278,23.7493636 159.903051,23.7493636 C158.239585,23.7524318 156.576119,23.7544773 154.912653,23.7493636 C154.803733,23.7493636 154.640608,23.8209545 154.601744,23.6225455" id="Fill-105" fill="#FFFFFF"></path>
                <path d="M54.2077159,28.3326648 C53.9949886,28.330108 53.899875,28.1337443 53.8737955,28.0084602 C53.7490227,27.4096534 53.3353295,27.3968693 52.8577159,27.4255057 C52.4164091,27.4510739 51.9720341,27.4474943 51.5302159,27.4295966 C51.211125,27.4173239 50.9196477,27.4618125 50.6578295,27.651017 C50.6051591,27.4234602 50.6675455,27.3073807 50.9293636,27.3099375 C51.8165795,27.3186307 52.7043068,27.3227216 53.5915227,27.3058466 C53.8686818,27.300733 53.9259545,27.4827784 53.9944773,27.6668693 C54.0757841,27.8852216 54.1376591,28.1102216 54.2077159,28.3326648" id="Fill-107" fill="#FFFFFF"></path>
                <path d="M111.240256,34.8140966 C111.787415,35.1940398 112.406676,35.018642 112.993722,35.0119943 C113.36446,35.0079034 113.199801,34.6519943 113.224347,34.4413125 C113.252983,34.1912557 113.084233,34.152392 112.873551,34.135517 C112.689972,34.1206875 112.583097,34.274608 112.418438,34.2935284 C112.280881,34.1094375 112.368835,33.8972216 112.328949,33.7054602 C112.463949,33.9734148 112.683324,34.0577898 112.972756,34.0209716 C113.503551,33.9534716 113.334801,34.3502898 113.345028,34.6100625 C113.355767,34.8698352 113.459574,35.193017 112.977869,35.1597784 C112.533494,35.1285852 112.084006,35.1290966 111.639631,35.1587557 C111.357869,35.1771648 111.300085,35.013017 111.240256,34.8140966" id="Fill-109" fill="#FFFFFF"></path>
                <path d="M136.04983,30.1039773 C137.147216,30.1372159 137.147216,30.1372159 137.15233,29.0536364 C137.153352,28.8874432 137.154375,28.72125 137.154375,28.5545455 C137.153864,27.4300568 137.153864,27.4300568 136.056477,27.4382386 C136.398068,27.1672159 136.787216,27.3303409 137.150795,27.3446591 C137.331307,27.3523295 137.266875,27.5875568 137.267898,27.7240909 C137.274545,28.42875 137.254091,29.1339205 137.275057,29.8375568 C137.284773,30.1638068 137.16358,30.2814205 136.858295,30.2318182 C136.589318,30.1883523 136.284034,30.3678409 136.04983,30.1039773" id="Fill-111" fill="#FFFFFF"></path>
                <path d="M146.772,16.610267 C146.676375,15.9383352 147.224045,15.5553239 147.516034,15.0736193 C147.629557,14.8859489 148.045807,14.9104943 148.337284,14.9161193 C147.633136,15.3119148 147.153989,15.916858 146.772,16.610267" id="Fill-113" fill="#FFFFFF"></path>
                <path d="M105.977301,35.1332386 C106.197187,34.8601705 106.818494,35.3091477 106.783722,34.599375 C107.16929,35.1209659 108.710028,35.2089205 109.416733,34.8080114 C109.484233,35.0841477 109.366619,35.1608523 109.097642,35.15625 C108.057528,35.1383523 107.017415,35.139375 105.977301,35.1332386" id="Fill-115" fill="#FFFFFF"></path>
                <path d="M168.011591,18.2606932 C167.340682,18.3005795 166.743409,17.9364886 166.082216,17.9114318 C165.949773,17.9063182 165.883807,17.7580227 165.877159,17.6153523 C166.598182,17.7973977 167.382102,17.7748977 168.011591,18.2606932" id="Fill-117" fill="#FFFFFF"></path>
                <path d="M58.5804886,29.5651534 C58.7062841,29.6566875 58.687875,29.7927102 58.687875,29.9205511 C58.6904318,31.166233 58.6904318,32.4114034 58.6919659,33.6570852 C58.6919659,33.7532216 58.6776477,33.8411761 58.5983864,33.9061193 C58.59225,32.4589602 58.5861136,31.0123125 58.5804886,29.5651534" id="Fill-119" fill="#FFFFFF"></path>
                <path d="M122.410841,16.03125 C122.902773,16.3201705 123.45658,16.1953977 123.979193,16.2250568 C124.124932,16.2332386 124.16175,15.7520455 124.509477,15.8067614 C124.474193,16.3089205 124.198057,16.4459659 123.723511,16.3851136 C123.363511,16.3396023 122.990727,16.3503409 122.627659,16.3825568 C122.269193,16.41375 122.360216,16.2230114 122.410841,16.03125" id="Fill-121" fill="#FFFFFF"></path>
                <path d="M91.0878239,13.3662784 C91.0366875,13.5923011 90.8515739,13.753892 90.8612898,14.0249148 C90.877142,14.490767 91.0504943,14.687642 91.5291307,14.7019602 C91.9765739,14.7147443 92.4454943,14.5531534 92.8735057,14.8139489 C92.2859489,14.8119034 91.6978807,14.8016761 91.1108352,14.8124148 C90.858733,14.817017 90.7395852,14.7408239 90.7564602,14.4718466 C90.7728239,14.1972443 90.7661761,13.9205966 90.7585057,13.645483 C90.7523693,13.4076989 90.843392,13.3008239 91.0878239,13.3662784" id="Fill-123" fill="#FFFFFF"></path>
                <path d="M163.976114,14.6826818 C163.987364,14.6473977 163.987364,14.5947273 164.010886,14.5798977 C164.473159,14.3012045 166.204636,14.4643295 166.631625,14.8268864 C166.653614,14.8458068 166.647477,14.8974545 166.654125,14.9337614 C165.783784,14.6131364 164.896568,14.4766023 163.976114,14.6826818" id="Fill-125" fill="#FFFFFF"></path>
                <path d="M76.2485114,28.5729034 C76.4433409,28.7999489 76.3369773,29.0694375 76.3410682,29.3184716 C76.3553864,30.207733 76.3564091,31.0975057 76.3518068,31.986767 C76.3507841,32.182108 76.4228864,32.3979034 76.2495341,32.5666534 C76.2490227,31.2350625 76.2485114,29.903983 76.2485114,28.5729034" id="Fill-127" fill="#FFFFFF"></path>
                <path d="M112.344852,28.7721307 C111.980761,28.3978125 111.729682,27.906392 111.198375,27.703892 C111.049057,27.6471307 110.797466,27.7284375 110.7765,27.449233 C111.599284,27.5141761 112.23542,28.051108 112.344852,28.7721307" id="Fill-129" fill="#FFFFFF"></path>
                <path d="M91.1986875,28.7821023 C91.5919261,28.7841477 91.7509602,29.0004545 91.7734602,29.3742614 C91.819483,30.1193182 91.8256193,30.1193182 92.591642,30.1126705 C92.6847102,30.1121591 92.7777784,30.1101136 92.8708466,30.1085795 C92.5323239,30.3688636 92.147267,30.2031818 91.7852216,30.2139205 C91.612892,30.2190341 91.6532898,30.0236932 91.652267,29.9050568 C91.6481761,29.469375 91.5080625,29.0919886 91.1986875,28.7821023" id="Fill-131" fill="#FFFFFF"></path>
                <path d="M63.1410852,15.922892 C63.1298352,16.254767 63.3947216,16.2225511 63.5941534,16.2516989 C64.1315966,16.3299375 64.6368239,16.151983 65.1497216,16.0374375 C65.1988125,16.3381193 64.988642,16.3739148 64.7784716,16.3774943 C64.2993239,16.3851648 63.8201761,16.3780057 63.340517,16.3744261 C62.9442102,16.371358 62.9631307,16.1811307 63.1410852,15.922892" id="Fill-133" fill="#FFFFFF"></path>
                <path d="M53.5350682,22.9673352 C54.1415455,23.0829034 54.5910341,23.5216534 55.1433068,23.750233 C55.146375,23.751767 55.1233636,23.8172216 55.112625,23.8525057 C54.5020568,23.7083011 53.942625,23.4725625 53.5350682,22.9673352" id="Fill-135" fill="#FFFFFF"></path>
                <path d="M131.32171,15.80175 C130.967335,15.75675 131.047619,15.3834545 131.023074,15.2320909 C130.945858,14.7580568 130.398699,14.5386818 130.446767,14.0339659 C131.015403,14.4860114 131.229153,15.1139659 131.32171,15.80175" id="Fill-137" fill="#FFFFFF"></path>
                <path d="M94.9265284,14.805767 C95.061017,14.6170739 95.2594261,14.6948011 95.4327784,14.693267 C96.3675511,14.6871307 97.3023239,14.6891761 98.237608,14.6886648 C98.1445398,14.9049716 97.952267,14.8032102 97.8095966,14.804233 C96.8487443,14.8139489 95.8873807,14.8073011 94.9265284,14.805767" id="Fill-139" fill="#FFFFFF"></path>
                <path d="M110.754358,15.6886875 C110.644415,15.8727784 110.459812,15.8155057 110.308449,15.804767 C109.427369,15.7439148 108.53504,15.9520398 107.662653,15.6989148 C108.693562,15.6953352 109.72396,15.6917557 110.754358,15.6886875" id="Fill-141" fill="#FFFFFF"></path>
                <path d="M55.357517,14.685392 C54.8747898,14.8786875 54.5342216,14.4987443 54.136892,14.3642557 C54.0264375,14.3264148 53.8305852,14.1868125 53.9594489,13.9720398 C54.4258125,14.2098239 54.8916648,14.447608 55.357517,14.685392" id="Fill-143" fill="#FFFFFF"></path>
                <path d="M107.872415,17.2487045 C108.227813,17.0431364 108.615938,17.1991023 108.985653,17.1479659 C109.571676,17.2256932 110.178665,17.0129659 110.751903,17.2712045 L107.872415,17.2487045 Z" id="Fill-145" fill="#FFFFFF"></path>
                <path d="M101.728074,28.5664091 C101.946937,28.8834545 101.831881,29.2424318 101.817562,29.5737955 C101.799153,30.0166364 101.952562,30.1746477 102.381085,30.1178864 C102.561085,30.0943636 102.746199,30.1112386 102.929267,30.1097045 C102.587165,30.3710114 102.19904,30.2053295 101.833926,30.2104432 C101.667733,30.2124886 101.716312,30.0115227 101.715801,29.8928864 C101.71529,29.4505568 101.72296,29.0082273 101.728074,28.5664091" id="Fill-147" fill="#FFFFFF"></path>
                <path d="M74.1014489,32.1334261 C74.5739489,32.5113239 74.9273011,32.962858 74.9963352,33.588767 C74.5877557,33.170983 74.3760511,32.6335398 74.1014489,32.1334261" id="Fill-149" fill="#FFFFFF"></path>
                <path d="M112.117142,30.8065909 C112.166744,30.1239205 112.450551,29.4673295 112.341119,28.7672727 C112.511403,29.4739773 112.632085,30.1750568 112.117142,30.8065909" id="Fill-151" fill="#FFFFFF"></path>
                <path d="M127.305716,34.0415795 C126.421057,34.1990795 125.536398,34.2072614 124.652761,34.0354432 L127.305716,34.0415795 Z" id="Fill-153" fill="#FFFFFF"></path>
                <path d="M84.7357159,14.6779261 C85.0594091,14.3746875 86.0713977,14.371108 86.3950909,14.6723011 C85.8417955,14.597642 85.2885,14.5505966 84.7357159,14.6779261" id="Fill-155" fill="#FFFFFF"></path>
                <path d="M127.552909,29.667017 C127.79325,29.6087216 128.009557,29.7846307 128.263705,29.7186648 C128.459045,29.6675284 128.41558,29.8700284 128.430409,29.9896875 C128.21717,29.9968466 128.003932,29.9968466 127.791205,30.0121875 C127.506886,30.032642 127.524273,29.8562216 127.552909,29.667017" id="Fill-157" fill="#FFFFFF"></path>
                <path d="M89.2156193,28.67625 C89.2048807,28.5228409 89.2933466,28.4113636 89.4237443,28.3996023 C89.9146534,28.3540909 90.4285739,28.1214205 90.8765284,28.5376705 C90.3099375,28.4221023 89.7464148,28.3535795 89.2156193,28.67625" id="Fill-159" fill="#FFFFFF"></path>
                <path d="M83.2770511,14.045983 C83.2448352,14.4883125 83.0418239,14.7925739 82.5913125,14.8979148 C82.6603466,14.4857557 82.9528466,14.2530852 83.2770511,14.045983" id="Fill-161" fill="#FFFFFF"></path>
                <path d="M67.3870398,35.0468182 C67.2822102,35.0401705 67.1773807,35.0340341 67.0720398,35.0273864 C67.2418125,34.7364205 67.0858466,34.4454545 67.069483,34.1544886 C67.2760739,34.0997727 67.4325511,34.1079545 67.4105625,34.3917614 C67.3936875,34.6096023 67.3941989,34.8279545 67.3870398,35.0468182" id="Fill-163" fill="#FFFFFF"></path>
                <path d="M133.111023,33.0228409 C133.07625,33.0115909 133.01233,33.0023864 133.010795,32.9880682 C132.926932,32.1657955 132.317898,32.3524432 131.804489,32.3565341 C132.634943,31.9638068 133.060909,32.1811364 133.111023,33.0228409" id="Fill-165" fill="#FFFFFF"></path>
                <path d="M55.0978466,34.8261136 C55.5478466,35.0802614 55.9973352,35.1365114 56.444267,34.8189545 C56.4401761,34.9099773 56.4693239,35.0250341 56.4248352,35.0863977 C56.348642,35.1912273 55.2343807,35.1973636 55.1464261,35.0925341 C55.0958011,35.0327045 55.1116534,34.9171364 55.0978466,34.8261136" id="Fill-167" fill="#FFFFFF"></path>
                <path d="M75.6627443,34.8166023 C76.2216648,35.1766023 76.849108,34.9843295 77.4458693,35.0375114 C76.9242784,35.2855227 76.3786534,35.1244432 75.8442784,35.1183068 C75.7179716,35.1167727 75.6535398,34.9613182 75.6627443,34.8166023" id="Fill-169" fill="#FFFFFF"></path>
                <path d="M57.1365511,8.64818182 L54.984733,8.64818182 C55.7021761,8.46869318 56.4196193,8.465625 57.1365511,8.64818182" id="Fill-171" fill="#FFFFFF"></path>
                <path d="M137.248875,31.9057159 C136.820864,31.671 136.471091,31.3432159 136.146886,30.9842386 C136.63575,31.1468523 137.036659,31.4132727 137.248875,31.9057159" id="Fill-173" fill="#FFFFFF"></path>
                <path d="M124.501705,33.9072443 C124.470511,33.913892 124.439318,33.9164489 124.407102,33.9149148 C124.464375,33.2491193 124.287443,32.5720739 124.502727,31.9144602 C124.502216,32.5782102 124.501705,33.242983 124.501705,33.9072443" id="Fill-175" fill="#FFFFFF"></path>
                <path d="M108.407761,33.903767 C108.266625,33.240017 108.222648,32.5778011 108.436909,31.9191648 C108.427193,32.5808693 108.417477,33.2425739 108.407761,33.903767" id="Fill-177" fill="#FFFFFF"></path>
                <path d="M51.2953466,11.6484545 C51.2938125,12.3357273 51.2927898,13.023 51.2912557,13.7102727 C51.132733,13.0224886 51.1255739,12.3352159 51.2953466,11.6484545" id="Fill-179" fill="#FFFFFF"></path>
                <path d="M144.513818,17.4762102 L144.513818,19.5073466 C144.338932,18.8303011 144.338932,18.1532557 144.513818,17.4762102" id="Fill-181" fill="#FFFFFF"></path>
                <path d="M138.492818,14.6714318 C138.816,14.3717727 139.531909,14.3773977 139.835148,14.6826818 C139.388216,14.6499545 138.941795,14.4812045 138.492818,14.6714318" id="Fill-183" fill="#FFFFFF"></path>
                <path d="M59.8010114,20.2602273 C59.7785114,20.6897727 59.9799886,21.2093182 59.3453864,21.3928977 C59.4972614,21.0155114 59.6491364,20.6376136 59.8010114,20.2602273" id="Fill-185" fill="#FFFFFF"></path>
                <path d="M110.315403,32.1379261 C110.888131,32.2857102 110.766937,32.7449148 110.76796,33.1483807 C110.617108,32.811392 110.466256,32.4749148 110.315403,32.1379261" id="Fill-187" fill="#FFFFFF"></path>
                <path d="M151.140068,13.3458239 C150.804102,13.2634943 150.3945,13.5493466 150.1245,13.1423011 C150.4845,13.101392 150.836318,13.1024148 151.140068,13.3458239" id="Fill-189" fill="#FFFFFF"></path>
                <path d="M110.79179,19.3855398 L112.542699,19.3855398 C111.958722,19.5839489 111.375767,19.5839489 110.79179,19.3855398" id="Fill-191" fill="#FFFFFF"></path>
                <path d="M160.619267,15.3753239 C160.616199,15.9720852 160.613642,16.5688466 160.611085,17.1650966 C160.438756,16.5678239 160.416767,15.9710625 160.619267,15.3753239" id="Fill-193" fill="#FFFFFF"></path>
                <path d="M68.5393466,13.1170909 C67.9696875,13.1170909 67.4000284,13.1170909 66.8303693,13.1170909 C67.4000284,12.9483409 67.9696875,12.9503864 68.5393466,13.1170909" id="Fill-195" fill="#FFFFFF"></path>
                <path d="M127.774176,13.1198523 C127.208097,13.1188295 126.640994,13.1178068 126.074403,13.1172955 C126.641506,12.9465 127.208097,12.9449659 127.774176,13.1198523" id="Fill-197" fill="#FFFFFF"></path>
                <path d="M122.831795,14.7835227 C122.881909,15.2028409 122.735659,15.5423864 122.415545,15.811875 C122.52242,15.4559659 122.557193,15.0709091 122.831795,14.7835227" id="Fill-199" fill="#FFFFFF"></path>
                <path d="M91.5636989,32.5739148 C91.8797216,32.9042557 91.864892,33.427892 91.5319943,33.6830625 C91.6593239,33.3164148 91.7278466,32.948233 91.5636989,32.5739148" id="Fill-201" fill="#FFFFFF"></path>
                <path d="M56.6893636,34.2543068 C56.5722614,33.9684545 56.5891364,33.728625 56.9133409,33.5920909 C56.8954432,33.8324318 56.8478864,34.0620341 56.6893636,34.2543068" id="Fill-203" fill="#FFFFFF"></path>
                <path d="M106.078653,34.1519318 C106.015756,34.3733523 106.239733,34.6847727 105.871551,34.8095455 C105.947233,34.5922159 105.625585,34.2501136 106.078653,34.1519318" id="Fill-205" fill="#FFFFFF"></path>
                <path d="M151.686409,13.6634318 C151.3755,13.8086591 151.229761,13.6966705 151.22567,13.3658182 C151.441466,13.3678636 151.657773,13.3704205 151.686409,13.6634318" id="Fill-207" fill="#FFFFFF"></path>
                <path d="M145.171023,21.6295057 C145.644034,21.6550739 145.65733,22.0079148 145.684943,22.3510398 C145.444091,22.1597898 145.340795,21.8708693 145.171023,21.6295057" id="Fill-209" fill="#FFFFFF"></path>
                <path d="M53.9337784,13.9418182 C53.4715057,14.1842045 53.5088352,13.8855682 53.5482102,13.5853977 C53.6770739,13.7040341 53.8054261,13.8231818 53.9337784,13.9418182" id="Fill-211" fill="#FFFFFF"></path>
                <path d="M123.089011,33.915733 C123.279239,33.9474375 123.314011,34.0706761 123.262875,34.2291989 C123.252136,34.2619261 123.166739,34.3048807 123.147307,34.292608 C123.040943,34.226642 123.075205,34.1059602 123.056795,34.0052216 C123.05475,33.9704489 123.065489,33.9413011 123.089011,33.915733" id="Fill-213" fill="#FFFFFF"></path>
                <path d="M151.903125,21.7261534 C151.927159,22.108142 151.675568,22.119392 151.400455,22.0999602 C151.56767,21.9751875 151.735398,21.8509261 151.903125,21.7261534" id="Fill-215" fill="#FFFFFF"></path>
                <path d="M56.914108,33.5911193 C56.9161534,33.4111193 56.824108,33.191233 57.1120057,33.1354943 C57.1385966,33.327767 57.0526875,33.4709489 56.914108,33.5911193" id="Fill-217" fill="#FFFFFF"></path>
                <path d="M73.8767045,31.6839886 C74.3497159,31.6359205 74.01375,31.9954091 74.1057955,32.1396136 C73.9738636,32.0153523 73.89,31.8670568 73.8767045,31.6839886" id="Fill-219" fill="#FFFFFF"></path>
                <path d="M109.744568,31.9097045 C109.947068,31.9547045 110.253375,31.7424886 110.31525,32.1377727 C110.108148,32.1040227 109.908716,32.0508409 109.744568,31.9097045" id="Fill-221" fill="#FFFFFF"></path>
                <path d="M88.8730568,29.0218295 C88.8393068,28.7595 88.9374886,28.6285909 89.2156705,28.6771705 C89.101125,28.7922273 88.9870909,28.9067727 88.8730568,29.0218295" id="Fill-223" fill="#FFFFFF"></path>
                <path d="M91.5392557,33.6760057 C91.5484602,33.9270852 91.3756193,33.918392 91.2038011,33.9102102 C91.3157898,33.832483 91.427267,33.7542443 91.5392557,33.6760057" id="Fill-225" fill="#FFFFFF"></path>
                <path d="M133.330756,33.4657841 C133.097574,33.4443068 133.127744,33.2719773 133.130301,33.1155 C133.260699,33.1957841 133.29496,33.3312955 133.330756,33.4657841" id="Fill-227" fill="#FFFFFF"></path>
                <path d="M145.700847,22.3780909 C145.763233,22.36275 145.825619,22.3468977 145.887494,22.3315568 C145.880847,22.3980341 145.873176,22.464 145.865506,22.5304773 C145.81079,22.4793409 145.755563,22.4292273 145.700847,22.3780909" id="Fill-229" fill="#FFFFFF"></path>
                <path d="M148.110341,22.0647273 C147.949261,22.0672841 147.877159,21.9849545 147.884318,21.8269432 C148.00858,21.8596705 148.05767,21.9634773 148.110341,22.0647273" id="Fill-231" fill="#FFFFFF"></path>
                <path d="M70.0759432,18.8090284 C68.8941818,18.8678352 67.7083295,18.7763011 66.5296364,18.9230625 C66.5408864,18.7502216 66.6605455,18.7231193 66.7996364,18.7231193 C67.8458864,18.7236307 68.8921364,18.7236307 69.937875,18.7287443 C69.9838977,18.7287443 70.0299205,18.7809034 70.0759432,18.8090284" id="Fill-233" fill="#FFFFFF"></path>
                <path d="M124.413341,21.8335398 C125.242773,22.575017 126.199023,22.6051875 127.211011,22.3377443 C127.31533,22.310642 127.424761,22.3004148 127.531636,22.282517 C127.634932,22.7897898 127.149648,22.6721761 126.973739,22.702858 C126.245045,22.8301875 125.532716,22.6962102 124.843398,22.4031989 C124.560614,22.2830284 124.444023,22.1086534 124.413341,21.8335398" id="Fill-235" fill="#FFFFFF"></path>
                <path d="M129.308727,20.2709659 C129.300034,19.9186364 129.455489,19.5913636 129.446795,19.231875 C129.438614,18.9163636 129.347591,18.8151136 129.03208,18.8273864 C128.089125,18.8626705 127.142591,18.7696023 126.203216,18.9209659 C126.255375,18.6432955 126.478841,18.7353409 126.64708,18.7210227 C127.503614,18.646875 128.372932,18.8401705 129.221795,18.6059659 C129.321,18.5783523 129.346568,18.6525 129.39617,18.6949432 C129.666682,18.9271023 129.604807,20.0270455 129.308727,20.2709659" id="Fill-237" fill="#FFFFFF"></path>
                <path d="M106.41825,21.2522216 C106.573705,21.5718239 106.513875,21.8919375 106.453534,22.214608 C106.236716,21.9036989 106.283761,21.5794943 106.41825,21.2522216" id="Fill-239" fill="#FFFFFF"></path>
                <path d="M123.514466,33.6920114 C123.418841,33.6766705 123.311455,33.6403636 123.309409,33.539625 C123.299182,33.0200795 123.304807,32.4995114 123.304807,31.9794545 L123.514466,31.9768977 L123.514466,33.6920114 Z" id="Fill-241" fill="#FFFFFF"></path>
                <path d="M107.640716,32.6323125 C107.640716,32.8920852 107.641739,33.151858 107.640205,33.410608 C107.639182,33.5543011 107.598273,33.669358 107.426966,33.6744716 C107.256682,33.6795852 107.201966,33.5711761 107.201455,33.4249261 C107.198386,32.887483 107.195318,32.3500398 107.200943,31.8120852 C107.202477,31.6591875 107.242364,31.4955511 107.440261,31.509358 C107.597761,31.5195852 107.636114,31.6632784 107.63867,31.7982784 C107.644807,32.0764602 107.640716,32.354642 107.640716,32.6323125" id="Fill-243" fill="#FFFFFF"></path>
                <path d="M109.810534,28.5049432 C108.42525,28.2692045 108.425761,28.2692045 108.429341,29.6391477 C108.430364,30.0109091 108.428318,30.3826705 108.427295,30.7544318 C108.179284,30.0236932 108.359795,29.2740341 108.329114,28.5340909 C108.32758,28.4870455 108.363375,28.4272159 108.39917,28.3919318 C108.555136,28.2415909 109.589114,28.3280114 109.810534,28.5049432" id="Fill-245" fill="#FFFFFF"></path>
                <path d="M108.035744,31.982625 L108.035744,33.6123409 C107.84296,33.0723409 107.852165,32.5287614 107.897676,31.9851818 C107.943699,31.9841591 107.989722,31.9836477 108.035744,31.982625" id="Fill-247" fill="#FFFFFF"></path>
                <path d="M109.989307,28.5399205 C109.944307,28.5348068 109.899307,28.5302045 109.854307,28.5261136 C109.905443,28.4713977 109.94942,28.4882727 109.989307,28.5399205" id="Fill-249" fill="#FFFFFF"></path>
            </g>
        </g>
    </g>
</svg>