<?xml version="1.0" encoding="UTF-8" standalone="no"?>
<svg width="20px" height="20px" viewBox="0 0 20 20" version="1.1" xmlns="http://www.w3.org/2000/svg" xmlns:xlink="http://www.w3.org/1999/xlink">
    <!-- Generator: Sketch 50.2 (55047) - http://www.bohemiancoding.com/sketch -->
    <title>Notification</title>
    <desc>Created with Sketch.</desc>
    <defs></defs>
    <g id="Users" stroke="none" stroke-width="1" fill="none" fill-rule="evenodd">
        <g transform="translate(-1173.000000, -15.000000)" fill="#7A94B3" id="Notification">
            <g transform="translate(1173.000000, 15.000000)">
                <path d="M1.00216667,15 C4.00133333,12 4.00133333,10 4.00133333,7 C4.00133333,3.68666667 6.68716667,1 9.99966667,1 C13.313,1 15.9988333,3.68666667 15.9996667,7 C15.9996667,10 15.9996667,12 18.998,15 L1.00216667,15 Z M10.0005,19 C8.6205,19 7.5005,17.88 7.5005,16.5 L7.55133333,16 L12.4488333,16 L12.4996667,16.5 C12.4996667,17.88 11.3813333,19 10.0005,19 Z M19.7055,14.2925 C17.353,11.94 16.9988333,10.7591667 16.9988333,7 C16.9988333,3.13416667 13.8655,0 9.99966667,0 C6.13466667,0 3.00133333,3.13416667 3.00133333,7 C3.00133333,9.0275 2.94716667,9.78333333 2.66883333,10.7125 C2.32133333,11.87 1.60883333,12.9775 0.294666667,14.2925 C-0.3345,14.9225 0.111333333,16 1.00216667,16 L6.5505,16 L6.5005,16.5 C6.5005,18.4325 8.06716667,20 9.99966667,20 C11.9321667,20 13.4996667,18.4325 13.4996667,16.5 L13.4488333,16 L18.998,16 C19.8896667,16 20.3355,14.9225 19.7055,14.2925 Z" id="Fill-1"></path>
            </g>
        </g>
    </g>
</svg>