<?xml version="1.0" encoding="UTF-8" standalone="no"?>
<svg width="15px" height="15px" viewBox="0 0 15 15" version="1.1" xmlns="http://www.w3.org/2000/svg" xmlns:xlink="http://www.w3.org/1999/xlink">
    <!-- Generator: sketchtool 50.2 (55047) - http://www.bohemiancoding.com/sketch -->
    <title>2F49815F-9603-411E-83EE-67A2E6EF6473</title>
    <desc>Created with sketchtool.</desc>
    <defs></defs>
    <g id="Electron" stroke="none" stroke-width="1" fill="none" fill-rule="evenodd">
        <g id="List-view" transform="translate(-1257.000000, -106.000000)" fill="#538FD2" fill-rule="nonzero">
            <g id="pull-icon" transform="translate(1264.500000, 113.500000) rotate(180.000000) translate(-1264.500000, -113.500000) translate(1257.000000, 106.000000)">
                <path d="M14.2578947,14.2578112 L0,14.2578112 L0,0 L14.2578947,0 L14.2578947,14.2578112 Z M1.42581454,12.8320802 L12.8320802,12.8320802 L12.8320802,1.42573099 L1.42581454,1.42573099 L1.42581454,12.8320802 Z" id="Shape"></path>
                <rect id="Rectangle-path" x="6.4160401" y="4.27736007" width="1.42581454" height="9.98053467"></rect>
                <path d="M10.6934002,8.55472013 C10.4795322,8.55472013 10.3369256,8.48345865 10.1944027,8.34085213 L7.1289056,5.27535505 L4.06349206,8.34085213 C3.77836257,8.62598162 3.35062657,8.62598162 3.06541353,8.34085213 C2.7802005,8.05572264 2.78028404,7.62798663 3.06541353,7.3427736 L7.1289056,3.27928154 L11.1923977,7.3427736 C11.4775272,7.62790309 11.4775272,8.0556391 11.1923977,8.34085213 C11.0498747,8.4833751 10.9072682,8.55472013 10.6934002,8.55472013 Z" id="Shape"></path>
            </g>
        </g>
    </g>
</svg>