<?xml version="1.0" encoding="UTF-8" standalone="no"?>
<svg width="468px" height="190px" viewBox="0 0 468 190" version="1.1" xmlns="http://www.w3.org/2000/svg" xmlns:xlink="http://www.w3.org/1999/xlink">
    <!-- Generator: Sketch 50.2 (55047) - http://www.bohemiancoding.com/sketch -->
    <title>report icon with text</title>
    <desc>Created with Sketch.</desc>
    <defs></defs>
    <g id="Reports" stroke="none" stroke-width="1" fill="none" fill-rule="evenodd">
        <g id="Filter-path-a2" transform="translate(-550.000000, -290.000000)">
            <g id="report-icon-with-text" transform="translate(550.000000, 290.000000)">
                <g id="report-icon" transform="translate(159.000000, 0.000000)">
                    <path d="M149.115133,75.000177 C149.115133,116.177168 115.734602,149.557699 74.5576106,149.557699 C33.380177,149.557699 8.84955752e-05,116.177168 8.84955752e-05,75.000177 C8.84955752e-05,33.8227434 33.380177,0.442212389 74.5576106,0.442212389 C115.734602,0.442212389 149.115133,33.8227434 149.115133,75.000177" id="Fill-1" fill="#58A6FF" opacity="0.1"></path>
                    <polyline id="Fill-4" fill="#FFFFFF" points="75.1400885 23.659115 75.1400885 36.3799115 88.2458407 36.7653097 75.1400885 23.659115 32.7387611 23.659115 32.7387611 100.752478 87.6675221 100.945398 88.2458407 36.3799115"></polyline>
                    <path d="M33.6237168,24.5440708 L33.6237168,99.8706248 L86.7904851,100.057357 L87.3497034,37.6242955 L75.114076,37.2644849 C74.6356646,37.2504163 74.2551327,36.8585298 74.2551327,36.3799115 L74.2551327,24.5440708 L33.6237168,24.5440708 Z M88.5524424,100.953325 C88.5480816,101.440172 88.151278,101.832058 87.664414,101.830349 L32.7356529,101.637428 C32.2481217,101.635716 31.8538053,101.240012 31.8538053,100.752478 L31.8538053,23.659115 C31.8538053,23.1703675 32.2500135,22.7741593 32.7387611,22.7741593 L75.1400885,22.7741593 C75.2574435,22.7741593 75.3723951,22.7974694 75.4787533,22.8415254 C75.5904368,22.8884896 75.6857843,22.9532917 75.7658575,23.0333676 L88.2272133,35.4951441 C88.742495,35.4993688 89.1351385,35.8991098 89.130761,36.3878378 L89.1282364,36.6696938 C89.1326818,36.7129683 88.9407505,58.1408452 88.5524424,100.953325 Z M76.0250442,35.5205969 L86.0442989,35.8152311 L76.0250442,25.7956382 L76.0250442,35.5205969 Z" id="Stroke-5" fill="#1C4980" fill-rule="nonzero"></path>
                    <polyline id="Fill-7" fill="#FFFFFF" points="84.3915044 32.1394248 84.3915044 44.8597788 97.4972566 45.245177 84.3915044 32.1394248 41.990177 32.1394248 41.990177 109.232345 96.9189381 109.425265 97.4972566 44.8597788"></polyline>
                    <path d="M83.5065487,33.0243805 L42.8751327,33.0243805 L42.8751327,108.350492 L96.0419011,108.537224 L96.6011193,46.1041628 L84.365492,45.7443521 C83.8870805,45.7302836 83.5065487,45.338397 83.5065487,44.8597788 L83.5065487,33.0243805 Z M97.8038583,109.433192 C97.7994976,109.920039 97.4026939,110.311926 96.9158299,110.310216 L41.9870689,110.117295 C41.4995377,110.115583 41.1052212,109.719879 41.1052212,109.232345 L41.1052212,32.1394248 C41.1052212,31.6506772 41.5014294,31.254469 41.990177,31.254469 L84.3915044,31.254469 C84.5088569,31.254469 84.6238061,31.2777781 84.7301623,31.3218323 C85.0535931,31.4583568 85.2764602,31.7728641 85.2764602,32.1394248 L85.2764602,34.275897 L83.7657462,32.765183 L84.3915044,33.0243805 L83.5065487,33.0243805 L83.5065487,32.1394248 C83.5065487,31.6506772 83.9027569,31.254469 84.3915044,31.254469 C84.5136913,31.254469 84.6300945,31.279232 84.7359691,31.3240132 C84.8365186,31.3658865 84.9342819,31.4306859 85.0172626,31.5136666 L97.4786079,43.9750118 C97.9939109,43.9792361 98.3865545,44.3789771 98.3821769,44.8677051 L98.3796523,45.1495606 C98.3840978,45.1928351 98.1921664,66.6207122 97.8038583,109.433192 Z M85.2764602,44.0004642 L95.29566,44.2950968 L85.2764602,34.275897 L85.2764602,44.0004642 Z" id="Stroke-8" fill="#1C4980" fill-rule="nonzero"></path>
                    <path d="M47.3866814,61.8204425 L88.2459735,61.8204425" id="Fill-10" fill="#FFFFFF"></path>
                    <path d="M47.3866814,62.7053982 C46.8979338,62.7053982 46.5017257,62.30919 46.5017257,61.8204425 C46.5017257,61.3316949 46.8979338,60.9354867 47.3866814,60.9354867 L88.2459735,60.9354867 C88.734721,60.9354867 89.1309292,61.3316949 89.1309292,61.8204425 C89.1309292,62.30919 88.734721,62.7053982 88.2459735,62.7053982 L47.3866814,62.7053982 Z" id="Stroke-12" fill="#1C4980" fill-rule="nonzero"></path>
                    <path d="M47.3866814,71.0714602 L88.2459735,71.0714602" id="Fill-14" fill="#FFFFFF"></path>
                    <path d="M47.3866814,71.9564159 C46.8979338,71.9564159 46.5017257,71.5602077 46.5017257,71.0714602 C46.5017257,70.5827126 46.8979338,70.1865044 47.3866814,70.1865044 L88.2459735,70.1865044 C88.734721,70.1865044 89.1309292,70.5827126 89.1309292,71.0714602 C89.1309292,71.5602077 88.734721,71.9564159 88.2459735,71.9564159 L47.3866814,71.9564159 Z" id="Stroke-16" fill="#1C4980" fill-rule="nonzero"></path>
                    <path d="M47.3866814,80.3228761 L88.2459735,80.3228761" id="Fill-18" fill="#FFFFFF"></path>
                    <path d="M47.3866814,81.2078319 C46.8979338,81.2078319 46.5017257,80.8116237 46.5017257,80.3228761 C46.5017257,79.8341285 46.8979338,79.4379204 47.3866814,79.4379204 L88.2459735,79.4379204 C88.734721,79.4379204 89.1309292,79.8341285 89.1309292,80.3228761 C89.1309292,80.8116237 88.734721,81.2078319 88.2459735,81.2078319 L47.3866814,81.2078319 Z" id="Stroke-20" fill="#1C4980" fill-rule="nonzero"></path>
                    <path d="M47.3866814,89.5738496 L88.2459735,89.5738496" id="Fill-22" fill="#FFFFFF"></path>
                    <path d="M47.3866814,90.4588053 C46.8979338,90.4588053 46.5017257,90.0625971 46.5017257,89.5738496 C46.5017257,89.085102 46.8979338,88.6888938 47.3866814,88.6888938 L88.2459735,88.6888938 C88.734721,88.6888938 89.1309292,89.085102 89.1309292,89.5738496 C89.1309292,90.0625971 88.734721,90.4588053 88.2459735,90.4588053 L47.3866814,90.4588053 Z" id="Stroke-24" fill="#1C4980" fill-rule="nonzero"></path>
                    <path d="M99.8099558,89.959292 C99.8099558,100.390708 91.3537611,108.847345 80.9219027,108.847345 C70.4904867,108.847345 62.034292,100.390708 62.034292,89.959292 C62.034292,79.5278761 70.4904867,71.0712389 80.9219027,71.0712389 C91.3537611,71.0712389 99.8099558,79.5278761 99.8099558,89.959292" id="Fill-27" fill="#FE8137"></path>
                    <path d="M98.925,89.959292 C98.925,80.0164676 90.8648575,71.9561947 80.9219027,71.9561947 C70.9793251,71.9561947 62.9192478,80.0165329 62.9192478,89.959292 C62.9192478,99.9020512 70.9793251,107.962389 80.9219027,107.962389 C90.8648575,107.962389 98.925,99.9021164 98.925,89.959292 Z M100.694912,89.959292 C100.694912,100.879605 91.842359,109.732301 80.9219027,109.732301 C70.0018171,109.732301 61.1493363,100.879534 61.1493363,89.959292 C61.1493363,79.0390506 70.0018171,70.1862832 80.9219027,70.1862832 C91.842359,70.1862832 100.694912,79.0389789 100.694912,89.959292 Z" id="Stroke-29" fill="#062954" fill-rule="nonzero"></path>
                    <path d="M80.9221239,76.1867257 C80.4333763,76.1867257 80.0371681,75.7905175 80.0371681,75.3017699 C80.0371681,74.8130223 80.4333763,74.4168142 80.9221239,74.4168142 C83.0270868,74.4168142 85.0750361,74.8359476 86.9727506,75.6389926 C87.422857,75.8294615 87.6333348,76.3487504 87.4428658,76.7988568 C87.2523969,77.2489632 86.733108,77.459441 86.2830016,77.268972 C84.6025752,76.5578756 82.7890804,76.1867257 80.9221239,76.1867257 Z" id="Stroke-31" fill="#FFFFFF" fill-rule="nonzero" opacity="0.400000006"></path>
                    <path d="M67.2238924,91.3971085 C67.2743885,91.8832405 66.9212359,92.3182636 66.4351039,92.3687597 C65.9489718,92.4192558 65.5139488,92.0661031 65.4634527,91.5799711 C65.4076672,91.0429172 65.3795133,90.5022449 65.3795133,89.9593363 C65.3795133,83.2645008 69.6516591,77.385659 75.8853269,75.2513001 C76.3477216,75.0929798 76.8509105,75.3394808 77.0092308,75.8018755 C77.1675511,76.2642702 76.9210501,76.7674592 76.4586554,76.9257795 C70.9354311,78.8168881 67.1494248,84.0267599 67.1494248,89.9593363 C67.1494248,90.4410054 67.1744006,90.9206444 67.2238924,91.3971085 Z" id="Stroke-33" fill="#FFFFFF" fill-rule="nonzero" opacity="0.400000006"></path>
                    <path d="M91.8081858,105.389823 L94.2612832,107.843363" id="Fill-35" fill="#FFFFFF"></path>
                    <path d="M91.1823712,106.015525 C90.8368056,105.669897 90.8368562,105.109574 91.1824841,104.764008 C91.5281119,104.418443 92.0884349,104.418493 92.4340005,104.764121 L94.8870978,107.217661 C95.2326634,107.563289 95.2326128,108.123612 94.886985,108.469177 C94.5413571,108.814743 93.9810341,108.814692 93.6354685,108.469065 L91.1823712,106.015525 Z" id="Stroke-37" fill="#062954" fill-rule="nonzero"></path>
                    <path d="M95.6076991,101.833584 L97.9395575,104.165442" id="Fill-39" fill="#FFFFFF"></path>
                    <path d="M94.9819409,102.459342 C94.6363442,102.113746 94.6363442,101.553423 94.9819409,101.207826 C95.3275376,100.862229 95.8878606,100.862229 96.2334573,101.207826 L98.5653157,103.539684 C98.9109125,103.885281 98.9109125,104.445604 98.5653157,104.791201 C98.219719,105.136797 97.659396,105.136797 97.3137993,104.791201 L94.9819409,102.459342 Z" id="Stroke-41" fill="#062954" fill-rule="nonzero"></path>
                    <path d="M96.1413717,107.119115 L97.2754425,105.985044 C99.1011062,104.159823 102.060841,104.159823 103.886504,105.985044 L115.007301,117.105398 C116.832522,118.931062 116.832522,121.891239 115.007301,123.716903 L113.751991,124.97177 C111.912611,126.81115 108.925,126.795221 107.105088,124.935929 L96.1059735,113.693894 C94.3139381,111.863363 94.3298673,108.931062 96.1413717,107.119115" id="Fill-43" fill="#FE8137"></path>
                    <path d="M96.7385285,113.075007 L107.737508,124.316904 C109.212896,125.824218 111.635012,125.837233 113.126343,124.345901 L114.381467,123.09122 C115.861192,121.611136 115.861192,119.211165 114.381555,117.731169 L103.260822,106.610878 C101.780738,105.131153 99.3812092,105.131153 97.9012007,106.610802 L96.7671681,107.744835 C95.2985428,109.213819 95.2857088,111.590979 96.7385285,113.075007 Z M95.5155371,106.493433 L96.6497601,105.35921 C98.8210032,103.188493 102.340944,103.188493 104.51225,105.359274 L115.633135,116.479716 C117.803852,118.650959 117.803852,122.171342 115.632949,124.342771 L114.377749,125.597528 C112.190086,127.785192 108.636981,127.7661 106.472533,125.554816 L95.4736013,114.312967 C93.3422649,112.135847 93.3610931,108.648403 95.5155371,106.493433 Z" id="Stroke-45" fill="#062954" fill-rule="nonzero"></path>
                    <path d="M107.19849,115.087705 C106.852893,114.742108 106.852893,114.181785 107.19849,113.836189 C107.544086,113.490592 108.104409,113.490592 108.450006,113.836189 L112.414608,117.80079 C113.566813,118.952996 113.566813,120.821593 112.414608,121.974431 L112.250891,122.138148 C111.905294,122.483744 111.344971,122.483744 110.999375,122.138148 C110.653778,121.792551 110.653778,121.232228 110.999375,120.886631 L111.16292,120.723086 C111.62416,120.261592 111.62416,119.513376 111.163091,119.052307 L107.19849,115.087705 Z" id="Stroke-47" fill="#FFFFFF" fill-rule="nonzero" opacity="0.400000006"></path>
                </g>
                <path d="M8.784,173.144 L10.17,173.144 L10.17,185.834 L9.036,185.834 L1.386,175.628 L1.386,185.834 L0,185.834 L0,173.144 L1.134,173.144 L8.784,183.35 L8.784,173.144 Z M14.535,185.402 C13.9049968,185.029998 13.4190017,184.499003 13.077,183.809 C12.7349983,183.118997 12.564,182.318005 12.564,181.406 C12.564,180.493995 12.7349983,179.693003 13.077,179.003 C13.4190017,178.312997 13.9049968,177.782002 14.535,177.41 C15.1650031,177.037998 15.8939959,176.852 16.722,176.852 C17.5500041,176.852 18.2819968,177.037998 18.918,177.41 C19.5540032,177.782002 20.0429983,178.312997 20.385,179.003 C20.7270017,179.693003 20.898,180.493995 20.898,181.406 C20.898,182.318005 20.7270017,183.118997 20.385,183.809 C20.0429983,184.499003 19.5540032,185.029998 18.918,185.402 C18.2819968,185.774002 17.5500041,185.96 16.722,185.96 C15.8939959,185.96 15.1650031,185.774002 14.535,185.402 Z M18.711,183.899 C19.1730023,183.328997 19.404,182.498005 19.404,181.406 C19.404,180.337995 19.1700023,179.513003 18.702,178.931 C18.2339977,178.348997 17.5740043,178.058 16.722,178.058 C15.8699957,178.058 15.2100023,178.348997 14.742,178.931 C14.2739977,179.513003 14.04,180.337995 14.04,181.406 C14.04,182.486005 14.2709977,183.313997 14.733,183.89 C15.1950023,184.466003 15.8579957,184.754 16.722,184.754 C17.5860043,184.754 18.2489977,184.469003 18.711,183.899 Z M37.926,185.834 L36.306,185.834 L34.146,181.766 C33.8819987,181.273998 33.5730018,180.935001 33.219,180.749 C32.8649982,180.562999 32.3820031,180.47 31.77,180.47 L29.394,180.47 L29.394,185.834 L27.936,185.834 L27.936,173.144 L33.156,173.144 C34.5360069,173.144 35.5889964,173.449997 36.315,174.062 C37.0410036,174.674003 37.404,175.573994 37.404,176.762 C37.404,177.746005 37.1250028,178.540997 36.567,179.147 C36.0089972,179.753003 35.2140052,180.133999 34.182,180.29 C34.5060016,180.386 34.7909988,180.547999 35.037,180.776 C35.2830012,181.004001 35.507999,181.309998 35.712,181.694 L37.926,185.834 Z M33.03,179.246 C34.0140049,179.246 34.7489976,179.042002 35.235,178.634 C35.7210024,178.225998 35.964,177.608004 35.964,176.78 C35.964,175.963996 35.7240024,175.358002 35.244,174.962 C34.7639976,174.565998 34.026005,174.368 33.03,174.368 L29.394,174.368 L29.394,179.246 L33.03,179.246 Z M47.412,181.676 L41.004,181.676 C41.0520002,182.696005 41.3279975,183.466997 41.832,183.989 C42.3360025,184.511003 43.0499954,184.772 43.974,184.772 C44.9940051,184.772 45.9299957,184.424003 46.782,183.728 L47.268,184.79 C46.8839981,185.150002 46.392003,185.434999 45.792,185.645 C45.191997,185.855001 44.5800031,185.96 43.956,185.96 C42.5879932,185.96 41.5110039,185.558004 40.725,184.754 C39.9389961,183.949996 39.546,182.840007 39.546,181.424 C39.546,180.523996 39.7199983,179.729003 40.068,179.039 C40.4160017,178.348997 40.9049968,177.812002 41.535,177.428 C42.1650031,177.043998 42.881996,176.852 43.686,176.852 C44.8500058,176.852 45.7619967,177.232996 46.422,177.995 C47.0820033,178.757004 47.412,179.803993 47.412,181.136 L47.412,181.676 Z M41.859,178.706 C41.3969977,179.186002 41.1240004,179.863996 41.04,180.74 L46.134,180.74 C46.1099999,179.851996 45.8880021,179.171002 45.468,178.697 C45.0479979,178.222998 44.4600038,177.986 43.704,177.986 C42.9359962,177.986 42.3210023,178.225998 41.859,178.706 Z M55.998,177.428 C56.5860029,177.812002 57.0419984,178.348997 57.366,179.039 C57.6900016,179.729003 57.852,180.529995 57.852,181.442 C57.852,182.354005 57.6900016,183.148997 57.366,183.827 C57.0419984,184.505003 56.5890029,185.029998 56.007,185.402 C55.4249971,185.774002 54.7440039,185.96 53.964,185.96 C53.2799966,185.96 52.6830025,185.810001 52.173,185.51 C51.6629974,185.209998 51.2760013,184.784003 51.012,184.232 L51.012,189.074 L49.554,189.074 L49.554,177.068 L51.012,177.068 L51.012,178.58 C51.2760013,178.027997 51.6629974,177.602002 52.173,177.302 C52.6830025,177.001999 53.2799966,176.852 53.964,176.852 C54.7320038,176.852 55.4099971,177.043998 55.998,177.428 Z M55.656,183.89 C56.1240023,183.313997 56.358,182.498005 56.358,181.442 C56.358,180.385995 56.1240023,179.561003 55.656,178.967 C55.1879977,178.372997 54.5280043,178.076 53.676,178.076 C52.8239957,178.076 52.1670023,178.363997 51.705,178.94 C51.2429977,179.516003 51.012,180.337995 51.012,181.406 C51.012,182.474005 51.2429977,183.298997 51.705,183.881 C52.1670023,184.463003 52.8239957,184.754 53.676,184.754 C54.5280043,184.754 55.1879977,184.466003 55.656,183.89 Z M61.479,185.402 C60.8489968,185.029998 60.3630017,184.499003 60.021,183.809 C59.6789983,183.118997 59.508,182.318005 59.508,181.406 C59.508,180.493995 59.6789983,179.693003 60.021,179.003 C60.3630017,178.312997 60.8489968,177.782002 61.479,177.41 C62.1090031,177.037998 62.8379959,176.852 63.666,176.852 C64.4940041,176.852 65.2259968,177.037998 65.862,177.41 C66.4980032,177.782002 66.9869983,178.312997 67.329,179.003 C67.6710017,179.693003 67.842,180.493995 67.842,181.406 C67.842,182.318005 67.6710017,183.118997 67.329,183.809 C66.9869983,184.499003 66.4980032,185.029998 65.862,185.402 C65.2259968,185.774002 64.4940041,185.96 63.666,185.96 C62.8379959,185.96 62.1090031,185.774002 61.479,185.402 Z M65.655,183.899 C66.1170023,183.328997 66.348,182.498005 66.348,181.406 C66.348,180.337995 66.1140023,179.513003 65.646,178.931 C65.1779977,178.348997 64.5180043,178.058 63.666,178.058 C62.8139957,178.058 62.1540023,178.348997 61.686,178.931 C61.2179977,179.513003 60.984,180.337995 60.984,181.406 C60.984,182.486005 61.2149977,183.313997 61.677,183.89 C62.1390023,184.466003 62.8019957,184.754 63.666,184.754 C64.5300043,184.754 65.1929977,184.469003 65.655,183.899 Z M74.988,178.112 L74.034,178.202 C73.1339955,178.286 72.483002,178.567998 72.081,179.048 C71.678998,179.528002 71.478,180.121996 71.478,180.83 L71.478,185.834 L70.02,185.834 L70.02,177.068 L71.442,177.068 L71.442,178.598 C71.9340025,177.577995 72.8999928,177.008001 74.34,176.888 L74.862,176.852 L74.988,178.112 Z M81.018,184.736 L80.946,185.888 C80.6699986,185.936 80.3700016,185.96 80.046,185.96 C78.9899947,185.96 78.1950027,185.684003 77.661,185.132 C77.1269973,184.579997 76.86,183.812005 76.86,182.828 L76.86,178.22 L75.15,178.22 L75.15,177.068 L76.86,177.068 L76.86,174.404 L78.318,174.404 L78.318,177.068 L80.802,177.068 L80.802,178.22 L78.318,178.22 L78.318,182.72 C78.318,184.100007 78.9539936,184.79 80.226,184.79 C80.4900013,184.79 80.7539987,184.772 81.018,184.736 Z M81.954,184.826 L82.44,183.746 C82.9080023,184.118002 83.3849976,184.384999 83.871,184.547 C84.3570024,184.709001 84.9059969,184.79 85.518,184.79 C86.1660032,184.79 86.6609983,184.679001 87.003,184.457 C87.3450017,184.234999 87.516,183.914002 87.516,183.494 C87.516,183.145998 87.4020011,182.870001 87.174,182.666 C86.9459989,182.461999 86.5680026,182.300001 86.04,182.18 L84.564,181.838 C83.8199963,181.669999 83.250002,181.382002 82.854,180.974 C82.457998,180.565998 82.26,180.062003 82.26,179.462 C82.26,178.681996 82.5659969,178.052002 83.178,177.572 C83.7900031,177.091998 84.6059949,176.852 85.626,176.852 C86.2380031,176.852 86.8199972,176.950999 87.372,177.149 C87.9240028,177.347001 88.3859981,177.631998 88.758,178.004 L88.272,179.066 C87.467996,178.381997 86.5860048,178.04 85.626,178.04 C85.0139969,178.04 84.5370017,178.156999 84.195,178.391 C83.8529983,178.625001 83.682,178.951998 83.682,179.372 C83.682,179.720002 83.7869989,179.998999 83.997,180.209 C84.207001,180.419001 84.5459977,180.577999 85.014,180.686 L86.508,181.046 C87.3240041,181.238001 87.929998,181.528998 88.326,181.919 C88.722002,182.309002 88.92,182.815997 88.92,183.44 C88.92,184.208004 88.6110031,184.819998 87.993,185.276 C87.3749969,185.732002 86.5320053,185.96 85.464,185.96 C83.9879926,185.96 82.8180043,185.582004 81.954,184.826 Z M103.338,180.326 L103.338,185.834 L101.88,185.834 L101.88,180.416 C101.88,179.599996 101.721002,179.006002 101.403,178.634 C101.084998,178.261998 100.578003,178.076 99.882,178.076 C99.077996,178.076 98.4360024,178.321998 97.956,178.814 C97.4759976,179.306002 97.236,179.971996 97.236,180.812 L97.236,185.834 L95.778,185.834 L95.778,173.144 L97.236,173.144 L97.236,178.472 C97.5240014,177.943997 97.9229974,177.542001 98.433,177.266 C98.9430025,176.989999 99.5279967,176.852 100.188,176.852 C102.28801,176.852 103.338,178.009988 103.338,180.326 Z M112.059,177.707 C112.605003,178.277003 112.878,179.143994 112.878,180.308 L112.878,185.834 L111.456,185.834 L111.456,184.34 C111.227999,184.856003 110.880002,185.254999 110.412,185.537 C109.943998,185.819001 109.404003,185.96 108.792,185.96 C108.227997,185.96 107.709002,185.846001 107.235,185.618 C106.760998,185.389999 106.386001,185.072002 106.11,184.664 C105.833999,184.255998 105.696,183.806002 105.696,183.314 C105.696,182.653997 105.863998,182.141002 106.2,181.775 C106.536002,181.408998 107.087996,181.145001 107.856,180.983 C108.624004,180.820999 109.691993,180.74 111.06,180.74 L111.456,180.74 L111.456,180.146 C111.456,179.413996 111.306001,178.883002 111.006,178.553 C110.705998,178.222998 110.220003,178.058 109.548,178.058 C108.539995,178.058 107.538005,178.369997 106.542,178.994 L106.056,177.932 C106.512002,177.607998 107.060997,177.347001 107.703,177.149 C108.345003,176.950999 108.965997,176.852 109.566,176.852 C110.682006,176.852 111.512997,177.136997 112.059,177.707 Z M110.763,184.079 C111.225002,183.592998 111.456,182.966004 111.456,182.198 L111.456,181.676 L111.132,181.676 C110.075995,181.676 109.272003,181.721 108.72,181.811 C108.167997,181.901 107.775001,182.050999 107.541,182.261 C107.306999,182.471001 107.19,182.779998 107.19,183.188 C107.19,183.656002 107.360998,184.042998 107.703,184.349 C108.045002,184.655002 108.473997,184.808 108.99,184.808 C109.710004,184.808 110.300998,184.565002 110.763,184.079 Z M115.002,184.826 L115.488,183.746 C115.956002,184.118002 116.432998,184.384999 116.919,184.547 C117.405002,184.709001 117.953997,184.79 118.566,184.79 C119.214003,184.79 119.708998,184.679001 120.051,184.457 C120.393002,184.234999 120.564,183.914002 120.564,183.494 C120.564,183.145998 120.450001,182.870001 120.222,182.666 C119.993999,182.461999 119.616003,182.300001 119.088,182.18 L117.612,181.838 C116.867996,181.669999 116.298002,181.382002 115.902,180.974 C115.505998,180.565998 115.308,180.062003 115.308,179.462 C115.308,178.681996 115.613997,178.052002 116.226,177.572 C116.838003,177.091998 117.653995,176.852 118.674,176.852 C119.286003,176.852 119.867997,176.950999 120.42,177.149 C120.972003,177.347001 121.433998,177.631998 121.806,178.004 L121.32,179.066 C120.515996,178.381997 119.634005,178.04 118.674,178.04 C118.061997,178.04 117.585002,178.156999 117.243,178.391 C116.900998,178.625001 116.73,178.951998 116.73,179.372 C116.73,179.720002 116.834999,179.998999 117.045,180.209 C117.255001,180.419001 117.593998,180.577999 118.062,180.686 L119.556,181.046 C120.372004,181.238001 120.977998,181.528998 121.374,181.919 C121.770002,182.309002 121.968,182.815997 121.968,183.44 C121.968,184.208004 121.659003,184.819998 121.041,185.276 C120.422997,185.732002 119.580005,185.96 118.512,185.96 C117.035993,185.96 115.866004,185.582004 115.002,184.826 Z M135.27,177.41 C135.858003,177.782002 136.313998,178.309997 136.638,178.994 C136.962002,179.678003 137.124,180.469995 137.124,181.37 C137.124,182.282005 136.962002,183.082997 136.638,183.773 C136.313998,184.463003 135.858003,184.999998 135.27,185.384 C134.681997,185.768002 134.004004,185.96 133.236,185.96 C132.551997,185.96 131.955003,185.810001 131.445,185.51 C130.934997,185.209998 130.548001,184.784003 130.284,184.232 L130.284,185.834 L128.826,185.834 L128.826,173.144 L130.284,173.144 L130.284,178.58 C130.548001,178.027997 130.934997,177.602002 131.445,177.302 C131.955003,177.001999 132.551997,176.852 133.236,176.852 C134.004004,176.852 134.681997,177.037998 135.27,177.41 Z M134.928,183.863 C135.396002,183.268997 135.63,182.438005 135.63,181.37 C135.63,180.325995 135.396002,179.516003 134.928,178.94 C134.459998,178.363997 133.800004,178.076 132.948,178.076 C132.095996,178.076 131.439002,178.363997 130.977,178.94 C130.514998,179.516003 130.284,180.337995 130.284,181.406 C130.284,182.474005 130.514998,183.298997 130.977,183.881 C131.439002,184.463003 132.095996,184.754 132.948,184.754 C133.800004,184.754 134.459998,184.457003 134.928,183.863 Z M146.646,181.676 L140.238,181.676 C140.286,182.696005 140.561997,183.466997 141.066,183.989 C141.570003,184.511003 142.283995,184.772 143.208,184.772 C144.228005,184.772 145.163996,184.424003 146.016,183.728 L146.502,184.79 C146.117998,185.150002 145.626003,185.434999 145.026,185.645 C144.425997,185.855001 143.814003,185.96 143.19,185.96 C141.821993,185.96 140.745004,185.558004 139.959,184.754 C139.172996,183.949996 138.78,182.840007 138.78,181.424 C138.78,180.523996 138.953998,179.729003 139.302,179.039 C139.650002,178.348997 140.138997,177.812002 140.769,177.428 C141.399003,177.043998 142.115996,176.852 142.92,176.852 C144.084006,176.852 144.995997,177.232996 145.656,177.995 C146.316003,178.757004 146.646,179.803993 146.646,181.136 L146.646,181.676 Z M141.093,178.706 C140.630998,179.186002 140.358,179.863996 140.274,180.74 L145.368,180.74 C145.344,179.851996 145.122002,179.171002 144.702,178.697 C144.281998,178.222998 143.694004,177.986 142.938,177.986 C142.169996,177.986 141.555002,178.225998 141.093,178.706 Z M156.132,181.676 L149.724,181.676 C149.772,182.696005 150.047997,183.466997 150.552,183.989 C151.056003,184.511003 151.769995,184.772 152.694,184.772 C153.714005,184.772 154.649996,184.424003 155.502,183.728 L155.988,184.79 C155.603998,185.150002 155.112003,185.434999 154.512,185.645 C153.911997,185.855001 153.300003,185.96 152.676,185.96 C151.307993,185.96 150.231004,185.558004 149.445,184.754 C148.658996,183.949996 148.266,182.840007 148.266,181.424 C148.266,180.523996 148.439998,179.729003 148.788,179.039 C149.136002,178.348997 149.624997,177.812002 150.255,177.428 C150.885003,177.043998 151.601996,176.852 152.406,176.852 C153.570006,176.852 154.481997,177.232996 155.142,177.995 C155.802003,178.757004 156.132,179.803993 156.132,181.136 L156.132,181.676 Z M150.579,178.706 C150.116998,179.186002 149.844,179.863996 149.76,180.74 L154.854,180.74 C154.83,179.851996 154.608002,179.171002 154.188,178.697 C153.767998,178.222998 153.180004,177.986 152.424,177.986 C151.655996,177.986 151.041002,178.225998 150.579,178.706 Z M165.834,180.326 L165.834,185.834 L164.376,185.834 L164.376,180.416 C164.376,179.599996 164.217002,179.006002 163.899,178.634 C163.580998,178.261998 163.074003,178.076 162.378,178.076 C161.573996,178.076 160.932002,178.321998 160.452,178.814 C159.971998,179.306002 159.732,179.971996 159.732,180.812 L159.732,185.834 L158.274,185.834 L158.274,177.068 L159.714,177.068 L159.714,178.508 C160.002001,177.967997 160.403997,177.557001 160.92,177.275 C161.436003,176.992999 162.023997,176.852 162.684,176.852 C164.78401,176.852 165.834,178.009988 165.834,180.326 Z M172.602,184.826 L173.088,183.746 C173.556002,184.118002 174.032998,184.384999 174.519,184.547 C175.005002,184.709001 175.553997,184.79 176.166,184.79 C176.814003,184.79 177.308998,184.679001 177.651,184.457 C177.993002,184.234999 178.164,183.914002 178.164,183.494 C178.164,183.145998 178.050001,182.870001 177.822,182.666 C177.593999,182.461999 177.216003,182.300001 176.688,182.18 L175.212,181.838 C174.467996,181.669999 173.898002,181.382002 173.502,180.974 C173.105998,180.565998 172.908,180.062003 172.908,179.462 C172.908,178.681996 173.213997,178.052002 173.826,177.572 C174.438003,177.091998 175.253995,176.852 176.274,176.852 C176.886003,176.852 177.467997,176.950999 178.02,177.149 C178.572003,177.347001 179.033998,177.631998 179.406,178.004 L178.92,179.066 C178.115996,178.381997 177.234005,178.04 176.274,178.04 C175.661997,178.04 175.185002,178.156999 174.843,178.391 C174.500998,178.625001 174.33,178.951998 174.33,179.372 C174.33,179.720002 174.434999,179.998999 174.645,180.209 C174.855001,180.419001 175.193998,180.577999 175.662,180.686 L177.156,181.046 C177.972004,181.238001 178.577998,181.528998 178.974,181.919 C179.370002,182.309002 179.568,182.815997 179.568,183.44 C179.568,184.208004 179.259003,184.819998 178.641,185.276 C178.022997,185.732002 177.180005,185.96 176.112,185.96 C174.635993,185.96 173.466004,185.582004 172.602,184.826 Z M189.126,181.676 L182.718,181.676 C182.766,182.696005 183.041997,183.466997 183.546,183.989 C184.050003,184.511003 184.763995,184.772 185.688,184.772 C186.708005,184.772 187.643996,184.424003 188.496,183.728 L188.982,184.79 C188.597998,185.150002 188.106003,185.434999 187.506,185.645 C186.905997,185.855001 186.294003,185.96 185.67,185.96 C184.301993,185.96 183.225004,185.558004 182.439,184.754 C181.652996,183.949996 181.26,182.840007 181.26,181.424 C181.26,180.523996 181.433998,179.729003 181.782,179.039 C182.130002,178.348997 182.618997,177.812002 183.249,177.428 C183.879003,177.043998 184.595996,176.852 185.4,176.852 C186.564006,176.852 187.475997,177.232996 188.136,177.995 C188.796003,178.757004 189.126,179.803993 189.126,181.136 L189.126,181.676 Z M183.573,178.706 C183.110998,179.186002 182.838,179.863996 182.754,180.74 L187.848,180.74 C187.824,179.851996 187.602002,179.171002 187.182,178.697 C186.761998,178.222998 186.174004,177.986 185.418,177.986 C184.649996,177.986 184.035002,178.225998 183.573,178.706 Z M191.268,185.834 L191.268,173.144 L192.726,173.144 L192.726,185.834 L191.268,185.834 Z M202.788,181.676 L196.38,181.676 C196.428,182.696005 196.703997,183.466997 197.208,183.989 C197.712003,184.511003 198.425995,184.772 199.35,184.772 C200.370005,184.772 201.305996,184.424003 202.158,183.728 L202.644,184.79 C202.259998,185.150002 201.768003,185.434999 201.168,185.645 C200.567997,185.855001 199.956003,185.96 199.332,185.96 C197.963993,185.96 196.887004,185.558004 196.101,184.754 C195.314996,183.949996 194.922,182.840007 194.922,181.424 C194.922,180.523996 195.095998,179.729003 195.444,179.039 C195.792002,178.348997 196.280997,177.812002 196.911,177.428 C197.541003,177.043998 198.257996,176.852 199.062,176.852 C200.226006,176.852 201.137997,177.232996 201.798,177.995 C202.458003,178.757004 202.788,179.803993 202.788,181.136 L202.788,181.676 Z M197.235,178.706 C196.772998,179.186002 196.5,179.863996 196.416,180.74 L201.51,180.74 C201.486,179.851996 201.264002,179.171002 200.844,178.697 C200.423998,178.222998 199.836004,177.986 199.08,177.986 C198.311996,177.986 197.697002,178.225998 197.235,178.706 Z M206.388,185.402 C205.751997,185.029998 205.263002,184.505003 204.921,183.827 C204.578998,183.148997 204.408,182.354005 204.408,181.442 C204.408,180.529995 204.584998,179.729003 204.939,179.039 C205.293002,178.348997 205.790997,177.812002 206.433,177.428 C207.075003,177.043998 207.827996,176.852 208.692,176.852 C209.280003,176.852 209.855997,176.956999 210.42,177.167 C210.984003,177.377001 211.439998,177.655998 211.788,178.004 L211.302,179.084 C210.473996,178.411997 209.634004,178.076 208.782,178.076 C207.881995,178.076 207.180003,178.369997 206.676,178.958 C206.171997,179.546003 205.92,180.373995 205.92,181.442 C205.92,182.498005 206.171997,183.313997 206.676,183.89 C207.180003,184.466003 207.881995,184.754 208.782,184.754 C209.634004,184.754 210.473996,184.418003 211.302,183.746 L211.788,184.826 C211.415998,185.174002 210.948003,185.449999 210.384,185.654 C209.819997,185.858001 209.238003,185.96 208.638,185.96 C207.773996,185.96 207.024003,185.774002 206.388,185.402 Z M218.196,184.736 L218.124,185.888 C217.847999,185.936 217.548002,185.96 217.224,185.96 C216.167995,185.96 215.373003,185.684003 214.839,185.132 C214.304997,184.579997 214.038,183.812005 214.038,182.828 L214.038,178.22 L212.328,178.22 L212.328,177.068 L214.038,177.068 L214.038,174.404 L215.496,174.404 L215.496,177.068 L217.98,177.068 L217.98,178.22 L215.496,178.22 L215.496,182.72 C215.496,184.100007 216.131994,184.79 217.404,184.79 C217.668001,184.79 217.931999,184.772 218.196,184.736 Z M227.016,181.676 L220.608,181.676 C220.656,182.696005 220.931997,183.466997 221.436,183.989 C221.940003,184.511003 222.653995,184.772 223.578,184.772 C224.598005,184.772 225.533996,184.424003 226.386,183.728 L226.872,184.79 C226.487998,185.150002 225.996003,185.434999 225.396,185.645 C224.795997,185.855001 224.184003,185.96 223.56,185.96 C222.191993,185.96 221.115004,185.558004 220.329,184.754 C219.542996,183.949996 219.15,182.840007 219.15,181.424 C219.15,180.523996 219.323998,179.729003 219.672,179.039 C220.020002,178.348997 220.508997,177.812002 221.139,177.428 C221.769003,177.043998 222.485996,176.852 223.29,176.852 C224.454006,176.852 225.365997,177.232996 226.026,177.995 C226.686003,178.757004 227.016,179.803993 227.016,181.136 L227.016,181.676 Z M221.463,178.706 C221.000998,179.186002 220.728,179.863996 220.644,180.74 L225.738,180.74 C225.714,179.851996 225.492002,179.171002 225.072,178.697 C224.651998,178.222998 224.064004,177.986 223.308,177.986 C222.539996,177.986 221.925002,178.225998 221.463,178.706 Z M236.934,173.144 L236.934,185.834 L235.476,185.834 L235.476,184.232 C235.211999,184.784003 234.825003,185.209998 234.315,185.51 C233.804997,185.810001 233.208003,185.96 232.524,185.96 C231.755996,185.96 231.078003,185.768002 230.49,185.384 C229.901997,184.999998 229.446002,184.463003 229.122,183.773 C228.797998,183.082997 228.636,182.282005 228.636,181.37 C228.636,180.469995 228.797998,179.678003 229.122,178.994 C229.446002,178.309997 229.901997,177.782002 230.49,177.41 C231.078003,177.037998 231.755996,176.852 232.524,176.852 C233.208003,176.852 233.804997,177.001999 234.315,177.302 C234.825003,177.602002 235.211999,178.027997 235.476,178.58 L235.476,173.144 L236.934,173.144 Z M234.783,183.881 C235.245002,183.298997 235.476,182.474005 235.476,181.406 C235.476,180.337995 235.245002,179.516003 234.783,178.94 C234.320998,178.363997 233.664004,178.076 232.812,178.076 C231.959996,178.076 231.297002,178.363997 230.823,178.94 C230.348998,179.516003 230.112,180.325995 230.112,181.37 C230.112,182.438005 230.348998,183.268997 230.823,183.863 C231.297002,184.457003 231.959996,184.754 232.812,184.754 C233.664004,184.754 234.320998,184.463003 234.783,183.881 Z M239.418,183.998 L241.254,183.998 L241.254,185.834 L239.418,185.834 L239.418,183.998 Z M250.902,185.195 C250.013996,184.672997 249.333002,183.923005 248.859,182.945 C248.384998,181.966995 248.148,180.812007 248.148,179.48 C248.148,178.147993 248.384998,176.996005 248.859,176.024 C249.333002,175.051995 250.013996,174.305003 250.902,173.783 C251.790004,173.260997 252.833994,173 254.034,173 C254.910004,173 255.713996,173.134999 256.446,173.405 C257.178004,173.675001 257.813997,174.073997 258.354,174.602 L257.796,175.736 C257.183997,175.219997 256.584003,174.848001 255.996,174.62 C255.407997,174.391999 254.760004,174.278 254.052,174.278 C252.659993,174.278 251.583004,174.730995 250.821,175.637 C250.058996,176.543005 249.678,177.823992 249.678,179.48 C249.678,181.148008 250.058996,182.434995 250.821,183.341 C251.583004,184.247005 252.659993,184.7 254.052,184.7 C254.760004,184.7 255.407997,184.586001 255.996,184.358 C256.584003,184.129999 257.183997,183.758003 257.796,183.242 L258.354,184.376 C257.813997,184.904003 257.178004,185.302999 256.446,185.573 C255.713996,185.843001 254.910004,185.978 254.034,185.978 C252.833994,185.978 251.790004,185.717003 250.902,185.195 Z M268.146,180.326 L268.146,185.834 L266.688,185.834 L266.688,180.416 C266.688,179.599996 266.529002,179.006002 266.211,178.634 C265.892998,178.261998 265.386003,178.076 264.69,178.076 C263.885996,178.076 263.244002,178.321998 262.764,178.814 C262.283998,179.306002 262.044,179.971996 262.044,180.812 L262.044,185.834 L260.586,185.834 L260.586,173.144 L262.044,173.144 L262.044,178.472 C262.332001,177.943997 262.730997,177.542001 263.241,177.266 C263.751003,176.989999 264.335997,176.852 264.996,176.852 C267.09601,176.852 268.146,178.009988 268.146,180.326 Z M272.259,185.402 C271.628997,185.029998 271.143002,184.499003 270.801,183.809 C270.458998,183.118997 270.288,182.318005 270.288,181.406 C270.288,180.493995 270.458998,179.693003 270.801,179.003 C271.143002,178.312997 271.628997,177.782002 272.259,177.41 C272.889003,177.037998 273.617996,176.852 274.446,176.852 C275.274004,176.852 276.005997,177.037998 276.642,177.41 C277.278003,177.782002 277.766998,178.312997 278.109,179.003 C278.451002,179.693003 278.622,180.493995 278.622,181.406 C278.622,182.318005 278.451002,183.118997 278.109,183.809 C277.766998,184.499003 277.278003,185.029998 276.642,185.402 C276.005997,185.774002 275.274004,185.96 274.446,185.96 C273.617996,185.96 272.889003,185.774002 272.259,185.402 Z M276.435,183.899 C276.897002,183.328997 277.128,182.498005 277.128,181.406 C277.128,180.337995 276.894002,179.513003 276.426,178.931 C275.957998,178.348997 275.298004,178.058 274.446,178.058 C273.593996,178.058 272.934002,178.348997 272.466,178.931 C271.997998,179.513003 271.764,180.337995 271.764,181.406 C271.764,182.486005 271.994998,183.313997 272.457,183.89 C272.919002,184.466003 273.581996,184.754 274.446,184.754 C275.310004,184.754 275.972998,184.469003 276.435,183.899 Z M282.249,185.402 C281.618997,185.029998 281.133002,184.499003 280.791,183.809 C280.448998,183.118997 280.278,182.318005 280.278,181.406 C280.278,180.493995 280.448998,179.693003 280.791,179.003 C281.133002,178.312997 281.618997,177.782002 282.249,177.41 C282.879003,177.037998 283.607996,176.852 284.436,176.852 C285.264004,176.852 285.995997,177.037998 286.632,177.41 C287.268003,177.782002 287.756998,178.312997 288.099,179.003 C288.441002,179.693003 288.612,180.493995 288.612,181.406 C288.612,182.318005 288.441002,183.118997 288.099,183.809 C287.756998,184.499003 287.268003,185.029998 286.632,185.402 C285.995997,185.774002 285.264004,185.96 284.436,185.96 C283.607996,185.96 282.879003,185.774002 282.249,185.402 Z M286.425,183.899 C286.887002,183.328997 287.118,182.498005 287.118,181.406 C287.118,180.337995 286.884002,179.513003 286.416,178.931 C285.947998,178.348997 285.288004,178.058 284.436,178.058 C283.583996,178.058 282.924002,178.348997 282.456,178.931 C281.987998,179.513003 281.754,180.337995 281.754,181.406 C281.754,182.486005 281.984998,183.313997 282.447,183.89 C282.909002,184.466003 283.571996,184.754 284.436,184.754 C285.300004,184.754 285.962998,184.469003 286.425,183.899 Z M290.25,184.826 L290.736,183.746 C291.204002,184.118002 291.680998,184.384999 292.167,184.547 C292.653002,184.709001 293.201997,184.79 293.814,184.79 C294.462003,184.79 294.956998,184.679001 295.299,184.457 C295.641002,184.234999 295.812,183.914002 295.812,183.494 C295.812,183.145998 295.698001,182.870001 295.47,182.666 C295.241999,182.461999 294.864003,182.300001 294.336,182.18 L292.86,181.838 C292.115996,181.669999 291.546002,181.382002 291.15,180.974 C290.753998,180.565998 290.556,180.062003 290.556,179.462 C290.556,178.681996 290.861997,178.052002 291.474,177.572 C292.086003,177.091998 292.901995,176.852 293.922,176.852 C294.534003,176.852 295.115997,176.950999 295.668,177.149 C296.220003,177.347001 296.681998,177.631998 297.054,178.004 L296.568,179.066 C295.763996,178.381997 294.882005,178.04 293.922,178.04 C293.309997,178.04 292.833002,178.156999 292.491,178.391 C292.148998,178.625001 291.978,178.951998 291.978,179.372 C291.978,179.720002 292.082999,179.998999 292.293,180.209 C292.503001,180.419001 292.841998,180.577999 293.31,180.686 L294.804,181.046 C295.620004,181.238001 296.225998,181.528998 296.622,181.919 C297.018002,182.309002 297.216,182.815997 297.216,183.44 C297.216,184.208004 296.907003,184.819998 296.289,185.276 C295.670997,185.732002 294.828005,185.96 293.76,185.96 C292.283993,185.96 291.114004,185.582004 290.25,184.826 Z M306.774,181.676 L300.366,181.676 C300.414,182.696005 300.689997,183.466997 301.194,183.989 C301.698003,184.511003 302.411995,184.772 303.336,184.772 C304.356005,184.772 305.291996,184.424003 306.144,183.728 L306.63,184.79 C306.245998,185.150002 305.754003,185.434999 305.154,185.645 C304.553997,185.855001 303.942003,185.96 303.318,185.96 C301.949993,185.96 300.873004,185.558004 300.087,184.754 C299.300996,183.949996 298.908,182.840007 298.908,181.424 C298.908,180.523996 299.081998,179.729003 299.43,179.039 C299.778002,178.348997 300.266997,177.812002 300.897,177.428 C301.527003,177.043998 302.243996,176.852 303.048,176.852 C304.212006,176.852 305.123997,177.232996 305.784,177.995 C306.444003,178.757004 306.774,179.803993 306.774,181.136 L306.774,181.676 Z M301.221,178.706 C300.758998,179.186002 300.486,179.863996 300.402,180.74 L305.496,180.74 C305.472,179.851996 305.250002,179.171002 304.83,178.697 C304.409998,178.222998 303.822004,177.986 303.066,177.986 C302.297996,177.986 301.683002,178.225998 301.221,178.706 Z M318.204,184.736 L318.132,185.888 C317.855999,185.936 317.556002,185.96 317.232,185.96 C316.175995,185.96 315.381003,185.684003 314.847,185.132 C314.312997,184.579997 314.046,183.812005 314.046,182.828 L314.046,178.22 L312.336,178.22 L312.336,177.068 L314.046,177.068 L314.046,174.404 L315.504,174.404 L315.504,177.068 L317.988,177.068 L317.988,178.22 L315.504,178.22 L315.504,182.72 C315.504,184.100007 316.139994,184.79 317.412,184.79 C317.676001,184.79 317.939999,184.772 318.204,184.736 Z M327.24,180.326 L327.24,185.834 L325.782,185.834 L325.782,180.416 C325.782,179.599996 325.623002,179.006002 325.305,178.634 C324.986998,178.261998 324.480003,178.076 323.784,178.076 C322.979996,178.076 322.338002,178.321998 321.858,178.814 C321.377998,179.306002 321.138,179.971996 321.138,180.812 L321.138,185.834 L319.68,185.834 L319.68,173.144 L321.138,173.144 L321.138,178.472 C321.426001,177.943997 321.824997,177.542001 322.335,177.266 C322.845003,176.989999 323.429997,176.852 324.09,176.852 C326.19001,176.852 327.24,178.009988 327.24,180.326 Z M337.248,181.676 L330.84,181.676 C330.888,182.696005 331.163997,183.466997 331.668,183.989 C332.172003,184.511003 332.885995,184.772 333.81,184.772 C334.830005,184.772 335.765996,184.424003 336.618,183.728 L337.104,184.79 C336.719998,185.150002 336.228003,185.434999 335.628,185.645 C335.027997,185.855001 334.416003,185.96 333.792,185.96 C332.423993,185.96 331.347004,185.558004 330.561,184.754 C329.774996,183.949996 329.382,182.840007 329.382,181.424 C329.382,180.523996 329.555998,179.729003 329.904,179.039 C330.252002,178.348997 330.740997,177.812002 331.371,177.428 C332.001003,177.043998 332.717996,176.852 333.522,176.852 C334.686006,176.852 335.597997,177.232996 336.258,177.995 C336.918003,178.757004 337.248,179.803993 337.248,181.136 L337.248,181.676 Z M331.695,178.706 C331.232998,179.186002 330.96,179.863996 330.876,180.74 L335.97,180.74 C335.946,179.851996 335.724002,179.171002 335.304,178.697 C334.883998,178.222998 334.296004,177.986 333.54,177.986 C332.771996,177.986 332.157002,178.225998 331.695,178.706 Z M349.002,178.112 L348.048,178.202 C347.147995,178.286 346.497002,178.567998 346.095,179.048 C345.692998,179.528002 345.492,180.121996 345.492,180.83 L345.492,185.834 L344.034,185.834 L344.034,177.068 L345.456,177.068 L345.456,178.598 C345.948002,177.577995 346.913993,177.008001 348.354,176.888 L348.876,176.852 L349.002,178.112 Z M357.732,181.676 L351.324,181.676 C351.372,182.696005 351.647997,183.466997 352.152,183.989 C352.656003,184.511003 353.369995,184.772 354.294,184.772 C355.314005,184.772 356.249996,184.424003 357.102,183.728 L357.588,184.79 C357.203998,185.150002 356.712003,185.434999 356.112,185.645 C355.511997,185.855001 354.900003,185.96 354.276,185.96 C352.907993,185.96 351.831004,185.558004 351.045,184.754 C350.258996,183.949996 349.866,182.840007 349.866,181.424 C349.866,180.523996 350.039998,179.729003 350.388,179.039 C350.736002,178.348997 351.224997,177.812002 351.855,177.428 C352.485003,177.043998 353.201996,176.852 354.006,176.852 C355.170006,176.852 356.081997,177.232996 356.742,177.995 C357.402003,178.757004 357.732,179.803993 357.732,181.136 L357.732,181.676 Z M352.179,178.706 C351.716998,179.186002 351.444,179.863996 351.36,180.74 L356.454,180.74 C356.43,179.851996 356.208002,179.171002 355.788,178.697 C355.367998,178.222998 354.780004,177.986 354.024,177.986 C353.255996,177.986 352.641002,178.225998 352.179,178.706 Z M366.318,177.428 C366.906003,177.812002 367.361998,178.348997 367.686,179.039 C368.010002,179.729003 368.172,180.529995 368.172,181.442 C368.172,182.354005 368.010002,183.148997 367.686,183.827 C367.361998,184.505003 366.909003,185.029998 366.327,185.402 C365.744997,185.774002 365.064004,185.96 364.284,185.96 C363.599997,185.96 363.003003,185.810001 362.493,185.51 C361.982997,185.209998 361.596001,184.784003 361.332,184.232 L361.332,189.074 L359.874,189.074 L359.874,177.068 L361.332,177.068 L361.332,178.58 C361.596001,178.027997 361.982997,177.602002 362.493,177.302 C363.003003,177.001999 363.599997,176.852 364.284,176.852 C365.052004,176.852 365.729997,177.043998 366.318,177.428 Z M365.976,183.89 C366.444002,183.313997 366.678,182.498005 366.678,181.442 C366.678,180.385995 366.444002,179.561003 365.976,178.967 C365.507998,178.372997 364.848004,178.076 363.996,178.076 C363.143996,178.076 362.487002,178.363997 362.025,178.94 C361.562998,179.516003 361.332,180.337995 361.332,181.406 C361.332,182.474005 361.562998,183.298997 362.025,183.881 C362.487002,184.463003 363.143996,184.754 363.996,184.754 C364.848004,184.754 365.507998,184.466003 365.976,183.89 Z M371.799,185.402 C371.168997,185.029998 370.683002,184.499003 370.341,183.809 C369.998998,183.118997 369.828,182.318005 369.828,181.406 C369.828,180.493995 369.998998,179.693003 370.341,179.003 C370.683002,178.312997 371.168997,177.782002 371.799,177.41 C372.429003,177.037998 373.157996,176.852 373.986,176.852 C374.814004,176.852 375.545997,177.037998 376.182,177.41 C376.818003,177.782002 377.306998,178.312997 377.649,179.003 C377.991002,179.693003 378.162,180.493995 378.162,181.406 C378.162,182.318005 377.991002,183.118997 377.649,183.809 C377.306998,184.499003 376.818003,185.029998 376.182,185.402 C375.545997,185.774002 374.814004,185.96 373.986,185.96 C373.157996,185.96 372.429003,185.774002 371.799,185.402 Z M375.975,183.899 C376.437002,183.328997 376.668,182.498005 376.668,181.406 C376.668,180.337995 376.434002,179.513003 375.966,178.931 C375.497998,178.348997 374.838004,178.058 373.986,178.058 C373.133996,178.058 372.474002,178.348997 372.006,178.931 C371.537998,179.513003 371.304,180.337995 371.304,181.406 C371.304,182.486005 371.534998,183.313997 371.997,183.89 C372.459002,184.466003 373.121996,184.754 373.986,184.754 C374.850004,184.754 375.512998,184.469003 375.975,183.899 Z M385.308,178.112 L384.354,178.202 C383.453995,178.286 382.803002,178.567998 382.401,179.048 C381.998998,179.528002 381.798,180.121996 381.798,180.83 L381.798,185.834 L380.34,185.834 L380.34,177.068 L381.762,177.068 L381.762,178.598 C382.254002,177.577995 383.219993,177.008001 384.66,176.888 L385.182,176.852 L385.308,178.112 Z M391.338,184.736 L391.266,185.888 C390.989999,185.936 390.690002,185.96 390.366,185.96 C389.309995,185.96 388.515003,185.684003 387.981,185.132 C387.446997,184.579997 387.18,183.812005 387.18,182.828 L387.18,178.22 L385.47,178.22 L385.47,177.068 L387.18,177.068 L387.18,174.404 L388.638,174.404 L388.638,177.068 L391.122,177.068 L391.122,178.22 L388.638,178.22 L388.638,182.72 C388.638,184.100007 389.273994,184.79 390.546,184.79 C390.810001,184.79 391.073999,184.772 391.338,184.736 Z M399.402,177.068 L404.802,177.068 L404.802,185.834 L403.344,185.834 L403.344,178.22 L399.402,178.22 L399.402,185.834 L397.944,185.834 L397.944,178.22 L396.234,178.22 L396.234,177.068 L397.944,177.068 L397.944,176.78 C397.944,175.603994 398.237997,174.716003 398.826,174.116 C399.414003,173.515997 400.313994,173.186 401.526,173.126 L402.192,173.09 L402.282,174.224 L401.454,174.278 C400.733996,174.326 400.212002,174.535998 399.888,174.908 C399.563998,175.280002 399.402,175.837996 399.402,176.582 L399.402,177.068 Z M403.182,173.252 L404.982,173.252 L404.982,174.926 L403.182,174.926 L403.182,173.252 Z M407.52,185.834 L407.52,173.144 L408.978,173.144 L408.978,185.834 L407.52,185.834 Z M416.34,184.736 L416.268,185.888 C415.991999,185.936 415.692002,185.96 415.368,185.96 C414.311995,185.96 413.517003,185.684003 412.983,185.132 C412.448997,184.579997 412.182,183.812005 412.182,182.828 L412.182,178.22 L410.472,178.22 L410.472,177.068 L412.182,177.068 L412.182,174.404 L413.64,174.404 L413.64,177.068 L416.124,177.068 L416.124,178.22 L413.64,178.22 L413.64,182.72 C413.64,184.100007 414.275994,184.79 415.548,184.79 C415.812001,184.79 416.075999,184.772 416.34,184.736 Z M425.16,181.676 L418.752,181.676 C418.8,182.696005 419.075997,183.466997 419.58,183.989 C420.084003,184.511003 420.797995,184.772 421.722,184.772 C422.742005,184.772 423.677996,184.424003 424.53,183.728 L425.016,184.79 C424.631998,185.150002 424.140003,185.434999 423.54,185.645 C422.939997,185.855001 422.328003,185.96 421.704,185.96 C420.335993,185.96 419.259004,185.558004 418.473,184.754 C417.686996,183.949996 417.294,182.840007 417.294,181.424 C417.294,180.523996 417.467998,179.729003 417.816,179.039 C418.164002,178.348997 418.652997,177.812002 419.283,177.428 C419.913003,177.043998 420.629996,176.852 421.434,176.852 C422.598006,176.852 423.509997,177.232996 424.17,177.995 C424.830003,178.757004 425.16,179.803993 425.16,181.136 L425.16,181.676 Z M419.607,178.706 C419.144998,179.186002 418.872,179.863996 418.788,180.74 L423.882,180.74 C423.858,179.851996 423.636002,179.171002 423.216,178.697 C422.795998,178.222998 422.208004,177.986 421.452,177.986 C420.683996,177.986 420.069002,178.225998 419.607,178.706 Z M432.27,178.112 L431.316,178.202 C430.415995,178.286 429.765002,178.567998 429.363,179.048 C428.960998,179.528002 428.76,180.121996 428.76,180.83 L428.76,185.834 L427.302,185.834 L427.302,177.068 L428.724,177.068 L428.724,178.598 C429.216002,177.577995 430.181993,177.008001 431.622,176.888 L432.144,176.852 L432.27,178.112 Z M440.244,177.068 L445.644,177.068 L445.644,185.834 L444.186,185.834 L444.186,178.22 L440.244,178.22 L440.244,185.834 L438.786,185.834 L438.786,178.22 L437.076,178.22 L437.076,177.068 L438.786,177.068 L438.786,176.78 C438.786,175.603994 439.079997,174.716003 439.668,174.116 C440.256003,173.515997 441.155994,173.186 442.368,173.126 L443.034,173.09 L443.124,174.224 L442.296,174.278 C441.575996,174.326 441.054002,174.535998 440.73,174.908 C440.405998,175.280002 440.244,175.837996 440.244,176.582 L440.244,177.068 Z M444.024,173.252 L445.824,173.252 L445.824,174.926 L444.024,174.926 L444.024,173.252 Z M453.33,178.112 L452.376,178.202 C451.475995,178.286 450.825002,178.567998 450.423,179.048 C450.020998,179.528002 449.82,180.121996 449.82,180.83 L449.82,185.834 L448.362,185.834 L448.362,177.068 L449.784,177.068 L449.784,178.598 C450.276002,177.577995 451.241993,177.008001 452.682,176.888 L453.204,176.852 L453.33,178.112 Z M454.176,184.826 L454.662,183.746 C455.130002,184.118002 455.606998,184.384999 456.093,184.547 C456.579002,184.709001 457.127997,184.79 457.74,184.79 C458.388003,184.79 458.882998,184.679001 459.225,184.457 C459.567002,184.234999 459.738,183.914002 459.738,183.494 C459.738,183.145998 459.624001,182.870001 459.396,182.666 C459.167999,182.461999 458.790003,182.300001 458.262,182.18 L456.786,181.838 C456.041996,181.669999 455.472002,181.382002 455.076,180.974 C454.679998,180.565998 454.482,180.062003 454.482,179.462 C454.482,178.681996 454.787997,178.052002 455.4,177.572 C456.012003,177.091998 456.827995,176.852 457.848,176.852 C458.460003,176.852 459.041997,176.950999 459.594,177.149 C460.146003,177.347001 460.607998,177.631998 460.98,178.004 L460.494,179.066 C459.689996,178.381997 458.808005,178.04 457.848,178.04 C457.235997,178.04 456.759002,178.156999 456.417,178.391 C456.074998,178.625001 455.904,178.951998 455.904,179.372 C455.904,179.720002 456.008999,179.998999 456.219,180.209 C456.429001,180.419001 456.767998,180.577999 457.236,180.686 L458.73,181.046 C459.546004,181.238001 460.151998,181.528998 460.548,181.919 C460.944002,182.309002 461.142,182.815997 461.142,183.44 C461.142,184.208004 460.833003,184.819998 460.215,185.276 C459.596997,185.732002 458.754005,185.96 457.686,185.96 C456.209993,185.96 455.040004,185.582004 454.176,184.826 Z M468,184.736 L467.928,185.888 C467.651999,185.936 467.352002,185.96 467.028,185.96 C465.971995,185.96 465.177003,185.684003 464.643,185.132 C464.108997,184.579997 463.842,183.812005 463.842,182.828 L463.842,178.22 L462.132,178.22 L462.132,177.068 L463.842,177.068 L463.842,174.404 L465.3,174.404 L465.3,177.068 L467.784,177.068 L467.784,178.22 L465.3,178.22 L465.3,182.72 C465.3,184.100007 465.935994,184.79 467.208,184.79 C467.472001,184.79 467.735999,184.772 468,184.736 Z" id="No-Reports-has-been" fill="#1B232C"></path>
            </g>
        </g>
    </g>
</svg>