<?xml version="1.0" encoding="UTF-8" standalone="no"?>
<svg width="20px" height="20px" viewBox="0 0 20 20" version="1.1" xmlns="http://www.w3.org/2000/svg" xmlns:xlink="http://www.w3.org/1999/xlink">
    <!-- Generator: Sketch 50.2 (55047) - http://www.bohemiancoding.com/sketch -->
    <title>Page 1</title>
    <desc>Created with Sketch.</desc>
    <defs>
        <polygon id="path-1" points="0 0.000333333333 19.9952917 0.000333333333 19.9952917 20 0 20"></polygon>
    </defs>
    <g id="Users" stroke="none" stroke-width="1" fill="none" fill-rule="evenodd">
        <g transform="translate(-1102.000000, -15.000000)" id="Page-1">
            <g transform="translate(1102.000000, 15.000000)">
                <mask id="mask-2" fill="white">
                    <use xlink:href="#path-1"></use>
                </mask>
                <g id="Clip-2"></g>
                <path d="M1.193,8.52783333 C1.193,4.48283333 4.483,1.19783333 8.523,1.19783333 C12.5671667,1.19783333 15.8538333,4.48783333 15.8538333,8.52783333 C15.8538333,12.5678333 12.5671667,15.8628333 8.523,15.8628333 C4.483,15.8628333 1.193,12.5728333 1.193,8.52783333 M19.8221667,18.9803333 L14.9621667,14.1195 C16.2663333,12.6203333 17.0555,10.6653333 17.0555,8.52783333 C17.0555,3.82283333 13.228,0.000333333333 8.528,0.000333333333 C3.82216667,0.000333333333 -0.000333333333,3.827 -0.000333333333,8.52783333 C-0.000333333333,13.2286667 3.82716667,17.0553333 8.528,17.0553333 C10.6655,17.0553333 12.6205,16.2661667 14.1196667,14.9628333 L18.9805,19.8228333 C19.0946667,19.9378333 19.2505,20.0003333 19.4013333,20.0003333 C19.5521667,20.0003333 19.7071667,19.942 19.8221667,19.8228333 C20.053,19.592 20.053,19.2103333 19.8221667,18.9803333" id="Fill-1" fill="#7A94B3" mask="url(#mask-2)"></path>
            </g>
        </g>
    </g>
</svg>