<?xml version="1.0" encoding="UTF-8" standalone="no"?>
<svg width="20px" height="20px" viewBox="0 0 20 20" version="1.1" xmlns="http://www.w3.org/2000/svg" xmlns:xlink="http://www.w3.org/1999/xlink">
    <!-- Generator: Sketch 50.2 (55047) - http://www.bohemiancoding.com/sketch -->
    <title>setting icon</title>
    <desc>Created with Sketch.</desc>
    <defs></defs>
    <g id="Users" stroke="none" stroke-width="1" fill="none" fill-rule="evenodd">
        <g transform="translate(-15.000000, -275.000000)" fill="#7A94B3" id="Group">
            <g>
                <g id="settings" transform="translate(15.000000, 275.000000)">
                    <path d="M10.007,13.354 C11.852,13.358 13.333,11.894 13.351,10.049 C13.369,8.182 11.86,6.674 9.976,6.676 C8.171,6.678 6.668,8.207 6.672,10.036 C6.675,11.865 8.169,13.35 10.007,13.354 M9.155,0 L10.756,0 C10.87,0.026 10.983,0.064 11.099,0.076 C11.474,0.115 11.646,0.323 11.647,0.693 C11.649,1.678 12.082,2.421 12.984,2.805 C13.882,3.188 14.724,2.992 15.441,2.326 C15.758,2.031 16.07,2.014 16.377,2.311 C16.833,2.752 17.293,3.192 17.716,3.665 C18.08,4.072 18.053,4.236 17.676,4.655 C17.081,5.317 16.894,6.082 17.184,6.917 C17.481,7.774 18.115,8.297 19.019,8.371 C19.614,8.42 19.955,8.635 20,9.245 L20,10.756 C19.975,10.868 19.937,10.978 19.925,11.091 C19.886,11.493 19.658,11.646 19.271,11.649 C18.306,11.658 17.585,12.098 17.194,12.974 C16.792,13.875 16.993,14.705 17.654,15.428 C17.982,15.788 18.007,16.034 17.676,16.392 C17.245,16.858 16.794,17.307 16.321,17.731 C15.926,18.085 15.736,18.049 15.329,17.695 C14.654,17.107 13.877,16.894 13.025,17.207 C12.172,17.518 11.655,18.172 11.598,19.067 C11.562,19.623 11.383,19.919 10.845,20 L9.244,20 C9.145,19.976 9.047,19.934 8.946,19.929 C8.52,19.906 8.356,19.672 8.352,19.263 C8.341,18.297 7.902,17.569 7.015,17.196 C6.116,16.817 5.272,17.002 4.559,17.677 C4.238,17.981 3.929,17.984 3.623,17.694 C3.185,17.277 2.744,16.857 2.339,16.408 C1.916,15.938 1.936,15.793 2.353,15.313 C2.937,14.642 3.108,13.875 2.799,13.042 C2.491,12.211 1.875,11.688 0.985,11.624 C0.387,11.58 0.046,11.368 0,10.756 L0,9.245 C0.024,8.577 0.363,8.354 1.033,8.303 C1.913,8.236 2.57,7.719 2.872,6.854 C3.168,6.008 2.957,5.257 2.371,4.6 C2.01,4.195 1.986,3.963 2.355,3.568 C2.778,3.116 3.219,2.678 3.682,2.267 C4.079,1.914 4.265,1.951 4.676,2.306 C5.351,2.89 6.128,3.1 6.981,2.792 C7.837,2.483 8.344,1.824 8.402,0.933 C8.439,0.376 8.618,0.082 9.155,0" id="setting-icon"></path>
                </g>
            </g>
        </g>
    </g>
</svg>