<?xml version="1.0" encoding="UTF-8" standalone="no"?>
<svg width="13px" height="13px" viewBox="0 0 13 13" version="1.1" xmlns="http://www.w3.org/2000/svg" xmlns:xlink="http://www.w3.org/1999/xlink">
    <!-- Generator: sketchtool 50.2 (55047) - http://www.bohemiancoding.com/sketch -->
    <title>1DAE215E-B089-4112-AB15-ED16C2035530</title>
    <desc>Created with sketchtool.</desc>
    <defs></defs>
    <g id="Reports" stroke="none" stroke-width="1" fill="none" fill-rule="evenodd">
        <g id="Report-filter-option" transform="translate(-941.000000, -64.000000)" fill="#010F21" fill-rule="nonzero">
            <g id="share" transform="translate(931.000000, 59.000000)">
                <g id="Group-7" transform="translate(10.000000, 3.000000)">
                    <g id="share" transform="translate(0.000000, 2.000000)">
                        <path d="M9.94149378,8.34481328 C9.19439834,8.34481328 8.52821577,8.70082988 8.10207469,9.25103734 L4.53381743,7.25788382 C4.61742739,7.01784232 4.66327801,6.75892116 4.66327801,6.49190871 C4.66327801,6.22219917 4.61742739,5.9659751 4.53112033,5.72323651 L8.0966805,3.73278008 C8.52012448,4.28568465 9.18900415,4.64439834 9.93879668,4.64439834 C11.2172199,4.64439834 12.2609959,3.6033195 12.2609959,2.32219917 C12.2609959,1.04107884 11.219917,0 9.93879668,0 C8.65767635,0 7.61659751,1.04107884 7.61659751,2.32219917 C7.61659751,2.59190871 7.66244813,2.85082988 7.74875519,3.09087137 L4.18589212,5.0813278 C3.76244813,4.52572614 3.09356846,4.16970954 2.34377593,4.16970954 C1.0653527,4.16970954 0.0215767635,5.21078838 0.0215767635,6.49190871 C0.0215767635,7.77302905 1.0653527,8.81410788 2.34647303,8.81410788 C3.09626556,8.81410788 3.76514523,8.45539419 4.19128631,7.89979253 L7.75684647,9.89294606 C7.67053942,10.1356846 7.6219917,10.3973029 7.6219917,10.6670124 C7.6219917,11.9454357 8.66307054,12.9892116 9.94419087,12.9892116 C11.2253112,12.9892116 12.26639,11.9481328 12.26639,10.6670124 C12.26639,9.38589212 11.2226141,8.34481328 9.94149378,8.34481328 Z M9.94149378,0.730912863 C10.8207469,0.730912863 11.5354772,1.44564315 11.5354772,2.32489627 C11.5354772,3.20414938 10.8207469,3.91887967 9.94149378,3.91887967 C9.06224066,3.91887967 8.34751037,3.20414938 8.34751037,2.32489627 C8.34751037,1.44564315 9.06493776,0.730912863 9.94149378,0.730912863 Z M2.34647303,8.08589212 C1.46721992,8.08589212 0.752489627,7.37116183 0.752489627,6.49190871 C0.752489627,5.6126556 1.46721992,4.89792531 2.34647303,4.89792531 C3.22572614,4.89792531 3.94045643,5.6126556 3.94045643,6.49190871 C3.94045643,7.37116183 3.22302905,8.08589212 2.34647303,8.08589212 Z M9.94149378,12.2582988 C9.06224066,12.2582988 8.34751037,11.5435685 8.34751037,10.6643154 C8.34751037,9.78506224 9.06224066,9.07033195 9.94149378,9.07033195 C10.8207469,9.07033195 11.5354772,9.78506224 11.5354772,10.6643154 C11.5354772,11.5435685 10.8207469,12.2582988 9.94149378,12.2582988 Z" id="Shape"></path>
                    </g>
                </g>
            </g>
        </g>
    </g>
</svg>