<?xml version="1.0" encoding="UTF-8" standalone="no"?>
<svg width="8px" height="8px" viewBox="0 0 8 8" version="1.1" xmlns="http://www.w3.org/2000/svg" xmlns:xlink="http://www.w3.org/1999/xlink">
    <!-- Generator: sketchtool 50.2 (55047) - http://www.bohemiancoding.com/sketch -->
    <title>9EA3FD39-6EB1-4B57-AAA3-8AAC3BE21ED7</title>
    <desc>Created with sketchtool.</desc>
    <defs></defs>
    <g id="Electron" stroke="none" stroke-width="1" fill="none" fill-rule="evenodd">
        <g id="List-view" transform="translate(-1107.000000, -80.000000)" fill="#25334D" fill-rule="nonzero">
            <g id="container" transform="translate(210.000000, 66.000000)">
                <g id="filter-by" transform="translate(886.000000, 7.000000)">
                    <g transform="translate(11.000000, 2.000000)" id="sort-by-attributes-interface-button-option">
                        <g transform="translate(0.000000, 5.000000)">
                            <path d="M3.85705263,3.29730827 L5.78045113,3.29730827 C5.82054135,3.29730827 5.85345865,3.28445113 5.87914286,3.25866165 C5.90493233,3.23290226 5.91783459,3.20001504 5.91783459,3.15990977 L5.91783459,2.33560902 C5.91783459,2.29550376 5.90493233,2.26261654 5.87914286,2.23685714 C5.85345865,2.21112782 5.82054135,2.19821053 5.78045113,2.19821053 L3.85705263,2.19821053 C3.81696241,2.19821053 3.78407519,2.21106767 3.75830075,2.23685714 C3.73258647,2.26261654 3.71968421,2.29550376 3.71968421,2.33560902 L3.71968421,3.15990977 C3.71968421,3.20001504 3.73254135,3.23290226 3.75830075,3.25866165 C3.78407519,3.28440602 3.81696241,3.29730827 3.85705263,3.29730827 Z" id="Shape"></path>
                            <path d="M3.85709774,1.09908271 L4.95615038,1.09908271 C4.9962406,1.09908271 5.02917293,1.08622556 5.05484211,1.06046617 C5.08067669,1.03469173 5.09338346,1.00180451 5.09338346,0.961714286 L5.09338346,0.137383459 C5.09338346,0.0973383459 5.08066165,0.064406015 5.05484211,0.0386315789 C5.02917293,0.0129172932 4.9962406,0 4.95615038,0 L3.85709774,0 C3.81700752,0 3.7841203,0.0128571429 3.75834586,0.0386165414 C3.73264662,0.064406015 3.71972932,0.0973383459 3.71972932,0.137368421 L3.71972932,0.961699248 C3.71972932,1.00178947 3.73258647,1.03467669 3.75834586,1.06045113 C3.78413534,1.08616541 3.81700752,1.09908271 3.85709774,1.09908271 Z" id="Shape"></path>
                            <path d="M2.89533835,6.04497744 L2.07102256,6.04497744 L2.07102256,0.137383459 C2.07102256,0.0973383459 2.05818045,0.0643609023 2.03240602,0.0386315789 C2.00663158,0.0129172932 1.97374436,0 1.9336391,0 L1.10930827,0 C1.06926316,0 1.03628571,0.0128571429 1.01055639,0.0386165414 C0.984857143,0.064406015 0.97193985,0.0973383459 0.97193985,0.137368421 L0.97193985,6.04496241 L0.147609023,6.04496241 C0.0846917293,6.04496241 0.0417443609,6.07356391 0.0188270677,6.13079699 C-0.00410526316,6.18524812 0.00596992481,6.23530827 0.0488571429,6.28111278 L1.42270677,7.65502256 C1.45419549,7.68069173 1.48708271,7.69354887 1.52145865,7.69354887 C1.55866165,7.69354887 1.59160902,7.68069173 1.62021053,7.65502256 L2.98977444,6.28542857 C3.01843609,6.25115789 3.0327218,6.21669173 3.0327218,6.18251128 C3.0327218,6.14227068 3.01980451,6.10944361 2.99410526,6.08350376 C2.96834586,6.05784962 2.93545865,6.04497744 2.89533835,6.04497744 Z" id="Shape"></path>
                            <path d="M7.5278797,6.63321805 C7.50209023,6.60738346 7.46921805,6.59452632 7.42912782,6.59452632 L3.85709774,6.59452632 C3.81700752,6.59452632 3.7841203,6.60738346 3.75834586,6.63321805 C3.73264662,6.65894737 3.71972932,6.6918797 3.71972932,6.73192481 L3.71972932,7.55621053 C3.71972932,7.59640602 3.73258647,7.62918797 3.75834586,7.65502256 C3.78413534,7.68075188 3.81700752,7.69360902 3.85709774,7.69360902 L7.42911278,7.69360902 C7.46920301,7.69360902 7.50209023,7.68075188 7.52786466,7.65502256 C7.55359398,7.62917293 7.56645113,7.59640602 7.56645113,7.55621053 L7.56645113,6.73192481 C7.56651128,6.69189474 7.55359398,6.65894737 7.5278797,6.63321805 Z" id="Shape"></path>
                            <path d="M3.85705263,5.49541353 L6.60481203,5.49541353 C6.64485714,5.49541353 6.67778947,5.48255639 6.70360902,5.45682707 C6.72929323,5.43109774 6.74215038,5.39816541 6.74215038,5.35813534 L6.74215038,4.53372932 C6.74215038,4.49369925 6.72929323,4.46075188 6.70360902,4.43503759 C6.67777444,4.40930827 6.64485714,4.39645113 6.60481203,4.39645113 L3.85705263,4.39645113 C3.81696241,4.39645113 3.78407519,4.40930827 3.75830075,4.43503759 C3.73258647,4.46076692 3.71968421,4.49369925 3.71968421,4.53372932 L3.71968421,5.35813534 C3.71968421,5.39816541 3.73254135,5.43111278 3.75830075,5.45682707 C3.78407519,5.48255639 3.81696241,5.49541353 3.85705263,5.49541353 Z" id="Shape"></path>
                        </g>
                    </g>
                </g>
            </g>
        </g>
    </g>
</svg>