<?xml version="1.0" encoding="UTF-8" standalone="no"?>
<svg width="15px" height="15px" viewBox="0 0 15 15" version="1.1" xmlns="http://www.w3.org/2000/svg" xmlns:xlink="http://www.w3.org/1999/xlink">
    <!-- Generator: sketchtool 50.2 (55047) - http://www.bohemiancoding.com/sketch -->
    <title>A6D947A5-430C-45C4-9B3D-D05FB122E50F</title>
    <desc>Created with sketchtool.</desc>
    <defs></defs>
    <g id="Reports" stroke="none" stroke-width="1" fill="none" fill-rule="evenodd">
        <g id="Report-filter-option" transform="translate(-496.000000, -104.000000)" fill="#FFFFFF" fill-rule="nonzero">
            <g id="sort-icons" transform="translate(492.000000, 100.000000)">
                <g id="sort-by-attributes-interface-button-option" transform="translate(4.000000, 4.000000)">
                    <path d="M7.23197368,6.18245301 L10.8383459,6.18245301 C10.913515,6.18245301 10.975235,6.15834586 11.0233929,6.1099906 C11.0717481,6.06169173 11.0959398,6.0000282 11.0959398,5.92483083 L11.0959398,4.37926692 C11.0959398,4.30406955 11.0717481,4.24240602 11.0233929,4.19410714 C10.975235,4.14586466 10.913515,4.12164474 10.8383459,4.12164474 L7.23197368,4.12164474 C7.15680451,4.12164474 7.09514098,4.14575188 7.04681391,4.19410714 C6.99859962,4.24240602 6.97440789,4.30406955 6.97440789,4.37926692 L6.97440789,5.92483083 C6.97440789,6.0000282 6.99851504,6.06169173 7.04681391,6.1099906 C7.09514098,6.15826128 7.15680451,6.18245301 7.23197368,6.18245301 Z" id="Shape"></path>
                    <path d="M7.23205827,2.06078008 L9.29278195,2.06078008 C9.36795113,2.06078008 9.42969925,2.03667293 9.47782895,1.98837406 C9.5262688,1.94004699 9.55009398,1.87838346 9.55009398,1.80321429 L9.55009398,0.257593985 C9.55009398,0.182509398 9.5262406,0.120761278 9.47782895,0.0724342105 C9.42969925,0.0242199248 9.36795113,0 9.29278195,0 L7.23205827,0 C7.1568891,0 7.09522556,0.0241071429 7.0468985,0.072406015 C6.99871241,0.120761278 6.97449248,0.182509398 6.97449248,0.257565789 L6.97449248,1.80318609 C6.97449248,1.87835526 6.99859962,1.9400188 7.0468985,1.98834586 C7.09525376,2.03656015 7.1568891,2.06078008 7.23205827,2.06078008 Z" id="Shape"></path>
                    <path d="M5.4287594,11.3343327 L3.88316729,11.3343327 L3.88316729,0.257593985 C3.88316729,0.182509398 3.85908835,0.120676692 3.81076128,0.0724342105 C3.76243421,0.0242199248 3.70077068,0 3.62557331,0 L2.07995301,0 C2.00486842,0 1.94303571,0.0241071429 1.89479323,0.072406015 C1.84660714,0.120761278 1.82238722,0.182509398 1.82238722,0.257565789 L1.82238722,11.3343045 L0.276766917,11.3343045 C0.158796992,11.3343045 0.0782706767,11.3879323 0.0353007519,11.4952444 C-0.00769736842,11.5973402 0.011193609,11.691203 0.0916071429,11.7770865 L2.66757519,14.3531673 C2.72661654,14.401297 2.78828008,14.4254041 2.85273496,14.4254041 C2.9224906,14.4254041 2.98426692,14.401297 3.03789474,14.3531673 L5.60582707,11.7851786 C5.65956767,11.7209211 5.68635338,11.656297 5.68635338,11.5922086 C5.68635338,11.5167575 5.66213346,11.4552068 5.61394737,11.4065695 C5.5656485,11.358468 5.50398496,11.3343327 5.4287594,11.3343327 Z" id="Shape"></path>
                    <path d="M14.1147744,12.4372838 C14.0664192,12.388844 14.0047838,12.3647368 13.9296147,12.3647368 L7.23205827,12.3647368 C7.1568891,12.3647368 7.09522556,12.388844 7.0468985,12.4372838 C6.99871241,12.4855263 6.97449248,12.5472744 6.97449248,12.622359 L6.97449248,14.1678947 C6.97449248,14.2432613 6.99859962,14.3047274 7.0468985,14.3531673 C7.09525376,14.4014098 7.1568891,14.4255169 7.23205827,14.4255169 L13.9295865,14.4255169 C14.0047556,14.4255169 14.0664192,14.4014098 14.1147462,14.3531673 C14.1629887,14.3046992 14.1870959,14.2432613 14.1870959,14.1678947 L14.1870959,12.622359 C14.1872086,12.5473026 14.1629887,12.4855263 14.1147744,12.4372838 Z" id="Shape"></path>
                    <path d="M7.23197368,10.3039004 L12.3840226,10.3039004 C12.4591071,10.3039004 12.5208553,10.2797932 12.5692669,10.2315508 C12.6174248,10.1833083 12.641532,10.1215602 12.641532,10.0465038 L12.641532,8.50074248 C12.641532,8.42568609 12.6174248,8.36390977 12.5692669,8.31569549 C12.5208271,8.26745301 12.4591071,8.24334586 12.3840226,8.24334586 L7.23197368,8.24334586 C7.15680451,8.24334586 7.09514098,8.26745301 7.04681391,8.31569549 C6.99859962,8.36393797 6.97440789,8.42568609 6.97440789,8.50074248 L6.97440789,10.0465038 C6.97440789,10.1215602 6.99851504,10.1833365 7.04681391,10.2315508 C7.09514098,10.2797932 7.15680451,10.3039004 7.23197368,10.3039004 Z" id="Shape"></path>
                </g>
            </g>
        </g>
    </g>
</svg>