<?xml version="1.0" encoding="UTF-8" standalone="no"?>
<svg width="155px" height="155px" viewBox="0 0 155 155" version="1.1" xmlns="http://www.w3.org/2000/svg" xmlns:xlink="http://www.w3.org/1999/xlink">
    <!-- Generator: Sketch 49 (51002) - http://www.bohemiancoding.com/sketch -->
    <title>admin setting</title>
    <desc>Created with Sketch.</desc>
    <defs>
        <linearGradient x1="49.9931826%" y1="0.0128929032%" x2="49.9931826%" y2="49.995151%" id="linearGradient-1">
            <stop stop-color="#17E8DA" offset="0%"></stop>
            <stop stop-color="#1ACBE8" offset="100%"></stop>
        </linearGradient>
    </defs>
    <g id="Page-1" stroke="none" stroke-width="1" fill="none" fill-rule="evenodd">
        <g id="card-4" transform="translate(-45.000000, -18.000000)">
            <g id="admin-setting" transform="translate(45.000000, 18.000000)">
                <path d="M155,77.5 C155,120.3 120.3,155 77.5,155 C34.7,155 0,120.3 0,77.5 C0,34.7 34.7,0 77.5,0 C120.3,0 155,34.7 155,77.5" id="Fill-1_1_-Copy" fill="url(#linearGradient-1)" fill-rule="nonzero"></path>
                <g id="admin-settings-copy" transform="translate(25.000000, 21.000000)" fill="#0B6E7E" opacity="0.240555037">
                    <path d="M55.7680869,46 C61.7149694,46 66.5361738,50.8292468 66.5361738,56.7866258 C66.5361738,62.7444719 61.7149694,67.5737187 55.7680869,67.5737187 C49.8212043,67.5737187 45,62.7444719 45,56.7866258 C45,50.8292468 49.8212043,46 55.7680869,46" id="Fill-23"></path>
                    <path d="M55.8501263,79.6486966 C42.9262844,79.6486966 32.5408395,69.1838708 32.5408395,56.1612458 C32.5408395,43.2543904 42.9262844,32.7895646 55.7348201,32.7895646 C68.5437705,32.7895646 78.9292154,43.2543904 78.9292154,56.1612458 C79.0441069,69.1838708 68.6590768,79.6486966 55.8501263,79.6486966 M109.277577,46.6263388 L95.8916802,44.0685396 C95.0841215,41.2779472 94.0455355,38.7197301 92.660616,36.2781185 L100.391943,24.882956 C101.08461,23.8364316 100.968889,22.2085512 100.046024,21.2786324 L90.4681378,11.6275378 C89.5448581,10.697201 88.0446323,10.5810134 86.8911548,11.278975 L75.5824302,19.069396 C73.0436184,17.6738909 70.3899151,16.6273665 67.620076,15.8136353 L65.081679,2.32584191 C64.8506517,1.04652438 63.5814532,0 62.3122547,0 L48.8110519,0 C47.5418534,0 46.2722401,1.04652438 46.0420423,2.32584191 L43.5028158,15.9298229 C40.8491125,16.7435541 38.1949944,17.7900785 35.7719037,19.1855836 L24.5784853,11.5113502 C23.5403141,10.8138066 21.9243673,10.9299942 21.0010876,11.860331 L11.4240309,21.5110076 C10.5007512,22.4413444 10.3854449,23.9526192 11.0776973,25.1157491 L18.8086094,36.5104938 C17.5398256,38.9521053 16.5012397,41.5103225 15.6932663,44.3009148 L2.30778448,46.859132 C1.03858597,47.0915072 0,48.3708247 0,49.6497243 L0,63.2537053 C0,64.5330228 1.03858597,65.8119224 2.30778448,66.0447156 L15.6932663,68.6025148 C16.5012397,71.3931071 17.5398256,73.9513243 18.9243304,76.5091235 L11.3083098,87.7880984 C10.6156427,88.8346228 10.7313637,90.4625032 11.6542286,91.3928399 L21.2321149,101.043099 C22.1553946,101.973435 23.6556204,102.089623 24.8095127,101.392079 L36.0025162,93.717846 C38.425607,94.9971635 40.9644188,96.0436879 43.6185368,96.8574191 L46.1573486,110.461818 C46.3879611,111.740718 47.6571596,112.787242 48.9267729,112.787242 L62.427561,112.787242 C63.6967595,112.787242 64.9663727,111.740718 65.1969853,110.461818 L67.7353823,96.9736067 C70.5052214,96.1598755 73.1589247,95.1133511 75.6981512,93.717846 L87.0064611,101.508685 C88.0446323,102.206229 89.6605791,102.089623 90.5834441,101.159704 L100.16133,91.5090276 C101.08461,90.5782728 101.199916,89.066998 100.507249,87.904286 L92.7759223,76.625729 C94.1608418,74.0675119 95.1994278,71.3931071 96.0069864,68.6025148 L109.392883,66.0447156 C110.661667,65.8119224 111.700253,64.5330228 111.700253,63.2537053 L111.700253,49.4173491 C111.584946,48.1380316 110.546775,46.859132 109.277577,46.6263388" id="Fill-25"></path>
                </g>
                <g id="admin-settings" transform="translate(22.000000, 21.000000)" fill="#37587A">
                    <path d="M55.7680869,46 C61.7149694,46 66.5361738,50.8292468 66.5361738,56.7866258 C66.5361738,62.7444719 61.7149694,67.5737187 55.7680869,67.5737187 C49.8212043,67.5737187 45,62.7444719 45,56.7866258 C45,50.8292468 49.8212043,46 55.7680869,46" id="Fill-23"></path>
                    <path d="M55.8501263,79.6486966 C42.9262844,79.6486966 32.5408395,69.1838708 32.5408395,56.1612458 C32.5408395,43.2543904 42.9262844,32.7895646 55.7348201,32.7895646 C68.5437705,32.7895646 78.9292154,43.2543904 78.9292154,56.1612458 C79.0441069,69.1838708 68.6590768,79.6486966 55.8501263,79.6486966 M109.277577,46.6263388 L95.8916802,44.0685396 C95.0841215,41.2779472 94.0455355,38.7197301 92.660616,36.2781185 L100.391943,24.882956 C101.08461,23.8364316 100.968889,22.2085512 100.046024,21.2786324 L90.4681378,11.6275378 C89.5448581,10.697201 88.0446323,10.5810134 86.8911548,11.278975 L75.5824302,19.069396 C73.0436184,17.6738909 70.3899151,16.6273665 67.620076,15.8136353 L65.081679,2.32584191 C64.8506517,1.04652438 63.5814532,0 62.3122547,0 L48.8110519,0 C47.5418534,0 46.2722401,1.04652438 46.0420423,2.32584191 L43.5028158,15.9298229 C40.8491125,16.7435541 38.1949944,17.7900785 35.7719037,19.1855836 L24.5784853,11.5113502 C23.5403141,10.8138066 21.9243673,10.9299942 21.0010876,11.860331 L11.4240309,21.5110076 C10.5007512,22.4413444 10.3854449,23.9526192 11.0776973,25.1157491 L18.8086094,36.5104938 C17.5398256,38.9521053 16.5012397,41.5103225 15.6932663,44.3009148 L2.30778448,46.859132 C1.03858597,47.0915072 0,48.3708247 0,49.6497243 L0,63.2537053 C0,64.5330228 1.03858597,65.8119224 2.30778448,66.0447156 L15.6932663,68.6025148 C16.5012397,71.3931071 17.5398256,73.9513243 18.9243304,76.5091235 L11.3083098,87.7880984 C10.6156427,88.8346228 10.7313637,90.4625032 11.6542286,91.3928399 L21.2321149,101.043099 C22.1553946,101.973435 23.6556204,102.089623 24.8095127,101.392079 L36.0025162,93.717846 C38.425607,94.9971635 40.9644188,96.0436879 43.6185368,96.8574191 L46.1573486,110.461818 C46.3879611,111.740718 47.6571596,112.787242 48.9267729,112.787242 L62.427561,112.787242 C63.6967595,112.787242 64.9663727,111.740718 65.1969853,110.461818 L67.7353823,96.9736067 C70.5052214,96.1598755 73.1589247,95.1133511 75.6981512,93.717846 L87.0064611,101.508685 C88.0446323,102.206229 89.6605791,102.089623 90.5834441,101.159704 L100.16133,91.5090276 C101.08461,90.5782728 101.199916,89.066998 100.507249,87.904286 L92.7759223,76.625729 C94.1608418,74.0675119 95.1994278,71.3931071 96.0069864,68.6025148 L109.392883,66.0447156 C110.661667,65.8119224 111.700253,64.5330228 111.700253,63.2537053 L111.700253,49.4173491 C111.584946,48.1380316 110.546775,46.859132 109.277577,46.6263388" id="Fill-25"></path>
                </g>
            </g>
        </g>
    </g>
</svg>