<?xml version="1.0" encoding="UTF-8" standalone="no"?>
<svg width="155px" height="156px" viewBox="0 0 155 156" version="1.1" xmlns="http://www.w3.org/2000/svg" xmlns:xlink="http://www.w3.org/1999/xlink">
    <!-- Generator: Sketch 49 (51002) - http://www.bohemiancoding.com/sketch -->
    <title>child welfare icon</title>
    <desc>Created with Sketch.</desc>
    <defs>
        <linearGradient x1="50%" y1="0%" x2="50%" y2="50%" id="linearGradient-1">
            <stop stop-color="#17E8DA" offset="0%"></stop>
            <stop stop-color="#1ACBE8" offset="100%"></stop>
        </linearGradient>
    </defs>
    <g id="Page-1" stroke="none" stroke-width="1" fill="none" fill-rule="evenodd">
        <g id="Landing-page-2" transform="translate(-184.000000, -328.000000)">
            <g id="card" transform="translate(139.000000, 313.000000)">
                <g id="card-1">
                    <g id="child-welfare-icon" transform="translate(45.000000, 15.000000)">
                        <g id="Group-3" transform="translate(0.000000, 0.945000)" fill="url(#linearGradient-1)">
                            <path d="M154.945,77.472 C154.945,120.259 120.259,154.945 77.473,154.945 C34.686,154.945 0,120.259 0,77.472 C0,34.686 34.686,0 77.473,0 C120.259,0 154.945,34.686 154.945,77.472" id="Fill-1"></path>
                        </g>
                        <path d="M79.3471,89.9283 C74.1601,89.0983 69.7301,94.7403 69.7181,99.1153 C69.7061,103.6623 74.4591,108.3153 79.0471,108.3393 C83.8861,108.3653 87.9791,103.9823 88.2111,98.9743 C88.4221,94.4063 83.6521,89.3723 79.3471,89.9283 Z M51.7111,131.3153 C49.2621,127.1423 46.7691,122.9943 44.3751,118.7903 C41.4431,113.6423 38.4741,108.5093 35.7471,103.2533 C33.4851,98.8933 32.7361,94.2963 33.9091,89.3343 C35.4101,82.9903 38.5501,77.8513 43.9671,74.2503 C49.1661,70.7953 54.9411,69.7443 61.0911,70.8023 C68.2691,72.0373 73.6131,75.9363 77.3741,82.0993 C77.6751,82.5923 77.8581,83.1563 78.1131,83.6783 C78.3391,84.1393 78.5891,84.5873 78.8721,85.1223 C80.3191,83.0013 81.5591,80.8563 83.1121,78.9673 C88.9551,71.8633 96.4871,69.3983 105.5071,70.9123 C114.5831,72.4373 120.3211,78.0653 123.3591,86.2223 C125.6461,92.3613 125.1621,98.7233 121.7261,104.6623 C116.8981,113.0053 112.2721,121.4663 107.4081,129.7873 C106.9261,130.6123 105.3901,130.8213 104.3441,131.3153 L88.5991,131.3153 C88.8121,130.0093 88.9611,128.6903 89.2521,127.4023 C89.9021,124.5293 90.5531,121.6533 91.3311,118.8143 C92.2711,115.3883 93.3511,112.1833 96.6741,109.9753 C99.9281,107.8123 102.7751,105.0103 105.6701,102.3463 C107.5931,100.5753 107.5541,98.1963 105.8661,96.3983 C104.5041,94.9493 101.7471,94.8513 100.0481,96.2523 C96.3191,99.3283 92.4561,102.2673 88.9501,105.5813 C86.3891,108.0023 83.7811,109.3653 80.1871,108.8703 C78.2021,108.5983 76.1491,108.8483 74.1271,108.8043 C73.5761,108.7923 72.8881,108.7443 72.5051,108.4233 C67.7761,104.4603 63.0831,100.4553 58.4031,96.4363 C56.5061,94.8073 53.5591,94.8333 52.0551,96.5593 C50.2251,98.6563 50.3851,100.7973 52.7091,102.7913 C55.9851,105.6033 59.3881,108.2663 62.6601,111.0813 C64.1861,112.3943 66.1121,113.6743 66.8331,115.3973 C68.1591,118.5633 68.7891,122.0323 69.5891,125.4033 C70.0501,127.3443 70.2741,129.3423 70.6051,131.3153 L51.7111,131.3153 Z" id="Fill-4" fill="#0AAEC9"></path>
                        <path d="M69.6942,32.5445 C69.8752,30.5655 68.5872,29.9075 67.1602,29.6975 C65.5912,29.4675 64.2392,31.0205 64.3092,32.6675 C64.3842,34.4405 65.6462,35.2905 67.0772,35.2165 C68.5092,35.1425 70.1082,34.5445 69.6942,32.5445 M99.5402,36.0755 C99.4712,43.5005 95.4002,48.1345 90.4452,52.0695 C87.4242,54.4685 83.9642,56.3095 80.7392,58.4575 C78.5002,59.9495 76.8162,58.1485 75.2652,57.3015 C70.0412,54.4475 65.1642,50.9165 61.7672,45.9855 C58.4192,41.1275 56.8042,35.6645 60.2802,30.0675 C62.0612,27.2005 64.6452,25.3495 68.2552,25.1165 C72.1492,24.8655 75.5592,25.5875 78.2512,28.6835 C78.4772,28.9415 79.8882,28.6365 80.3102,28.1835 C83.4952,24.7715 87.7042,24.3085 91.6112,25.3905 C96.2852,26.6845 99.9102,30.0285 99.5402,36.0755" id="Fill-6" fill="#0AAEC9"></path>
                        <path d="M41.3656,71.0338 C34.1786,71.5108 29.1826,65.0798 29.3686,59.2048 C29.5906,52.2198 34.2516,47.4138 41.4926,47.2878 C48.2516,47.1698 53.2306,52.2838 53.5336,59.3708 C53.7486,64.3758 48.3136,71.9748 41.3656,71.0338" id="Fill-8" fill="#0AAEC9"></path>
                        <path d="M116.4652,71.0338 C110.7742,72.0038 104.2632,64.9378 104.6332,58.9258 C104.9892,53.1378 109.9122,47.0878 116.6382,47.2618 C123.4462,47.4368 128.5132,52.1028 128.6182,59.4528 C128.6982,65.1098 123.6722,71.7048 116.4652,71.0338" id="Fill-10" fill="#0AAEC9"></path>
                        <path d="M76.309,90.6881 C71.122,89.8571 66.692,95.5001 66.68,99.8741 C66.668,104.4221 71.421,109.0751 76.009,109.0991 C80.848,109.1251 84.941,104.7411 85.173,99.7331 C85.384,95.1651 80.614,90.1321 76.309,90.6881 Z M48.673,132.0751 C46.224,127.9021 43.731,123.7541 41.337,119.5501 C38.405,114.4021 35.436,109.2691 32.709,104.0121 C30.447,99.6531 29.698,95.0561 30.871,90.0941 C32.372,83.7501 35.512,78.6101 40.929,75.0101 C46.127,71.5551 51.903,70.5041 58.053,71.5621 C65.231,72.7971 70.575,76.6951 74.336,82.8581 C74.637,83.3511 74.82,83.9161 75.075,84.4381 C75.301,84.8981 75.551,85.3471 75.833,85.8821 C77.281,83.7611 78.521,81.6161 80.074,79.7271 C85.917,72.6231 93.448,70.1581 102.469,71.6721 C111.545,73.1971 117.283,78.8241 120.321,86.9811 C122.608,93.1211 122.124,99.4831 118.688,105.4211 C113.86,113.7651 109.234,122.2261 104.37,130.5471 C103.888,131.3721 102.352,131.5801 101.306,132.0751 L85.561,132.0751 C85.774,130.7691 85.923,129.4501 86.214,128.1621 C86.864,125.2891 87.515,122.4131 88.293,119.5741 C89.233,116.1471 90.313,112.9431 93.636,110.7341 C96.89,108.5721 99.737,105.7701 102.632,103.1061 C104.555,101.3351 104.516,98.9551 102.828,97.1581 C101.466,95.7091 98.709,95.6111 97.01,97.0121 C93.28,100.0881 89.418,103.0271 85.912,106.3411 C83.351,108.7621 80.743,110.1251 77.149,109.6301 C75.164,109.3571 73.11,109.6071 71.089,109.5641 C70.538,109.5521 69.85,109.5031 69.467,109.1831 C64.738,105.2201 60.045,101.2151 55.365,97.1961 C53.468,95.5671 50.521,95.5921 49.016,97.3181 C47.187,99.4161 47.347,101.5571 49.67,103.5511 C52.947,106.3631 56.35,109.0251 59.622,111.8401 C61.148,113.1541 63.074,114.4331 63.795,116.1571 C65.121,119.3231 65.751,122.7921 66.551,126.1631 C67.012,128.1041 67.236,130.1021 67.567,132.0751 L48.673,132.0751 Z" id="Fill-12" fill="#FA6671"></path>
                        <path d="M66.6562,33.3043 C66.8372,31.3253 65.5492,30.6673 64.1212,30.4573 C62.5532,30.2273 61.2012,31.7803 61.2712,33.4273 C61.3462,35.2003 62.6082,36.0493 64.0392,35.9763 C65.4712,35.9023 67.0702,35.3043 66.6562,33.3043 M96.5022,36.8353 C96.4332,44.2603 92.3622,48.8943 87.4072,52.8283 C84.3862,55.2283 80.9262,57.0693 77.7012,59.2173 C75.4622,60.7093 73.7782,58.9083 72.2272,58.0613 C67.0032,55.2073 62.1262,51.6763 58.7292,46.7443 C55.3812,41.8863 53.7662,36.4243 57.2422,30.8273 C59.0232,27.9603 61.6072,26.1093 65.2172,25.8763 C69.1112,25.6243 72.5212,26.3473 75.2132,29.4433 C75.4392,29.7013 76.8492,29.3953 77.2722,28.9433 C80.4572,25.5303 84.6662,25.0683 88.5732,26.1503 C93.2472,27.4443 96.8722,30.7883 96.5022,36.8353" id="Fill-14" fill="#FA6671"></path>
                        <path d="M38.3275,71.7936 C31.1405,72.2706 26.1445,65.8396 26.3305,59.9646 C26.5525,52.9796 31.2135,48.1736 38.4545,48.0476 C45.2135,47.9296 50.1925,53.0436 50.4955,60.1296 C50.7095,65.1356 45.2755,72.7346 38.3275,71.7936" id="Fill-16" fill="#F3E4BF"></path>
                        <path d="M113.4272,71.7936 C107.7352,72.7636 101.2252,65.6976 101.5952,59.6856 C101.9512,53.8976 106.8742,47.8476 113.6002,48.0216 C120.4082,48.1956 125.4752,52.8616 125.5792,60.2126 C125.6602,65.8696 120.6342,72.4646 113.4272,71.7936" id="Fill-18" fill="#F3E4BF"></path>
                    </g>
                </g>
            </g>
        </g>
    </g>
</svg>