<?xml version="1.0" encoding="UTF-8" standalone="no"?>
<svg width="155px" height="155px" viewBox="0 0 155 155" version="1.1" xmlns="http://www.w3.org/2000/svg" xmlns:xlink="http://www.w3.org/1999/xlink">
    <!-- Generator: Sketch 49 (51002) - http://www.bohemiancoding.com/sketch -->
    <title>donation icon</title>
    <desc>Created with Sketch.</desc>
    <defs>
        <polygon id="path-1" points="0 0.0552 154.9448 0.0552 154.9448 155 0 155"></polygon>
        <linearGradient x1="50%" y1="0%" x2="50%" y2="50%" id="linearGradient-3">
            <stop stop-color="#17E8DA" offset="0%"></stop>
            <stop stop-color="#1ACBE8" offset="100%"></stop>
        </linearGradient>
    </defs>
    <g id="Page-1" stroke="none" stroke-width="1" fill="none" fill-rule="evenodd">
        <g id="Landing-page-2" transform="translate(-438.000000, -330.000000)">
            <g id="card" transform="translate(139.000000, 313.000000)">
                <g id="card-2" transform="translate(254.000000, 0.000000)">
                    <g id="donation-icon" transform="translate(45.000000, 16.000000)">
                        <g id="Group-3" transform="translate(0.000000, 0.945000)">
                            <mask id="mask-2" fill="white">
                                <use xlink:href="#path-1"></use>
                            </mask>
                            <g id="Clip-2"></g>
                            <path d="M154.945,77.472 C154.945,120.259 120.259,154.945 77.472,154.945 C34.686,154.945 0,120.259 0,77.472 C0,34.686 34.686,0 77.472,0 C120.259,0 154.945,34.686 154.945,77.472" id="Fill-1" fill="url(#linearGradient-3)" mask="url(#mask-2)"></path>
                        </g>
                        <path d="M91.7549,77.4898 L85.0729,77.4898 L85.0729,86.6038 L44.4389,86.6038 L44.4389,77.4898 L35.8579,77.4898 C31.5779,77.4898 28.1089,80.9598 28.1089,85.2388 L28.1089,116.2258 L99.5049,116.2258 L99.5049,85.2388 C99.5049,80.9598 96.0349,77.4898 91.7549,77.4898" id="Fill-4" fill="#0AAEC9"></path>
                        <path d="M74.8198,72.5777 C74.8198,79.0307 69.5888,84.2627 63.1348,84.2627 C56.6818,84.2627 51.4498,79.0307 51.4498,72.5777 C51.4498,66.1247 56.6818,60.8927 63.1348,60.8927 C69.5888,60.8927 74.8198,66.1247 74.8198,72.5777" id="Fill-6" fill="#0AAEC9"></path>
                        <path d="M62.2925,82.7476 L62.2925,80.2456 C60.8555,80.2206 59.3695,79.7746 58.5015,79.1546 L59.0965,77.4956 C59.9885,78.0896 61.2765,78.5606 62.6645,78.5606 C64.4235,78.5606 65.6125,77.5446 65.6125,76.1326 C65.6125,74.7696 64.6465,73.9276 62.8135,73.1846 C60.2865,72.1936 58.7255,71.0546 58.7255,68.8976 C58.7255,66.8426 60.1875,65.2806 62.4665,64.9096 L62.4665,62.4076 L64.0015,62.4076 L64.0015,64.8106 C65.4885,64.8596 66.5045,65.2566 67.2235,65.6776 L66.6035,67.3126 C66.0835,67.0156 65.0675,66.4706 63.4815,66.4706 C61.5745,66.4706 60.8555,67.6096 60.8555,68.6016 C60.8555,69.8896 61.7725,70.5336 63.9275,71.4256 C66.4795,72.4666 67.7675,73.7546 67.7675,75.9596 C67.7675,77.9166 66.4055,79.7496 63.8535,80.1716 L63.8535,82.7476 L62.2925,82.7476 Z" id="Fill-8" fill="#F1A400"></path>
                        <path d="M130.627,67.5396 C129.508,64.9276 128.592,62.2276 127.607,59.5596 C126.41,56.3116 125.26,53.0466 123.989,49.8276 C123.864,49.5116 122.948,49.2146 122.544,49.3476 C119.782,50.2566 117.074,51.3286 114.317,52.2526 C112.956,52.7096 111.338,53.5636 110.164,53.1946 C106.755,52.1256 103.496,50.5676 100.21,49.1306 C94.472,46.6216 88.751,44.0756 83.039,41.5116 C80.043,40.1666 77.264,40.6236 74.583,42.2056 C74.582,42.2056 74.582,42.2056 74.582,42.2066 C74.498,42.2556 74.415,42.3046 74.332,42.3546 C74.309,42.3686 74.287,42.3806 74.262,42.3936 C72.779,42.8166 71.281,43.1956 69.815,43.6706 C65.043,45.2156 60.176,46.5396 55.556,48.4546 C52.557,49.6976 51.204,51.8736 53.616,54.2826 C54.659,55.3246 56.323,55.7456 57.188,56.1856 C57.212,56.1606 57.234,56.1376 57.258,56.1126 C57.29,56.1486 57.315,56.1876 57.351,56.2236 C58.87,57.7416 68.744,54.7036 68.744,54.7036 L69.338,54.4876 C70.758,54.2396 72.165,53.9066 73.575,53.5996 C76.699,52.9186 79.841,51.6786 82.867,53.9216 C82.953,53.9836 83.131,53.9076 83.238,53.9576 C85.254,54.8946 87.721,55.3976 89.175,56.8886 C91.517,59.2876 93.191,62.3386 95.342,65.3896 C94.468,65.3026 93.968,65.3076 93.495,65.1966 C89.978,64.3826 86.494,63.3806 82.94,62.7966 C81.593,62.5746 79.874,62.9466 78.706,63.6676 C76.54,65.0026 76.583,69.3116 80.691,70.9916 C87.688,73.8526 94.579,76.9736 101.554,79.8906 C102.823,80.4206 104.378,80.9406 105.629,80.6706 C107.334,80.3016 108.867,79.1556 110.485,78.3656 C113.152,77.0626 115.774,75.6436 118.516,74.5186 C122.172,73.0176 125.913,71.7166 129.642,70.3986 C131.283,69.8196 131.23,68.9456 130.627,67.5396" id="Fill-10" fill="#0AAEC9"></path>
                        <path d="M87.5777,77.4898 L80.8957,77.4898 L80.8957,86.6038 L40.2617,86.6038 L40.2617,77.4898 L31.6807,77.4898 C27.4007,77.4898 23.9317,80.9598 23.9317,85.2388 L23.9317,116.2258 L95.3277,116.2258 L95.3277,85.2388 C95.3277,80.9598 91.8577,77.4898 87.5777,77.4898" id="Fill-12" fill="#7A5E06"></path>
                        <path d="M70.6426,72.5777 C70.6426,79.0307 65.4106,84.2627 58.9576,84.2627 C52.5036,84.2627 47.2726,79.0307 47.2726,72.5777 C47.2726,66.1247 52.5036,60.8927 58.9576,60.8927 C65.4106,60.8927 70.6426,66.1247 70.6426,72.5777" id="Fill-14" fill="#7A5E06"></path>
                        <path d="M58.1152,82.7476 L58.1152,80.2456 C56.6782,80.2206 55.1922,79.7746 54.3242,79.1546 L54.9192,77.4956 C55.8112,78.0896 57.0992,78.5606 58.4872,78.5606 C60.2462,78.5606 61.4352,77.5446 61.4352,76.1326 C61.4352,74.7696 60.4692,73.9276 58.6352,73.1846 C56.1092,72.1936 54.5482,71.0546 54.5482,68.8976 C54.5482,66.8426 56.0092,65.2806 58.2882,64.9096 L58.2882,62.4076 L59.8242,62.4076 L59.8242,64.8106 C61.3112,64.8596 62.3272,65.2566 63.0452,65.6776 L62.4262,67.3126 C61.9062,67.0156 60.8902,66.4706 59.3042,66.4706 C57.3972,66.4706 56.6782,67.6096 56.6782,68.6016 C56.6782,69.8896 57.5952,70.5336 59.7502,71.4256 C62.3022,72.4666 63.5902,73.7546 63.5902,75.9596 C63.5902,77.9166 62.2282,79.7496 59.6762,80.1716 L59.6762,82.7476 L58.1152,82.7476 Z" id="Fill-16" fill="#FFFFFF"></path>
                        <path d="M126.4497,67.5396 C125.3307,64.9276 124.4147,62.2276 123.4297,59.5596 C122.2327,56.3116 121.0827,53.0466 119.8117,49.8276 C119.6867,49.5116 118.7707,49.2146 118.3667,49.3476 C115.6047,50.2566 112.8967,51.3286 110.1397,52.2526 C108.7787,52.7096 107.1607,53.5636 105.9867,53.1946 C102.5777,52.1256 99.3187,50.5676 96.0317,49.1306 C90.2947,46.6216 84.5737,44.0756 78.8617,41.5116 C75.8657,40.1666 73.0867,40.6236 70.4057,42.2056 C70.4047,42.2056 70.4047,42.2056 70.4047,42.2066 C70.3207,42.2556 70.2377,42.3046 70.1537,42.3546 C70.1317,42.3686 70.1097,42.3806 70.0847,42.3936 C68.6007,42.8166 67.1037,43.1956 65.6377,43.6706 C60.8657,45.2156 55.9987,46.5396 51.3777,48.4546 C48.3797,49.6976 47.0267,51.8736 49.4377,54.2826 C50.4817,55.3246 52.1457,55.7456 53.0107,56.1856 C53.0347,56.1606 53.0567,56.1376 53.0807,56.1126 C53.1127,56.1486 53.1377,56.1876 53.1727,56.2236 C54.6927,57.7416 64.5657,54.7036 64.5657,54.7036 L65.1597,54.4876 C66.5807,54.2396 67.9867,53.9066 69.3977,53.5996 C72.5217,52.9186 75.6637,51.6786 78.6897,53.9216 C78.7747,53.9836 78.9537,53.9076 79.0607,53.9576 C81.0767,54.8946 83.5427,55.3976 84.9977,56.8886 C87.3397,59.2876 89.0137,62.3386 91.1647,65.3896 C90.2907,65.3026 89.7907,65.3076 89.3177,65.1966 C85.8007,64.3826 82.3167,63.3806 78.7627,62.7966 C77.4157,62.5746 75.6967,62.9466 74.5287,63.6676 C72.3627,65.0026 72.4057,69.3116 76.5137,70.9916 C83.5107,73.8526 90.4017,76.9736 97.3767,79.8906 C98.6457,80.4206 100.2007,80.9406 101.4517,80.6706 C103.1567,80.3016 104.6897,79.1556 106.3067,78.3656 C108.9747,77.0626 111.5967,75.6436 114.3387,74.5186 C117.9947,73.0176 121.7357,71.7166 125.4647,70.3986 C127.1057,69.8196 127.0527,68.9456 126.4497,67.5396" id="Fill-18" fill="#F3E4BF"></path>
                    </g>
                </g>
            </g>
        </g>
    </g>
</svg>