<?xml version="1.0" encoding="UTF-8" standalone="no"?>
<svg width="155px" height="155px" viewBox="0 0 155 155" version="1.1" xmlns="http://www.w3.org/2000/svg" xmlns:xlink="http://www.w3.org/1999/xlink">
    <!-- Generator: Sketch 49 (51002) - http://www.bohemiancoding.com/sketch -->
    <title>finance icon</title>
    <desc>Created with Sketch.</desc>
    <defs>
        <polygon id="path-1" points="0 0.0551 154.945 0.0551 154.945 155 0 155"></polygon>
        <linearGradient x1="50%" y1="0%" x2="50%" y2="50%" id="linearGradient-3">
            <stop stop-color="#17E8DA" offset="0%"></stop>
            <stop stop-color="#1ACBE8" offset="100%"></stop>
        </linearGradient>
    </defs>
    <g id="Page-1" stroke="none" stroke-width="1" fill="none" fill-rule="evenodd">
        <g id="Landing-page-2" transform="translate(-692.000000, -331.000000)">
            <g id="card" transform="translate(139.000000, 313.000000)">
                <g id="card-3" transform="translate(508.000000, 0.000000)">
                    <g id="finance-icon" transform="translate(45.000000, 17.000000)">
                        <g id="Group-3" transform="translate(0.000000, 0.945000)">
                            <mask id="mask-2" fill="white">
                                <use xlink:href="#path-1"></use>
                            </mask>
                            <g id="Clip-2"></g>
                            <path d="M154.945,77.473 C154.945,120.259 120.259,154.945 77.472,154.945 C34.686,154.945 0,120.259 0,77.473 C0,34.686 34.686,0 77.472,0 C120.259,0 154.945,34.686 154.945,77.473" id="Fill-1" fill="url(#linearGradient-3)" mask="url(#mask-2)"></path>
                        </g>
                        <path d="M125.5793,123.2201 L114.7393,123.2201 C113.7063,123.2201 112.8693,122.3821 112.8693,121.3501 L112.8693,66.7691 C112.8693,65.7361 113.7063,64.8991 114.7393,64.8991 L125.5793,64.8991 C126.6123,64.8991 127.4493,65.7361 127.4493,66.7691 L127.4493,121.3501 C127.4493,122.3821 126.6123,123.2201 125.5793,123.2201" id="Fill-4" fill="#0AAEC9"></path>
                        <path d="M98.5011,123.2201 L87.6611,123.2201 C86.6281,123.2201 85.7911,122.3821 85.7911,121.3501 L85.7911,90.7221 C85.7911,89.6891 86.6281,88.8521 87.6611,88.8521 L98.5011,88.8521 C99.5341,88.8521 100.3711,89.6891 100.3711,90.7221 L100.3711,121.3501 C100.3711,122.3821 99.5341,123.2201 98.5011,123.2201" id="Fill-6" fill="#0AAEC9"></path>
                        <path d="M72.465,123.2201 L61.625,123.2201 C60.592,123.2201 59.755,122.3821 59.755,121.3501 L59.755,81.3491 C59.755,80.3161 60.592,79.4791 61.625,79.4791 L72.465,79.4791 C73.498,79.4791 74.335,80.3161 74.335,81.3491 L74.335,121.3501 C74.335,122.3821 73.498,123.2201 72.465,123.2201" id="Fill-8" fill="#0AAEC9"></path>
                        <path d="M45.3869,123.2201 L34.5469,123.2201 C33.5139,123.2201 32.6769,122.3821 32.6769,121.3501 L32.6769,105.3021 C32.6769,104.2701 33.5139,103.4321 34.5469,103.4321 L45.3869,103.4321 C46.4199,103.4321 47.2579,104.2701 47.2579,105.3021 L47.2579,121.3501 C47.2579,122.3821 46.4199,123.2201 45.3869,123.2201" id="Fill-10" fill="#0AAEC9"></path>
                        <path d="M124.7477,33.727 L106.0677,34.539 C104.6847,34.599 104.0327,36.275 105.0117,37.253 L109.3657,41.607 C109.3447,41.627 109.3217,41.643 109.3017,41.665 L91.8617,61.286 C91.1577,62.078 89.9367,62.126 89.1717,61.394 L68.4257,41.551 C67.7157,40.872 66.5997,40.858 65.8727,41.521 L28.1057,75.956 C27.3427,76.652 27.2877,77.834 27.9837,78.598 L35.2877,86.609 C35.9827,87.372 37.1657,87.426 37.9297,86.73 L65.6357,61.469 C66.3617,60.806 67.4777,60.82 68.1877,61.499 L90.0217,82.384 C90.7877,83.117 92.0087,83.067 92.7117,82.275 L119.6867,51.928 L123.6917,55.934 C124.6937,56.936 126.4077,56.226 126.4077,54.809 L126.4077,35.317 C126.4077,34.411 125.6527,33.688 124.7477,33.727" id="Fill-12" fill="#0AAEC9"></path>
                        <path d="M121.4015,123.2201 L110.5615,123.2201 C109.5285,123.2201 108.6915,122.3821 108.6915,121.3501 L108.6915,66.7691 C108.6915,65.7361 109.5285,64.8991 110.5615,64.8991 L121.4015,64.8991 C122.4345,64.8991 123.2725,65.7361 123.2725,66.7691 L123.2725,121.3501 C123.2725,122.3821 122.4345,123.2201 121.4015,123.2201" id="Fill-14" fill="#535763"></path>
                        <path d="M94.3239,123.2201 L83.4839,123.2201 C82.4509,123.2201 81.6139,122.3821 81.6139,121.3501 L81.6139,90.7221 C81.6139,89.6891 82.4509,88.8521 83.4839,88.8521 L94.3239,88.8521 C95.3569,88.8521 96.1939,89.6891 96.1939,90.7221 L96.1939,121.3501 C96.1939,122.3821 95.3569,123.2201 94.3239,123.2201" id="Fill-16" fill="#535763"></path>
                        <path d="M68.2873,123.2201 L57.4473,123.2201 C56.4143,123.2201 55.5773,122.3821 55.5773,121.3501 L55.5773,81.3491 C55.5773,80.3161 56.4143,79.4791 57.4473,79.4791 L68.2873,79.4791 C69.3203,79.4791 70.1583,80.3161 70.1583,81.3491 L70.1583,121.3501 C70.1583,122.3821 69.3203,123.2201 68.2873,123.2201" id="Fill-18" fill="#535763"></path>
                        <path d="M41.2096,123.2201 L30.3696,123.2201 C29.3366,123.2201 28.4996,122.3821 28.4996,121.3501 L28.4996,105.3021 C28.4996,104.2701 29.3366,103.4321 30.3696,103.4321 L41.2096,103.4321 C42.2426,103.4321 43.0796,104.2701 43.0796,105.3021 L43.0796,121.3501 C43.0796,122.3821 42.2426,123.2201 41.2096,123.2201" id="Fill-20" fill="#535763"></path>
                        <path d="M120.5705,33.727 L101.8905,34.539 C100.5075,34.599 99.8555,36.275 100.8345,37.253 L105.1875,41.607 C105.1675,41.627 105.1445,41.643 105.1245,41.665 L87.6845,61.286 C86.9805,62.078 85.7595,62.126 84.9935,61.394 L64.2485,41.551 C63.5385,40.872 62.4225,40.858 61.6955,41.521 L23.9285,75.956 C23.1645,76.652 23.1105,77.834 23.8065,78.598 L31.1095,86.609 C31.8055,87.372 32.9885,87.426 33.7515,86.73 L61.4575,61.469 C62.1845,60.806 63.2995,60.82 64.0105,61.499 L85.8445,82.384 C86.6105,83.117 87.8305,83.067 88.5345,82.275 L115.5095,51.928 L119.5145,55.934 C120.5165,56.936 122.2305,56.226 122.2305,54.809 L122.2305,35.317 C122.2305,34.411 121.4755,33.688 120.5705,33.727" id="Fill-22" fill="#535763"></path>
                    </g>
                </g>
            </g>
        </g>
    </g>
</svg>