<?xml version="1.0" encoding="UTF-8" standalone="no"?>
<svg width="155px" height="155px" viewBox="0 0 155 155" version="1.1" xmlns="http://www.w3.org/2000/svg" xmlns:xlink="http://www.w3.org/1999/xlink">
    <!-- Generator: Sketch 49 (51002) - http://www.bohemiancoding.com/sketch -->
    <title>person icn</title>
    <desc>Created with Sketch.</desc>
    <defs>
        <polygon id="path-1" points="0 0.0552 154.9447 0.0552 154.9447 155 0 155"></polygon>
        <linearGradient x1="50%" y1="0%" x2="50%" y2="50%" id="linearGradient-3">
            <stop stop-color="#17E8DA" offset="0%"></stop>
            <stop stop-color="#1ACBE8" offset="100%"></stop>
        </linearGradient>
    </defs>
    <g id="Page-1" stroke="none" stroke-width="1" fill="none" fill-rule="evenodd">
        <g id="Landing-page-2" transform="translate(-946.000000, -332.000000)">
            <g id="card" transform="translate(139.000000, 313.000000)">
                <g id="card-4" transform="translate(762.000000, 0.000000)">
                    <g id="person-icn" transform="translate(45.000000, 18.000000)">
                        <g id="Group-3" transform="translate(0.000000, 0.945000)">
                            <mask id="mask-2" fill="white">
                                <use xlink:href="#path-1"></use>
                            </mask>
                            <g id="Clip-2"></g>
                            <path d="M154.9447,77.5272 C154.9447,120.3142 120.2587,155.0002 77.4727,155.0002 C34.6857,155.0002 -0.0003,120.3142 -0.0003,77.5272 C-0.0003,34.7412 34.6857,0.0552 77.4727,0.0552 C120.2587,0.0552 154.9447,34.7412 154.9447,77.5272" id="Fill-1" fill="url(#linearGradient-3)" mask="url(#mask-2)"></path>
                        </g>
                        <path d="M113.7498,131.2143 L49.5498,131.2143 C45.2548,131.2143 41.7738,127.7343 41.7738,123.4393 L41.7738,33.5063 C41.7738,29.2113 45.2548,25.7313 49.5498,25.7313 L113.7498,25.7313 C118.0438,25.7313 121.5248,29.2113 121.5248,33.5063 L121.5248,123.4393 C121.5248,127.7343 118.0438,131.2143 113.7498,131.2143" id="Fill-4" fill="#0AAEC9"></path>
                        <path d="M58.6683,87.7632 L58.6683,82.1452 C55.4413,82.0892 52.1053,81.0872 50.1573,79.6982 L51.4933,75.9702 C53.4953,77.3052 56.3873,78.3622 59.5023,78.3622 C63.4523,78.3622 66.1223,76.0812 66.1223,72.9112 C66.1223,69.8522 63.9523,67.9602 59.8363,66.2922 C54.1633,64.0672 50.6583,61.5082 50.6583,56.6682 C50.6583,52.0522 53.9403,48.5472 59.0583,47.7132 L59.0583,42.0952 L62.5063,42.0952 L62.5063,47.4922 C65.8443,47.6022 68.1253,48.4922 69.7373,49.4382 L68.3473,53.1092 C67.1793,52.4422 64.8983,51.2182 61.3383,51.2182 C57.0553,51.2182 55.4413,53.7772 55.4413,56.0012 C55.4413,58.8942 57.5003,60.3402 62.3393,62.3422 C68.0683,64.6792 70.9603,67.5722 70.9603,72.5222 C70.9603,76.9162 67.9013,81.0332 62.1723,81.9782 L62.1723,87.7632 L58.6683,87.7632 Z" id="Fill-6" fill="#F1A400"></path>
                        <path d="M109.4032,51.3179 L82.3942,51.3179 C81.6892,51.3179 81.1182,50.7469 81.1182,50.0429 C81.1182,49.3379 81.6892,48.7659 82.3942,48.7659 L109.4032,48.7659 C110.1082,48.7659 110.6792,49.3379 110.6792,50.0429 C110.6792,50.7469 110.1082,51.3179 109.4032,51.3179" id="Fill-8" fill="#F1A400"></path>
                        <path d="M109.4032,58.7612 L82.3942,58.7612 C81.6892,58.7612 81.1182,58.1902 81.1182,57.4862 C81.1182,56.7812 81.6892,56.2092 82.3942,56.2092 L109.4032,56.2092 C110.1082,56.2092 110.6792,56.7812 110.6792,57.4862 C110.6792,58.1902 110.1082,58.7612 109.4032,58.7612" id="Fill-10" fill="#F1A400"></path>
                        <path d="M109.4032,66.2056 L82.3942,66.2056 C81.6892,66.2056 81.1182,65.6336 81.1182,64.9296 C81.1182,64.2246 81.6892,63.6526 82.3942,63.6526 L109.4032,63.6526 C110.1082,63.6526 110.6792,64.2246 110.6792,64.9296 C110.6792,65.6336 110.1082,66.2056 109.4032,66.2056" id="Fill-12" fill="#F1A400"></path>
                        <path d="M109.4032,73.6489 L82.3942,73.6489 C81.6892,73.6489 81.1182,73.0779 81.1182,72.3729 C81.1182,71.6679 81.6892,71.0959 82.3942,71.0959 L109.4032,71.0959 C110.1082,71.0959 110.6792,71.6679 110.6792,72.3729 C110.6792,73.0779 110.1082,73.6489 109.4032,73.6489" id="Fill-14" fill="#F1A400"></path>
                        <path d="M104.9368,80.9819 L82.3948,80.9819 C81.7498,80.9819 81.2288,80.4599 81.2288,79.8159 C81.2288,79.1719 81.7498,78.6499 82.3948,78.6499 L104.9368,78.6499 C105.5808,78.6499 106.1028,79.1719 106.1028,79.8159 C106.1028,80.4599 105.5808,80.9819 104.9368,80.9819" id="Fill-16" fill="#F1A400"></path>
                        <path d="M110.679,94.8481 L50.068,94.8481 C49.364,94.8481 48.792,94.2771 48.792,93.5721 C48.792,92.8681 49.364,92.2961 50.068,92.2961 L110.679,92.2961 C111.384,92.2961 111.955,92.8681 111.955,93.5721 C111.955,94.2771 111.384,94.8481 110.679,94.8481" id="Fill-18" fill="#F1A400"></path>
                        <path d="M110.679,102.2915 L50.068,102.2915 C49.364,102.2915 48.792,101.7205 48.792,101.0155 C48.792,100.3115 49.364,99.7395 50.068,99.7395 L110.679,99.7395 C111.384,99.7395 111.955,100.3115 111.955,101.0155 C111.955,101.7205 111.384,102.2915 110.679,102.2915" id="Fill-20" fill="#F1A400"></path>
                        <path d="M110.679,109.7349 L50.068,109.7349 C49.364,109.7349 48.792,109.1639 48.792,108.4599 C48.792,107.7549 49.364,107.1829 50.068,107.1829 L110.679,107.1829 C111.384,107.1829 111.955,107.7549 111.955,108.4599 C111.955,109.1639 111.384,109.7349 110.679,109.7349" id="Fill-22" fill="#F1A400"></path>
                        <path d="M110.679,117.1782 L50.068,117.1782 C49.364,117.1782 48.792,116.6072 48.792,115.9032 C48.792,115.1982 49.364,114.6262 50.068,114.6262 L110.679,114.6262 C111.384,114.6262 111.955,115.1982 111.955,115.9032 C111.955,116.6072 111.384,117.1782 110.679,117.1782" id="Fill-24" fill="#F1A400"></path>
                        <path d="M109.5726,131.2143 L45.3726,131.2143 C41.0776,131.2143 37.5966,127.7343 37.5966,123.4393 L37.5966,33.5063 C37.5966,29.2113 41.0776,25.7313 45.3726,25.7313 L109.5726,25.7313 C113.8666,25.7313 117.3476,29.2113 117.3476,33.5063 L117.3476,123.4393 C117.3476,127.7343 113.8666,131.2143 109.5726,131.2143" id="Fill-26" fill="#FFFFFF"></path>
                        <path d="M54.4906,87.7632 L54.4906,82.1452 C51.2646,82.0892 47.9276,81.0872 45.9806,79.6982 L47.3156,75.9702 C49.3186,77.3052 52.2106,78.3622 55.3246,78.3622 C59.2746,78.3622 61.9446,76.0812 61.9446,72.9112 C61.9446,69.8522 59.7746,67.9602 55.6586,66.2922 C49.9856,64.0672 46.4816,61.5082 46.4816,56.6682 C46.4816,52.0522 49.7626,48.5472 54.8806,47.7132 L54.8806,42.0952 L58.3286,42.0952 L58.3286,47.4922 C61.6666,47.6022 63.9476,48.4922 65.5596,49.4382 L64.1696,53.1092 C63.0016,52.4422 60.7206,51.2182 57.1606,51.2182 C52.8776,51.2182 51.2646,53.7772 51.2646,56.0012 C51.2646,58.8942 53.3226,60.3402 58.1616,62.3422 C63.8906,64.6792 66.7836,67.5722 66.7836,72.5222 C66.7836,76.9162 63.7246,81.0332 57.9956,81.9782 L57.9956,87.7632 L54.4906,87.7632 Z" id="Fill-28" fill="#79B2C4"></path>
                        <path d="M105.2259,51.3179 L78.2169,51.3179 C77.5119,51.3179 76.9409,50.7469 76.9409,50.0429 C76.9409,49.3379 77.5119,48.7659 78.2169,48.7659 L105.2259,48.7659 C105.9309,48.7659 106.5019,49.3379 106.5019,50.0429 C106.5019,50.7469 105.9309,51.3179 105.2259,51.3179" id="Fill-30" fill="#B6B7AE"></path>
                        <path d="M105.2259,58.7612 L78.2169,58.7612 C77.5119,58.7612 76.9409,58.1902 76.9409,57.4862 C76.9409,56.7812 77.5119,56.2092 78.2169,56.2092 L105.2259,56.2092 C105.9309,56.2092 106.5019,56.7812 106.5019,57.4862 C106.5019,58.1902 105.9309,58.7612 105.2259,58.7612" id="Fill-32" fill="#B6B7AE"></path>
                        <path d="M105.2259,66.2056 L78.2169,66.2056 C77.5119,66.2056 76.9409,65.6336 76.9409,64.9296 C76.9409,64.2246 77.5119,63.6526 78.2169,63.6526 L105.2259,63.6526 C105.9309,63.6526 106.5019,64.2246 106.5019,64.9296 C106.5019,65.6336 105.9309,66.2056 105.2259,66.2056" id="Fill-34" fill="#B6B7AE"></path>
                        <path d="M105.2259,73.6489 L78.2169,73.6489 C77.5119,73.6489 76.9409,73.0779 76.9409,72.3729 C76.9409,71.6679 77.5119,71.0959 78.2169,71.0959 L105.2259,71.0959 C105.9309,71.0959 106.5019,71.6679 106.5019,72.3729 C106.5019,73.0779 105.9309,73.6489 105.2259,73.6489" id="Fill-36" fill="#B6B7AE"></path>
                        <path d="M100.7596,80.9819 L78.2166,80.9819 C77.5726,80.9819 77.0516,80.4599 77.0516,79.8159 C77.0516,79.1719 77.5726,78.6499 78.2166,78.6499 L100.7596,78.6499 C101.4036,78.6499 101.9256,79.1719 101.9256,79.8159 C101.9256,80.4599 101.4036,80.9819 100.7596,80.9819" id="Fill-38" fill="#B6B7AE"></path>
                        <path d="M106.5018,94.8481 L45.8908,94.8481 C45.1868,94.8481 44.6148,94.2771 44.6148,93.5721 C44.6148,92.8681 45.1868,92.2961 45.8908,92.2961 L106.5018,92.2961 C107.2068,92.2961 107.7778,92.8681 107.7778,93.5721 C107.7778,94.2771 107.2068,94.8481 106.5018,94.8481" id="Fill-40" fill="#B6B7AE"></path>
                        <path d="M106.5018,102.2915 L45.8908,102.2915 C45.1868,102.2915 44.6148,101.7205 44.6148,101.0155 C44.6148,100.3115 45.1868,99.7395 45.8908,99.7395 L106.5018,99.7395 C107.2068,99.7395 107.7778,100.3115 107.7778,101.0155 C107.7778,101.7205 107.2068,102.2915 106.5018,102.2915" id="Fill-42" fill="#B6B7AE"></path>
                        <path d="M106.5018,109.7349 L45.8908,109.7349 C45.1868,109.7349 44.6148,109.1639 44.6148,108.4599 C44.6148,107.7549 45.1868,107.1829 45.8908,107.1829 L106.5018,107.1829 C107.2068,107.1829 107.7778,107.7549 107.7778,108.4599 C107.7778,109.1639 107.2068,109.7349 106.5018,109.7349" id="Fill-44" fill="#B6B7AE"></path>
                        <path d="M106.5018,117.1782 L45.8908,117.1782 C45.1868,117.1782 44.6148,116.6072 44.6148,115.9032 C44.6148,115.1982 45.1868,114.6262 45.8908,114.6262 L106.5018,114.6262 C107.2068,114.6262 107.7778,115.1982 107.7778,115.9032 C107.7778,116.6072 107.2068,117.1782 106.5018,117.1782" id="Fill-46" fill="#B6B7AE"></path>
                        <path d="M96.4793,124.6216 L45.8913,124.6216 C45.1863,124.6216 44.6153,124.0506 44.6153,123.3466 C44.6153,122.6416 45.1863,122.0696 45.8913,122.0696 L96.4793,122.0696 C97.1843,122.0696 97.7553,122.6416 97.7553,123.3466 C97.7553,124.0506 97.1843,124.6216 96.4793,124.6216" id="Fill-48" fill="#B6B7AE"></path>
                    </g>
                </g>
            </g>
        </g>
    </g>
</svg>