<?xml version="1.0" encoding="UTF-8" standalone="no"?>
<svg width="18px" height="18px" viewBox="0 0 18 18" version="1.1" xmlns="http://www.w3.org/2000/svg" xmlns:xlink="http://www.w3.org/1999/xlink">
    <!-- Generator: Sketch 49 (51002) - http://www.bohemiancoding.com/sketch -->
    <title>home icon</title>
    <desc>Created with Sketch.</desc>
    <defs></defs>
    <g id="Page-1" stroke="none" stroke-width="1" fill="none" fill-rule="evenodd">
        <g id="Home-page-2" transform="translate(-1155.000000, -16.000000)" fill="#25334D">
            <g id="header" transform="translate(1000.000000, 11.000000)">
                <g id="home-icon" transform="translate(155.000000, 5.000000)">
                    <path d="M12.9867878,4.98955591 L9.00163898,1.08477541 L5.01720196,4.98955591 L1.54665624,8.38817502 L3.03779514,8.38817502 C3.27908206,8.38817502 3.47695156,8.59558139 3.47695156,8.8501596 L3.47695156,17.0767796 L6.01366709,17.0767796 L6.01366709,10.7565011 C6.01366709,10.5026717 6.20584251,10.2937678 6.44712943,10.2937678 L11.5511662,10.2937678 C11.7924531,10.2937678 11.9910344,10.5026717 11.9910344,10.7565011 L11.9910344,17.0760308 L14.5270382,17.0760308 L14.5270382,8.84941084 C14.5270382,8.59558139 14.7192136,8.38742626 14.9597887,8.38742626 L16.4573335,8.38742626 L12.9867878,4.98955591 Z M9.29844324,0.12711208 L13.5803963,4.31866745 L17.8623493,8.51097157 C18.0353072,8.68618128 18.0474071,8.97295615 17.8865492,9.16164353 C17.8004261,9.25898225 17.6822738,9.30465658 17.5655451,9.30465658 L17.5655451,9.31064666 L15.3996569,9.31064666 L15.3996569,17.5380154 C15.3996569,17.7918449 15.2017874,18 14.9597887,18 L11.5511662,18 C11.310591,18 11.1184156,17.7918449 11.1184156,17.5380154 L11.1184156,11.2117469 L6.88628585,11.2117469 L6.88628585,17.5380154 C6.88628585,17.7918449 6.68770458,18 6.44712943,18 L3.03779514,18 C2.79650823,18 2.60504457,17.7918449 2.60504457,17.5380154 L2.60504457,9.31064666 L0.432750573,9.31064666 C0.191463658,9.31064666 0,9.10324029 0,8.84941084 C0,8.70639779 0.0619231906,8.57611364 0.160857943,8.49150383 L4.42359344,4.31941621 L8.70483472,0.121122005 C8.87209851,-0.0413587946 9.13189121,-0.0413587946 9.29844324,0.12711208 Z" id="Fill-1"></path>
                </g>
            </g>
        </g>
    </g>
</svg>