<?xml version="1.0" encoding="UTF-8" standalone="no"?>
<svg width="20px" height="20px" viewBox="0 0 20 20" version="1.1" xmlns="http://www.w3.org/2000/svg" xmlns:xlink="http://www.w3.org/1999/xlink">
    <!-- Generator: Sketch 49 (51002) - http://www.bohemiancoding.com/sketch -->
    <title>Notification</title>
    <desc>Created with Sketch.</desc>
    <defs></defs>
    <g id="Page-1" stroke="none" stroke-width="1" fill="none" fill-rule="evenodd">
        <g id="Home-page-2" transform="translate(-1193.000000, -15.000000)" fill="#25334D">
            <g id="header" transform="translate(1000.000000, 11.000000)">
                <g id="Notification" transform="translate(193.000000, 4.000000)">
                    <path d="M1.00191936,15 C4.00104952,12 4.00104952,10 4.00104952,7 C4.00104952,3.68666667 6.68685017,1 9.99930985,1 C13.3126029,1 15.9984035,3.68666667 15.9992368,7 C15.9992368,10 15.9992368,12 18.9975337,15 L1.00191936,15 Z M10.0001432,19 C8.62015997,19 7.5001736,17.88 7.5001736,16.5 L7.55100632,16 L12.4484467,16 L12.4992794,16.5 C12.4992794,17.88 11.3809597,19 10.0001432,19 Z M19.7050251,14.2925 C17.3525537,11.94 16.9983913,10.7591667 16.9983913,7 C16.9983913,3.13416667 13.8650961,0 9.99930985,0 C6.13435689,0 3.00106169,3.13416667 3.00106169,7 C3.00106169,9.0275 2.94689569,9.78333333 2.66856574,10.7125 C2.32106997,11.87 1.60857864,12.9775 0.294427969,14.2925 C-0.33473104,14.9225 0.111096867,16 1.00191936,16 L6.55018517,16 L6.50018577,16.5 C6.50018577,18.4325 8.06683337,20 9.99930985,20 C11.9317863,20 13.4992673,18.4325 13.4992673,16.5 L13.4484345,16 L18.9975337,16 C19.8891895,16 20.3350174,14.9225 19.7050251,14.2925 Z" id="Fill-1"></path>
                </g>
            </g>
        </g>
    </g>
</svg>