<?xml version="1.0" encoding="UTF-8" standalone="no"?>
<svg width="18px" height="18px" viewBox="0 0 18 18" version="1.1" xmlns="http://www.w3.org/2000/svg" xmlns:xlink="http://www.w3.org/1999/xlink">
    <!-- Generator: Sketch 49 (51002) - http://www.bohemiancoding.com/sketch -->
    <title>search icon</title>
    <desc>Created with Sketch.</desc>
    <defs></defs>
    <g id="Page-1" stroke="none" stroke-width="1" fill="none" fill-rule="evenodd">
        <g id="Home-page-2" transform="translate(-1117.000000, -16.000000)" fill="#25334D">
            <g id="header" transform="translate(1000.000000, 11.000000)">
                <g id="search-icon" transform="translate(117.000000, 5.000000)">
                    <path d="M1.07423499,7.67475 C1.07423499,4.03425 4.03588285,1.07775 7.6726784,1.07775 C11.3132248,1.07775 14.271872,4.03875 14.271872,7.67475 C14.271872,11.31075 11.3132248,14.27625 7.6726784,14.27625 C4.03588285,14.27625 1.07423499,11.31525 1.07423499,7.67475 M17.8441534,17.082 L13.4691964,12.70725 C14.6432032,11.358 15.3536086,9.5985 15.3536086,7.67475 C15.3536086,3.44025 11.9081049,0 7.67717938,0 C3.44100272,0 0,3.444 0,7.67475 C0,11.9055 3.4455037,15.3495 7.67717938,15.3495 C9.6013503,15.3495 11.3612353,14.63925 12.7107805,13.46625 L17.0864877,17.84025 C17.1892602,17.94375 17.3295408,18 17.4653205,18 C17.6011002,18 17.7406308,17.9475 17.8441534,17.84025 C18.0519489,17.6325 18.0519489,17.289 17.8441534,17.082" id="Fill-1"></path>
                </g>
            </g>
        </g>
    </g>
</svg>