<?xml version="1.0" encoding="UTF-8" standalone="no"?>
<svg width="250px" height="67px" viewBox="0 0 250 67" version="1.1" xmlns="http://www.w3.org/2000/svg" xmlns:xlink="http://www.w3.org/1999/xlink">
    <!-- Generator: Sketch 50.2 (55047) - http://www.bohemiancoding.com/sketch -->
    <title>logo</title>
    <desc>Created with Sketch.</desc>
    <defs>
        <polygon id="path-1" points="0.494155509 0.318262118 13.8742495 0.318262118 13.8742495 16.6209275 0.494155509 16.6209275"></polygon>
    </defs>
    <g id="Authentication" stroke="none" stroke-width="1" fill="none" fill-rule="evenodd">
        <g id="Login" transform="translate(-515.000000, -292.000000)">
            <g id="login-button" transform="translate(460.000000, 252.000000)">
                <g id="Group" transform="translate(43.000000, 40.000000)">
                    <g id="logo" transform="translate(12.000000, 0.000000)">
                        <path d="M63.1637748,33.2188528 C61.6243705,32.6237572 60.0902458,32.017348 58.546316,31.4373373 C56.8394703,30.7954788 55.1280991,30.1664424 53.4091856,29.559279 C53.068269,29.4393548 52.9166667,29.2945407 52.9355227,28.921946 C53.0252773,27.1781425 52.8216324,25.4479154 52.6157248,23.7222137 C52.2763167,20.8719398 51.0582187,18.4417777 48.9780241,16.4649139 C46.7311424,14.3281513 43.9676061,13.3031388 40.9732723,12.7193568 C38.8070942,12.2969823 36.6741028,11.7033952 34.5207469,11.2116306 C32.8214436,10.8224426 31.1093182,10.484543 29.4077522,10.1013889 C27.8713648,9.75443838 26.3455367,9.35921649 24.8068866,9.01829989 C23.21016,8.66456121 21.605891,8.34174639 20.0008677,8.02270276 C19.3514668,7.89297343 18.7639137,7.51057362 17.9350036,7.70893881 C25.8334076,14.8267041 33.7310573,21.9444694 41.628707,29.0622347 C41.6045713,29.1391672 41.5796814,29.2160997 41.5547915,29.2930322 C27.7114658,26.2866306 13.8688944,23.2794747 -7.54240256e-05,20.2677933 C1.04530157,17.8021819 2.39463739,15.5334272 3.95138928,13.3695119 C5.69217579,10.9499092 7.77840434,8.86820608 10.1052355,7.04671587 C12.7428137,4.98236028 15.6466387,3.36828614 18.8001172,2.16678141 C21.2823219,1.22020989 23.831654,0.58287687 26.4383083,0.276655326 C29.6219564,-0.0966936008 32.8146554,-0.0657697503 36.0118798,0.490859559 C38.4691946,0.919268024 40.8277039,1.59355881 43.1319079,2.50241832 C46.1277502,3.68280432 48.8309472,5.35797193 51.3561436,7.34539501 C54.267511,9.6367769 56.7052155,12.3799487 58.6790623,15.4776134 C60.3942046,18.1694969 61.6779215,21.1034915 62.5128655,24.2185038 C63.3010466,27.1630577 63.7392601,30.1370271 63.6329123,33.1864204 C63.4767845,33.1969798 63.3199026,33.2075392 63.1637748,33.2188528" id="Fill-1" fill="#EAB603"></path>
                        <path d="M63.1637748,33.2188528 C63.3199026,33.2075392 63.4767845,33.1969798 63.6329123,33.1864204 C63.807896,37.8853372 62.7512054,42.3247954 60.9116134,46.6254733 C59.6309135,49.6205614 57.9255762,52.3539281 55.8038984,54.7855986 C53.4725418,57.4556091 50.8168618,59.7899827 47.7395616,61.6220323 C44.0799879,63.8010324 40.1609555,65.2589788 35.9764306,65.9528799 C33.1344533,66.4235258 30.2653233,66.4808481 27.3788459,66.2146012 C23.2184566,65.8314472 19.2866022,64.706875 15.5704604,62.8318337 C13.1259678,61.5971424 10.8873827,60.0517041 8.79964564,58.261892 C6.07759256,55.9290269 3.86012621,53.2047111 2.02656814,50.1432499 C1.33870103,48.994542 0.761707235,47.7900203 0.184713439,46.5839901 C-0.00158390454,46.1940479 0.094204608,46.1246578 0.505265548,46.0379201 C4.31870428,45.2354085 8.12384638,44.3914137 11.9335139,43.5708003 C17.3142639,42.4107788 22.7010478,41.271876 28.0787808,40.0997866 C32.4473404,39.1479354 36.8076033,38.1591264 41.1723917,37.1921904 C41.302121,37.1627751 41.4431639,37.1884192 41.7063938,37.1884192 C40.9868486,38.1621434 40.0583788,38.7934425 39.2430451,39.5069538 C38.4850336,40.1706852 37.7458782,40.8630778 36.9878667,41.5268092 C34.4604076,43.7374874 32.0113895,46.0379201 29.5223967,48.2930985 C27.3192609,50.2903267 25.10632,52.2777498 22.8903621,54.2598932 C21.5485687,55.4606437 20.1939532,56.6470636 18.8400919,57.8334835 C18.5082262,58.1246203 18.2208607,58.4474351 17.8980459,58.9452337 C18.6937693,58.7770381 19.3838992,58.6382579 20.071012,58.4836386 C24.8023612,57.4201599 29.5465324,56.4109864 34.257517,55.2675582 C37.5671233,54.4650465 40.9483823,53.9446208 44.1803018,52.8343791 C48.7872013,51.2504746 51.5914666,48.0260975 52.5478432,43.2796635 C52.8902683,41.5773433 53.0426248,39.8124211 52.9166667,38.0625837 C52.8616072,37.3000468 53.1346421,36.9606387 53.8285432,36.7117394 C56.8598348,35.6256334 59.8737788,34.4912561 62.8930026,33.3719635 C62.9887911,33.3365142 63.073266,33.2701411 63.1637748,33.2188528" id="Fill-4" fill="#48B1FB"></path>
                        <path d="M98.1288446,27.9108115 C97.6159612,28.1431175 97.0857303,28.342237 96.5947199,28.6137634 C95.1993755,29.3830885 95.0990615,31.6789958 96.400126,32.5199737 C98.4411001,33.8398942 101.681316,33.0434165 102.742532,31.0944596 C103.297653,30.0754811 103.6529,28.9509088 103.359501,27.742616 C103.291619,27.7011327 103.223738,27.6242002 103.155856,27.6242002 C101.61268,27.6159036 100.069505,27.6166578 98.5263292,27.6159036 C98.3211759,27.6159036 98.1446837,27.6558783 98.1288446,27.9108115 M122.830213,20.716868 C123.314435,19.7974491 124.266286,19.5953127 125.120841,19.3999645 C126.868415,19.0017256 128.594871,19.1412601 130.257971,19.9317039 C131.918808,20.7229019 132.492031,22.1612381 132.542565,23.8115157 C132.626285,26.5230095 132.595362,29.2390286 132.548599,31.9512766 C132.535022,32.6979744 132.726599,32.9936366 133.48084,32.8865345 C133.774993,32.8450513 134.081215,32.8940769 134.382157,32.9016193 C134.410818,32.9770433 134.429674,33.1112981 134.471157,33.1188405 C135.269143,33.2591292 135.048151,33.8632756 134.996108,34.3392012 C134.933506,34.9018645 134.47342,34.8611355 134.049537,34.8588728 C132.404539,34.8528388 130.759541,34.8573643 129.114543,34.85661 C127.14673,34.8558558 127.14673,34.8558558 127.109018,32.9106702 C127.765961,32.8986023 128.423659,32.863153 129.079848,32.8835175 C129.482612,32.8963396 129.592731,32.7439831 129.591223,32.3630918 C129.577646,29.7036406 129.639494,27.0419268 129.554265,24.3847383 C129.511273,23.0482246 128.634846,22.1717974 127.42957,21.6408123 C126.952136,21.197319 125.45874,21.2018444 124.98206,21.6491089 C122.855103,22.324154 121.928896,24.0076182 121.861014,25.9316851 C121.786344,28.0443121 121.855735,30.1614645 121.836879,32.2763541 C121.833107,32.7206016 121.928896,32.9182126 122.419906,32.888043 C122.993129,32.8525937 123.570877,32.9008651 124.147117,32.9129329 C124.214998,33.0275774 124.286651,33.1399592 124.349253,33.2561122 C124.782187,34.0616408 124.478982,34.8543473 123.727759,34.8551016 C117.066309,34.8551016 110.404105,34.8505761 103.742655,34.8468049 L103.742655,32.7243728 C102.725185,34.4040659 101.243857,35.1386959 99.3710783,35.3951376 C97.555622,35.6432826 95.8555645,35.4441632 94.2957956,34.5217274 C93.3077409,33.9379454 92.6251535,32.9710094 92.5316277,31.8313524 C92.410195,30.3590754 92.3000759,28.8347558 93.4797077,27.5978018 C94.2950414,26.7440019 95.2559435,26.2130167 96.3910751,25.9867446 C98.5466937,25.5575819 100.733236,25.6096245 102.916008,25.626972 C103.0925,25.6284805 103.267483,25.7159724 103.446238,25.7642438 C103.822604,23.6546338 103.053279,22.048102 101.408281,21.6958718 C99.184781,21.2199462 96.685983,21.6113969 96.0931502,23.6538795 C95.3366472,23.8235836 94.5914578,24.0860592 93.7987513,23.9699062 C93.5045976,23.9276687 93.1139012,23.9751859 93.1304944,23.4856839 C93.4631144,21.1875139 94.6533055,20.2424508 96.8096784,19.5387447 C97.3768671,19.3539558 97.9742254,19.3185065 98.5723379,19.3471677 C99.4125615,19.3471677 100.252785,19.3471677 101.093009,19.3471677 C102.917516,19.4256086 104.582124,19.8502459 105.634289,21.5246593 C106.185639,22.4010865 106.325928,23.4057345 106.337241,24.4081198 C106.368165,26.9883757 106.36364,29.5693859 106.335733,32.150396 C106.329699,32.715322 106.471496,32.9121787 107.061312,32.8895515 C108.240189,32.844297 109.422084,32.8654158 110.60247,32.885026 C110.985624,32.8910599 111.129684,32.7756612 111.128175,32.3766681 C111.115353,29.0270871 111.113091,25.6775061 111.125913,22.3279252 C111.127421,21.9025336 110.937353,21.8165503 110.578334,21.8361605 C110.277392,21.8527538 109.972679,21.8633132 109.673246,21.8338978 C109.245592,21.7909061 108.640691,22.0677123 108.426487,21.7139736 C108.122528,21.2124038 108.344275,20.54113 108.332207,19.9430175 C108.326173,19.6066263 108.633903,19.6926097 108.831514,19.6918555 C110.36941,19.6865758 111.907306,19.7182539 113.443693,19.6790334 C114.016916,19.6639486 114.121001,19.8773986 114.115721,20.3887735 C114.090831,22.613028 114.102899,24.8365282 114.101391,27.0607828 C114.101391,28.7623488 114.128543,30.4654233 114.085551,32.1669893 C114.071221,32.7620849 114.260535,32.9099159 114.823953,32.8903057 C115.976432,32.850331 117.130419,32.8586276 118.282899,32.8887972 C118.749773,32.9016193 118.886291,32.7537882 118.883274,32.288422 C118.865926,29.0210532 118.865926,25.7544386 118.884028,22.4870698 C118.886291,22.0005849 118.773909,21.7826094 118.245186,21.8293723 C117.727023,21.875381 117.200564,21.8127791 116.681646,21.8519995 C116.156695,21.8919743 116.044313,21.6634395 116.042051,21.1837427 C116.036771,19.6880843 116.018669,19.6888385 117.473599,19.690347 C118.653985,19.6918555 119.836633,19.7242878 121.014757,19.6760164 C121.585717,19.652635 121.703378,19.8645765 121.703378,20.3759514 C121.703378,20.9069365 121.556301,21.4582861 121.818777,21.9734322 C122.483262,21.818813 122.782696,21.3692858 122.830213,20.716868" id="Fill-6" fill="#0675B9"></path>
                        <path d="M190.725035,29.898838 C191.16174,29.5390654 191.253003,27.9166946 190.85401,27.5742695 C190.780849,27.5116676 190.743137,27.4023027 190.596814,27.4430317 C189.344776,27.7884738 188.062567,27.5033709 186.799215,27.6127358 C186.55107,27.6338545 186.221467,27.4980913 186.145288,27.9076437 C185.187403,28.059246 184.186526,28.2372467 183.558999,29.0126057 C182.756487,30.0044316 182.789674,31.1267411 183.504693,32.2037962 C183.549193,32.6095775 183.721914,32.8667734 184.139009,33.0432656 C185.155725,33.4761995 186.206382,33.6730562 187.281174,33.4852504 C187.539879,33.4407502 188.256407,33.6134713 188.103296,32.8660192 C189.374191,32.2271777 190.312466,31.2949367 190.725035,29.898838 M205.935044,33.2122154 C205.95918,33.1149184 205.960688,32.9489856 206.011977,32.9323923 C206.162825,32.8818582 206.332529,32.8894006 206.495445,32.8758243 C207.167473,32.8192563 208.087646,33.1835543 208.445156,32.7091372 C208.779284,32.2663982 208.550749,31.3929879 208.553012,30.708892 C208.558292,28.7878421 208.556029,26.8660379 208.556029,24.944988 C208.555275,23.2253202 207.88023,22.2629096 206.251071,21.6565005 C205.803806,21.206219 204.74787,21.1971682 204.27119,21.6399072 C202.619404,21.8435521 201.264034,23.2011845 200.954796,24.9600728 C200.513565,25.0626495 200.651591,25.425439 200.650083,25.6969655 C200.638015,27.8827538 200.638015,30.0677878 200.639523,32.2535761 C200.639523,32.4602379 200.566362,32.7008405 200.808473,32.843392 C201.350018,32.8547056 201.891562,32.8720531 202.432353,32.8758243 C203.46717,32.8833667 203.620281,33.0387402 203.614247,34.1074986 C203.612739,34.2425076 203.598408,34.3775166 203.590111,34.5132799 C203.27333,34.563814 203.105889,34.8775779 202.714438,34.8738067 C199.152916,34.8443914 195.590639,34.8519338 192.028362,34.8647558 C191.567522,34.8662643 191.400835,34.7003315 191.397063,34.2425076 C191.393292,33.7922262 191.556962,33.3147921 191.265071,32.8894006 C191.240181,32.7566543 191.215291,32.623908 191.183613,32.4557125 C189.731701,35.1619265 187.373946,35.7170473 184.590045,35.3889528 C183.555982,35.2667659 182.60941,35.0321972 181.697534,34.4868815 C180.044993,33.4973183 179.642229,31.2851316 179.937891,29.744973 C180.43041,27.1903612 182.414816,26.2649084 184.150323,25.949636 C186.126432,25.5906177 188.110839,25.5898634 190.102787,25.6532196 C190.178211,26.0725772 190.488204,25.9692463 190.742383,25.914941 C190.989774,25.8621441 191.078774,25.6539738 191.078774,25.4148797 C191.078774,24.7051396 191.118749,23.9908741 191.058409,23.2856594 C190.991282,22.5012496 190.438424,22.0147646 189.733209,22.0011883 C187.943397,21.3510332 186.204873,21.3329314 184.461824,22.2350028 C183.95422,22.4982326 183.814686,22.8776155 183.64649,23.3143206 C183.133607,23.2336169 183.078548,23.9433569 182.864343,23.9312891 C182.09351,23.8875432 181.276668,24.0715778 180.551088,23.645432 L180.557877,23.321863 C181.030031,22.9243783 181.245744,22.4235628 181.171828,21.8050858 C181.791059,20.4881823 182.945047,19.8817732 184.264967,19.5333142 C184.810283,19.3885 185.379735,19.3055336 185.954466,19.3470168 C186.790164,19.3485253 187.626616,19.3500338 188.46156,19.3515423 C189.945905,19.3025166 191.267334,19.7309251 192.403974,20.6993696 C192.333075,21.444559 193.139358,21.768128 193.254003,22.4665545 C193.289452,22.6898096 193.171036,23.240405 193.694479,23.3067782 C193.70353,26.2407728 193.729174,29.1755216 193.70881,32.1095162 C193.704284,32.6955609 193.802336,32.9391805 194.457016,32.8916633 C195.358333,32.8267987 196.267947,32.8547056 197.171527,32.8886464 C197.651224,32.9067481 197.842801,32.7981375 197.838275,32.2633812 C197.812631,28.9997836 197.813385,25.7354318 197.835258,22.4718342 C197.838275,21.9664932 197.701003,21.7658653 197.190383,21.8337469 C196.948272,21.8661793 196.697864,21.8390266 196.451227,21.8390266 C194.984984,21.8390266 194.984984,21.8390266 195.062671,20.3509106 C196.482905,20.3509106 197.90314,20.3659954 199.321866,20.3426139 C199.797037,20.3343173 200.2262,20.4037074 200.614634,20.6797593 C200.634244,21.0764897 200.653854,21.4732201 200.678744,21.9823323 C201.774655,20.1389691 203.289924,19.2399147 205.347491,19.3470168 C206.580674,19.4118815 207.811594,19.2384062 209.021395,19.8146458 C210.796123,20.6609033 211.472676,22.1067819 211.510388,23.9116788 C211.566956,26.5990369 211.556397,29.2901661 211.501337,31.9782784 C211.484744,32.761934 211.739677,32.9587907 212.458468,32.8901549 C213.162174,32.8230275 213.905855,32.78079 214.147966,33.7122767 C213.992593,33.7907177 213.843253,33.9144131 213.862109,34.0826087 C213.951864,34.8730525 213.472167,34.871544 212.894419,34.8647558 C210.91831,34.8413744 208.9422,34.8330778 206.966845,34.8670186 C206.372504,34.8775779 206.2028,34.6731788 206.21713,34.1112698 C206.225427,33.8095737 206.467538,33.3683432 205.935044,33.2122154" id="Fill-8" fill="#0575BA"></path>
                        <path d="M156.962526,31.3461496 C156.764161,31.8288634 156.694771,32.3070517 157.014569,32.7656298 C157.103569,32.2897042 157.191815,31.8175498 156.962526,31.3461496 M168.642691,32.9029015 C168.779962,32.8946049 168.917234,32.8893252 169.053752,32.8787658 C169.673737,32.828986 170.520749,33.1533093 170.85186,32.7339517 C171.163362,32.3402383 170.964242,31.5301842 170.964996,30.9034106 C170.968768,28.1300692 170.950666,25.3567277 170.973293,22.5826321 C170.977819,22.045613 170.897869,21.7876629 170.273358,21.8238664 C169.65639,21.8585614 168.847844,22.1014268 168.455639,21.7077134 C168.061926,21.3117373 168.344766,20.5077171 168.335715,19.8832062 C168.316859,18.620608 168.308562,17.3565014 168.34024,16.0946574 C168.353817,15.5862995 168.251994,15.3856716 167.679526,15.3924597 C164.933337,15.4248921 162.187903,15.4211209 159.441714,15.3947224 C158.908466,15.3894428 158.747813,15.5274687 158.757618,16.0720302 C158.796084,18.4328022 158.789296,20.7943284 158.798347,23.1551004 C160.085081,23.5284494 161.40123,23.2214736 162.700032,23.3112282 C162.923287,23.3270672 163.196322,23.4115421 163.357729,23.1400156 C163.367534,22.2364358 163.405246,21.3321017 163.375831,20.4292762 C163.359992,19.9518421 163.522908,19.8439857 163.979223,19.8349348 C166.029248,19.7964686 166.030757,19.7813838 166.024723,21.8555445 C166.01718,24.101672 166.005113,26.3470452 165.996062,28.5931727 L163.413543,28.5931727 C163.393179,27.5530754 163.373568,26.5137323 163.354712,25.4743892 C162.509209,25.0934979 161.613926,25.4072618 160.749566,25.2926173 C160.182378,24.6213435 159.429646,24.9690483 158.797593,25.0429638 C158.285464,25.1017945 158.111234,25.6184491 158.084836,26.2233498 C158.004886,28.0320179 158.447625,29.8723642 157.798224,31.6561424 C157.734114,31.8333888 157.66397,32.1456443 157.949072,32.2942296 C158.251523,32.1720427 157.952844,31.7315664 158.307337,31.6448288 C158.507964,31.8379143 158.491371,32.0988814 158.417456,32.2693397 C158.033547,33.1487838 158.777982,33.1065464 159.209408,33.1864958 C159.713995,33.2785132 160.250259,33.2347672 160.769931,33.2015807 C161.294128,33.1676398 161.437434,33.403717 161.413298,33.8841681 C161.383128,34.4988739 160.918516,34.8495956 160.012674,34.8526126 C157.871386,34.8594007 155.730098,34.8609092 153.589564,34.8473329 C153.32558,34.8458244 152.882086,35.0094945 152.878315,34.5448825 C152.87379,34.0169144 153.355749,34.2092456 153.636327,34.2062287 C155.693894,34.1903896 157.75297,34.2017032 159.811292,34.1934066 C160.089606,34.1926523 160.394319,34.2718476 160.647744,33.9784481 C159.993818,34.219805 159.483951,33.2460808 158.793067,33.8298628 C158.75083,33.8660663 158.595456,33.8487188 158.566795,33.8057271 C158.34882,33.4866835 158.246997,33.5726669 157.935496,33.7846084 C157.540274,34.0553806 156.892382,33.9754312 156.519787,33.736337 C155.944302,33.3675135 156.927077,33.6194298 156.764161,33.3199964 C156.727203,33.2513605 156.71061,33.1276651 156.663093,33.1155973 C155.768564,32.8870625 156.140404,32.2331362 156.231667,31.7277952 C156.304074,31.3288021 156.177362,31.2239627 155.830412,31.2292424 C155.820606,26.2603076 155.794208,21.2913728 155.820606,16.322438 C155.825132,15.5734774 155.640343,15.311756 154.885348,15.3924597 C154.260838,15.4588329 153.621996,15.3803919 152.992205,15.4135785 C152.520805,15.4392226 152.323949,15.3426799 152.319423,14.7988726 C152.307355,13.0957981 152.280203,13.0965524 153.98026,13.0965524 C159.389671,13.0957981 164.799082,13.1040948 170.207739,13.0807133 C170.799818,13.0776964 171.007988,13.1870612 170.989132,13.8334451 C170.935581,15.5614095 170.991395,17.2931452 170.958208,19.0218638 C170.947649,19.5634083 171.118107,19.7082225 171.647584,19.706714 C172.346765,19.7044513 173.284285,19.3725856 173.684787,19.8628417 C174.024195,20.2791823 173.773787,21.1767282 173.785101,21.8608242 C173.786609,21.95435 173.785101,22.0471215 173.785101,22.2424697 C174.772401,20.1879193 176.275602,19.2285257 178.487035,19.336382 C180.039261,19.4110518 180.043032,19.3469414 180.049066,20.8810661 C180.050575,21.2363132 180.049066,21.5915604 180.049066,22.0199689 C179.19602,21.7439169 178.474967,21.445992 177.563844,21.6202215 C175.86605,21.9452991 174.417154,23.4402033 174.110178,25.3476769 C173.730041,27.7174997 174.036263,30.1039159 173.933686,32.4797727 C173.918601,32.8252148 174.085288,32.8915879 174.381705,32.8832913 C174.902131,32.8697149 175.424819,32.8749946 175.945999,32.8810285 C176.940842,32.8908337 177.250835,33.2166655 177.212369,34.2001948 C176.801308,34.9785707 176.078745,34.8646804 175.377302,34.860155 C173.386108,34.8473329 171.395668,34.8594007 169.404473,34.8541211 C168.325156,34.8518583 167.958595,34.1564488 168.515224,33.1925298 C168.568775,33.1020209 168.601208,32.9994443 168.642691,32.9029015" id="Fill-10" fill="#0376BA"></path>
                        <path d="M84.2740545,12.7557112 C85.7938486,12.8597964 86.9546244,13.6268587 87.9509758,14.7272952 C87.9698318,14.7061765 88.0165947,14.6775154 88.0248913,14.6413119 C88.1342561,14.1420048 87.7888141,13.3251626 88.1862987,13.1901536 C88.8749201,12.9555849 89.697042,13.0928566 90.4625958,13.1177465 C90.7831479,13.1290601 90.6933933,13.4450868 90.6941476,13.6419435 C90.6994273,15.7545705 90.6850967,17.8664432 90.7009357,19.9790701 C90.7039527,20.4097413 90.5568758,20.587742 90.1337471,20.5402249 C90.0794418,20.534191 90.0243822,20.5387164 89.9693227,20.5372079 C89.3681932,20.5198604 88.6147072,20.7144544 88.2104344,20.4240719 C87.819738,20.1427403 87.9456961,19.3372117 87.8649924,18.7549382 C87.6228812,17.0149059 85.9318746,15.3993233 84.1066132,15.2703482 C82.7678367,15.1760682 81.4071873,15.1066781 80.1641994,15.8918422 C78.9604319,16.6528706 78.2363613,18.421564 78.7100241,19.7362048 C78.7522616,19.8538663 78.8887791,19.9375869 78.9815506,20.0379009 C78.9234741,20.4806399 78.8684146,20.9211162 79.5502478,20.5636063 C79.5502478,20.5636063 79.588714,20.6081065 79.5879598,20.6088608 C79.3978913,20.9248874 79.6867653,21.130795 79.8496812,21.1866088 C80.4357258,21.384974 80.9380499,21.9461287 81.6500527,21.6602717 C84.1548845,22.367749 86.7343862,22.99226 88.9262084,24.3906214 C90.4165872,25.3417184 91.489871,26.8547243 91.2092937,28.8994697 C91.109734,29.62882 91.2937686,30.3717466 91.0901237,31.116936 C90.390943,33.675319 88.5121305,34.8511795 86.1091211,35.3429442 C84.507869,35.6717929 82.8802185,35.6748099 81.2887716,35.1815367 C81.3046106,35.1294942 81.3385514,35.0329514 81.334026,35.0306887 C80.5194465,34.6935433 79.8564693,34.0464052 78.9619404,33.8759469 C78.5689812,33.7311327 78.5010996,33.3117752 78.2612512,33.0327063 C78.2280646,33.0764522 78.1805475,33.1111472 78.179039,33.1465965 C78.1156828,35.2494184 78.1171913,35.2396132 75.9713778,35.0412481 C75.6108509,35.0080615 75.5097827,34.8866288 75.5112912,34.544958 C75.5195879,32.4044241 75.5188336,30.2638903 75.5045031,28.1233564 C75.5022403,27.7402024 75.6168849,27.5508881 76.0196491,27.6067019 C76.0732002,27.6142443 76.129014,27.6067019 76.1840735,27.6051934 C78.0749538,27.5584305 78.0749538,27.5584305 78.5018538,29.3640817 C78.9943727,31.4427678 80.775134,32.8147308 82.9028457,32.8901549 C84.6127084,32.9512483 86.1920875,32.705366 87.5316182,31.5536411 C88.4683846,31.2828689 88.1704597,30.5165608 88.2036462,29.8829989 C88.2013835,28.0004153 87.4162194,26.9723858 85.6776956,26.2830102 C83.111016,25.2655401 80.3693527,24.7239956 77.92486,23.3678716 C76.650194,22.6603943 75.8929368,21.6444326 75.6523341,20.2219355 C75.6545969,19.2082366 75.6561053,18.1945377 75.6583681,17.1808388 C76.012861,14.6586594 78.857101,12.7873893 81.1002115,12.7557112 L84.2740545,12.7557112 Z" id="Fill-12" fill="#0675B8"></path>
                        <g id="Group-16" transform="translate(236.077200, 18.856006)">
                            <mask id="mask-2" fill="white">
                                <use xlink:href="#path-1"></use>
                            </mask>
                            <g id="Clip-15"></g>
                            <path d="M0.829588858,3.82196165 C1.33945527,1.68444476 3.0674197,1.01015398 4.89494384,0.547804698 C6.41624644,0.162387927 7.94886264,0.268735803 9.44452106,0.81857695 C10.1225831,1.06747623 10.5517458,1.63994459 11.1317565,2.06910729 C11.2833588,0.833661755 11.2833588,0.833661755 12.5761266,0.835170236 C13.6961734,0.835924476 13.6946649,0.835924476 13.6931564,1.96200518 C13.6924022,3.00511945 13.6584614,4.04974221 13.7112582,5.08983952 C13.745199,5.74225734 13.6041561,6.0861909 12.878577,5.95797006 C12.6922796,5.92478348 12.4939144,5.94062253 12.3030916,5.95495309 C11.632572,6.00397871 11.1536295,6.01453807 11.155138,5.03100878 C11.1574007,4.19908178 10.3978807,3.65150335 9.73113236,3.17029807 C9.720573,3.11674701 9.73037812,3.04056874 9.69794579,3.0134161 C9.06815518,2.47865975 6.51354343,2.23730287 5.83246448,2.64911805 C5.79776943,2.67023678 5.79776943,2.74867777 5.7804219,2.80072034 C5.19513146,3.01039913 4.62869703,3.24873906 4.16710199,3.69072385 C3.31028506,4.51133724 3.47320096,5.65099427 4.49595074,6.27324248 C5.32259806,6.77556649 6.26539838,6.70466791 7.14936796,6.91736366 C7.61699692,7.02974546 8.10499037,7.05916083 8.58468717,7.12553397 C8.59449229,7.335967 8.69178929,7.55545092 8.88713751,7.56223908 C9.86237017,7.59919685 10.744077,8.13697016 11.732886,8.07813942 C13.2700276,8.61666696 13.707487,9.91471444 13.8492842,11.3243895 C14.1517345,14.3488929 11.6989452,16.2080951 9.11416383,16.5256303 C7.74144657,16.6938259 6.41775492,16.6606393 5.10085143,16.2533496 C4.19199192,15.9720179 3.46264159,15.4591346 2.99425839,14.6053346 C2.675969,14.7365724 2.86830027,14.9899971 2.82078313,15.1702605 C2.7340455,15.4930754 2.99727535,16.0504589 2.63674851,16.1190948 C1.98131373,16.2435444 1.28062453,16.1568068 0.602562541,16.1055185 C0.450206009,16.0942049 0.503002827,15.8204156 0.503002827,15.6620252 C0.499985866,14.1806973 0.51280795,12.6993695 0.494706184,11.2180416 C0.489426502,10.8167858 0.631977911,10.6915819 1.01890316,10.7134549 C1.53782046,10.742116 2.09746673,10.610124 2.57263809,10.7602178 C3.07345362,10.9186082 2.91355469,11.5763057 3.11191987,11.9926463 C3.92649935,13.6979836 5.9584226,14.6800044 7.83648084,14.2282145 C8.23094849,14.132426 8.63748399,14.0871715 9.03798557,14.0185357 C10.342067,14.0034509 11.0457731,13.2906938 11.054824,11.9760531 C11.0631207,10.585234 10.6701615,10.0957321 9.51919085,10.0655625 C7.37941124,9.55871304 5.12574136,9.66883212 3.03649585,8.91006642 C1.88627946,8.49146308 1.04379309,7.74325674 0.817521014,6.46180255 C0.821292215,5.58235841 0.825063416,4.70216003 0.829588858,3.82196165" id="Fill-14" fill="#0675B8" mask="url(#mask-2)"></path>
                        </g>
                        <path d="M216.482642,24.4994583 C216.430599,25.1662067 216.193013,25.7929803 216.10703,26.4627457 C215.892826,28.1311251 216.352158,29.631309 216.991,31.1126368 C217.211238,31.6240117 217.746748,31.832182 218.123114,32.1934631 C218.112555,32.4265234 218.218903,32.547956 218.456488,32.5449391 L218.450455,32.5396594 C218.43009,32.805152 218.652591,32.9228135 218.804193,33.056314 C219.481501,33.6506553 222.322724,33.7622829 222.901226,33.1830263 C223.054337,33.0291613 223.35377,32.9424237 223.266279,32.6218716 C223.266279,32.6218716 223.30927,32.5962274 223.30927,32.5969817 C223.715052,32.6248886 224.086138,32.6082953 224.050688,32.0448778 C224.302605,31.6013845 224.565835,31.1616625 224.804174,30.7106268 C224.970862,30.3961086 224.863005,29.8326911 225.283871,29.7791401 C226.013222,29.6863685 226.765953,29.7240805 227.502846,29.7791401 C227.771356,29.7987503 227.715542,30.1502263 227.674813,30.3410491 C227.084243,33.1136362 225.579533,34.760897 222.534666,35.357501 C220.814998,35.6954006 219.137567,35.4661116 217.518214,34.8514058 C216.610108,34.5059638 215.769885,34.0157076 215.146128,33.2312977 C215.156687,33.1332465 215.168001,33.0359495 215.17856,32.9378983 C215.086543,32.9612797 214.994526,32.9839069 214.902508,33.0065341 C214.902508,33.0065341 214.878373,32.9673136 214.879127,32.9665594 C214.838398,32.4612184 214.818788,31.9400384 214.121115,31.9023264 C214.025327,31.2996884 213.535825,30.8795766 213.400816,30.2709047 C213.290697,29.7723519 213.144374,29.2888839 213.151917,28.7729836 L213.151917,25.776387 C213.352545,22.3528905 216.222429,19.2823784 219.784706,19.3517685 C220.332284,19.3623279 220.879108,19.3736415 221.427441,19.3842009 C221.82568,19.9853303 222.429826,19.5629558 222.925362,19.6843885 C222.970616,19.6813715 223.0121,19.6911766 223.05132,19.7145581 C223.058108,20.2017973 223.272313,20.3669759 223.730891,20.1527717 C224.219638,20.4725695 224.768725,20.706384 225.194871,21.2863948 C225.194871,20.941707 225.199396,20.7048755 225.194117,20.4680441 C225.182803,19.9129233 225.479974,19.7070157 226.006433,19.68288 C227.680847,19.6067017 227.680093,19.5976508 227.680847,21.2479285 C227.680847,22.5105267 227.665008,23.7731249 227.690652,25.0349689 C227.699703,25.487513 227.57827,25.7100139 227.098573,25.6315729 C227.045777,25.622522 226.989208,25.6300644 226.934149,25.6308187 C225.370609,25.6406238 225.370609,25.6406238 224.890158,24.2037961 C224.246791,22.2804834 222.2473,21.1785384 220.260631,21.5963875 C219.758307,21.7027354 219.27861,21.8596174 218.791371,22.0006603 C218.361454,21.9923637 217.747503,21.9561601 217.580061,22.2329663 C217.14939,22.9434606 216.341599,23.5083866 216.482642,24.4994583" id="Fill-17" fill="#0675B9"></path>
                        <path d="M83.6144714,50.5236886 C83.5835476,50.8404696 83.3972502,51.0893688 83.2531903,51.3563699 C82.5932301,51.8255073 81.9310072,51.7417867 81.2672757,51.3669293 C80.5024761,49.2882431 79.7422019,47.2072942 78.9660887,45.1323793 C78.8733172,44.8827258 78.9411988,44.4233935 78.5603074,44.4550715 C78.1220939,44.4912751 78.3340354,44.9332599 78.3332811,45.1821592 C78.326493,46.8490301 78.3536456,48.5159011 78.3694847,50.1827721 C78.5391887,50.4490189 78.8144864,50.3223065 79.0445297,50.3547388 C79.2775899,50.3879254 79.5724979,50.3034505 79.6222777,50.6602061 C79.660744,50.9339953 79.6449049,51.1783692 79.4224041,51.4152006 C79.1780302,51.6754135 78.9004698,51.6746593 78.5995279,51.673905 C77.3105313,51.6708881 76.0207805,51.6693796 74.7317839,51.6663626 C74.628453,50.3373913 74.6261903,50.3155183 75.9046275,50.188806 C76.2840104,50.151094 76.3481208,50.0055256 76.3466123,49.683465 C76.3383157,47.2744216 76.3285105,44.8653782 76.3496293,42.4570891 C76.3541547,41.9675872 76.1112893,41.9555193 75.7439743,41.9479769 C74.6578684,41.9283667 74.6586226,41.9170531 74.7182076,40.7841842 C75.1043786,40.5051153 75.5342955,40.4394964 76.0049415,40.4575982 C76.656605,40.4832424 77.3120398,40.4892763 77.9629492,40.4515643 C78.6674096,40.4093268 79.2775899,40.4281828 79.4616246,41.3113982 C79.5000908,41.496187 79.6403795,41.7858153 79.9541434,41.7895865 C80.7445872,44.0477818 81.535031,46.3052229 82.3541359,48.6471389 C83.2690294,46.0457642 84.187694,43.5258476 85.0286719,40.9795324 C85.214215,40.4168692 85.46236,40.2697924 86.0001333,40.2833687 C87.207672,40.3127841 88.4174734,40.3263604 89.6235035,40.2773348 C90.4026337,40.2456567 90.1748532,40.7668367 90.186921,41.1530077 C90.1982346,41.5316363 90.3513454,41.9668329 89.6393426,41.9630617 C88.3895665,41.9570278 88.3865495,42.0037907 88.3857953,43.2852449 C88.385041,45.3443208 88.4137022,47.4041509 88.3744817,49.4624726 C88.3609053,50.1495855 88.5720926,50.4331798 89.2592055,50.3381455 C90.0504035,50.2287807 90.2834638,50.6360704 90.1703277,51.3495817 C89.7781228,51.6143201 89.3504686,51.6942695 88.8752972,51.6814474 C87.81031,51.6542948 86.7438142,51.6603287 85.678827,51.6784305 C85.2202489,51.6859729 84.8936629,51.6693796 84.9049765,51.0486399 C84.9147816,50.5191632 85.0626127,50.2883657 85.6086826,50.3471964 C85.8130818,50.3690694 86.0521759,50.4173408 86.2143376,50.204645 C86.2859904,50.1397804 86.3583975,50.0749157 86.4300503,50.010051 C86.5477118,49.9142625 86.5680762,49.7852874 86.5680762,49.642736 C86.5658135,47.8054068 86.5658135,45.9688317 86.5627966,44.1315025 C86.5627966,43.9429424 86.589195,43.7423145 86.4036519,43.6073055 C86.3666941,43.4557032 86.335016,43.2173633 86.2037782,43.5635596 C85.929989,44.2853675 85.6712846,45.0139636 85.4035293,45.7387885 C85.0158498,46.7841655 84.6266618,47.8287882 84.2382281,48.873411 C83.8135908,48.9556232 83.9493541,49.2807007 83.9455829,49.545439 C83.9455829,49.545439 83.9448286,49.5469475 83.9448286,49.5469475 C83.4666403,49.7483297 83.4417504,50.1020683 83.6144714,50.5236886" id="Fill-19" fill="#0675B9"></path>
                        <path d="M134.35078,19.7147089 C135.037139,19.7071665 135.724252,19.6724715 136.409102,19.7003784 C136.860138,19.7192344 137.044172,19.6015729 137.019282,19.1165964 C136.980062,18.3766867 137.043418,17.6314973 136.997409,16.8923419 C136.964977,16.3945433 137.154291,16.151678 137.605327,16.0098808 C138.366356,15.7707866 139.116825,15.5000144 139.98043,15.2051064 C139.98043,16.5612304 140.007582,17.8177947 139.966853,19.0720962 C139.949506,19.5978017 140.11921,19.7139547 140.6155,19.6988699 C141.822284,19.6641748 143.03284,19.7147089 144.239624,19.6800139 C144.759296,19.6656833 144.996882,19.787116 144.931263,20.349025 C144.880729,20.7834674 144.904864,21.2262064 144.895813,21.6651742 C143.517062,21.6659285 142.138311,21.6629115 140.75956,21.6719624 C140.503872,21.6742251 140.211227,21.5595806 140.012862,21.8378953 C140.003057,25.1316625 139.986464,28.4246754 139.990989,31.7184426 C139.991743,32.5360391 140.708272,33.1907196 141.53341,33.2027874 C142.183565,33.2125926 142.941577,32.463632 143.088654,31.6671543 C143.377528,30.10286 143.377528,30.1051227 144.941822,30.2356063 C145.162814,30.2544623 145.340061,30.237869 145.420765,30.5448448 C145.947979,32.5639459 144.823406,34.6546999 142.809585,35.2430073 C141.30035,35.6834836 139.812234,35.6427547 138.445551,34.7369121 C137.338326,34.0030363 137.026071,32.8777099 137.015511,31.6482983 C136.988359,28.382438 136.992884,25.1158234 136.984587,21.8499631 C136.353288,21.4653006 135.66165,21.7036405 135.00169,21.6847845 C134.295721,21.6636658 134.040033,21.3732833 134.016652,20.6861704 C134.002321,20.286423 134.275356,20.0480831 134.35078,19.7147089" id="Fill-21" fill="#0475BA"></path>
                        <path d="M104.687567,50.2069832 C105.094857,50.1639915 105.026221,49.8570157 105.025467,49.5922774 C105.019433,47.0436995 105.01189,44.4951217 105.005102,41.9465439 C104.719245,41.6161866 104.338354,41.7858907 104.011014,41.7949416 C103.492096,41.8092722 103.371418,41.589034 103.368401,41.1146169 C103.365384,40.6198353 103.532825,40.427504 104.030624,40.4576736 C105.30529,40.5353604 106.606354,40.2713763 107.848588,40.7616324 C109.340475,43.3305747 110.832362,45.8995171 112.370258,48.5484088 C112.415513,48.301018 112.440403,48.1675175 112.465293,48.034017 C112.72098,47.7858719 112.613878,47.4668283 112.615386,47.1787085 C112.622929,45.8670847 112.62142,44.5554609 112.600302,43.2438371 C112.593513,42.8757679 112.750395,42.4790375 112.463784,42.1441548 C112.070825,41.7579838 111.582077,41.9631372 111.149898,41.978222 C110.490692,42.0000949 110.595531,41.5679153 110.647574,41.2224732 C110.699616,40.8785397 110.301377,40.273639 111.125008,40.2841984 C112.549767,40.3015459 113.975282,40.3075798 115.400041,40.2781644 C115.882001,40.2683593 115.971756,40.4976483 115.903874,40.8725058 C115.832221,41.2692361 116.190485,41.862069 115.415126,41.959366 C114.260384,42.1049343 114.264156,42.1139852 114.260384,43.2951255 C114.251333,46.0895856 114.24002,48.8840458 114.229461,51.6785059 C113.349262,51.6008192 112.423809,51.8844135 111.599425,51.3534284 C111.225322,50.7749261 110.793142,50.2273477 110.61665,49.5417433 C110.514827,48.6193074 109.993647,47.9533133 109.296729,47.3951755 L109.302763,47.4042264 C109.167,47.1922849 109.662536,46.662054 108.964864,46.7329525 C108.164615,45.7094485 107.672096,44.492859 106.856008,43.3275578 L106.856008,49.8849226 C106.856008,50.0297367 106.889194,50.1534321 107.040797,50.2107544 C107.208238,50.416662 107.448841,50.3661279 107.653994,50.3465176 C108.221937,50.2907038 108.34337,50.5697727 108.344878,51.0773764 C108.345632,51.6415481 108.036394,51.6815229 107.604968,51.6769974 C106.424582,51.6656838 105.244196,51.6596499 104.064565,51.6837856 C103.59241,51.6943449 103.370664,51.5834716 103.369155,51.0502238 C103.367647,50.5139589 103.530562,50.2869326 104.075878,50.3480261 C104.284049,50.3706533 104.521634,50.413645 104.687567,50.2069832" id="Fill-23" fill="#0675BA"></path>
                        <path d="M184.487091,45.0495637 C184.59721,45.0488095 184.706575,45.0488095 184.81594,45.0480552 C185.269238,45.1453522 185.54529,45.0548434 185.476654,44.4982141 C185.440451,44.2070774 185.479671,43.9068897 185.484951,43.6112275 C187.294373,43.5637104 187.295128,43.5637104 187.294373,45.3535225 C187.294373,46.1741359 187.277026,46.9947493 187.29739,47.8146085 C187.306441,48.2158643 187.217441,48.4383652 186.757354,48.3833056 C186.487336,48.3508733 186.209776,48.3652039 185.937495,48.3855684 C185.588282,48.4112125 185.402739,48.2784663 185.4759,47.9209564 C185.685579,46.8884015 185.075399,46.8144859 184.31437,46.9117829 C184.083573,46.9411983 183.8128,46.8122232 183.636308,47.0724361 C183.318773,48.0423891 183.57974,49.0410032 183.49602,50.023024 C183.035933,49.9430745 183.191306,49.577268 183.170942,49.3049872 C183.118899,48.5944929 183.265976,47.8689138 183.00878,46.9261135 C182.737254,47.7806677 182.842847,48.4255431 182.851144,49.0508083 C182.857178,49.5629374 182.667864,49.7560229 182.178362,49.6941752 L182.178362,47.1644534 L181.869123,47.1689788 C181.869123,47.9352869 181.861581,48.7031035 181.875911,49.4694116 C181.878928,49.6187512 182.038073,49.671548 182.178362,49.6941752 C182.099167,50.2636266 182.387286,50.4318222 182.896399,50.3428218 C183.162645,50.2960589 183.426629,50.2327028 183.691368,50.176889 L183.857301,50.2010247 C185.161382,50.4544494 186.465463,50.4416273 187.771053,50.2100755 C188.407632,50.0448969 188.083309,49.5312593 188.09236,49.1918512 C188.13158,47.8394984 188.416683,47.6071924 189.774315,47.8628799 C190.089588,47.9232191 190.091851,48.0936774 190.089588,48.3161783 C190.079028,49.4339623 190.066961,50.5517464 190.056401,51.6695304 C187.562883,51.6725474 185.06861,51.661988 182.576601,51.6891407 C182.072014,51.6951746 181.620978,51.6189963 181.197095,51.3587835 C181.194833,51.0284262 181.19257,50.6965605 181.190307,50.365449 C181.295146,50.2953047 181.398477,50.2259146 181.503317,50.1565245 C181.530469,50.3051098 181.48069,50.4831105 181.637572,50.5804075 C181.666233,50.597755 181.792191,50.5343989 181.807276,50.4868817 C181.883454,50.252313 181.831411,50.0705411 181.550834,50.0245324 C181.540275,47.5860737 181.50558,45.1483692 181.533486,42.7099104 C181.540275,42.0952046 181.388672,41.8719495 180.764916,41.9420939 C180.488864,41.9730177 180.024252,42.1133064 179.937514,41.8349917 C179.805522,41.4126172 179.859073,40.9170814 179.905082,40.4592575 C179.929217,40.2148837 180.213566,40.2948331 180.390058,40.2948331 C183.431909,40.2887992 186.47376,40.2993586 189.514857,40.2782399 C190.002096,40.2752229 190.117495,40.4554863 190.104673,40.8997338 C190.078274,41.8304663 190.064698,42.7642157 190.103164,43.6934397 C190.1273,44.2508233 189.902536,44.3632051 189.429628,44.2334758 C189.407755,44.0577378 189.471865,43.7583044 189.183745,43.8337284 C188.808134,43.9317797 188.489844,43.6715668 188.135351,43.7575502 C188.115741,43.2099717 188.094622,42.6616391 188.075012,42.1125522 C188.052385,42.0672977 188.029758,41.9813144 188.007131,41.9813144 C186.689473,41.9639668 185.372569,41.9609499 184.054912,41.9405854 C183.69891,41.9353057 183.661952,42.1298997 183.666478,42.4112313 C183.676283,43.0425304 183.713995,43.6791092 183.65441,44.3051286 C183.588791,44.9929957 183.858809,45.1928694 184.487091,45.0495637" id="Fill-25" fill="#0675B8"></path>
                        <path d="M196.657361,49.3606502 C197.395762,50.1390261 198.684759,50.4874851 199.626051,50.088492 C200.173629,49.8554318 200.651818,49.5258288 200.646538,48.7806394 C200.640504,47.9924583 200.095188,47.6786944 199.533279,47.4343206 C198.846921,47.1356414 198.105502,46.9666916 197.3935,46.7245805 C196.962828,46.5782579 196.526878,46.431181 196.121851,46.2282904 C194.599794,45.464245 194.016012,44.1858078 194.408971,42.5408098 C194.73254,41.1824231 196.175402,40.1295037 197.688408,40.1204528 C198.614615,40.1144189 199.537805,40.086512 200.352384,40.6378616 C200.57036,40.7849385 200.627682,40.6393701 200.677462,40.4704203 C202.296816,40.4575982 202.296816,40.4575982 202.29757,42.1169268 C202.29757,42.3628091 202.296061,42.6079372 202.294553,42.8530652 C202.286256,44.4513003 202.286256,44.4513003 200.667657,44.4022747 C200.424037,42.271546 198.855972,41.3355338 197.112922,42.2315713 C196.649819,42.469157 196.452962,42.814599 196.465784,43.2339566 C196.47936,43.6782041 196.624929,44.0968074 197.146863,44.3238337 C198.346105,44.8472765 199.654712,45.0727943 200.810962,45.7003222 C201.289151,46.2305531 201.805051,46.7132669 202.43635,47.0594632 C203.565448,49.5235661 201.965704,51.9582536 199.562695,52.0344319 C198.472817,52.0683727 197.437246,52.0857202 196.462013,51.541913 C196.369241,51.4898704 196.327758,51.3714547 196.181436,51.5750996 C195.748502,52.1800003 195.093821,51.7651681 194.540963,51.8111768 C194.319216,51.8292785 194.378047,51.5102349 194.378801,51.3329884 C194.381818,50.1307295 194.396149,48.9277163 194.406708,47.7247031 C195.163965,47.7186691 196.061511,47.4433714 196.185207,48.6554355 C196.187469,48.6773085 196.28175,48.6901306 196.333038,48.7074781 C196.357174,48.7497156 196.366224,48.79497 196.361699,48.8439956 C196.357928,49.0747931 196.313428,49.3289721 196.657361,49.3606502" id="Fill-27" fill="#0874B8"></path>
                        <path d="M159.348263,47.1730517 C159.280382,47.1745602 159.2125,47.1753145 159.144619,47.1768229 C159.077491,47.9785803 159.063915,48.7803377 159.348263,49.5768154 L159.348263,47.1730517 Z M158.76599,48.1316911 C158.76599,47.7221386 158.77127,47.3118319 158.762973,46.9015252 C158.759202,46.7024058 158.702634,46.4904643 158.470328,46.4746253 C158.177683,46.455015 158.118852,46.6956177 158.116589,46.9218897 C158.108293,47.7153505 158.112818,48.508057 158.117343,49.3000093 C158.118098,49.515722 158.199556,49.6756209 158.450718,49.6688327 C158.703388,49.6612903 158.763727,49.490832 158.765236,49.2796448 C158.766744,48.897245 158.76599,48.5140909 158.76599,48.1316911 Z M162.031096,42.0743876 L161.966231,42.0434638 C161.639645,41.7832509 160.114572,41.6557843 159.884528,41.8775309 C159.831732,41.9288192 159.77818,42.0170653 159.780443,42.0864554 C159.826452,43.1778411 159.559451,44.2835573 159.925257,45.3613666 C160.792634,45.4028499 161.659256,45.4978841 162.520598,45.2565272 C163.315567,45.0340264 163.918959,44.3001506 163.847307,43.5836224 C163.756798,42.6694832 163.219779,42.1747016 162.229461,42.0955063 C162.170631,42.0193281 162.105766,41.9944381 162.031096,42.0743876 Z M165.367855,45.4382991 C165.355033,45.5190029 165.365592,45.6517491 165.324863,45.6706051 C164.32097,46.1171154 164.610598,46.6933549 165.008082,47.4528749 C165.366347,48.1362165 165.46666,48.9545672 165.680865,49.7140872 C165.739695,49.9969273 165.609966,50.309937 165.812102,50.5822177 C166.055722,50.5535566 166.213358,50.3265302 166.484131,50.3484032 C166.794878,50.3732931 167.043023,50.4306154 167.000785,50.8001931 C166.965336,51.1101859 167.208201,51.6351371 166.660623,51.641171 C165.795509,51.6509761 164.882124,51.9096805 164.075087,51.34928 C163.842781,50.5301751 163.609721,49.7110702 163.378169,48.8919653 C163.376661,48.2968697 163.555416,47.6203162 162.710667,47.4023408 C162.619403,46.8185588 162.167614,47.1315685 161.868934,47.0651954 C161.225567,47.0697208 160.582955,47.0750005 159.939588,47.0795259 C159.623561,48.0509874 159.688426,49.0277285 159.89735,50.0067324 C160.036131,50.2888182 160.275225,50.3725389 160.569378,50.341615 C161.349263,50.2601571 161.481255,50.7074216 161.384712,51.3402291 C160.342352,51.9323078 158.070581,51.8018242 157.501883,51.0324991 C157.552417,52.0793846 156.636016,51.4171617 156.312446,51.819926 C156.003962,51.7445019 156.164615,51.5159671 156.156319,51.3424919 C156.699372,51.1584572 156.369014,50.6991249 156.461786,50.3725389 C156.707668,50.3612253 156.954305,50.3355811 157.199433,50.341615 C157.618791,50.3514202 157.78774,50.1515465 157.786986,49.7412398 C157.780198,47.3035353 157.768884,44.8643223 157.790757,42.4258636 C157.795283,41.8111578 157.398552,41.965777 157.072721,41.9589888 C156.215149,41.9408871 155.817665,41.3110965 156.137463,40.4987797 C156.240794,40.2378126 156.433125,40.2966433 156.607354,40.2958891 C158.635506,40.2891009 160.662904,40.2823128 162.690302,40.2958891 C162.924117,40.2973976 163.157177,40.4203387 163.390237,40.4867119 C163.421161,40.898527 163.793001,40.7778486 164.013239,40.8623235 C164.796895,41.1602484 165.167227,41.8850733 165.704246,42.4379314 C165.704246,42.4379314 165.698966,42.4296348 165.698966,42.430389 C165.860374,43.4629439 165.441016,44.4313884 165.367855,45.4382991 Z" id="Fill-29" fill="#0675BA"></path>
                        <path d="M233.780086,32.8377352 C234.408368,32.8490488 235.038159,32.8890235 235.664178,32.8611166 C236.123511,32.8407521 236.309808,32.9757611 236.263799,33.4531952 C236.219299,33.914036 236.236647,34.381665 236.226841,34.846277 C233.494983,34.8455227 230.763125,34.8440142 228.031267,34.8425058 C227.926427,32.884498 227.927936,32.8399979 229.846723,32.8995829 C230.650743,32.9237185 230.834778,32.6982007 230.821202,31.9085112 C230.769159,28.8681687 230.766142,25.8263177 230.823464,22.7867295 C230.840058,21.9570652 230.576073,21.7172168 229.818062,21.8394037 C229.63101,21.8695733 229.435662,21.8461919 229.243331,21.8454377 C228.007131,21.8416665 228.062945,21.8378953 227.985258,20.5911361 C227.936987,19.8044635 228.210776,19.6445646 228.931075,19.67398 C230.49009,19.7365819 232.051367,19.7154632 233.611136,19.727531 C233.610382,23.9007424 233.607365,28.0747079 233.611136,32.2479193 C233.611136,32.5066237 233.657899,32.7645738 233.682789,33.0232783 C233.71145,32.9885832 233.745391,32.9569051 233.768018,32.9184389 C233.781595,32.8973201 233.777069,32.8648878 233.780086,32.8377352" id="Fill-31" fill="#0675BA"></path>
                        <path d="M131.08409,42.8060007 C131.078056,44.0467259 131.237201,44.2337775 132.77208,44.7421354 C133.457684,44.9699159 134.170442,45.1305691 134.834173,45.4081295 C137.320149,46.4497353 138.140008,48.3828531 136.685079,50.8831596 C136.440705,51.3047799 136.015313,51.5152129 135.592184,51.6728491 C134.162145,52.206097 132.720792,52.3026397 131.296032,51.6456965 C131.135379,51.5717809 131.013192,51.4752382 130.890251,51.6751118 C130.535004,51.6728491 130.177494,51.6389083 129.827526,51.6758661 C129.244498,51.738468 129.057447,51.4963569 129.087616,50.9321852 C129.125328,50.1975552 129.095159,49.459154 129.097422,48.7230155 C129.100439,47.6655706 129.10421,47.7394862 130.133748,47.6972487 C130.99509,47.6617994 130.591572,48.407743 130.893268,48.6936001 C131.780254,50.2058518 132.578995,50.4962343 134.521917,50.0165375 C134.775342,50.0278511 135.029521,50.0414274 135.016699,49.6710955 L135.00614,49.6809006 C135.49715,49.3045347 135.519023,48.5321927 135.052903,48.0449535 C134.497028,47.4189341 133.686219,47.3299337 132.964411,47.0644411 C132.03217,46.7212618 131.074285,46.4489811 130.21068,45.936852 C129.003142,45.2218322 128.767819,44.0625649 128.955624,42.8467296 C129.14871,41.5961993 129.886357,40.6209666 131.174599,40.3109739 C132.422113,40.0115405 133.676414,39.9481843 134.923928,40.5297036 C135.322921,40.7160009 135.916508,40.5048136 136.418078,40.4474914 C136.881935,40.3946946 137.036555,40.5613816 137.019207,41.033536 C136.979232,42.1581083 136.989792,43.2834347 136.979986,44.4087612 C136.843469,44.4110239 136.706197,44.4140409 136.568171,44.4147951 C135.438319,44.4246002 135.430023,44.4246002 135.362141,43.3256722 C135.328955,42.7743226 135.093632,42.4552789 134.514375,42.452262 L134.039204,42.0924894 C133.378489,41.4777836 132.620478,41.8209629 131.896407,41.8880903 C131.704076,41.906192 131.572838,42.0698622 131.589431,42.2961342 L131.589431,42.2976427 C131.179125,42.2259899 131.034311,42.4190754 131.08409,42.8060007" id="Fill-33" fill="#0675B9"></path>
                        <path d="M150.04471,42.1342743 C149.382487,41.7511202 148.668976,42.0151043 147.980354,41.9819177 C147.653014,41.9653245 147.735981,42.2986987 147.735226,42.4902757 C147.728438,44.8751834 147.735981,47.2593368 147.729192,49.6434903 C147.728438,49.9987374 147.795565,50.1722127 148.217186,50.1955941 C149.59292,50.2710182 149.592166,50.2921369 149.512216,51.6723966 C147.919261,51.6723966 146.325551,51.6603287 144.732596,51.6776762 C144.230272,51.6837102 143.90972,51.6384557 143.916508,50.9890549 C143.92405,50.3743491 144.234797,50.3419167 144.696392,50.3464422 C144.982249,50.3487049 145.305818,50.4671206 145.552455,50.2008738 C145.619582,50.1797551 145.687464,50.1586364 145.753837,50.1367634 C145.794566,50.1435516 145.836804,50.1548652 145.878287,50.1526024 C145.887338,50.1518482 145.902422,50.1081023 145.902422,50.0839666 C145.906194,47.4803292 145.908456,44.8759376 145.909211,42.2723002 C145.909211,42.0430112 145.880549,41.7963746 145.583379,41.7978831 C144.848749,41.8009001 144.02361,41.5429499 143.40815,41.9140361 C142.939012,42.1968762 143.361387,42.9390486 143.280683,43.4700338 C143.264844,43.5778901 143.267107,43.6902719 143.277666,43.7988825 C143.350073,44.516165 142.850766,44.4068002 142.414816,44.4098171 C141.993949,44.4128341 141.579117,44.48147 141.61155,43.8200013 C141.652279,42.971481 141.669626,42.1184352 141.613058,41.2714234 C141.568558,40.588836 141.84989,40.4432676 142.467612,40.4500558 C145.154216,40.4764542 147.840066,40.4711745 150.527424,40.4583524 C150.99807,40.4560897 151.436283,40.4975729 151.823208,40.7849385 C151.820191,41.9932314 151.818683,43.2015242 151.81642,44.4105714 C151.546402,44.4128341 151.273367,44.3879442 151.007875,44.4226392 C150.375821,44.5063599 150.149549,44.2732996 150.176702,43.6201276 C150.197821,43.1313799 150.367525,42.6019032 150.04471,42.1342743" id="Fill-35" fill="#0475BA"></path>
                        <path d="M171.002859,51.659499 C170.990037,51.4950747 170.988529,51.3298961 170.963639,51.1684886 C170.844469,50.4202823 171.062444,50.0114841 171.907948,50.1826966 C172.500026,50.3018666 172.636544,50.0182723 172.628247,49.4578717 C172.598832,47.2079731 172.593552,44.9573201 172.631264,42.7081757 C172.641823,42.0979953 172.496255,41.8702148 171.867219,41.9388506 C171.580607,41.9705287 171.112978,42.1387243 171.002859,41.7631126 C170.884444,41.3611026 170.959868,40.8919652 171.004368,40.4567685 C171.023224,40.2651915 171.256284,40.2908357 171.416937,40.2908357 C172.925418,40.2900814 174.435407,40.304412 175.943887,40.2885729 C176.706424,40.2795221 176.381347,40.8369056 176.406237,41.1680171 C176.430372,41.4930946 176.619687,41.9358337 175.933328,41.9599694 C174.599831,42.0052238 174.592289,42.046707 174.598323,43.437526 C174.606619,45.6859162 174.629247,47.9350607 174.645086,50.1834509 C174.931697,50.5085284 175.310325,50.3154429 175.644454,50.3493837 C176.201837,50.4059517 176.434143,50.7951397 176.167142,51.2884128 C175.986125,51.6202786 175.680657,51.6798635 175.329181,51.6768466 C173.887074,51.6632703 172.444967,51.6640245 171.002859,51.659499" id="Fill-37" fill="#0575BA"></path>
                        <path d="M122.970125,50.0059027 C123.166981,50.4290315 123.560695,50.3837771 123.897086,50.333243 C124.658869,50.2163357 124.944726,50.5097352 124.814996,51.2534161 C124.791615,51.3876709 124.792369,51.5264511 124.78181,51.6622143 C123.262016,51.6659855 121.742221,51.6576889 120.222427,51.6803161 C119.762341,51.6871042 119.521738,51.5935785 119.524001,51.0573136 C119.526264,50.5406591 119.658256,50.2849716 120.215639,50.3445566 C120.420038,50.3671838 120.657624,50.4147009 120.824311,50.2103018 C121.132041,50.0247587 121.004574,49.7162745 121.006083,49.4658667 C121.020414,47.2204934 120.993261,44.9728575 121.031727,42.7282385 C121.043041,42.0629986 120.812997,41.8427604 120.186978,41.9498625 C119.575289,42.0562104 119.309042,41.8684046 119.34072,41.1737493 C119.367873,40.5643232 119.405585,40.2249151 120.169631,40.2709237 C121.397534,40.344085 122.637505,40.3546444 123.864654,40.2731864 C124.693564,40.2181269 124.951514,40.4994585 124.816505,41.2687836 C124.788598,41.4294368 124.791615,41.5961239 124.780301,41.7590398 C124.425808,41.7650737 124.066036,41.813345 123.719085,41.7673364 C122.973142,41.6692852 122.802683,41.9936085 122.81626,42.6927892 C122.856989,44.8989419 122.828327,47.1073574 122.834361,49.3150186 C122.835116,49.5495874 122.745361,49.8113087 122.970125,50.0059027" id="Fill-39" fill="#0675B8"></path>
                        <path d="M99.4016251,40.7760384 C99.46121,41.9262548 99.46121,41.9473735 98.3849092,41.9451108 C97.9504668,41.9443566 97.7588898,42.0212891 97.7634152,42.5183334 C97.7867967,44.9205886 97.7898136,47.3235981 97.7619067,49.7250991 C97.7505931,50.7372895 98.5312318,50.1753805 98.9249452,50.3767626 C98.9490809,50.8059254 99.1791242,51.2343338 98.9294707,51.6642508 C98.3449345,51.7856834 98.0123145,51.5586571 97.938399,50.8391119 C97.8825852,51.7902089 97.2942778,51.7087509 96.714267,51.6815983 C96.1945955,51.6574626 95.6711527,51.6589711 95.1499727,51.6740559 C94.6582081,51.6883865 94.2018927,51.5428181 94.1928418,51.0223923 C94.183791,50.4951784 94.6416148,50.3435761 95.1311167,50.3481015 C95.7616616,50.3548897 96.1500953,50.1851856 95.8189838,49.4339623 C95.7375259,49.2499277 95.8001278,49.0002742 95.8001278,48.7807903 C95.7993736,46.7775281 95.7646785,44.7727575 95.8182296,42.7702497 C95.8385941,41.9813144 95.6145847,41.6562368 94.8128273,41.7656016 C94.5676993,41.7987882 94.2313081,41.8696868 94.164935,41.4593801 C94.1128924,41.1410907 94.1951046,40.8861575 94.4455123,40.652343 C94.683098,40.4290879 94.9478363,40.4630287 95.2148374,40.4622745 C96.1749852,40.4592575 97.1366416,40.4856559 98.0967894,40.460766 C98.5712065,40.4479439 99.0041404,40.5135628 99.4016251,40.7760384" id="Fill-41" fill="#0376BA"></path>
                        <path d="M155.830412,31.2294687 C156.177362,31.224189 156.304074,31.3282741 156.231667,31.7280215 C156.140404,32.2333624 155.768564,32.8872887 156.663093,33.1158235 C156.71061,33.1278914 156.726449,33.2515868 156.764161,33.3194684 C156.927077,33.619656 155.944302,33.3677398 156.519787,33.7365633 C156.892382,33.9756574 157.540274,34.0556069 157.935496,33.7848346 C158.246997,33.5721389 158.34882,33.4869097 158.566795,33.8059534 C158.595456,33.8489451 158.75083,33.8662926 158.793067,33.8300891 C159.483951,33.2463071 159.993818,34.2200313 160.647744,33.9786744 C160.394319,34.2720738 160.088852,34.1928786 159.811292,34.1936329 C157.75297,34.2011753 155.693894,34.1906159 153.636327,34.2064549 C153.355749,34.2094719 152.87379,34.0163864 152.878315,34.5451088 C152.882086,35.0097208 153.32558,34.8460507 153.589564,34.8475592 C155.730098,34.8603812 157.871386,34.8588728 160.012674,34.8528388 C160.918516,34.8498219 161.383128,34.4991002 161.413298,33.8843944 C161.437434,33.4039433 161.294128,33.1671119 160.769931,33.2018069 C160.250259,33.2349935 159.713995,33.2787394 159.209408,33.1867221 C158.777982,33.1067727 158.033547,33.1490101 158.417456,32.2688117 C158.491371,32.0991077 158.507964,31.8381405 158.307337,31.645055 C157.952844,31.7317927 158.251523,32.172269 157.949072,32.2944559 C157.66397,32.1458706 157.734114,31.8336151 157.798224,31.6556144 C158.447625,29.8725904 158.004886,28.0322442 158.084836,26.2228218 C158.111234,25.6186754 158.285464,25.1020208 158.797593,25.0424358 C159.428892,24.9692745 160.182378,24.6215698 160.748812,25.2920894 C160.204251,25.3682676 159.631782,25.1382243 159.107585,25.4414289 C158.756109,25.4519883 158.79005,25.7303029 158.748567,25.956575 C158.459693,25.9980582 158.438574,26.2069828 158.439329,26.4377803 C158.440837,27.8738538 158.440837,29.3099272 158.439329,30.7452464 C158.438574,30.9745354 158.454413,31.186477 158.743287,31.2309771 C158.823237,32.7062711 158.823237,32.7062711 160.371692,32.7055168 C160.975084,32.7047626 161.579985,32.7228644 162.183377,32.6957117 C162.619328,32.6761015 162.728693,32.8548564 162.74604,33.2719513 C162.816185,35.0346107 162.829761,35.0338565 161.070119,35.032348 C158.40765,35.0308395 155.745182,35.0074581 153.082714,35.0459244 C152.443873,35.054221 152.310372,34.8528388 152.317915,34.2584975 C152.336771,32.709288 152.30811,32.7085338 153.867124,32.7085338 L154.278939,32.7085338 C155.751216,32.7085338 155.751216,32.7085338 155.830412,31.2294687" id="Fill-43" fill="#0A73B1"></path>
                        <path d="M112.455714,16.2436953 C110.800911,16.2467122 110.800911,16.2467122 110.793368,14.5949261 C110.787334,13.0970049 110.787334,13.0970049 112.265645,13.0962507 C114.090152,13.0947422 114.090152,13.0947422 114.106746,14.8951137 C114.118813,16.2406783 114.118813,16.2406783 112.455714,16.2436953" id="Fill-45" fill="#0A73B1"></path>
                        <path d="M230.65557,13.1265711 C231.642117,13.1288339 232.627909,13.1310966 233.614455,13.1333593 C233.325581,13.8830741 233.666497,14.6312805 233.627277,15.3840122 C233.603141,15.8576751 233.498302,16.099032 232.975613,16.0711251 C232.400882,16.0409555 231.82238,16.0462352 231.246895,16.0718793 C230.768706,16.0937523 230.626909,15.8787938 230.64124,15.4315294 C230.666884,14.664467 230.652553,13.895142 230.65557,13.1265711" id="Fill-47" fill="#0575BA"></path>
                        <path d="M151.82351,40.784863 C151.435831,40.4974975 150.997617,40.4560143 150.526971,40.458277 C147.840367,40.4710991 145.153764,40.4763788 142.467914,40.4499804 C141.849437,40.4431922 141.568105,40.5887606 141.61336,41.2721022 C141.669174,42.1183598 141.65258,42.9714055 141.611851,43.8199258 C141.579419,44.4813945 141.994251,44.4135129 142.414363,44.4097417 C142.851068,44.4067247 143.350375,44.5160896 143.277968,43.7988071 C143.266654,43.6909507 143.264392,43.5778147 143.280985,43.4707126 C143.360934,42.9389732 142.939314,42.1968008 143.408452,41.9139607 C144.023157,41.5428745 144.849051,41.8008247 145.583681,41.7978077 C145.880851,41.7962992 145.908758,42.0429358 145.908758,42.2722248 C145.908004,44.8758622 145.905741,47.4802538 145.90197,50.0838912 C145.90197,50.1080268 145.887639,50.1517728 145.877834,50.152527 C145.837105,50.1547897 145.794868,50.1434761 145.753385,50.136688 C145.748859,47.6688139 145.71869,45.2001855 145.755647,42.7330656 C145.766207,42.0617918 145.548985,41.9245201 144.925983,41.9418676 C143.452952,41.984105 143.46502,41.952427 143.440884,43.4714668 C143.43485,43.8350106 143.652825,44.3991823 143.279477,44.5251405 C142.788466,44.6910733 142.197896,44.5952848 141.653335,44.5620982 C141.390859,44.545505 141.454969,44.2739785 141.454215,44.0959778 C141.447427,42.9993124 141.460249,41.9011386 141.441393,40.8044733 C141.436113,40.4220735 141.556038,40.2802763 141.958048,40.282539 C145.11228,40.2953611 148.265759,40.2915899 151.419992,40.2810305 C151.806917,40.2802763 151.902705,40.4454549 151.82351,40.784863" id="Fill-49" fill="#2B688A"></path>
                        <path d="M99.4016251,40.7760384 C99.0041404,40.5135628 98.5712065,40.4479439 98.0967894,40.460766 C97.1366416,40.4856559 96.1749852,40.4592575 95.2148374,40.4622745 C94.9478363,40.4630287 94.683098,40.4290879 94.4455123,40.652343 C94.1951046,40.8861575 94.1128924,41.1410907 94.164935,41.4593801 C94.2313081,41.8696868 94.5676993,41.7987882 94.8128273,41.7656016 C95.6145847,41.6562368 95.8385941,41.9813144 95.8182296,42.7702497 C95.7646785,44.7727575 95.7993736,46.7775281 95.8001278,48.7807903 C95.8001278,49.0002742 95.7375259,49.2499277 95.8189838,49.4339623 C96.1500953,50.1851856 95.7616616,50.3548897 95.1311167,50.3481015 C94.6416148,50.3435761 94.183791,50.4951784 94.1928418,51.0223923 C94.2018927,51.5428181 94.6582081,51.6883865 95.1499727,51.6740559 C95.6711527,51.6589711 96.1945955,51.6574626 96.714267,51.6815983 C97.2942778,51.7087509 97.8825852,51.7902089 97.938399,50.8391119 C98.0123145,51.5586571 98.3449345,51.7856834 98.9287164,51.6642508 C99.0840899,51.6733016 99.2387092,51.6831068 99.3933284,51.6929119 C99.3503367,51.8761923 99.2032599,51.8513023 99.0712678,51.8513023 C97.5627873,51.8505481 96.0527983,51.8150988 94.5458263,51.8633702 C93.8481541,51.8852432 93.9477138,51.4560805 93.9741122,51.0668925 C93.9982479,50.6935436 93.735018,50.1640669 94.5216906,50.1625584 C95.6221271,50.1602957 95.6228814,50.1127786 95.6228814,49.0213929 C95.6236356,46.9087659 95.609305,44.796139 95.6334407,42.6842663 C95.6394747,42.1510184 95.5565082,41.895331 94.9267176,41.9405854 C94.0766888,42.0016788 93.6392295,41.2595064 93.9884427,40.4849017 C94.0978076,40.2420363 94.2901388,40.2918162 94.4704023,40.2918162 C95.9788828,40.2887992 97.4881175,40.2978501 98.996598,40.2820111 C99.3850318,40.2774856 99.4838372,40.4336133 99.4016251,40.7760384" id="Fill-51" fill="#2B688A"></path>
                        <path d="M103.742881,34.8466541 C110.404331,34.8504253 117.066535,34.8549507 123.727985,34.8549507 C124.479208,34.8541965 124.782413,34.06149 124.349479,33.2567156 C124.286877,33.1398084 124.215224,33.0274266 124.147343,32.9135363 C124.357022,32.8871379 124.627794,32.783807 124.642879,33.1300033 C124.667014,33.6775817 124.695675,34.2334567 124.630057,34.7734928 C124.575751,35.2290539 124.145834,35.0261633 123.890147,35.0269175 C120.459108,35.0404938 117.027315,35.0329514 113.595522,35.0321972 C110.549145,35.0314429 107.502015,35.0374769 104.454884,35.0261633 C104.217298,35.0246548 103.902026,35.2049182 103.742881,34.8466541" id="Fill-53" fill="#2B688A"></path>
                        <path d="M191.264996,32.8892498 C191.556887,33.3146413 191.393217,33.7920753 191.396988,34.2423568 C191.400759,34.7001806 191.567446,34.8668677 192.028287,34.8653592 C195.590564,34.8517829 199.15284,34.8442405 202.715117,34.8736559 C203.105814,34.8774271 203.273255,34.5636631 203.590036,34.513129 C203.689596,34.9181561 203.505561,35.0426057 203.118636,35.0418515 C199.33235,35.0343091 195.546064,35.0297836 191.759777,35.0441142 C191.299691,35.0463769 191.206165,34.8419778 191.22653,34.4505271 C191.253682,33.9308556 191.252928,33.4096755 191.264996,32.8892498" id="Fill-55" fill="#2B688A"></path>
                        <path d="M127.108867,32.9106702 C127.146579,34.8558558 127.146579,34.85661 129.114392,34.8573643 C130.75939,34.8581185 132.404388,34.8528388 134.049386,34.8588728 C134.473269,34.8611355 134.933356,34.9018645 134.995957,34.3392012 C135.048,33.8632756 135.268992,33.2591292 134.471006,33.1188405 C134.429523,33.1112981 134.411421,32.9770433 134.38276,32.9016193 C134.981627,32.7824493 135.25617,32.9302804 135.227509,33.6362493 C135.171695,35.032348 135.214687,35.032348 133.782385,35.032348 C131.733114,35.032348 129.683843,35.0217887 127.634573,35.0444159 C127.131494,35.0496956 126.830552,34.9433477 126.94746,34.376159 C127.047774,33.8911825 126.730993,33.3624601 127.108867,32.9106702" id="Fill-57" fill="#2B688A"></path>
                        <path d="M205.935044,33.2122909 C206.467538,33.3684186 206.225427,33.8096491 206.21713,34.1113452 C206.2028,34.6732542 206.372504,34.8776533 206.966845,34.867094 C208.9422,34.8323989 210.91831,34.8414498 212.894419,34.8648313 C213.472167,34.8716194 213.951864,34.8731279 213.862109,34.0826841 C213.843253,33.9144885 213.992593,33.7907931 214.147966,33.7123522 C214.154755,33.7659032 214.169085,33.8209628 214.167577,33.875268 C214.145704,35.2472311 214.32823,35.0262387 212.988699,35.0300099 C210.908505,35.036798 208.82831,34.9998403 206.749624,35.0496201 C206.060248,35.0662134 205.797773,34.88595 205.903366,34.1950659 C205.951638,33.8730053 205.926748,33.5403854 205.935044,33.2122909" id="Fill-59" fill="#2B688A"></path>
                        <path d="M233.780086,32.8377352 C233.777069,32.8648878 233.781595,32.8973201 233.768018,32.9184389 C233.745391,32.9569051 233.71145,32.9885832 233.682789,33.0232783 C233.657899,32.7645738 233.611136,32.5066237 233.611136,32.2479193 C233.607365,28.0747079 233.610382,23.9007424 233.611136,19.727531 C233.921883,19.8738536 233.781595,20.157448 233.782349,20.3731607 C233.789137,24.527516 233.783103,28.6826256 233.780086,32.8377352" id="Fill-61" fill="#2B688A"></path>
                        <path d="M168.642917,32.9029015 C168.60068,32.9994443 168.568247,33.1020209 168.51545,33.1925298 C167.958821,34.1564488 168.325382,34.8518583 169.4047,34.8541211 C171.39514,34.8594007 173.386334,34.8473329 175.377528,34.860155 C176.078217,34.8646804 176.80078,34.9785707 177.211841,34.2001948 C177.360426,34.8216887 177.174883,35.0607829 176.480228,35.0494693 C173.967099,35.0087403 171.452462,35.0064776 168.939333,35.0502235 C168.265043,35.0607829 168.073466,34.8397905 168.14889,34.219805 C168.187356,33.8962359 168.165483,33.5651245 168.159449,33.2370299 C168.154169,32.8757489 168.361585,32.8402996 168.642917,32.9029015" id="Fill-63" fill="#2B688A"></path>
                        <path d="M223.266429,32.6218716 C223.353921,32.9424237 223.054488,33.0291613 222.901377,33.1830263 C222.322875,33.7622829 219.480898,33.6506553 218.804344,33.056314 C218.652742,32.9228135 218.430241,32.805152 218.450605,32.5396594 C218.996675,32.6686345 219.507296,32.9039574 220.053366,33.0487716 C221.21037,33.3572558 222.232366,33.0329325 223.266429,32.6218716" id="Fill-65" fill="#176B98"></path>
                        <path d="M200.61486,20.6796085 C200.225672,20.4035566 199.797263,20.3341665 199.322092,20.3424631 C197.902612,20.3658445 196.482377,20.3507597 195.062897,20.3507597 C195.064406,20.2413949 195.06516,20.1320301 195.065914,20.021911 C196.569115,20.021911 198.072316,20.0286992 199.575517,20.0158771 C199.84478,20.0136143 200.209833,20.1637082 200.312409,19.7164437 C200.980666,19.8589951 200.529631,20.3537767 200.61486,20.6796085" id="Fill-67" fill="#0A73B1"></path>
                        <path d="M104.687567,50.2069832 C104.521634,50.413645 104.284049,50.3706533 104.075878,50.3480261 C103.530562,50.2869326 103.367647,50.5139589 103.369155,51.0502238 C103.370664,51.5834716 103.59241,51.6943449 104.064565,51.6837856 C105.244196,51.6596499 106.424582,51.6656838 107.604968,51.6769974 C108.036394,51.6815229 108.345632,51.6415481 108.344878,51.0773764 C108.34337,50.5697727 108.221937,50.2907038 107.653994,50.3465176 C107.448841,50.3661279 107.208238,50.416662 107.040797,50.2107544 C107.204467,50.200195 107.368891,50.1836017 107.532561,50.1820932 C108.429353,50.1768136 108.810244,50.7741718 108.490446,51.631743 C108.390887,51.8987441 108.202327,51.845193 108.027343,51.8459472 C106.571659,51.8519812 105.115976,51.8474557 103.660292,51.8512269 C102.906806,51.8527354 103.252248,51.2787586 103.219816,50.9506641 C103.187383,50.624078 103.024467,50.1164743 103.701775,50.1760593 C104.028361,50.2054747 104.358718,50.1979323 104.687567,50.2069832" id="Fill-69" fill="#2B688A"></path>
                        <path d="M181.196869,51.3589343 C181.620752,51.6191472 182.071788,51.6945712 182.576374,51.6885373 C185.069138,51.6613847 187.562657,51.6726983 190.056175,51.6696813 C189.980751,51.9464875 189.747691,51.8454193 189.581004,51.8454193 C186.489373,51.8522074 183.396988,51.8514532 180.303849,51.8484362 C180.157526,51.8484362 179.965195,51.9223518 179.90033,51.6915543 C180.318179,51.5241129 180.896681,51.9811825 181.196869,51.3589343" id="Fill-71" fill="#2B688A"></path>
                        <path d="M245.596014,28.921418 C246.746985,28.9515877 247.140698,29.4410896 247.131647,30.8319086 C247.122596,32.1465494 246.419644,32.8593064 245.114809,32.8743912 C245.633726,32.5576103 246.240135,32.3599994 246.585577,31.8078955 C247.270427,30.7142471 246.957418,29.8053876 245.596014,28.921418" id="Fill-73" fill="#176B98"></path>
                        <path d="M181.196869,51.3589343 C180.896681,51.9811825 180.318179,51.5241129 179.90033,51.6915543 C179.812084,50.3097861 179.812084,50.3097861 181.190081,50.3655999 C181.192344,50.6967114 181.194606,51.0285771 181.196869,51.3589343" id="Fill-75" fill="#0475BA"></path>
                        <path d="M158.743514,31.2312788 C158.45464,31.1860244 158.438801,30.9748371 158.439555,30.7447939 C158.441063,29.3094747 158.441063,27.8741555 158.439555,26.438082 C158.438801,26.2065302 158.459919,25.9983599 158.748793,25.9568767 C158.746531,27.7150108 158.745022,29.4731448 158.743514,31.2312788" id="Fill-77" fill="#0376BA"></path>
                        <path d="M200.312183,19.7162174 C200.209606,20.1642361 199.845308,20.0141423 199.57529,20.0156508 C198.07209,20.0284729 196.568889,20.022439 195.065688,20.022439 C194.98951,19.5789457 195.325147,19.6966072 195.537088,19.6966072 C197.128535,19.6966072 198.720736,19.7079208 200.312183,19.7162174" id="Fill-79" fill="#0376BA"></path>
                        <path d="M122.970125,50.0059027 C122.745361,49.8113087 122.835116,49.5495874 122.834361,49.3150186 C122.828327,47.1073574 122.856989,44.8989419 122.81626,42.6927892 C122.802683,41.9936085 122.973142,41.6692852 123.719085,41.7673364 C124.066036,41.813345 124.425808,41.7650737 124.780301,41.7590398 C124.530648,42.1587871 124.127129,41.9672101 123.82845,41.9340235 C123.110413,41.8533198 122.982192,42.145965 122.988981,42.7983828 C123.016133,45.200638 122.981438,47.6028933 122.970125,50.0059027" id="Fill-81" fill="#2B688A"></path>
                        <path d="M230.65557,13.1265711 C230.652553,13.895142 230.666884,14.664467 230.64124,15.4315294 C230.626909,15.8787938 230.768706,16.0937523 231.246895,16.0718793 C231.82238,16.0462352 232.400882,16.0409555 232.975613,16.0711251 C233.498302,16.099032 233.603141,15.8576751 233.627277,15.3840122 C233.666497,14.6312805 233.325581,13.8830741 233.614455,13.1333593 C233.9961,14.067863 233.701193,15.0393244 233.769074,15.9911756 C233.784159,16.2068884 233.601633,16.237058 233.428912,16.2378122 C233.210936,16.2400749 232.990698,16.2596852 232.774985,16.2385664 C232.026025,16.1654051 230.890139,16.5968306 230.61107,16.0748963 C230.18417,15.2754016 230.442875,14.1696854 230.519053,13.1944528 C230.521316,13.1680544 230.608807,13.1491984 230.65557,13.1265711" id="Fill-83" fill="#2B688A"></path>
                        <path d="M182.178739,49.6943261 C182.667487,49.7561738 182.856801,49.5630883 182.851521,49.0502049 C182.843225,48.4249397 182.736877,47.7808185 183.009157,46.9262643 C183.265599,47.8690646 183.118522,48.5946438 183.170565,49.3043838 C183.191684,49.5774188 183.03631,49.9432253 183.495642,50.0231748 C183.54316,50.0246833 183.589168,50.0216663 183.635177,50.0118612 C183.654033,50.0669207 183.672135,50.121226 183.691745,50.1770398 C183.426252,50.2328536 183.163022,50.2962098 182.896021,50.3422184 C182.386909,50.431973 182.099544,50.2637775 182.178739,49.6943261" id="Fill-85" fill="#0475BA"></path>
                        <path d="M171.002859,51.659499 C172.444967,51.6640245 173.887074,51.6632703 175.329181,51.6768466 C175.680657,51.6798635 175.986125,51.6202786 176.167142,51.2884128 C176.434143,50.7951397 176.201837,50.4059517 175.644454,50.3493837 C175.310325,50.3154429 174.931697,50.5085284 174.645086,50.1834509 C174.890214,50.1826966 175.135342,50.1789254 175.38047,50.1804339 C176.430372,50.1887305 176.668712,50.5122996 176.426601,51.5403291 C176.369279,51.7854572 176.252372,51.8427794 176.037413,51.8420252 C174.404483,51.835237 172.771553,51.8337285 171.138623,51.8216607 C171.092614,51.8209065 171.048114,51.7153128 171.002859,51.659499" id="Fill-87" fill="#2B688A"></path>
                        <path d="M86.2141867,50.2047959 C86.0527793,50.4174916 85.8129309,50.3692202 85.6085318,50.346593 C85.0632161,50.2885165 84.9146308,50.5193141 84.9055799,51.0487907 C84.8942663,51.6687762 85.2200981,51.6861237 85.6794304,51.6785813 C86.7444176,51.6604796 87.8101591,51.6544456 88.8751463,51.6815983 C89.3510719,51.6944204 89.7779719,51.6144709 90.1709311,51.3497326 C90.2357958,51.6695304 90.1845074,51.8603532 89.7779719,51.8558278 C88.2483727,51.8392345 86.7180192,51.859599 85.18842,51.8452684 C84.391188,51.837726 84.8286474,51.2086896 84.7562403,50.8640019 C84.6883587,50.5381701 84.64235,50.114287 85.2336744,50.173872 C85.5579977,50.2063043 85.8868465,50.195745 86.2141867,50.2047959" id="Fill-89" fill="#2B688A"></path>
                        <path d="M130.893343,48.6932984 C130.591647,48.4074413 130.995165,47.662252 130.133823,47.6977013 C129.104285,47.7391845 129.100514,47.6660232 129.097497,48.7227138 C129.095234,49.4596065 129.125404,50.1972535 129.086938,50.9326377 C129.057522,51.4968094 129.24382,51.7381663 129.827602,51.6755644 C130.177569,51.6386066 130.535079,51.6725474 130.890326,51.6748101 C130.35029,52.0391082 129.749915,51.7849292 129.180463,51.8309379 C128.910445,51.8520566 128.928547,51.6031573 128.928547,51.413843 C128.926284,50.2689063 128.933073,49.1232153 128.923267,47.9782786 C128.920251,47.6713028 129.01981,47.5174378 129.341871,47.5408193 C129.504787,47.5513786 129.669965,47.5385566 129.833635,47.5378023 C130.964996,47.5332769 130.964996,47.5332769 130.893343,48.6932984" id="Fill-91" fill="#2B688A"></path>
                        <path d="M145.55238,50.2011001 C145.305743,50.4673469 144.982174,50.3481769 144.696317,50.3459142 C144.234722,50.342143 143.923975,50.3738211 143.916432,50.9892812 C143.909644,51.6379278 144.230196,51.6839364 144.73252,51.6779025 C146.325476,51.660555 147.919185,51.6718686 149.512141,51.6718686 C149.445014,51.9614968 149.209691,51.8453438 149.04602,51.8460981 C147.515667,51.855149 145.983051,51.8038606 144.456468,51.8724965 C143.642643,51.9094543 143.786703,51.4508762 143.745974,50.9560946 C143.698457,50.3632617 143.847797,50.0811759 144.490409,50.1656508 C144.839623,50.2124137 145.197887,50.191295 145.55238,50.2011001" id="Fill-93" fill="#2B688A"></path>
                        <path d="M107.848513,40.7612553 C106.606279,40.2717534 105.305214,40.5349832 104.030548,40.4580507 C103.53275,40.4278811 103.365308,40.6202124 103.368325,41.114994 C103.371342,41.5894111 103.492021,41.8096493 104.010938,41.7945645 C104.338278,41.7855136 104.719924,41.6165638 105.005027,41.9461668 C104.75839,41.9476752 104.511754,41.9514464 104.265871,41.9506922 C103.206164,41.9491837 102.977629,41.6422079 103.197113,40.5960767 C103.261223,40.2868382 103.436961,40.286084 103.667005,40.2868382 C104.844374,40.2898552 106.022497,40.3056942 107.199112,40.2777873 C107.585283,40.2687364 107.724063,40.477661 107.848513,40.7612553" id="Fill-95" fill="#2B688A"></path>
                        <path d="M74.7315576,51.6661364 C76.0205542,51.6691533 77.3103051,51.671416 78.5993017,51.674433 C78.9009978,51.6751872 79.1778039,51.6759415 79.422932,51.4149744 C79.6446787,51.1788972 79.6605177,50.9337691 79.6220515,50.6599799 C79.5722716,50.3032242 79.2781179,50.3884534 79.0450577,50.3552668 C78.8142601,50.3228345 78.5397167,50.4495468 78.3692584,50.1825458 C78.5072844,50.1795288 78.6438018,50.1734949 78.7810736,50.1742491 C79.7977894,50.1802831 80.0783668,50.569471 79.8136285,51.561297 C79.7608317,51.7589079 79.6725856,51.8418743 79.485534,51.8403659 C77.9235024,51.8305607 76.3614708,51.8192471 74.798685,51.8011454 C74.7760578,51.8011454 74.7541848,51.7128993 74.7315576,51.6661364" id="Fill-97" fill="#2B688A"></path>
                        <path d="M120.824537,50.2106789 C120.657096,50.4150781 120.41951,50.3668067 120.215111,50.3449337 C119.658482,50.2853487 119.525736,50.5402819 119.523473,51.0569365 C119.521964,51.5939556 119.761813,51.6867271 120.222654,51.679939 C121.742448,51.658066 123.262242,51.6663626 124.782036,51.6625914 C124.68323,51.9718299 124.420755,51.8458718 124.230686,51.8473803 C122.811206,51.8586939 121.390218,51.8179649 119.973,51.8692533 C119.330387,51.8918805 119.303235,51.5569978 119.366591,51.1195384 C119.42165,50.7424183 119.064141,50.0922632 119.926991,50.1797551 C120.224162,50.2091705 120.525858,50.2016281 120.824537,50.2106789" id="Fill-99" fill="#2B688A"></path>
                        <path d="M189.732908,22.0014145 C190.438877,22.0149909 190.99098,22.5014758 191.058862,23.2858857 C191.119201,23.9903461 191.078472,24.7046116 191.078472,25.4151059 C191.078472,25.6542001 190.989472,25.8623704 190.742835,25.914413 C190.487902,25.9687183 190.178664,26.0720492 190.102485,25.6534459 C190.796386,25.8223957 190.886895,25.5222081 190.936675,24.866019 C191.027938,23.6599889 190.55503,22.7790362 189.732908,22.0014145" id="Fill-101" fill="#176B98"></path>
                        <path d="M200.808624,32.8432411 C200.566513,32.7006897 200.639674,32.4608413 200.639674,32.2534252 C200.637412,30.067637 200.637412,27.8826029 200.650234,25.6968147 C200.651742,25.4260424 200.512962,25.0632529 200.954947,24.9599219 C200.689454,26.0271719 200.840302,27.1132779 200.8222,28.190333 C200.795048,29.7410509 200.810887,31.2917689 200.808624,32.8432411" id="Fill-103" fill="#2B688A"></path>
                        <path d="M228.031191,34.8422795 C230.76305,34.843788 233.494908,34.8452964 236.226766,34.8460507 C236.190562,35.0904245 235.998231,35.0293311 235.8504,35.0293311 C233.396857,35.0338565 230.943313,35.0368735 228.489769,35.0293311 C228.329116,35.0293311 228.088514,35.1349247 228.031191,34.8422795" id="Fill-105" fill="#2B688A"></path>
                        <path d="M79.9541434,41.7895111 C79.6403795,41.7857399 79.5000908,41.4961116 79.4616246,41.3113227 C79.2775899,40.4281074 78.6674096,40.4092514 77.9629492,40.4514888 C77.3120398,40.4892009 76.656605,40.4839212 76.0049415,40.4575228 C75.5342955,40.439421 75.1043786,40.5050399 74.7182076,40.7841088 C74.6405208,40.4484719 74.7325381,40.2772593 75.1187092,40.2810305 C76.427316,40.2938526 77.7366771,40.2998866 79.0452839,40.2749966 C79.4540822,40.2674542 79.5385571,40.5359638 79.6396253,40.8074902 C79.7595495,41.1295508 79.8508125,41.4614165 79.9541434,41.7895111" id="Fill-107" fill="#2B688A"></path>
                        <path d="M164.074785,51.3493555 C164.881823,51.909756 165.795208,51.6510516 166.661075,51.6412464 C167.2079,51.6352125 166.965034,51.1102613 167.001238,50.7995143 C167.043475,50.4306908 166.794576,50.3733686 166.483829,50.3484786 C166.213057,50.3266057 166.05542,50.553632 165.812555,50.5815389 C165.609664,50.3100124 165.739394,49.9970027 165.680563,49.7141626 C165.879682,50.1093845 166.203251,50.2338341 166.630151,50.1795288 C167.413053,50.0799691 167.164154,50.6652595 167.179238,51.0484136 C167.195077,51.4315676 167.348188,51.9082475 166.637694,51.8592219 C165.982259,51.8132132 165.319282,51.8139675 164.663847,51.8577134 C164.248261,51.884866 164.163032,51.6427549 164.074785,51.3493555" id="Fill-109" fill="#2B688A"></path>
                        <path d="M200.667883,44.4021239 C202.286482,44.4511495 202.286482,44.4511495 202.294025,42.8529144 C202.295533,42.6077863 202.297042,42.3626582 202.297042,42.1167759 C202.296288,40.4582016 202.296288,40.4582016 200.677688,40.4702694 C201.18152,40.0705221 201.755497,40.3111247 202.291762,40.3322435 C202.558009,40.3435571 202.462975,40.6905076 202.464483,40.8918897 C202.474288,41.9312328 202.444119,42.9713301 202.475043,44.0091647 C202.489373,44.49037 202.310618,44.6638452 201.860337,44.5906839 C201.463606,44.5265735 201.013325,44.7913119 200.667883,44.4021239" id="Fill-111" fill="#2B688A"></path>
                        <path d="M216.482642,24.4994583 C216.341599,23.5083866 217.14939,22.9434606 217.580061,22.2329663 C217.747503,21.9561601 218.361454,21.9923637 218.791371,22.0006603 C217.752782,22.5844423 217.046059,23.4767085 216.482642,24.4994583" id="Fill-113" fill="#176B98"></path>
                        <path d="M156.312145,51.8200768 C156.636468,51.4173125 157.55287,52.0795354 157.501582,51.03265 C158.070279,51.801975 160.342805,51.9317044 161.385165,51.34038 C161.484724,51.7476697 161.311249,51.8608058 160.914519,51.8540176 C159.380394,51.8276192 157.846269,51.8291277 156.312145,51.8200768" id="Fill-115" fill="#176B98"></path>
                        <path d="M247.810162,26.9337687 C246.820598,26.9925994 245.939646,26.4555804 244.964413,26.4186226 C244.769065,26.4110802 244.671768,26.1923505 244.661963,25.9819175 C245.725442,26.250427 246.881692,26.2172405 247.810162,26.9337687" id="Fill-117" fill="#176B98"></path>
                        <path d="M86.4038027,43.6073809 C86.5893458,43.7423899 86.5621932,43.9430178 86.5621932,44.1315779 C86.5659644,45.9689072 86.5659644,47.8054822 86.5682271,49.6428115 C86.5682271,49.7846086 86.5471084,49.9143379 86.4302011,50.0101265 C86.4211502,47.8756265 86.4120994,45.7418808 86.4038027,43.6073809" id="Fill-119" fill="#2B688A"></path>
                        <path d="M180.550938,23.645432 C181.276517,24.0715778 182.093359,23.8875432 182.864192,23.9312891 C183.079151,23.9433569 183.133456,23.2336169 183.64634,23.3143206 C183.594297,24.0549845 183.187007,24.2571209 182.487072,24.1673663 C181.956087,24.1002389 181.406246,24.116078 180.870735,24.1635951 C180.342013,24.2096037 180.476268,23.9282721 180.550938,23.645432" id="Fill-121" fill="#176B98"></path>
                        <path d="M134.35078,19.7147089 C134.275356,20.0480831 134.002321,20.286423 134.016652,20.6861704 C134.040033,21.3732833 134.295721,21.6636658 135.00169,21.6847845 C135.66165,21.7036405 136.353288,21.4653006 136.984587,21.8499631 C136.117965,21.8469461 135.250589,21.8318613 134.384721,21.8477004 C134.012881,21.8544885 133.837143,21.7421067 133.862033,21.3453764 C133.886168,20.9403494 133.876363,20.5323054 133.86505,20.1265241 C133.855999,19.7758024 133.990254,19.6181662 134.35078,19.7147089" id="Fill-123" fill="#2B688A"></path>
                        <path d="M241.857999,21.6563496 C241.874592,21.604307 241.874592,21.5266203 241.909288,21.5047473 C242.591121,21.0936864 245.144978,21.334289 245.774769,21.8690454 C245.807201,21.8969523 245.79815,21.9731305 245.807955,22.0266816 C244.524239,21.553773 243.215632,21.3523908 241.857999,21.6563496" id="Fill-125" fill="#176B98"></path>
                        <path d="M112.463407,42.1438531 C112.750773,42.4787358 112.593891,42.8762204 112.599924,43.2435354 C112.621043,44.5551592 112.622552,45.8675373 112.615763,47.1791611 C112.614255,47.4672809 112.720603,47.7855702 112.464915,48.0344695 C112.464161,46.0704279 112.463407,44.1071405 112.463407,42.1438531" id="Fill-127" fill="#2B688A"></path>
                        <path d="M165.70402,42.4377051 C165.167001,41.8856013 164.796669,41.1607764 164.013013,40.8620972 C163.792775,40.7783766 163.421689,40.8983008 163.390765,40.4864856 C164.604338,40.5822741 165.542612,41.3742264 165.70402,42.4377051" id="Fill-129" fill="#176B98"></path>
                        <path d="M134.5143,42.4524128 C135.09431,42.4554298 135.328879,42.7744734 135.362066,43.325823 C135.429947,44.4247511 135.438998,44.4247511 136.56885,44.414946 C136.706122,44.4141917 136.843394,44.4111748 136.980665,44.408912 C136.481358,44.7928203 135.913415,44.5484465 135.379413,44.5642855 C135.125234,44.5718279 135.184819,44.2837082 135.183311,44.1087244 C135.177277,43.4661117 134.970615,42.9094824 134.5143,42.4524128" id="Fill-131" fill="#176B98"></path>
                        <path d="M93.1304944,23.4856085 C93.1139012,23.9751104 93.5045976,23.9275933 93.7987513,23.970585 C94.5914578,24.0859838 95.3366472,23.8235082 96.0931502,23.6545583 C96.1655572,24.0980516 95.8555645,24.1508484 95.5455717,24.1561281 C94.8388486,24.1674417 94.1321255,24.1568823 93.4246481,24.1516027 C92.8401119,24.1470772 92.8680188,23.8664998 93.1304944,23.4856085" id="Fill-133" fill="#2B688A"></path>
                        <path d="M78.9620158,33.8758714 C79.8565448,34.0463297 80.5195219,34.6934679 81.3341014,35.0306133 C81.3386269,35.032876 81.304686,35.1294187 81.288847,35.1814613 C80.3882841,34.9687656 79.5631453,34.6210608 78.9620158,33.8758714" id="Fill-135" fill="#176B98"></path>
                        <path d="M193.694102,23.306929 C193.171414,23.2405559 193.289829,22.6899605 193.253626,22.4667054 C193.139735,21.7675246 192.332698,21.4439556 192.403597,20.6995204 C193.242312,21.3662688 193.557585,22.2924759 193.694102,23.306929" id="Fill-137" fill="#176B98"></path>
                        <path d="M140.012711,21.8378953 C140.211076,21.5595806 140.503722,21.6742251 140.759409,21.6719624 C142.13816,21.6629115 143.516911,21.6659285 144.896417,21.6651742 C144.759145,21.9842179 144.475551,21.8341241 144.265118,21.8356325 C142.8479,21.8499631 141.429929,21.840158 140.012711,21.8378953" id="Fill-139" fill="#2B688A"></path>
                        <path d="M163.358106,23.1401665 C163.195945,23.411693 162.923664,23.3272181 162.700409,23.311379 C161.400853,23.2216244 160.084704,23.5286002 158.79797,23.1552513 C160.318518,23.1499716 161.838312,23.1446919 163.358106,23.1401665" id="Fill-141" fill="#2B688A"></path>
                        <path d="M81.6500527,21.6603471 C80.9380499,21.9454499 80.4357258,21.3850494 79.8496812,21.1866842 C79.6867653,21.1308704 79.3978913,20.9249629 79.5879598,20.6081819 C80.2758269,20.9589037 80.9629398,21.3096254 81.6500527,21.6603471" id="Fill-143" fill="#176B98"></path>
                        <path d="M159.107359,25.4411272 C159.631556,25.1379226 160.204024,25.3679659 160.74934,25.2925419 C161.6137,25.4071864 162.508983,25.0934225 163.354486,25.4743138 L159.107359,25.4411272 Z" id="Fill-145" fill="#2B688A"></path>
                        <path d="M150.04471,42.1342743 C150.367525,42.6019032 150.197821,43.1313799 150.176702,43.6201276 C150.149549,44.2732996 150.375821,44.5063599 151.007875,44.4226392 C151.273367,44.3879442 151.546402,44.4128341 151.81642,44.4105714 C151.311834,44.7959881 150.739365,44.5516143 150.200838,44.5591567 C149.95571,44.5621737 150.027362,44.2657572 150.026608,44.0907735 C150.025854,43.4383557 150.037168,42.7859379 150.04471,42.1342743" id="Fill-147" fill="#2B688A"></path>
                        <path d="M109.296578,47.3954772 C109.993496,47.9528607 110.514676,48.6188549 110.616499,49.542045 C110.013861,48.9258307 109.701605,48.1331242 109.296578,47.3954772" id="Fill-149" fill="#176B98"></path>
                        <path d="M165.368157,45.43845 C165.441318,44.4315393 165.859921,43.4630948 165.698514,42.4305399 C165.949676,43.4728999 166.127677,44.5069633 165.368157,45.43845" id="Fill-151" fill="#176B98"></path>
                        <path d="M187.770676,50.2099247 C186.465841,50.4422307 185.161005,50.4542985 183.857678,50.2008738 L187.770676,50.2099247 Z" id="Fill-153" fill="#2B688A"></path>
                        <path d="M124.981683,21.6493352 C125.459117,21.2020707 126.951759,21.196791 127.429193,21.6410386 C126.613105,21.5309195 125.797017,21.4615294 124.981683,21.6493352" id="Fill-155" fill="#176B98"></path>
                        <path d="M188.135276,43.7576256 C188.489769,43.6716422 188.808812,43.9311008 189.18367,43.8338038 C189.47179,43.7583798 189.407679,44.057059 189.429552,44.2335512 C189.115034,44.2441105 188.800516,44.2441105 188.486752,44.2667378 C188.067394,44.2969074 188.093038,44.0366945 188.135276,43.7576256" id="Fill-157" fill="#176B98"></path>
                        <path d="M131.589356,42.2962851 C131.573517,42.070013 131.704,41.9055886 131.896332,41.8882411 C132.620402,41.8211137 133.378414,41.4779344 134.039128,42.091886 C133.20343,41.9214277 132.372257,41.8203595 131.589356,42.2962851" id="Fill-159" fill="#176B98"></path>
                        <path d="M122.830213,20.7172451 C122.782696,21.3696629 122.483262,21.8184359 121.818777,21.9738094 C121.920599,21.3658917 122.352025,21.0227124 122.830213,20.7172451" id="Fill-161" fill="#176B98"></path>
                        <path d="M99.3931021,51.6926102 C99.2384829,51.6828051 99.0838636,51.6737542 98.9284901,51.6639491 C99.1788979,51.2347864 98.9488546,50.8056237 98.9247189,50.3764609 C99.229432,50.2957572 99.4602295,50.3078251 99.4277972,50.7264284 C99.4029073,51.0477348 99.4036615,51.3697954 99.3931021,51.6926102" id="Fill-163" fill="#0475BA"></path>
                        <path d="M196.333264,48.7073273 C196.281976,48.690734 196.187696,48.6771577 196.185433,48.6560389 C196.061738,47.4432206 195.163437,47.7185183 194.40618,47.7245522 C195.631066,47.1452957 196.259349,47.4658478 196.333264,48.7073273" id="Fill-165" fill="#176B98"></path>
                        <path d="M81.2670495,51.3670801 C81.9307809,51.7419375 82.5937581,51.8249039 83.2529641,51.3565207 C83.2469301,51.4907755 83.2899218,51.6604796 83.2243029,51.7509884 C83.1119211,51.9056076 81.4684316,51.9146585 81.3387023,51.7600393 C81.2640325,51.6717932 81.2874139,51.5013349 81.2670495,51.3670801" id="Fill-167" fill="#2B688A"></path>
                        <path d="M111.599425,51.3530512 C112.423809,51.8840364 113.349262,51.600442 114.229461,51.678883 C113.460135,52.0446895 112.655361,51.8071039 111.86718,51.798053 C111.680883,51.7957903 111.585848,51.5665012 111.599425,51.3530512" id="Fill-169" fill="#2B688A"></path>
                        <path d="M84.2740545,12.7557112 L81.1002115,12.7557112 C82.1584106,12.4909729 83.2166097,12.4864474 84.2740545,12.7557112" id="Fill-171" fill="#2B688A"></path>
                        <path d="M202.436425,47.059614 C201.805126,46.7134177 201.289226,46.2299497 200.811038,45.7004731 C201.532091,45.9403215 202.123416,46.3332806 202.436425,47.059614" id="Fill-173" fill="#176B98"></path>
                        <path d="M183.634875,50.0117858 C183.588867,50.0215909 183.542858,50.0253621 183.495341,50.0230994 C183.579816,49.0410786 183.318849,48.0424645 183.636384,47.0725115 C183.635629,48.0515154 183.634875,49.0320277 183.634875,50.0117858" id="Fill-175" fill="#2B688A"></path>
                        <path d="M159.896973,50.006657 C159.688803,49.0276531 159.623938,48.050912 159.939965,47.0794505 C159.925634,48.0554374 159.911304,49.0314243 159.896973,50.006657" id="Fill-177" fill="#2B688A"></path>
                        <path d="M75.6585189,17.1809896 C75.6562562,18.1946885 75.6547477,19.2083875 75.652485,20.2220864 C75.4186705,19.2076332 75.4081111,18.1939343 75.6585189,17.1809896" id="Fill-179" fill="#2B688A"></path>
                        <path d="M213.151917,25.7766887 L213.151917,28.772531 C212.893967,27.7739169 212.893967,26.7753028 213.151917,25.7766887" id="Fill-181" fill="#2B688A"></path>
                        <path d="M204.27119,21.6397563 C204.74787,21.1977716 205.803806,21.2060682 206.251071,21.6563496 C205.591865,21.6080783 204.933413,21.359179 204.27119,21.6397563" id="Fill-183" fill="#176B98"></path>
                        <path d="M88.2040234,29.8829989 C88.1708368,30.5165608 88.4680075,31.2828689 87.5319953,31.5536411 C87.7560047,30.9970118 87.980014,30.4396283 88.2040234,29.8829989" id="Fill-185" fill="#176B98"></path>
                        <path d="M162.710667,47.4021145 C163.555416,47.6200899 163.376661,48.2973977 163.378169,48.8924932 C163.155668,48.3954489 162.933167,47.8991588 162.710667,47.4021145" id="Fill-187" fill="#176B98"></path>
                        <path d="M222.925362,19.6845393 C222.429826,19.5631066 221.82568,19.9847269 221.427441,19.3843517 C221.958426,19.3240125 222.477343,19.325521 222.925362,19.6845393" id="Fill-189" fill="#176B98"></path>
                        <path d="M163.413317,28.592871 L165.995835,28.592871 C165.134493,28.8855162 164.274659,28.8855162 163.413317,28.592871" id="Fill-191" fill="#2B688A"></path>
                        <path d="M236.906789,22.6779681 C236.902264,23.5581664 236.898492,24.4383648 236.894721,25.317809 C236.640542,24.4368563 236.60811,23.556658 236.906789,22.6779681" id="Fill-193" fill="#2B688A"></path>
                        <path d="M101.092707,19.3471677 C100.252483,19.3471677 99.4122598,19.3471677 98.5720362,19.3471677 C99.4122598,19.0982684 100.252483,19.1012853 101.092707,19.3471677" id="Fill-195" fill="#2B688A"></path>
                        <path d="M188.461636,19.3512406 C187.626692,19.3497321 186.790239,19.3482236 185.954541,19.3474694 C186.790994,19.0955531 187.626692,19.0932904 188.461636,19.3512406" id="Fill-197" fill="#2B688A"></path>
                        <path d="M181.171828,21.8050858 C181.245744,22.4235628 181.030031,22.9243783 180.557877,23.321863 C180.715513,22.7969117 180.766801,22.2289688 181.171828,21.8050858" id="Fill-199" fill="#176B98"></path>
                        <path d="M135.052676,48.0451797 C135.518797,48.5324189 135.496924,49.304761 135.005913,49.6811269 C135.193719,49.1403366 135.294787,48.5972836 135.052676,48.0451797" id="Fill-201" fill="#176B98"></path>
                        <path d="M83.6144714,50.5236886 C83.4417504,50.1020683 83.4666403,49.7483297 83.9448286,49.5469475 C83.9184302,49.9014404 83.8482859,50.2400943 83.6144714,50.5236886" id="Fill-203" fill="#176B98"></path>
                        <path d="M156.461635,50.3726897 C156.368864,50.6992758 156.699221,51.1586081 156.156168,51.3426427 C156.267795,51.0220906 155.793378,50.5175039 156.461635,50.3726897" id="Fill-205" fill="#0675B9"></path>
                        <path d="M223.731192,20.1529979 C223.272614,20.3672022 223.057656,20.2020236 223.051622,19.7140301 C223.369911,19.7170471 223.688955,19.7208183 223.731192,20.1529979" id="Fill-207" fill="#176B98"></path>
                        <path d="M214.121266,31.9026281 C214.818939,31.9403401 214.838549,32.4607659 214.879278,32.9668611 C214.524031,32.6847752 214.371674,32.2586295 214.121266,31.9026281" id="Fill-209" fill="#176B98"></path>
                        <path d="M79.5500969,20.5636063 C78.8682637,20.9211162 78.9233233,20.4806399 78.9813998,20.0379009 C79.1714683,20.2128846 79.3607826,20.3886226 79.5500969,20.5636063" id="Fill-211" fill="#176B98"></path>
                        <path d="M181.551211,50.0243062 C181.831788,50.0710691 181.883077,50.252841 181.807653,50.4866555 C181.791814,50.5349268 181.665856,50.598283 181.637194,50.5801812 C181.480312,50.4828842 181.530847,50.3048835 181.503694,50.1562982 C181.500677,50.1050099 181.516516,50.0620182 181.551211,50.0243062" id="Fill-213" fill="#0475BA"></path>
                        <path d="M224.050839,32.0451795 C224.086289,32.608597 223.715202,32.6251902 223.309421,32.5965291 C223.556058,32.4124945 223.803448,32.2292141 224.050839,32.0451795" id="Fill-215" fill="#176B98"></path>
                        <path d="M83.94596,49.5455145 C83.948977,49.2800219 83.8132137,48.9556986 84.237851,48.8734864 C84.2770715,49.1570807 84.1503591,49.368268 83.94596,49.5455145" id="Fill-217" fill="#176B98"></path>
                        <path d="M108.96509,46.7325754 C109.662762,46.6616768 109.167226,47.1919077 109.302989,47.4046035 C109.108395,47.2213231 108.9847,47.0025934 108.96509,46.7325754" id="Fill-219" fill="#176B98"></path>
                        <path d="M161.868708,47.0654971 C162.167387,47.1318702 162.619177,46.8188605 162.71044,47.4018882 C162.404973,47.3521084 162.110819,47.2736674 161.868708,47.0654971" id="Fill-221" fill="#176B98"></path>
                        <path d="M131.08409,42.8060007 C131.034311,42.4190754 131.179125,42.2259899 131.589431,42.2976427 C131.420482,42.4673468 131.252286,42.6362966 131.08409,42.8060007" id="Fill-223" fill="#176B98"></path>
                        <path d="M135.016624,49.6707183 C135.0302,50.0410503 134.775267,50.0282282 134.521842,50.0161604 C134.687021,49.9015159 134.851445,49.7861171 135.016624,49.6707183" id="Fill-225" fill="#176B98"></path>
                        <path d="M196.657361,49.3606502 C196.313428,49.3289721 196.357928,49.0747931 196.361699,48.8439956 C196.55403,48.9624113 196.604564,49.162285 196.657361,49.3606502" id="Fill-227" fill="#176B98"></path>
                        <path d="M214.902735,33.0067604 C214.994752,32.9841332 215.086769,32.9607517 215.178032,32.9381245 C215.168227,33.0361758 215.156914,33.1334728 215.1456,33.231524 C215.064896,33.1561 214.983438,33.0821844 214.902735,33.0067604" id="Fill-229" fill="#176B98"></path>
                        <path d="M218.456639,32.544562 C218.219054,32.5483332 218.112706,32.4269005 218.123265,32.1938402 C218.306546,32.2421116 218.378953,32.3952224 218.456639,32.544562" id="Fill-231" fill="#176B98"></path>
                        <path d="M103.359124,27.7425405 C101.616074,27.8292782 99.8669913,27.6942691 98.1284675,27.9107361 C98.1450608,27.6558029 98.321553,27.6158282 98.5267064,27.6158282 C100.069882,27.6165824 101.613057,27.6165824 103.155479,27.6241248 C103.22336,27.6241248 103.291242,27.7010573 103.359124,27.7425405" id="Fill-233" fill="#2B688A"></path>
                        <path d="M183.504542,32.2035699 C184.72792,33.2972183 186.138349,33.3417185 187.630991,32.9472508 C187.784856,32.9072761 187.946263,32.8921913 188.1039,32.8657929 C188.256256,33.6139992 187.540482,33.440524 187.281023,33.4857784 C186.206231,33.6735842 185.155574,33.4759733 184.138859,33.0437936 C183.721764,32.8665471 183.549797,32.6093512 183.504542,32.2035699" id="Fill-235" fill="#176B98"></path>
                        <path d="M190.725035,29.898838 C190.712213,29.3791665 190.941502,28.8964527 190.92868,28.3662218 C190.916612,27.9008556 190.782358,27.751516 190.316991,27.7696178 C188.926172,27.8216603 187.530074,27.6843886 186.144534,27.9076437 C186.221467,27.4980913 186.55107,27.6338545 186.799215,27.6127358 C188.062567,27.5033709 189.344776,27.7884738 190.596814,27.4430317 C190.743137,27.4023027 190.780849,27.5116676 190.85401,27.5742695 C191.253003,27.9166946 191.16174,29.5390654 190.725035,29.898838" id="Fill-237" fill="#2B688A"></path>
                        <path d="M156.962526,31.3461496 C157.191815,31.8175498 157.103569,32.2897042 157.014569,32.7656298 C156.694771,32.3070517 156.764161,31.8288634 156.962526,31.3461496" id="Fill-239" fill="#0A73B1"></path>
                        <path d="M182.178739,49.6943261 C182.037696,49.6716989 181.879306,49.6181478 181.876289,49.4695625 C181.861204,48.7032544 181.8695,47.9354378 181.8695,47.1683754 L182.178739,47.1646042 L182.178739,49.6943261 Z" id="Fill-241" fill="#0475BA"></path>
                        <path d="M158.765613,48.131314 C158.765613,48.514468 158.767121,48.8976221 158.764859,49.2792676 C158.76335,49.4912092 158.703011,49.6609132 158.45034,49.6684556 C158.199178,49.675998 158.118475,49.5160991 158.117721,49.3003864 C158.113195,48.5076799 158.10867,47.7149734 158.116966,46.9215126 C158.119229,46.6959948 158.17806,46.4546379 158.469951,46.4750024 C158.702257,46.4900872 158.758825,46.7020287 158.762596,46.9011481 C158.771647,47.3114548 158.765613,47.7217615 158.765613,48.131314" id="Fill-243" fill="#0376BA"></path>
                        <path d="M161.966005,42.0436146 C159.922768,41.6959098 159.923523,41.6959098 159.928802,43.7165195 C159.930311,44.2648522 159.927294,44.8131848 159.925785,45.3615175 C159.559979,44.2837082 159.826226,43.1779919 159.780971,42.0866063 C159.778708,42.0172162 159.831505,41.9289701 159.884302,41.8769275 C160.114345,41.6551809 161.639419,41.7826475 161.966005,42.0436146" id="Fill-245" fill="#2B688A"></path>
                        <path d="M159.348263,47.1730517 L159.348263,49.5768154 C159.063915,48.7803377 159.077491,47.9785803 159.144619,47.1768229 C159.2125,47.1753145 159.280382,47.1745602 159.348263,47.1730517" id="Fill-247" fill="#0376BA"></path>
                        <path d="M162.229688,42.0952046 C162.163314,42.0876622 162.096941,42.0808741 162.030568,42.0748401 C162.105992,41.9941364 162.170857,42.0190264 162.229688,42.0952046" id="Fill-249" fill="#2B688A"></path>
                    </g>
                </g>
            </g>
        </g>
    </g>
</svg>