<?xml version="1.0" encoding="UTF-8" standalone="no"?>
<svg width="159px" height="43px" viewBox="0 0 159 43" version="1.1" xmlns="http://www.w3.org/2000/svg" xmlns:xlink="http://www.w3.org/1999/xlink">
    <!-- Generator: sketchtool 50.2 (55047) - http://www.bohemiancoding.com/sketch -->
    <title>682B79DD-CC01-481E-AAB5-79DD0789C24E</title>
    <desc>Created with sketchtool.</desc>
    <defs>
        <polygon id="path-1" points="0.313180273 0.201704555 8.79306448 0.201704555 8.79306448 10.5338229 0.313180273 10.5338229"></polygon>
    </defs>
    <g id="Reports" stroke="none" stroke-width="1" fill="none" fill-rule="evenodd">
        <g id="Report-filter-save-option" transform="translate(-10.000000, -4.000000)">
            <g id="logo-with-text" transform="translate(10.000000, 4.000000)">
                <g id="Group-2">
                    <path d="M40.0312207,21.0530677 C39.0555945,20.6759148 38.0833144,20.2915917 37.10482,19.923999 C36.0230747,19.5172092 34.9384613,19.1185457 33.8490678,18.7337446 C33.6330056,18.6577404 33.5369248,18.5659617 33.5488751,18.3298229 C33.6057588,17.2246549 33.476695,16.1280912 33.3461973,15.0343955 C33.131091,13.2279812 32.3590987,11.6878207 31.0407365,10.4349464 C29.6167333,9.0807332 27.8652906,8.4311124 25.9675757,8.06112969 C24.59472,7.79344195 23.2428969,7.41724506 21.8781674,7.10558004 C20.8012022,6.8589249 19.7161108,6.6447747 18.6377116,6.40194368 C17.6639974,6.18205731 16.6969754,5.93157806 15.7218272,5.71551581 C14.7098719,5.49132732 13.6931365,5.2867374 12.675923,5.08453755 C12.2643531,5.00231917 11.8919804,4.75996616 11.3666432,4.88568379 C16.372404,9.39670035 21.3776869,13.9077169 26.3829697,18.4187334 C26.3676733,18.4674909 26.3518988,18.5162483 26.3361244,18.5650057 C17.5626585,16.6596425 8.78967058,14.7538014 -4.78013834e-05,12.8450921 C0.662479373,11.2824649 1.51764612,9.84459931 2.50426667,8.47317762 C3.6075226,6.93970924 4.92970887,5.62039106 6.40438155,4.46598765 C8.07599592,3.15766378 9.91634918,2.13471418 11.914925,1.37323814 C13.4880686,0.773330781 15.1037553,0.369409091 16.7557711,0.175335474 C18.7734675,-0.0612813735 20.7969001,-0.0416828063 22.8232007,0.311091403 C24.3805698,0.582603261 25.875319,1.00994763 27.3356513,1.5859543 C29.2343223,2.33404595 30.9475238,3.39571467 32.5479142,4.65528113 C34.3930476,6.10748715 35.9379883,7.84602347 37.1889505,9.80922628 C38.2759539,11.5152577 39.0895335,13.3747315 39.6186948,15.3489286 C40.1182192,17.2150946 40.3959453,19.0999032 40.3285453,21.0325131 C40.2295965,21.0392053 40.1301696,21.0458975 40.0312207,21.0530677" id="Fill-1" fill="#EAB603"></path>
                    <path d="M40.0312207,21.0530677 C40.1301696,21.0458975 40.2295965,21.0392053 40.3285453,21.0325131 C40.4394445,24.0105393 39.7697472,26.8241287 38.6038714,29.5497636 C37.7922039,31.4479565 36.7114146,33.1802787 35.3667617,34.7213953 C33.889221,36.4135642 32.2061343,37.893017 30.2558378,39.0541126 C27.9365147,40.4350946 25.4527548,41.3590954 22.8007341,41.7988681 C20.9995779,42.0971487 19.1812133,42.1334778 17.3518544,41.9647389 C14.7151301,41.7219079 12.2232439,41.0091892 9.86806979,39.8208468 C8.31882695,39.0383382 6.90008189,38.0588878 5.5769396,36.924561 C3.85178767,35.4460642 2.446427,33.7194783 1.28437537,31.7792201 C0.848426754,31.051205 0.482746171,30.2878169 0.117065588,29.5234728 C-0.00100382905,29.2763397 0.0597039279,29.2323624 0.320221467,29.1773908 C2.73705941,28.6687841 5.1486392,28.1338866 7.56308708,27.6138076 C10.9732378,26.8786223 14.3872126,26.1568214 17.7954512,25.4139879 C20.5641073,24.8107344 23.3275053,24.1840583 26.0937714,23.5712446 C26.1759897,23.552602 26.2653783,23.5688545 26.4322052,23.5688545 C25.97618,24.1859704 25.3877449,24.5860679 24.871012,25.038269 C24.3906081,25.4589212 23.9221545,25.8977379 23.4417506,26.3183901 C21.8399263,27.7194486 20.2878153,29.1773908 18.7103697,30.6066522 C17.3140913,31.8724328 15.9115987,33.1319993 14.507194,34.3882196 C13.6568074,35.1492176 12.7982946,35.9011334 11.9402598,36.6530492 C11.7299337,36.8375625 11.5478104,37.0421524 11.3432205,37.3576416 C11.8475251,37.2510445 12.2849077,37.1630899 12.7203783,37.0650971 C15.7189591,36.3910976 18.7256661,35.7515151 21.7113405,35.0268461 C23.8088652,34.5182394 25.9518013,34.1884098 28.0000905,33.4847735 C30.919799,32.4809444 32.6970545,30.4374353 33.303176,27.4292942 C33.5201943,26.350417 33.6167531,25.2318646 33.5369248,24.1228725 C33.5020298,23.6396005 33.6750708,23.4244943 34.1148435,23.2667498 C36.0359811,22.5784098 37.9461244,21.859477 39.8596138,21.1501045 C39.9203215,21.1276378 39.9738591,21.0855726 40.0312207,21.0530677" id="Fill-4" fill="#48B1FB"></path>
                </g>
                <path d="M62.190986,17.6889975 C61.8659366,17.8362258 61.5298929,17.9624214 61.2187059,18.1345064 C60.3343803,18.6220805 60.2708045,20.0771546 61.0953783,20.6101401 C62.3888838,21.4466643 64.4424312,20.9418817 65.1149967,19.7066939 C65.4668148,19.0608972 65.6919594,18.3481786 65.506012,17.5824004 C65.4629907,17.5561097 65.4199695,17.5073523 65.3769482,17.5073523 C64.3989319,17.5020941 63.4209156,17.5025721 62.4428993,17.5020941 C62.3128796,17.5020941 62.2010243,17.5274289 62.190986,17.6889975 M77.8459391,13.1297016 C78.152824,12.5470027 78.7560774,12.418895 79.2976671,12.2950894 C80.4052252,12.0426981 81.4993988,12.1311307 82.5534193,12.6320892 C83.6060058,13.1335257 83.9692963,14.0450981 84.0013232,15.0909923 C84.0543828,16.8094521 84.0347842,18.5307799 84.0051474,20.2497176 C83.9965431,20.7229513 84.1179586,20.9103328 84.5959725,20.8424548 C84.7823979,20.816164 84.9764715,20.8472349 85.167199,20.8520151 C85.1853635,20.8998165 85.1973139,20.9849029 85.2236046,20.9896831 C85.7293433,21.0785936 85.5892852,21.4614827 85.5563022,21.7631094 C85.5166271,22.1197078 85.2250387,22.093895 84.9563949,22.092461 C83.9138467,22.0886369 82.8712985,22.0915049 81.8287504,22.0910269 C80.5816123,22.0905489 80.5816123,22.0905489 80.5577116,20.8577512 C80.9740616,20.850103 81.3908897,20.8276364 81.8067617,20.8405427 C82.0620211,20.848669 82.1318111,20.7521102 82.1308551,20.5107132 C82.1222509,18.8252364 82.161448,17.1383256 82.1074324,15.4542829 C82.0801856,14.6072423 81.5247336,14.0517903 80.7608675,13.7152685 C80.4582847,13.4341964 79.5118173,13.4370645 79.2097126,13.7205267 C77.8617136,14.1483491 77.2747126,15.2152759 77.2316913,16.4346892 C77.184368,17.773606 77.2283452,19.1153908 77.2163949,20.4557416 C77.2140048,20.7372917 77.2747126,20.8625314 77.5858996,20.8434108 C77.9491901,20.8209442 78.3153487,20.8515371 78.6805513,20.8591853 C78.7235725,20.9318434 78.7689838,21.0030674 78.808659,21.0766816 C79.0830389,21.5872003 78.8908773,22.0895929 78.4147756,22.0900709 C74.1929574,22.0900709 69.9706612,22.0872028 65.748843,22.0848127 L65.748843,20.7396818 C65.1040023,21.8042186 64.1651832,22.2698041 62.9782748,22.4323288 C61.8276955,22.5895954 60.7502523,22.4633997 59.7617197,21.8787888 C59.1355216,21.5088061 58.7029191,20.8959923 58.6436454,20.1737134 C58.5666852,19.2406304 58.4968951,18.2745645 59.2445088,17.4906218 C59.7612417,16.9495101 60.3702313,16.6129884 61.0896422,16.4695842 C62.4558057,16.1975944 63.8415678,16.2305773 65.2249398,16.2415716 C65.3367951,16.2425277 65.4476943,16.2979773 65.5609836,16.3285702 C65.7995125,14.9915655 65.3119384,13.973396 64.2693902,13.7501635 C62.8602054,13.4485368 61.2765456,13.696626 60.9008267,14.9910875 C60.4213788,15.0986406 59.9491012,15.2649894 59.4467086,15.1913752 C59.2602832,15.1646065 59.0126721,15.1947213 59.0231884,14.8844904 C59.2339925,13.4279822 59.9882983,12.8290309 61.3549398,12.383044 C61.7144063,12.2659306 62.0929932,12.2434639 62.4720582,12.2616285 C63.0045656,12.2616285 63.537073,12.2616285 64.0695804,12.2616285 C65.2258959,12.3113419 66.2808724,12.5804637 66.9477017,13.6416544 C67.2971298,14.1971065 67.3860404,14.8338209 67.3932106,15.4691013 C67.4128092,17.1043866 67.4099411,18.74015 67.3922546,20.3759133 C67.3884305,20.7339457 67.4782971,20.8587073 67.8521039,20.8443668 C68.5992395,20.815686 69.3482872,20.8290704 70.0963788,20.8414988 C70.3392099,20.8453229 70.4305105,20.7721868 70.4295545,20.5193174 C70.4214282,18.396458 70.4199942,16.2735986 70.4281204,14.1507391 C70.4290765,13.8811393 70.308617,13.8266458 70.0810824,13.8390741 C69.8903549,13.8495904 69.6972373,13.8562826 69.5074658,13.8376401 C69.2364319,13.8103933 68.8530648,13.9858244 68.7173089,13.7616359 C68.5246693,13.4437567 68.6652054,13.0183244 68.6575572,12.6392594 C68.6537331,12.4260652 68.8487627,12.4805588 68.9740023,12.4800808 C69.9486726,12.4767347 70.9233428,12.4968113 71.8970569,12.4719545 C72.2603475,12.4623943 72.3263134,12.5976722 72.3229673,12.9217656 C72.3071928,14.3314284 72.314841,15.7406131 72.313885,17.1502759 C72.313885,18.2286751 72.3310935,19.3080304 72.3038467,20.3864296 C72.2947645,20.7635825 72.4147459,20.8572732 72.7718223,20.8448449 C73.5022274,20.8195101 74.2335886,20.8247683 74.9639937,20.8438888 C75.2598843,20.8520151 75.3464048,20.7583244 75.3444927,20.4633898 C75.3334984,18.3926339 75.3334984,16.322356 75.3449707,14.2516 C75.3464048,13.9432811 75.2751807,13.8051351 74.940093,13.834772 C74.6116975,13.8639308 74.2780438,13.8242557 73.9491703,13.8491124 C73.6164727,13.8744471 73.5452486,13.7296089 73.5438146,13.4255921 C73.5404685,12.4776907 73.5289962,12.4781687 74.4510849,12.4791248 C75.1991765,12.4800808 75.9487022,12.5006354 76.6953598,12.4700425 C77.0572163,12.4552241 77.1317864,12.5895459 77.1317864,12.9136393 C77.1317864,13.2501611 77.0385737,13.5995892 77.2049226,13.9260726 C77.6260527,13.8280798 77.8158242,13.5431835 77.8459391,13.1297016" id="Fill-6" fill="#FFFFFF"></path>
                <path d="M120.875549,18.9489464 C121.152319,18.7209338 121.210159,17.692726 120.95729,17.4757078 C120.910922,17.4360326 120.887022,17.3667206 120.794287,17.3925333 C120.000784,17.6114637 119.188161,17.4307745 118.387487,17.5000865 C118.230221,17.5134708 118.021329,17.4274284 117.973049,17.6869899 C117.365972,17.7830707 116.731647,17.8958819 116.33394,18.3872801 C115.825333,19.0158683 115.846366,19.7271529 116.299523,20.4097567 C116.327726,20.6669281 116.437191,20.8299308 116.701533,20.9417861 C117.345895,21.216166 118.011769,21.3409276 118.692938,21.2219022 C118.856897,21.1936994 119.31101,21.3031645 119.213973,20.8294528 C120.019427,20.4245751 120.614076,19.83375 120.875549,18.9489464 M130.515176,21.0488612 C130.530473,20.9871974 130.531429,20.8820343 130.563934,20.871518 C130.659537,20.8394911 130.76709,20.8442712 130.870341,20.835667 C131.296251,20.799816 131.879428,21.0306966 132.106006,20.7300259 C132.317767,20.4494318 132.172928,19.8958918 132.174362,19.4623333 C132.177708,18.244832 132.176274,17.0268528 132.176274,15.8093515 C132.175796,14.71948 131.747974,14.1095343 130.715464,13.7252112 C130.432002,13.439837 129.762783,13.4341008 129.460678,13.7146949 C128.413828,13.8437586 127.554837,14.7041835 127.358851,15.8189118 C127.079213,15.8839217 127.166689,16.1138463 127.165733,16.2859313 C127.158085,17.6712154 127.158085,19.0560215 127.159041,20.4413056 C127.159041,20.5722814 127.112674,20.7247678 127.266116,20.8151124 C127.60933,20.8222826 127.952544,20.8332769 128.29528,20.835667 C128.951115,20.8404471 129.048152,20.938918 129.044328,21.6162636 C129.043372,21.7018281 129.03429,21.7873925 129.029031,21.873435 C128.828266,21.905462 128.722146,22.1043157 128.474057,22.1019256 C126.216876,22.0832831 123.959217,22.0880632 121.701557,22.0961895 C121.409491,22.0971455 121.30385,21.9919825 121.30146,21.7018281 C121.29907,21.4164538 121.402799,21.113871 121.217807,20.8442712 C121.202033,20.7601408 121.186258,20.6760104 121.166182,20.5694133 C120.246005,22.2845269 118.751734,22.6363451 116.987385,22.4284091 C116.332028,22.3509708 115.732121,22.2023085 115.154202,21.8567045 C114.106874,21.2295504 113.851614,19.8275358 114.038996,18.8514316 C114.351139,17.2323987 115.608793,16.6458757 116.708703,16.446066 C117.961099,16.2185314 119.218753,16.2180534 120.481188,16.2582065 C120.528989,16.5239822 120.725453,16.4584943 120.886544,16.4240773 C121.043332,16.3906164 121.099738,16.2586845 121.099738,16.1071542 C121.099738,15.6573431 121.125073,15.204664 121.086832,14.7577211 C121.044288,14.2605867 120.693904,13.9522678 120.246961,13.9436635 C119.112634,13.5316156 118.010813,13.5201433 116.906123,14.0918478 C116.584419,14.2586747 116.495987,14.4991156 116.38939,14.7758856 C116.06434,14.7247381 116.029445,15.1745492 115.893689,15.1669009 C115.405159,15.1391761 114.88747,15.2558115 114.427621,14.9857337 L114.431923,14.7806658 C114.73116,14.5287525 114.867872,14.2113513 114.821026,13.8193799 C115.213476,12.9847678 115.944837,12.6004447 116.781361,12.3796023 C117.126965,12.2878236 117.487865,12.2352421 117.852112,12.2615329 C118.381751,12.2624889 118.911869,12.2634449 119.44103,12.2644009 C120.381761,12.23333 121.219241,12.5048419 121.939608,13.1186117 C121.894675,13.5908893 122.405672,13.7959573 122.47833,14.2385981 C122.500796,14.3800902 122.425748,14.7290403 122.75749,14.7711055 C122.763226,16.6305793 122.779479,18.4905311 122.766572,20.3500049 C122.763704,20.7214217 122.825846,20.8758202 123.240762,20.8457053 C123.811988,20.8045961 124.388473,20.8222826 124.961134,20.8437932 C125.26515,20.8552656 125.386566,20.7864316 125.383698,20.4475198 C125.367445,18.3791539 125.367923,16.31031 125.381786,14.2419442 C125.383698,13.9216749 125.296699,13.7945232 124.973084,13.8375445 C124.819642,13.8580991 124.660941,13.8408906 124.50463,13.8408906 C123.575372,13.8408906 123.575372,13.8408906 123.624607,12.8977693 C124.524707,12.8977693 125.424807,12.9073295 126.323951,12.8925111 C126.6251,12.887253 126.89709,12.9312302 127.143267,13.1061833 C127.155695,13.3576186 127.168124,13.6090539 127.183898,13.9317132 C127.878452,12.7634474 128.838782,12.1936549 130.142804,12.2615329 C130.924356,12.302642 131.704475,12.1926989 132.471209,12.5579014 C133.595976,13.094233 134.024754,14.0105855 134.048655,15.1544726 C134.084506,16.8576359 134.077813,18.5631892 134.042918,20.2668305 C134.032402,20.7634869 134.193971,20.8882485 134.649518,20.8447493 C135.095505,20.802206 135.566827,20.7754373 135.720269,21.3657843 C135.621798,21.4154978 135.527151,21.493892 135.539102,21.6004891 C135.595985,22.1014476 135.291969,22.1004916 134.92581,22.0961895 C133.673414,22.081371 132.421018,22.0761129 131.169099,22.0976235 C130.792424,22.1043157 130.684871,21.974774 130.693954,21.6186537 C130.699212,21.4274481 130.852654,21.14781 130.515176,21.0488612" id="Fill-8" fill="#FFFFFF"></path>
                <path d="M99.4779293,19.8662071 C99.3522117,20.172136 99.3082344,20.4751968 99.5109123,20.7658292 C99.5673179,20.4642024 99.6232456,20.1649658 99.4779293,19.8662071 M106.880452,20.8528277 C106.96745,20.8475695 107.054449,20.8442234 107.140969,20.8375312 C107.533896,20.8059823 108.070706,21.0115283 108.280554,20.7457526 C108.477974,20.4962294 108.351778,19.9828425 108.352256,19.585613 C108.354646,17.8279562 108.343174,16.0702993 108.357514,14.3121644 C108.360382,13.9718186 108.309713,13.8083378 107.913917,13.8312825 C107.522902,13.8532711 107.010471,14.0071916 106.761904,13.7576684 C106.512381,13.5067111 106.691636,12.9971483 106.6859,12.6013529 C106.67395,11.8011577 106.668691,11.0000065 106.688768,10.2002894 C106.697372,9.87810808 106.63284,9.7509564 106.270028,9.75525852 C104.52958,9.77581312 102.789609,9.77342305 101.049161,9.75669256 C100.711205,9.75334647 100.609388,9.840823 100.615602,10.185949 C100.639981,11.6821323 100.635679,13.1787936 100.641415,14.6749769 C101.456907,14.9115937 102.291041,14.7170421 103.114181,14.7739258 C103.255673,14.7839641 103.428714,14.8375016 103.531009,14.6654166 C103.537223,14.0927561 103.561124,13.5196175 103.542481,12.9474349 C103.532443,12.6448521 103.635694,12.5764962 103.924892,12.57076 C105.224134,12.5463813 105.22509,12.536821 105.221266,13.8513591 C105.216485,15.2748843 105.208837,16.6979314 105.203101,18.1214566 L103.566382,18.1214566 C103.553475,17.4622756 103.541047,16.8035725 103.529097,16.1448694 C102.993243,15.9034725 102.425841,16.1023262 101.878037,16.0296681 C101.51857,15.6042358 101.041513,15.8246002 100.640937,15.8714455 C100.316366,15.9087306 100.205944,16.2361701 100.189214,16.6195372 C100.138544,17.7658144 100.419139,18.9321681 100.007569,20.0626708 C99.9669375,20.1750041 99.9224822,20.3729018 100.103171,20.4670705 C100.294855,20.3896323 100.105562,20.1104722 100.330228,20.0555006 C100.45738,20.1778722 100.446863,20.3432649 100.400018,20.4512961 C100.156709,21.0086602 100.628509,20.9818914 100.901933,21.0325609 C101.221724,21.0908786 101.561592,21.0631538 101.890943,21.0421212 C102.223163,21.0206105 102.313985,21.1702289 102.298689,21.4747237 C102.279568,21.864305 101.985112,22.0865814 101.411017,22.0884935 C100.053936,22.0927956 98.6968547,22.0937516 97.3402515,22.0851474 C97.1729466,22.0841913 96.8918745,22.1879203 96.8894844,21.8934638 C96.8866164,21.5588541 97.1920672,21.6807477 97.3698883,21.6788356 C98.6739101,21.6687973 99.9788878,21.6759675 101.283388,21.6707094 C101.459775,21.6702313 101.652892,21.7204228 101.813505,21.5344754 C101.399067,21.6874398 101.07593,21.070324 100.638069,21.4403067 C100.6113,21.4632514 100.512829,21.452257 100.494665,21.4250103 C100.356519,21.2228104 100.291987,21.277304 100.094567,21.4116259 C99.8440879,21.5832328 99.4334741,21.5325634 99.1973352,21.381033 C98.8326107,21.1472842 99.4554627,21.3069408 99.3522117,21.1171693 C99.328789,21.0736701 99.3182727,20.9952758 99.2881579,20.9876276 C98.7212334,20.8427894 98.9568943,20.4283514 99.0147339,20.1080821 C99.0606233,19.8552128 98.9803169,19.7887689 98.7604306,19.792115 C98.7542164,16.6429599 98.7374859,13.4938047 98.7542164,10.3446496 C98.7570845,9.86998184 98.6399711,9.70411104 98.1614792,9.75525852 C97.7656838,9.79732374 97.3608061,9.7476103 96.9616645,9.76864291 C96.6629059,9.78489538 96.5381443,9.72370961 96.5352762,9.37906164 C96.527628,8.2997064 96.5104195,8.30018441 97.5878626,8.30018441 C101.016178,8.2997064 104.444493,8.30496455 107.87233,8.29014612 C108.247571,8.28823407 108.379503,8.35754607 108.367553,8.76720393 C108.333614,9.86233362 108.368987,10.9598534 108.347954,12.0554611 C108.341262,12.398675 108.449293,12.4904537 108.784859,12.4894977 C109.227978,12.4880636 109.822149,12.2777375 110.075974,12.5884465 C110.29108,12.8523102 110.13238,13.4211466 110.13955,13.8547052 C110.140506,13.9139789 110.13955,13.9727746 110.13955,14.0965802 C110.76527,12.7944705 111.717952,12.1864369 113.119488,12.2547929 C114.103241,12.3021162 114.105631,12.2614851 114.109455,13.2337652 C114.110411,13.4589097 114.109455,13.6840542 114.109455,13.9555661 C113.568821,13.780613 113.11184,13.5917976 112.534399,13.7022187 C111.45839,13.9082427 110.540125,14.8556661 110.345574,16.0645631 C110.104655,17.5664826 110.298729,19.0789184 110.233719,20.5846619 C110.224158,20.8035923 110.329799,20.8456575 110.517659,20.8403993 C110.847488,20.8317951 111.178752,20.8351412 111.50906,20.8389653 C112.13956,20.8451795 112.336023,21.0516814 112.311645,21.6750115 C112.051127,22.1683218 111.59319,22.0961417 111.148637,22.0932736 C109.886681,22.0851474 108.625202,22.0927956 107.363246,22.0894495 C106.679208,22.0880154 106.446893,21.6472867 106.799667,21.036385 C106.833606,20.9790233 106.854161,20.9140135 106.880452,20.8528277" id="Fill-10" fill="#FFFFFF"></path>
                <path d="M53.4102543,8.08416996 C54.3734522,8.15013587 55.1091155,8.63627594 55.7405718,9.33369812 C55.7525221,9.32031374 55.782159,9.30214921 55.7874171,9.27920455 C55.8567291,8.96275939 55.6377988,8.44507041 55.8897121,8.35950593 C56.3261387,8.21084363 56.8471738,8.29784214 57.3323578,8.3136166 C57.5355137,8.32078681 57.4786301,8.5210746 57.4791081,8.64583622 C57.4824542,9.98475296 57.4733719,11.3231917 57.4834102,12.6621084 C57.4853223,12.9350543 57.3921096,13.0478656 57.1239438,13.0177507 C57.0895268,13.0139266 57.0546318,13.0167947 57.0197368,13.0158387 C56.6387598,13.0048444 56.1612239,13.1281719 55.9050085,12.9441366 C55.6573974,12.7658375 55.7372257,12.2553187 55.6860782,11.886292 C55.5326357,10.7835141 54.4609287,9.75960845 53.3041353,9.67786808 C52.4556607,9.61811635 51.5933237,9.57413908 50.8055569,10.0717515 C50.0426469,10.5540674 49.5837536,11.6750099 49.8839463,12.508188 C49.910715,12.5827582 49.9972355,12.6358177 50.0560312,12.6993935 C50.0192242,12.9799876 49.9843292,13.2591477 50.4164537,13.0325692 C50.4164537,13.0325692 50.4408324,13.060772 50.4403544,13.06125 C50.3198949,13.2615378 50.5029742,13.3920356 50.6062252,13.4274086 C50.9776419,13.5531262 51.2959991,13.9087685 51.7472442,13.7276013 C53.3347281,14.1759783 54.9695354,14.5717737 56.3586437,15.4580114 C57.303199,16.0607868 57.9834127,17.0196826 57.8055915,18.3155781 C57.7424937,18.7778174 57.8591291,19.2486611 57.7300653,19.7209387 C57.2869465,21.3423617 56.0962141,22.0875852 54.573262,22.3992502 C53.5584386,22.6076643 52.5268848,22.6095763 51.5182756,22.2969553 C51.5283139,22.2639723 51.5498245,22.2027866 51.5469564,22.2013525 C51.0307015,21.9876803 50.6105273,21.5775445 50.0436029,21.4695133 C49.7945577,21.3777347 49.7515364,21.111959 49.599528,20.9350939 C49.5784954,20.9628187 49.5483806,20.9848073 49.5474245,21.007274 C49.5072714,22.3399765 49.5082274,22.3337624 48.148278,22.2080447 C47.9197874,22.1870121 47.8557336,22.1100519 47.8566896,21.8935116 C47.8619478,20.5369083 47.8614697,19.1803051 47.8523875,17.8237018 C47.8509534,17.5808708 47.9236115,17.4608893 48.1788709,17.4962624 C48.2128099,17.5010425 48.2481829,17.4962624 48.2830779,17.4953063 C49.4814586,17.4656695 49.4814586,17.4656695 49.7520145,18.6100346 C50.0641575,19.9274407 51.1927481,20.7969479 52.5412252,20.8447493 C53.6248825,20.8834684 54.6258435,20.7276359 55.4747961,19.9977087 C56.0684893,19.8261018 55.8796738,19.3404397 55.9007064,18.9389081 C55.8992724,17.7457856 55.40166,17.0942527 54.2998381,16.6573481 C52.673157,16.0125074 50.9355767,15.6692935 49.3863339,14.8098246 C48.5784905,14.3614476 48.0985646,13.717563 47.9460782,12.8160289 C47.9475122,12.1735783 47.9484683,11.5311277 47.9499023,10.8886771 C48.1745688,9.29019886 49.977159,8.10424654 51.3987721,8.08416996 L53.4102543,8.08416996 Z" id="Fill-12" fill="#FFFFFF"></path>
                <g id="Group-16" transform="translate(149.618330, 11.950346)">
                    <mask id="mask-2" fill="white">
                        <use xlink:href="#path-1"></use>
                    </mask>
                    <g id="Clip-15"></g>
                    <path d="M0.525767416,2.4222395 C0.848904768,1.0675483 1.94403446,0.640203928 3.10226198,0.347181448 C4.06641588,0.102916378 5.03774,0.170316329 5.98564143,0.518788414 C6.41537586,0.676532979 6.68736574,1.03934548 7.05495837,1.31133535 C7.15103916,0.528348691 7.15103916,0.528348691 7.97035487,0.529304718 C8.68020541,0.529782732 8.67924938,0.529782732 8.67829335,1.24345739 C8.67781534,1.90455052 8.65630472,2.56659968 8.68976569,3.22578076 C8.71127631,3.63926272 8.62188772,3.85723703 8.16203841,3.77597468 C8.043969,3.75494207 7.91825136,3.76498036 7.79731386,3.77406262 C7.37235956,3.80513352 7.06882078,3.81182572 7.0697768,3.18849568 C7.07121084,2.66124642 6.58985091,2.31420837 6.16728668,2.00923555 C6.16059449,1.97529657 6.16680867,1.92701717 6.14625408,1.90980867 C5.74711252,1.57089686 4.12807967,1.41793244 3.69643318,1.67892799 C3.67444454,1.69231238 3.67444454,1.74202582 3.66345022,1.77500877 C3.29251149,1.90789662 2.9335231,2.05894899 2.64097863,2.33906509 C2.09795492,2.85914415 2.2012059,3.58142305 2.84939266,3.97578446 C3.37329583,4.29414167 3.97081312,4.24920837 4.53104533,4.38400828 C4.82741391,4.45523234 5.13668886,4.47387488 5.44070566,4.51594009 C5.44691984,4.64930595 5.50858362,4.78840798 5.6323892,4.7927101 C6.25046109,4.81613278 6.80925926,5.15695665 7.4359354,5.11967157 C8.41012759,5.46097344 8.68737562,6.28363525 8.77724222,7.17704311 C8.96892577,9.09387858 7.41442478,10.2721827 5.77627137,10.4734265 C4.90628619,10.5800236 4.06737191,10.558991 3.23275976,10.3008635 C2.65675309,10.1225644 2.19451371,9.79751495 1.89766712,9.25640329 C1.69594528,9.33957769 1.81783881,9.50019034 1.78772394,9.61443565 C1.73275235,9.81902557 1.89957917,10.1722778 1.67108856,10.2157771 C1.25569454,10.2946493 0.811619689,10.2396777 0.381885252,10.2071728 C0.285326458,10.2000026 0.318787426,10.0264836 0.318787426,9.92610067 C0.316875371,8.9872815 0.325001606,8.04846233 0.313529274,7.10964316 C0.310183177,6.8553398 0.400527792,6.7759895 0.645748888,6.7898519 C0.974622406,6.80801643 1.32930867,6.72436401 1.63045739,6.81948876 C1.94785857,6.91987167 1.84651964,7.33669973 1.97223728,7.60056336 C2.48849222,8.68135264 3.77626149,9.30372666 4.96651593,9.01739637 C5.21651717,8.95668861 5.47416663,8.92800778 5.72799197,8.88450852 C6.55447789,8.87494825 7.0004648,8.42322517 7.00620096,7.59004706 C7.01145912,6.70858955 6.76241391,6.39835857 6.0329648,6.37923802 C4.67683955,6.05801272 3.24853421,6.12780274 1.92443589,5.64692083 C1.1954648,5.38162315 0.661523345,4.90743342 0.518119195,4.09528792 C0.520509264,3.53792379 0.522899333,2.98008165 0.525767416,2.4222395" id="Fill-14" fill="#FFFFFF" mask="url(#mask-2)"></path>
                </g>
                <path d="M137.199913,15.5269888 C137.16693,15.949553 137.016356,16.3467825 136.961862,16.7712588 C136.826106,17.8286254 137.117217,18.7793949 137.522094,19.7182141 C137.661674,20.0423074 138.001064,20.1742393 138.239593,20.4032079 C138.232901,20.5509142 138.300301,20.6278744 138.450875,20.6259623 L138.447051,20.6226162 C138.434145,20.7908771 138.575159,20.8654473 138.67124,20.9500557 C139.100496,21.3267306 140.901174,21.3974767 141.267811,21.030362 C141.364848,20.9328472 141.554619,20.8778756 141.499169,20.6747197 C141.499169,20.6747197 141.526416,20.6584673 141.526416,20.6589453 C141.783588,20.6766318 142.018771,20.6661155 141.996304,20.3090392 C142.15596,20.027967 142.322787,19.749285 142.47384,19.4634327 C142.579481,19.2641009 142.511125,18.9070246 142.777856,18.8730856 C143.240096,18.8142899 143.717154,18.8381906 144.184173,18.8730856 C144.354346,18.885514 144.318973,19.1082684 144.29316,19.2292059 C143.918875,20.9863848 142.965238,22.030367 141.035496,22.4084759 C139.945625,22.6226261 138.882522,22.4773099 137.856226,22.0877286 C137.280697,21.8687983 136.74819,21.5580893 136.352873,21.0609549 C136.359565,20.9988131 136.366735,20.9371493 136.373427,20.8750075 C136.315109,20.889826 136.256792,20.9041664 136.198474,20.9185068 C136.198474,20.9185068 136.183178,20.8936501 136.183656,20.8931721 C136.157843,20.5729028 136.145415,20.2425952 135.703252,20.2186945 C135.642544,19.8367615 135.332313,19.5705078 135.246749,19.1847506 C135.176958,18.8687835 135.084224,18.5623766 135.089004,18.2354151 L135.089004,16.3362662 C135.216156,14.1665614 137.034998,12.2205671 139.292658,12.2645443 C139.639696,12.2712365 139.986256,12.2784067 140.333772,12.2850989 C140.586163,12.666076 140.969052,12.3983882 141.283107,12.4753484 C141.311788,12.4734364 141.338079,12.4796506 141.362936,12.494469 C141.367238,12.8032659 141.502994,12.907951 141.793626,12.772195 C142.103379,12.9748729 142.451373,13.1230572 142.721451,13.4906498 C142.721451,13.2721975 142.724319,13.1221012 142.720973,12.9720048 C142.713803,12.6201866 142.90214,12.4896889 143.235794,12.4743924 C144.296984,12.426113 144.296506,12.4203769 144.296984,13.4662711 C144.296984,14.2664663 144.286946,15.0666614 144.303199,15.8663786 C144.308935,16.1531869 144.231975,16.294201 143.927958,16.2444875 C143.894497,16.2387514 143.858646,16.2435315 143.823751,16.2440095 C142.832828,16.2502237 142.832828,16.2502237 142.528333,15.3396073 C142.120587,14.1206721 140.853373,13.4222938 139.594284,13.6871135 C139.275927,13.7545135 138.97191,13.8539403 138.663113,13.9433289 C138.390646,13.9380708 138.001542,13.9151261 137.895423,14.0905572 C137.622477,14.5408462 137.110524,14.8988786 137.199913,15.5269888" id="Fill-17" fill="#FFFFFF"></path>
                <path d="M52.9922312,32.0203303 C52.9726327,32.2210961 52.8545632,32.3788407 52.7632626,32.5480576 C52.3450005,32.8453822 51.9253043,32.7923226 51.5046522,32.5547498 C51.0199461,31.2373436 50.5381082,29.9185035 50.046232,28.6034874 C49.9874363,28.4452648 50.0304575,28.1541544 49.7890605,28.174231 C49.5113345,28.1971756 49.6456564,28.4772917 49.6451784,28.6350363 C49.6408762,29.6914469 49.6580847,30.7478575 49.668123,31.804268 C49.7756761,31.9730069 49.9501512,31.8927006 50.0959454,31.9132552 C50.2436517,31.9342878 50.4305551,31.8807502 50.462104,32.1068508 C50.4864827,32.2803698 50.4764444,32.4352463 50.3354303,32.5853426 C50.1805539,32.7502574 50.0046448,32.7497794 49.8139172,32.7493014 C48.9969916,32.7473893 48.1795879,32.7464333 47.3626623,32.7445212 C47.2971744,31.9022609 47.2957404,31.8883985 48.1059738,31.8080921 C48.3464148,31.7841915 48.3870459,31.6919348 48.3860899,31.4878229 C48.3808318,29.9610467 48.3746176,28.4342705 48.388002,26.9079723 C48.3908701,26.5977414 48.2369496,26.5900931 48.0041569,26.585313 C47.3158169,26.5728846 47.316295,26.5657144 47.3540581,25.8477376 C47.5988011,25.6708725 47.871269,25.6292853 48.1695497,25.6407577 C48.5825536,25.6570101 48.9979476,25.6608342 49.4104736,25.6369335 C49.8569385,25.6101648 50.2436517,25.6221151 50.3602871,26.1818693 C50.3846658,26.2989827 50.4735763,26.48254 50.6724301,26.4849301 C51.1733886,27.9161035 51.6743471,29.3467989 52.1934701,30.8310319 C52.7733009,29.1823622 53.3555217,27.5853179 53.8885072,25.9715432 C54.0060986,25.6149449 54.1633651,25.5217322 54.504189,25.5303365 C55.2694891,25.548979 56.0362233,25.5575833 56.8005674,25.5265124 C57.2943557,25.5064358 57.1499956,25.8367433 57.1576438,26.0814864 C57.164814,26.3214494 57.2618508,26.5972633 56.8106057,26.5948733 C56.0185368,26.5910492 56.0166248,26.620686 56.0161467,27.4328315 C56.0156687,28.7378093 56.0338333,30.0432651 56.0089765,31.3477648 C56.0003723,31.7832354 56.1342162,31.9629686 56.5696868,31.9027389 C57.0711233,31.8334269 57.2188295,32.0915543 57.1471275,32.5437554 C56.8985603,32.7115383 56.6275264,32.7622078 56.3263777,32.7540815 C55.6514222,32.736873 54.9755106,32.7406971 54.3005551,32.7521695 C54.0099227,32.7569496 53.8029427,32.7464333 53.8101129,32.3530279 C53.8163271,32.0174622 53.9100178,31.87119 54.2560998,31.908475 C54.3856416,31.9223375 54.5371719,31.9529303 54.6399449,31.8181304 C54.6853562,31.7770212 54.7312456,31.7359121 54.7766569,31.6948029 C54.851227,31.6340951 54.8641334,31.5523547 54.8641334,31.4620101 C54.8626994,30.2975684 54.8626994,29.1336047 54.8607873,27.969163 C54.8607873,27.8496596 54.8775178,27.7225079 54.7599264,27.6369434 C54.7365037,27.5408626 54.7164271,27.3898103 54.6332527,27.6092186 C54.4597337,28.0666779 54.295775,28.5284392 54.12608,28.9878105 C53.8803809,29.6503377 53.6337258,30.3123869 53.3875487,30.974436 C53.1184269,31.0265395 53.2044694,31.2325635 53.2020793,31.4003463 C53.2020793,31.4003463 53.2016013,31.4013024 53.2016013,31.4013024 C52.8985405,31.5289321 52.8827661,31.7531206 52.9922312,32.0203303" id="Fill-19" fill="#FFFFFF"></path>
                <path d="M85.1473136,12.4945646 C85.5823062,12.4897845 86.0177768,12.4677958 86.4518134,12.4854823 C86.7376656,12.4974327 86.854301,12.4228625 86.8385266,12.1154996 C86.8136698,11.6465681 86.853823,11.1742904 86.8246642,10.7058368 C86.8041096,10.3903477 86.924091,10.2364272 87.2099433,10.1465606 C87.6922593,9.99503026 88.167883,9.8234233 88.7152089,9.63651989 C88.7152089,10.4959888 88.7324174,11.2923598 88.7066046,12.0872968 C88.6956103,12.4204725 88.8031634,12.4940866 89.1176965,12.4845263 C89.8825187,12.4625377 90.6497309,12.4945646 91.414553,12.472576 C91.7439045,12.4634937 91.8944789,12.5404539 91.8528917,12.8965742 C91.8208647,13.1719102 91.8361612,13.4525043 91.830425,13.7307084 C90.9566157,13.7311864 90.0828064,13.7292743 89.2089972,13.7350105 C89.0469505,13.7364445 88.8614811,13.6637864 88.7357635,13.8401735 C88.7295493,15.92766 88.719033,18.0146684 88.7219011,20.1021548 C88.7223791,20.6203218 89.1764922,21.0352378 89.6994394,21.042886 C90.1114873,21.0491002 90.5918912,20.5744324 90.6851039,20.0696498 C90.8681832,19.0782491 90.8681832,19.0796832 91.8595839,19.1623796 C91.9996419,19.1743299 92.1119752,19.1638136 92.1631227,19.3583652 C92.4972543,20.6380083 91.7845357,21.9630626 90.5082388,22.3359134 C89.5517331,22.6150735 88.6086118,22.5892607 87.7424507,22.0151661 C87.0407264,21.5500587 86.8428287,20.836862 86.8361365,20.0576995 C86.818928,17.9878996 86.8217961,15.9176217 86.8165379,13.8478218 C86.4164403,13.6040347 85.9781017,13.7550871 85.5598396,13.7431367 C85.1124186,13.7297523 84.9503719,13.545717 84.9355535,13.1102464 C84.9264712,12.8568991 85.0995122,12.7058467 85.1473136,12.4945646" id="Fill-21" fill="#FFFFFF"></path>
                <path d="M66.3476987,31.8196123 C66.6058262,31.7923655 66.562327,31.5978139 66.5618489,31.430031 C66.5580248,29.8148223 66.5532447,28.1996135 66.5489426,26.5844048 C66.3677753,26.3750347 66.1263783,26.4825878 65.9189203,26.488324 C65.5900468,26.4974062 65.5135646,26.3578262 65.5116525,26.0571555 C65.5097405,25.7435784 65.6158596,25.6216849 65.9313487,25.6408055 C66.7391921,25.6900409 67.5637659,25.522736 68.3510547,25.833445 C69.2965661,27.4615602 70.2420774,29.0896753 71.2167477,30.7684599 C71.2454285,30.6116713 71.2612029,30.5270629 71.2769774,30.4424544 C71.4390241,30.2851879 71.3711461,30.082988 71.3721021,29.9003867 C71.3768823,29.0691207 71.3759263,28.2378546 71.3625419,27.4065886 C71.3582397,27.1733178 71.4576666,26.9218825 71.2760214,26.7096444 C71.0269762,26.4649013 70.7172232,26.5949211 70.4433213,26.6044813 C70.0255372,26.6183437 70.0919811,26.3444418 70.1249641,26.1255115 C70.157947,25.9075372 69.9055557,25.5241701 70.4275468,25.5308623 C71.3305149,25.5418566 72.2339611,25.5456807 73.1369292,25.5270382 C73.4423801,25.520824 73.4992637,25.6661402 73.4562425,25.9037131 C73.4108312,26.1551483 73.6378877,26.5308672 73.1464895,26.592531 C72.4146503,26.6847877 72.4170404,26.6905238 72.4146503,27.4390935 C72.4089142,29.2101348 72.4017439,30.981176 72.3950518,32.7522173 C71.8372096,32.7029818 71.2506866,32.882715 70.7282175,32.5461933 C70.4911227,32.1795567 70.2172207,31.8325187 70.1053655,31.3980041 C70.0408336,30.8133932 69.7105261,30.3913069 69.2688413,30.0375767 L69.2726654,30.0433129 C69.1866229,29.908991 69.500678,29.5729473 69.0585152,29.6178806 C68.5513425,28.9692158 68.2391995,28.1981795 67.7219885,27.4596481 L67.7219885,31.6155004 C67.7219885,31.707279 67.7430211,31.7856733 67.8391019,31.8220023 C67.945221,31.9525001 68.0977074,31.9204732 68.2277271,31.9080448 C68.5876716,31.8726718 68.6646318,32.0495369 68.6655878,32.3712402 C68.6660658,32.7287946 68.4700802,32.7541293 68.1966563,32.7512612 C67.4485646,32.744091 66.7004729,32.7402669 65.9528593,32.7555634 C65.6536227,32.7622556 65.5130866,32.6919875 65.5121306,32.3540317 C65.5111745,32.0141639 65.6144255,31.8702817 65.9600295,31.9090009 C66.0919613,31.9233413 66.2425357,31.9505881 66.3476987,31.8196123" id="Fill-23" fill="#FFFFFF"></path>
                <path d="M116.922136,28.5510015 C116.991926,28.5505235 117.061238,28.5505235 117.13055,28.5500455 C117.417836,28.6117092 117.592789,28.5543476 117.54929,28.2015734 C117.526345,28.01706 117.551202,27.8268105 117.554548,27.6394291 C118.701303,27.6093142 118.701781,27.6093142 118.701303,28.7436411 C118.701303,29.2637201 118.690309,29.7837992 118.703216,30.3034002 C118.708952,30.5577036 118.652546,30.6987176 118.360958,30.6638226 C118.189829,30.643268 118.01392,30.6523503 117.841357,30.6652567 C117.620036,30.6815091 117.502445,30.5973787 117.548812,30.3708001 C117.6817,29.7163992 117.294987,29.6695539 116.812671,29.7312176 C116.666399,29.7498602 116.494792,29.6681198 116.382936,29.8330346 C116.181693,30.4477604 116.347085,31.0806507 116.294026,31.7030247 C116.002437,31.6523552 116.100908,31.4205185 116.088002,31.2479555 C116.055019,30.7976665 116.148232,30.3378172 115.985229,29.7402999 C115.813144,30.2818896 115.880066,30.6905914 115.885324,31.0868649 C115.889148,31.4114363 115.769167,31.5338078 115.458936,31.4946107 L115.458936,29.8913523 L115.26295,29.8942204 C115.26295,30.3798824 115.25817,30.8665005 115.267252,31.3521625 C115.269164,31.4468093 115.370025,31.4802703 115.458936,31.4946107 C115.408744,31.8555111 115.591345,31.9621082 115.914005,31.9057026 C116.082744,31.8760657 116.250049,31.8359125 116.417831,31.8005395 L116.522994,31.815836 C117.34948,31.9764486 118.175966,31.9683224 119.003408,31.8215721 C119.406852,31.7168871 119.201306,31.3913597 119.207042,31.1762535 C119.231899,30.3191747 119.412588,30.1719464 120.273013,30.3339931 C120.472823,30.3722342 120.474257,30.4802653 120.472823,30.6212794 C120.466131,31.3296959 120.458482,32.0381124 120.45179,32.7465289 C118.871476,32.748441 117.290685,32.7417488 115.711327,32.7589573 C115.391536,32.7627814 115.105683,32.714502 114.83704,32.5495872 C114.835606,32.3402171 114.834172,32.1298911 114.832738,31.920043 C114.899181,31.8755877 114.964669,31.8316104 115.031113,31.7876332 C115.048322,31.8818019 115.016773,31.9946131 115.1162,32.0562769 C115.134364,32.0672712 115.214193,32.0271181 115.223753,31.9970032 C115.272032,31.8483409 115.239049,31.7331396 115.061228,31.7039807 C115.054536,30.158562 115.032547,28.6136213 115.050234,27.0682026 C115.054536,26.6786213 114.958455,26.5371292 114.563138,26.5815845 C114.388185,26.6011831 114.093728,26.6900936 114.038757,26.5137065 C113.955104,26.2460188 113.989043,25.9319637 114.018202,25.6418093 C114.033498,25.4869328 114.21371,25.5376023 114.325565,25.5376023 C116.253395,25.5337782 118.181224,25.5404704 120.108576,25.527086 C120.417373,25.5251739 120.490509,25.6394192 120.482383,25.9209694 C120.465653,26.5108384 120.457048,27.1026196 120.481427,27.6915326 C120.496723,28.0447848 120.354275,28.1160089 120.054561,28.0337905 C120.040698,27.9224133 120.081329,27.7326418 119.898728,27.7804432 C119.660677,27.842585 119.458955,27.6776702 119.234289,27.7321638 C119.221861,27.3851257 119.208476,27.0376097 119.196048,26.6896156 C119.181707,26.6609348 119.167367,26.6064412 119.153027,26.6064412 C118.317936,26.5954469 117.483324,26.5935348 116.648234,26.5806285 C116.422612,26.5772824 116.399189,26.7006099 116.402057,26.8789091 C116.408271,27.2790067 116.432172,27.6824503 116.394409,28.0792018 C116.352822,28.5151504 116.52395,28.6418241 116.922136,28.5510015" id="Fill-25" fill="#FFFFFF"></path>
                <path d="M124.635272,31.283233 C125.103247,31.7765432 125.920173,31.9973856 126.516734,31.7445163 C126.863772,31.59681 127.166833,31.387918 127.163487,30.9156403 C127.159663,30.4161159 126.814059,30.2172621 126.457938,30.0623856 C126.022946,29.8730921 125.553058,29.766017 125.101813,29.6125746 C124.828867,29.5198399 124.552575,29.4266272 124.295882,29.2980415 C123.33125,28.8138135 122.961267,28.00358 123.210312,26.9610319 C123.41538,26.100129 124.329821,25.4328216 125.288717,25.4270855 C125.875718,25.4232614 126.460806,25.4055749 126.977061,25.755003 C127.115207,25.8482157 127.151536,25.755959 127.183085,25.6488839 C128.209381,25.6407577 128.209381,25.6407577 128.209859,26.6923881 C128.209859,26.8482206 128.208903,27.0035751 128.207947,27.1589296 C128.202689,28.1718409 128.202689,28.1718409 127.176871,28.14077 C127.022473,26.7903809 126.028682,26.1971658 124.923992,26.7650462 C124.630491,26.9156206 124.50573,27.1345509 124.513856,27.4003266 C124.52246,27.6818767 124.614717,27.9471744 124.945503,28.0910566 C125.705545,28.4227982 126.534899,28.5657243 127.267694,28.9634318 C127.570755,29.2994755 127.897716,29.6054044 128.297814,29.8248127 C129.0134,31.3864839 127.999533,32.9295126 126.476581,32.977792 C125.785851,32.9993026 125.129538,33.0102969 124.511466,32.665649 C124.45267,32.632666 124.42638,32.5576178 124.333645,32.6866816 C124.059265,33.0700487 123.644349,32.8071411 123.293965,32.8362999 C123.153429,32.8477722 123.190714,32.6455724 123.191192,32.5332391 C123.193104,31.7712851 123.202186,31.008853 123.208878,30.2464209 C123.688804,30.2425968 124.257641,30.0681218 124.336035,30.83629 C124.337469,30.8501524 124.397221,30.8582787 124.429726,30.869273 C124.445022,30.8960417 124.450758,30.9247226 124.44789,30.9557935 C124.4455,31.1020657 124.417297,31.2631564 124.635272,31.283233" id="Fill-27" fill="#FFFFFF"></path>
                <path d="M100.989935,29.8968016 C100.946914,29.8977577 100.903892,29.8982357 100.860871,29.8991917 C100.818328,30.4073204 100.809724,30.9154491 100.989935,31.4202317 L100.989935,29.8968016 Z M100.620908,30.5043572 C100.620908,30.2447957 100.624254,29.9847562 100.618996,29.7247167 C100.616606,29.598521 100.580755,29.4641991 100.433527,29.4541608 C100.248057,29.4417325 100.210772,29.5942189 100.209338,29.737623 C100.20408,30.2404936 100.206948,30.7428861 100.209816,31.2448006 C100.210294,31.3815126 100.26192,31.4828515 100.421098,31.4785494 C100.581233,31.4737693 100.619474,31.3657381 100.62043,31.2318943 C100.621386,30.9895413 100.620908,30.7467102 100.620908,30.5043572 Z M102.69023,26.6654281 L102.649121,26.6458295 C102.442141,26.4809148 101.475597,26.4001304 101.329803,26.5406665 C101.296342,26.5731714 101.262403,26.6290991 101.263837,26.6730763 C101.292996,27.3647624 101.123779,28.0655306 101.355615,28.7486124 C101.905331,28.7749032 102.454569,28.8351329 103.000461,28.6821685 C103.504288,28.5411544 103.886699,28.0760469 103.841287,27.6219338 C103.783926,27.042581 103.44358,26.729004 102.815948,26.6788125 C102.778663,26.6305331 102.737553,26.6147586 102.69023,26.6654281 Z M104.804963,28.7973698 C104.796837,28.8485173 104.803529,28.9326477 104.777717,28.9445981 C104.14148,29.2275823 104.325037,29.5927848 104.576951,30.0741448 C104.804007,30.5072253 104.867583,31.0258703 105.003339,31.5072302 C105.040624,31.6864854 104.958406,31.8848612 105.086513,32.0574242 C105.240912,32.0392596 105.340817,31.8953775 105.512424,31.9092399 C105.709365,31.9250143 105.866632,31.9613434 105.839863,32.1955702 C105.817397,32.3920338 105.971317,32.7247315 105.624279,32.7285556 C105.075997,32.7347698 104.497122,32.8987285 103.985648,32.5435642 C103.838419,32.0244412 103.690713,31.5053182 103.543963,30.9861952 C103.543007,30.6090422 103.656296,30.1802638 103.120921,30.0421178 C103.063081,29.6721351 102.776751,29.8705109 102.587457,29.8284457 C102.179711,29.8313137 101.772444,29.8346598 101.364698,29.8375279 C101.16441,30.4532097 101.205519,31.0722376 101.337929,31.6926996 C101.425884,31.8714768 101.577414,31.9245363 101.763839,31.9049377 C102.258106,31.8533123 102.341758,32.1367745 102.280572,32.5378281 C101.619957,32.9130689 100.180179,32.8303725 99.819757,32.3427984 C99.851784,33.0062816 99.2709972,32.5865855 99.0659292,32.8418449 C98.8704216,32.7940435 98.9722385,32.6492053 98.9669804,32.5392621 C99.3111503,32.4226267 99.1017803,32.1315163 99.160576,31.9245363 C99.3164085,31.9173661 99.472719,31.9011136 99.6280735,31.9049377 C99.8938492,31.9111519 100.000924,31.7844783 100.000446,31.5244387 C99.9961441,29.979498 99.9889739,28.4336013 100.002836,26.8881826 C100.005704,26.4986013 99.7542691,26.5965941 99.5477672,26.592292 C99.0042654,26.5808197 98.7523521,26.1816781 98.95503,25.6668572 C99.0205179,25.5014644 99.1424114,25.5387495 99.2528326,25.5382715 C100.538212,25.5339694 101.823113,25.5296672 103.108014,25.5382715 C103.256198,25.5392275 103.403905,25.6171438 103.551611,25.659209 C103.57121,25.9202045 103.80687,25.8437223 103.94645,25.8972599 C104.443107,26.0860753 104.677812,26.5454466 105.018157,26.8958308 C105.018157,26.8958308 105.014811,26.8905726 105.014811,26.8910506 C105.117106,27.5454516 104.851331,28.1592213 104.804963,28.7973698 Z" id="Fill-29" fill="#FFFFFF"></path>
                <path d="M148.162491,20.8115273 C148.560677,20.8186975 148.959818,20.8440322 149.35657,20.8263457 C149.64768,20.8134394 149.76575,20.8990038 149.736591,21.2015866 C149.708388,21.493653 149.719382,21.7900216 149.713168,22.0844781 C147.981802,22.0840001 146.250436,22.0830441 144.51907,22.0820881 C144.452626,20.8411642 144.453582,20.8129613 145.669649,20.8507244 C146.179212,20.8660209 146.295847,20.7230947 146.287243,20.2226143 C146.25426,18.2957405 146.252348,16.3679107 146.288677,14.4415149 C146.299193,13.9156997 146.131888,13.7636913 145.651484,13.8411296 C145.532937,13.8602501 145.409131,13.8454317 145.287238,13.8449537 C144.503773,13.8425636 144.539146,13.8401735 144.489911,13.0500167 C144.459318,12.5514482 144.632837,12.4501093 145.08934,12.4687519 C146.077395,12.508427 147.066883,12.4950426 148.055416,12.5026908 C148.054938,15.1475414 148.053026,17.7928699 148.055416,20.4377205 C148.055416,20.6016792 148.085053,20.76516 148.100827,20.9291187 C148.118992,20.9071301 148.140502,20.8870535 148.154843,20.8626748 C148.163447,20.8492904 148.160579,20.8287358 148.162491,20.8115273" id="Fill-31" fill="#FFFFFF"></path>
                <path d="M83.0769879,27.1291015 C83.0731638,27.9154343 83.1740247,28.0339817 84.1467829,28.356163 C84.5812974,28.5005232 85.0330205,28.6023402 85.4536727,28.7782493 C87.0292063,29.4383864 87.5488073,30.6635358 86.6267186,32.2481517 C86.4718421,32.5153614 86.2022423,32.6487273 85.9340766,32.7486322 C85.0277624,33.0865879 84.1142779,33.1477737 83.2113098,32.7314237 C83.1094928,32.6845783 83.0320546,32.6233925 82.9541383,32.7500662 C82.7289938,32.7486322 82.5024153,32.7271215 82.2806168,32.7505442 C81.9111122,32.7902194 81.7925647,32.6367769 81.8116853,32.2792226 C81.835586,31.8136371 81.8164654,31.3456616 81.8178995,30.8791201 C81.8198115,30.2089447 81.8222016,30.25579 82.4746905,30.2290212 C83.0205823,30.2065546 82.7648449,30.6793103 82.9560504,30.8604775 C83.5181947,31.8188953 84.0244113,32.0029306 85.255775,31.6989138 C85.4163876,31.706084 85.5774783,31.7146882 85.569352,31.4799834 L85.5626598,31.4861976 C85.8738468,31.2476687 85.8877092,30.7581826 85.5922967,30.4493856 C85.2400005,30.0526341 84.7261356,29.9962285 84.2686764,29.8279676 C83.6778513,29.6104713 83.0707737,29.4379083 82.5234479,29.113337 C81.7581477,28.6601798 81.6090074,27.9254726 81.7280329,27.1549143 C81.8504044,26.3623673 82.3179019,25.7442955 83.1343496,25.5478318 C83.9249844,25.3580603 84.7199214,25.3179071 85.5105563,25.6864558 C85.7634256,25.8045252 86.1396225,25.6706813 86.4575017,25.6343523 C86.7514802,25.6008913 86.8494731,25.7065324 86.8384788,26.005769 C86.813144,26.7184876 86.8198362,27.4316843 86.813622,28.1448809 C86.7271015,28.146315 86.640103,28.148227 86.5526265,28.148705 C85.8365618,28.1549192 85.8313036,28.1549192 85.7882824,27.4584531 C85.7672498,27.109025 85.6181094,26.9068251 85.2509948,26.904913 L84.9498461,26.6769004 C84.531106,26.2873192 84.0507021,26.5048155 83.5918088,26.5473587 C83.4699153,26.558831 83.3867409,26.66256 83.3972572,26.8059642 L83.3972572,26.8069202 C83.1372176,26.7615089 83.045439,26.8838804 83.0769879,27.1291015" id="Fill-33" fill="#FFFFFF"></path>
                <path d="M95.0936343,26.7033824 C94.6739381,26.4605514 94.221737,26.6278562 93.7853104,26.6068236 C93.5778524,26.5963073 93.6304339,26.8075894 93.6299559,26.9290049 C93.6256538,28.4404847 93.6304339,29.9514864 93.6261318,31.4624881 C93.6256538,31.6876327 93.668197,31.7975758 93.9354067,31.8123943 C94.807304,31.8601957 94.806826,31.87358 94.7561565,32.7483454 C93.7465913,32.7483454 92.736548,32.7406971 91.7269828,32.7516915 C91.4086256,32.7555156 91.2054697,32.7268347 91.2097719,32.3152648 C91.214552,31.9256835 91.4114937,31.905129 91.7040382,31.907997 C91.8852054,31.9094311 92.0902733,31.9844792 92.2465839,31.8157404 C92.2891271,31.802356 92.3321483,31.7889716 92.3742136,31.7751092 C92.4000263,31.7794113 92.4267951,31.7865815 92.4530858,31.7851475 C92.458822,31.7846695 92.4683823,31.7569447 92.4683823,31.7416482 C92.4707724,30.0915445 92.4722064,28.4409627 92.4726844,26.7908589 C92.4726844,26.6455427 92.4545199,26.4892322 92.2661824,26.4901882 C91.800597,26.4921003 91.2776498,26.3286196 90.8875905,26.5638024 C90.5902659,26.7430576 90.8579537,27.2134232 90.8068062,27.5499449 C90.7967679,27.6183009 90.798202,27.689525 90.8048941,27.7583589 C90.8507835,28.2129501 90.5343383,28.1436381 90.2580463,28.1455501 C89.9913146,28.1474622 89.728407,28.1909615 89.7489616,27.7717433 C89.7747743,27.2339778 89.7857687,26.6933441 89.7499176,26.1565346 C89.7217148,25.7239321 89.900014,25.6316754 90.2915073,25.6359775 C91.9941926,25.652708 93.6963998,25.6493619 95.3995631,25.6412357 C95.6978438,25.6398016 95.9755698,25.6660924 96.2207909,25.8482157 C96.2188788,26.6139938 96.2179228,27.379772 96.2164888,28.1460282 C96.0453598,28.1474622 95.8723188,28.1316877 95.7040579,28.1536764 C95.3034823,28.2067359 95.1600782,28.0590296 95.1772867,27.6450697 C95.1906711,27.3353167 95.2982242,26.999751 95.0936343,26.7033824" id="Fill-35" fill="#FFFFFF"></path>
                <path d="M108.376252,32.7401713 C108.368126,32.6359643 108.36717,32.5312793 108.351396,32.4289843 C108.27587,31.9547946 108.414016,31.6957111 108.949869,31.8042202 C109.32511,31.8797464 109.41163,31.7000132 109.406372,31.3448489 C109.38773,29.9189337 109.384384,28.4925404 109.408284,27.0671031 C109.414977,26.6803899 109.32272,26.5360298 108.924056,26.579529 C108.742411,26.5996056 108.446042,26.7062027 108.376252,26.4681518 C108.301204,26.2133704 108.349006,25.9160458 108.377208,25.6402318 C108.389159,25.5188163 108.536865,25.5350688 108.638682,25.5350688 C109.59471,25.5345908 110.551693,25.543673 111.507721,25.5336348 C111.990993,25.5278986 111.784969,25.8811508 111.800744,26.0909989 C111.81604,26.2970229 111.936021,26.577617 111.501029,26.5929134 C110.6559,26.6215942 110.65112,26.647885 110.654944,27.5293425 C110.660203,28.9543018 110.674543,30.379739 110.684581,31.8046982 C110.866227,32.0107222 111.106189,31.8883507 111.31795,31.9098613 C111.671202,31.9457123 111.81843,32.1923675 111.649213,32.5049885 C111.53449,32.7153146 111.340894,32.7530777 111.11814,32.7511656 C110.204177,32.7425614 109.290215,32.7430394 108.376252,32.7401713" id="Fill-37" fill="#FFFFFF"></path>
                <path d="M77.9346107,31.6921738 C78.0593723,31.9603396 78.3088955,31.9316587 78.5220897,31.8996318 C79.0048836,31.8255396 79.1860509,32.011487 79.1038325,32.4828087 C79.0890141,32.5678951 79.0894921,32.6558497 79.0827999,32.7418922 C78.119602,32.7442822 77.1564042,32.7390241 76.1932063,32.7533645 C75.9016178,32.7576666 75.7491314,32.6983929 75.7505655,32.3585251 C75.7519995,32.0310856 75.8356519,31.8690389 76.1889042,31.906802 C76.3184459,31.9211424 76.4690203,31.9512573 76.5746613,31.8217155 C76.769691,31.7041241 76.6889066,31.5086165 76.6898626,31.3499159 C76.6989449,29.9268687 76.6817364,28.5023875 76.7061151,27.0798183 C76.7132853,26.6582101 76.5674911,26.5186301 76.1707396,26.586508 C75.7830704,26.653908 75.6143315,26.5348825 75.6344081,26.0946318 C75.6516166,25.7083966 75.6755173,25.4932904 76.1597453,25.5224492 C76.9379518,25.5688166 77.7238066,25.5755088 78.5015351,25.5238833 C79.0268723,25.4889883 79.190353,25.6672874 79.1047885,26.1548615 C79.087102,26.2566785 79.0890141,26.3623195 79.0818439,26.4655705 C78.8571774,26.4693946 78.6291648,26.4999875 78.4092784,26.4708287 C77.9365227,26.4086869 77.8284916,26.6142328 77.8370958,27.0573517 C77.8629086,28.4555421 77.8447441,29.8551666 77.8485682,31.2543131 C77.8490462,31.4029754 77.7921625,31.5688462 77.9346107,31.6921738" id="Fill-39" fill="#FFFFFF"></path>
                <path d="M62.9976344,25.8425751 C63.0353975,26.5715462 63.0353975,26.5849306 62.3532717,26.5834965 C62.0779358,26.5830185 61.9565203,26.6317759 61.9593883,26.9467871 C61.9742068,28.4692611 61.9761188,29.9922132 61.9584323,31.5142092 C61.9512621,32.1557038 62.4460064,31.7995835 62.6955296,31.9272132 C62.7108261,32.1992031 62.8566203,32.4707149 62.6983977,32.7431828 C62.327937,32.820143 62.1171329,32.6762609 62.0702875,32.2202357 C62.0349145,32.8230111 61.6620637,32.7713856 61.2944711,32.7541771 C60.9651196,32.7388807 60.633378,32.7398367 60.3030704,32.749397 C59.9914054,32.7584792 59.702207,32.6662226 59.6964708,32.336393 C59.6907347,32.0022614 59.9808891,31.9061806 60.2911201,31.9090487 C60.6907396,31.9133508 60.9369167,31.8057977 60.7270687,31.3296959 C60.6754432,31.2130605 60.7151183,31.0548379 60.7151183,30.9157359 C60.7146403,29.6461312 60.6926517,28.3755704 60.7265907,27.1064437 C60.739497,26.6064412 60.5975269,26.4004172 60.0893982,26.4697292 C59.9340437,26.4907619 59.7208496,26.5356952 59.6787843,26.2756556 C59.6458014,26.0739338 59.6979049,25.9123651 59.8566055,25.7641808 C60.0071798,25.6226887 60.1749627,25.6441994 60.3441796,25.6437213 C60.9526912,25.6418093 61.5621588,25.6585398 62.1706705,25.6427653 C62.4713412,25.6346391 62.7457211,25.6762263 62.9976344,25.8425751" id="Fill-41" fill="#FFFFFF"></path>
                <path d="M98.7604306,19.7922584 C98.9803169,19.7889123 99.0606233,19.8548782 99.0147339,20.1082255 C98.9568943,20.4284948 98.7212334,20.8429328 99.2881579,20.987771 C99.3182727,20.9954192 99.328311,21.0738135 99.3522117,21.1168347 C99.4554627,21.3070842 98.8326107,21.1474276 99.1973352,21.3811764 C99.4334741,21.5327068 99.8440879,21.5833762 100.094567,21.4117693 C100.291987,21.2769694 100.356519,21.2229538 100.494665,21.4251537 C100.512829,21.4524004 100.6113,21.4633948 100.638069,21.4404501 C101.07593,21.0704674 101.399067,21.6875833 101.813505,21.5346188 C101.652892,21.7205662 101.459297,21.6703748 101.283388,21.6708528 C99.9788878,21.6756329 98.6739101,21.6689407 97.3698883,21.678979 C97.1920672,21.6808911 96.8866164,21.5585195 96.8894844,21.8936072 C96.8918745,22.1880637 97.1729466,22.0843347 97.3402515,22.0852908 C98.6968547,22.093417 100.053936,22.092461 101.411017,22.0886369 C101.985112,22.0867248 102.279568,21.8644484 102.298689,21.4748671 C102.313985,21.1703723 102.223163,21.0202759 101.890943,21.0422646 C101.561592,21.0632972 101.221724,21.091022 100.901933,21.0327043 C100.628509,20.9820348 100.156709,21.0088036 100.400018,20.4509615 C100.446863,20.3434083 100.45738,20.1780156 100.330228,20.055644 C100.105562,20.1106156 100.294855,20.3897757 100.103171,20.4672139 C99.9224822,20.3730452 99.9669375,20.1751475 100.007569,20.0623362 C100.419139,18.9323115 100.138544,17.7659578 100.189214,16.6192026 C100.205944,16.2363135 100.316366,15.908874 100.640937,15.8711109 C101.041035,15.8247436 101.51857,15.6043792 101.877559,16.0293335 C101.532433,16.0776129 101.16962,15.9318187 100.837401,16.1239802 C100.614646,16.1306724 100.636157,16.3070595 100.609866,16.4504637 C100.426787,16.4767544 100.413402,16.6091643 100.41388,16.7554365 C100.414836,17.6655749 100.414836,18.5757132 100.41388,19.4853735 C100.413402,19.6306897 100.423441,19.7650116 100.60652,19.7932144 C100.657189,20.7282095 100.657189,20.7282095 101.638552,20.7277315 C102.020963,20.7272535 102.40433,20.7387258 102.786741,20.7215173 C103.063033,20.7090889 103.132345,20.8223782 103.143339,21.0867199 C103.187795,22.2038382 103.196399,22.2033602 102.081193,22.2024042 C100.393804,22.2014481 98.706415,22.1866297 97.0190262,22.2110084 C96.6141485,22.2162666 96.52954,22.0886369 96.5343202,21.711962 C96.5462705,20.7301215 96.528106,20.7296435 97.5161606,20.7296435 L97.7771561,20.7296435 C98.7102391,20.7296435 98.7102391,20.7296435 98.7604306,19.7922584" id="Fill-43" fill="#FFFFFF"></path>
                <path d="M71.2709066,10.2947449 C70.2221443,10.296657 70.2221443,10.296657 70.2173641,9.24980669 C70.21354,8.30047122 70.21354,8.30047122 71.1504471,8.29999321 C72.3067626,8.29903718 72.3067626,8.29903718 72.3172789,9.4400562 C72.3249271,10.2928329 72.3249271,10.2928329 71.2709066,10.2947449" id="Fill-45" fill="#FFFFFF"></path>
                <path d="M146.182271,8.31920936 C146.807513,8.3206434 147.432277,8.32207745 148.057519,8.32351149 C147.87444,8.79865724 148.090502,9.27284696 148.065646,9.74990477 C148.050349,10.0500975 147.983905,10.2030619 147.652642,10.1853754 C147.288395,10.1662548 146.921758,10.1696009 146.557034,10.1858534 C146.253973,10.1997158 146.164106,10.0634818 146.173189,9.78001964 C146.189441,9.29387957 146.180359,8.80630546 146.182271,8.31920936" id="Fill-47" fill="#FFFFFF"></path>
                <path d="M96.2209821,25.8481679 C95.975283,25.6660446 95.6975569,25.6397538 95.3992763,25.6411879 C93.696591,25.6493141 91.9939058,25.6526602 90.2916985,25.6359297 C89.8997271,25.6316276 89.721428,25.7238843 89.7501088,26.1569648 C89.7854818,26.6932963 89.7749655,27.23393 89.7491528,27.7716955 C89.7285982,28.1909137 89.9915058,28.1478924 90.2577595,28.1455023 C90.5345295,28.1435903 90.8509747,28.2129023 90.8050854,27.7583111 C90.7979151,27.6899552 90.7964811,27.6182531 90.8069974,27.5503751 C90.8576669,27.2133754 90.5904571,26.7430098 90.8877817,26.5637546 C91.277363,26.3285718 91.8007882,26.4920525 92.2663736,26.4901404 C92.4547111,26.4891844 92.4723976,26.6454949 92.4723976,26.7908111 C92.4719196,28.4409149 92.4704855,30.0914967 92.4680955,31.7416004 C92.4680955,31.7568969 92.4590132,31.7846217 92.452799,31.7850997 C92.4269863,31.7865337 92.4002175,31.7793635 92.3739268,31.7750614 C92.3710587,30.2110001 92.3519381,28.6464608 92.3753608,27.0828776 C92.382053,26.6574453 92.244385,26.5704468 91.8495456,26.5814411 C90.9159846,26.6082099 90.9236328,26.5881333 90.9083363,27.5508531 C90.9045122,27.7812558 91.0426582,28.1388102 90.8060414,28.2186385 C90.4948544,28.3238015 90.1205695,28.2630938 89.7754436,28.2420611 C89.6090947,28.2315448 89.6497259,28.0594599 89.6492479,27.9466486 C89.6449458,27.2516165 89.653072,26.5556283 89.6411217,25.8605962 C89.6377756,25.6182432 89.7137798,25.5283766 89.9685611,25.5298106 C91.967615,25.5379369 93.9661908,25.5355468 95.9652447,25.5288546 C96.2104658,25.5283766 96.2711735,25.6330616 96.2209821,25.8481679" id="Fill-49" fill="#FFFFFF"></path>
                <path d="M62.9976344,25.8425751 C62.7457211,25.6762263 62.4713412,25.6346391 62.1706705,25.6427653 C61.5621588,25.6585398 60.9526912,25.6418093 60.3441796,25.6437213 C60.1749627,25.6441994 60.0071798,25.6226887 59.8566055,25.7641808 C59.6979049,25.9123651 59.6458014,26.0739338 59.6787843,26.2756556 C59.7208496,26.5356952 59.9340437,26.4907619 60.0893982,26.4697292 C60.5975269,26.4004172 60.739497,26.6064412 60.7265907,27.1064437 C60.6926517,28.3755704 60.7146403,29.6461312 60.7151183,30.9157359 C60.7151183,31.0548379 60.6754432,31.2130605 60.7270687,31.3296959 C60.9369167,31.8057977 60.6907396,31.9133508 60.2911201,31.9090487 C59.9808891,31.9061806 59.6907347,32.0022614 59.6964708,32.336393 C59.702207,32.6662226 59.9914054,32.7584792 60.3030704,32.749397 C60.633378,32.7398367 60.9651196,32.7388807 61.2944711,32.7541771 C61.6620637,32.7713856 62.0349145,32.8230111 62.0702875,32.2202357 C62.1171329,32.6762609 62.327937,32.820143 62.6979197,32.7431828 C62.7963906,32.748919 62.8943834,32.7551332 62.9923762,32.7613473 C62.9651294,32.8775047 62.8719167,32.8617302 62.7882643,32.8617302 C61.8322367,32.8612522 60.875253,32.8387856 59.9201813,32.8693785 C59.4780185,32.8832409 59.5411164,32.611251 59.5578468,32.3645958 C59.5731433,32.127979 59.4063165,31.7924133 59.9048849,31.7914573 C60.6023071,31.7900232 60.6027851,31.7599083 60.6027851,31.0682223 C60.6032631,29.7293056 60.5941808,28.3903888 60.6094773,27.0519501 C60.6133014,26.7139943 60.5607199,26.5519476 60.1615783,26.5806285 C59.6228567,26.6193476 59.3456087,26.148982 59.5669291,25.6580618 C59.6362411,25.5041413 59.7581346,25.5356902 59.8723799,25.5356902 C60.8284076,25.5337782 61.7849133,25.5395143 62.740941,25.529476 C62.9871181,25.526608 63.0497379,25.6255568 62.9976344,25.8425751" id="Fill-51" fill="#FFFFFF"></path>
                <path d="M65.7489864,22.0847171 C69.9708046,22.0871072 74.1931008,22.0899753 78.414919,22.0899753 C78.8910208,22.0894973 79.0831823,21.5871047 78.8088024,21.077064 C78.7691272,21.0029718 78.7237159,20.9317478 78.6806947,20.8595677 C78.8135825,20.8428372 78.9851895,20.7773493 78.9947498,20.9967577 C79.0100462,21.3437957 79.0282107,21.6960919 78.9866235,22.0383498 C78.9522065,22.3270702 78.6797386,22.1984844 78.5176919,22.1989625 C76.343207,22.2075667 74.1682441,22.2027866 71.9932811,22.2023085 C70.0625833,22.2018305 68.1314074,22.2056546 66.2002315,22.1984844 C66.0496571,22.1975284 65.8498473,22.3117737 65.7489864,22.0847171" id="Fill-53" fill="#FFFFFF"></path>
                <path d="M121.21776,20.8441756 C121.402751,21.1137754 121.299022,21.4163582 121.301412,21.7017325 C121.303802,21.9918869 121.409443,22.0975279 121.70151,22.0965719 C123.959169,22.0879676 126.216828,22.0831875 128.474488,22.10183 C128.722099,22.1042201 128.828218,21.9053664 129.028984,21.8733394 C129.092081,22.1300329 128.975446,22.2089051 128.730225,22.2084271 C126.330595,22.203647 123.930966,22.2007789 121.531337,22.2098612 C121.239748,22.2112952 121.180474,22.0817535 121.193381,21.8336643 C121.210589,21.5043127 121.210111,21.1740052 121.21776,20.8441756" id="Fill-55" fill="#FFFFFF"></path>
                <path d="M80.557616,20.8577512 C80.5815167,22.0905489 80.5815167,22.0910269 81.8286548,22.0915049 C82.8712029,22.091983 83.9137511,22.0886369 84.9562993,22.092461 C85.2249431,22.093895 85.5165315,22.1197078 85.5562066,21.7631094 C85.5891896,21.4614827 85.7292477,21.0785936 85.223509,20.9896831 C85.1972183,20.9849029 85.1857459,20.8998165 85.1675814,20.8520151 C85.5471244,20.7764889 85.7211214,20.8701796 85.7029569,21.3176005 C85.6675839,22.2024042 85.6948307,22.2024042 84.7870824,22.2024042 C83.4883188,22.2024042 82.1895552,22.195712 80.8907916,22.2100524 C80.5719564,22.2133985 80.3812289,22.1459985 80.455321,21.7865321 C80.5188969,21.4791692 80.3181311,21.1440815 80.557616,20.8577512" id="Fill-57" fill="#FFFFFF"></path>
                <path d="M130.515176,21.048909 C130.852654,21.1478578 130.699212,21.4274959 130.693954,21.6187015 C130.684871,21.9748218 130.792424,22.1043635 131.169099,22.0976713 C132.421018,22.0756827 133.673414,22.0814188 134.92581,22.0962373 C135.291969,22.1005394 135.595985,22.1014954 135.539102,21.6005369 C135.527151,21.4939398 135.621798,21.4155456 135.720269,21.3658321 C135.724571,21.3997711 135.733653,21.4346661 135.732697,21.4690831 C135.718835,22.3385903 135.834514,22.1985322 134.985562,22.2009223 C133.6672,22.2052244 132.348837,22.1818018 131.031431,22.2133507 C130.594527,22.223867 130.428178,22.1096217 130.4951,21.671761 C130.525693,21.4676491 130.509918,21.256845 130.515176,21.048909" id="Fill-59" fill="#FFFFFF"></path>
                <path d="M148.16747,20.8115273 C148.16547,20.8287358 148.16847,20.8492904 148.15947,20.8626748 C148.14447,20.8870535 148.12197,20.9071301 148.10297,20.9291187 C148.08647,20.76516 148.05547,20.6016792 148.05547,20.4377205 C148.05297,17.7928699 148.05497,15.1475414 148.05547,12.5026908 C148.26147,12.5954255 148.16847,12.7751587 148.16897,12.9118707 C148.17347,15.5447709 148.16947,18.1781491 148.16747,20.8115273" id="Fill-61" fill="#FFFFFF"></path>
                <path d="M106.880595,20.8528277 C106.853826,20.9140135 106.833272,20.9790233 106.799811,21.036385 C106.447036,21.6472867 106.679351,22.0880154 107.363389,22.0894495 C108.624867,22.0927956 109.886824,22.0851474 111.148781,22.0932736 C111.592855,22.0961417 112.050793,22.1683218 112.31131,21.6750115 C112.405479,22.0688949 112.287887,22.2204253 111.847637,22.2132551 C110.254895,22.1874423 108.661197,22.1860083 107.068454,22.2137331 C106.64111,22.2204253 106.519695,22.0803672 106.567496,21.6874398 C106.591875,21.4823719 106.578012,21.2725238 106.574188,21.0645878 C106.570842,20.8356192 106.702296,20.8131525 106.880595,20.8528277" id="Fill-63" fill="#FFFFFF"></path>
                <path d="M141.499265,20.6747197 C141.554715,20.8778756 141.364943,20.9328472 141.267906,21.030362 C140.90127,21.3974767 139.100114,21.3267306 138.671335,20.9500557 C138.575254,20.8654473 138.43424,20.7908771 138.447147,20.6226162 C138.793229,20.7043566 139.116844,20.8534969 139.462926,20.9452756 C140.196199,21.1407832 140.843908,20.9352373 141.499265,20.6747197" id="Fill-65" fill="#FFFFFF"></path>
                <path d="M127.14341,13.1060877 C126.896755,12.9311346 126.625243,12.8871574 126.324094,12.8924155 C125.424472,12.9072339 124.524372,12.8976737 123.62475,12.8976737 C123.625706,12.8283617 123.626184,12.7590497 123.626662,12.6892596 C124.579344,12.6892596 125.532026,12.6935618 126.484707,12.6854355 C126.655358,12.6840015 126.886717,12.7791262 126.951727,12.495664 C127.375247,12.5860086 127.089395,12.8995857 127.14341,13.1060877" id="Fill-67" fill="#FFFFFF"></path>
                <path d="M66.3476987,31.8196123 C66.2425357,31.9505881 66.0919613,31.9233413 65.9600295,31.9090009 C65.6144255,31.8702817 65.5111745,32.0141639 65.5121306,32.3540317 C65.5130866,32.6919875 65.6536227,32.7622556 65.9528593,32.7555634 C66.7004729,32.7402669 67.4485646,32.744091 68.1966563,32.7512612 C68.4700802,32.7541293 68.6660658,32.7287946 68.6655878,32.3712402 C68.6646318,32.0495369 68.5876716,31.8726718 68.2277271,31.9080448 C68.0977074,31.9204732 67.945221,31.9525001 67.8391019,31.8220023 C67.9428309,31.8153102 68.0470379,31.8047938 68.1507669,31.8038378 C68.7191254,31.8004917 68.9605224,32.1790787 68.7578445,32.7225804 C68.6947467,32.8917973 68.5752432,32.8578583 68.464344,32.8583363 C67.5417773,32.8621604 66.6192106,32.8592924 65.6966439,32.8616824 C65.2191081,32.8626385 65.4380384,32.4988699 65.4174838,32.2909339 C65.3969292,32.0839539 65.2936782,31.7622506 65.7229347,31.8000137 C65.9299146,31.8186562 66.1392847,31.8138761 66.3476987,31.8196123" id="Fill-69" fill="#FFFFFF"></path>
                <path d="M114.836896,32.5496828 C115.10554,32.7221828 115.391392,32.7721828 115.711184,32.7681828 C117.291019,32.7501828 118.871333,32.7576828 120.451647,32.7556828 C120.403845,32.9391828 120.256139,32.8721828 120.150498,32.8721828 C118.191119,32.8766828 116.231263,32.8761828 114.270928,32.8741828 C114.178193,32.8741828 114.0563,32.9231828 114.01519,32.7701828 C114.28001,32.6591828 114.646647,32.9621828 114.836896,32.5496828" id="Fill-71" fill="#FFFFFF"></path>
                <path d="M155.651056,18.3294883 C156.380505,18.3486088 156.630028,18.6588398 156.624292,19.5402973 C156.618556,20.3734754 156.173047,20.8251985 155.346083,20.8347588 C155.674957,20.633993 156.05928,20.5087533 156.27821,20.1588472 C156.712247,19.4657271 156.513871,18.8897205 155.651056,18.3294883" id="Fill-73" fill="#FFFFFF"></path>
                <path d="M114.836896,32.5496828 C114.646647,32.9440442 114.28001,32.6543678 114.01519,32.7604869 C113.959263,31.8847656 113.959263,31.8847656 114.832594,31.9201386 C114.834028,32.1299867 114.835462,32.3403127 114.836896,32.5496828" id="Fill-75" fill="#FFFFFF"></path>
                <path d="M100.615525,19.7934056 C100.424025,19.7647248 100.413525,19.6308809 100.414025,19.4850867 C100.415025,18.5754264 100.415025,17.6657661 100.414025,16.7556277 C100.413525,16.6088775 100.427525,16.4769457 100.619025,16.4506549 C100.617525,17.5649051 100.616525,18.6791554 100.615525,19.7934056" id="Fill-77" fill="#FFFFFF"></path>
                <path d="M126.951583,12.4965045 C126.886573,12.7935045 126.655693,12.6940045 126.484564,12.6950045 C125.531882,12.7035045 124.579201,12.6995045 123.626519,12.6995045 C123.57824,12.4055045 123.790956,12.4835045 123.925278,12.4835045 C124.933887,12.4835045 125.942974,12.4910045 126.951583,12.4965045" id="Fill-79" fill="#FFFFFF"></path>
                <path d="M77.9346107,31.6921738 C77.7921625,31.5688462 77.8490462,31.4029754 77.8485682,31.2543131 C77.8447441,29.8551666 77.8629086,28.4555421 77.8370958,27.0573517 C77.8284916,26.6142328 77.9365227,26.4086869 78.4092784,26.4708287 C78.6291648,26.4999875 78.8571774,26.4693946 79.0818439,26.4655705 C78.9236213,26.7189179 78.6678839,26.5975023 78.4785904,26.5764697 C78.0235212,26.5253223 77.9422589,26.7107916 77.946561,27.1242736 C77.9637695,28.6467477 77.9417809,30.1692217 77.9346107,31.6921738" id="Fill-81" fill="#FFFFFF"></path>
                <path d="M146.182271,8.31920936 C146.180359,8.80630546 146.189441,9.29387957 146.173189,9.78001964 C146.164106,10.0634818 146.253973,10.1997158 146.557034,10.1858534 C146.921758,10.1696009 147.288395,10.1662548 147.652642,10.1853754 C147.983905,10.2030619 148.050349,10.0500975 148.065646,9.74990477 C148.090502,9.27284696 147.87444,8.79865724 148.057519,8.32351149 C148.299394,8.91577063 148.112491,9.53145245 148.155512,10.1347059 C148.165072,10.2714179 148.049393,10.2905384 147.939928,10.2910164 C147.801782,10.2924505 147.662202,10.3048788 147.52549,10.2914944 C147.050822,10.2451271 146.330933,10.518551 146.154068,10.1877654 C145.883512,9.68107078 146.047471,8.9803025 146.09575,8.36223061 C146.097185,8.34550012 146.152634,8.33354978 146.182271,8.31920936" id="Fill-83" fill="#FFFFFF"></path>
                <path d="M115.459175,31.4947063 C115.768928,31.5339034 115.888909,31.4115319 115.885563,31.0864825 C115.880305,30.690209 115.812905,30.2819852 115.985468,29.7403955 C116.147993,30.3379128 116.05478,30.7977621 116.087763,31.2475731 C116.101147,31.4206141 116.002676,31.6524508 116.293787,31.7031203 C116.323902,31.7040763 116.353061,31.7021643 116.382219,31.6959501 C116.39417,31.7308451 116.405642,31.7652621 116.41807,31.8006351 C116.24981,31.8360082 116.082983,31.8761613 115.913766,31.9053202 C115.591106,31.9622038 115.408983,31.8556067 115.459175,31.4947063" id="Fill-85" fill="#FFFFFF"></path>
                <path d="M108.376252,32.7401713 C109.290215,32.7430394 110.204177,32.7425614 111.11814,32.7511656 C111.340894,32.7530777 111.53449,32.7153146 111.649213,32.5049885 C111.81843,32.1923675 111.671202,31.9457123 111.31795,31.9098613 C111.106189,31.8883507 110.866227,32.0107222 110.684581,31.8046982 C110.839936,31.8042202 110.99529,31.8018302 111.150645,31.8027862 C111.81604,31.8080443 111.967092,32.0131123 111.81365,32.6646451 C111.777321,32.8199996 111.703229,32.8563287 111.566995,32.8558507 C110.532095,32.8515485 109.497195,32.8505925 108.462295,32.8429443 C108.433136,32.8424663 108.404933,32.7755443 108.376252,32.7401713" id="Fill-87" fill="#FFFFFF"></path>
                <path d="M54.6398493,31.818226 C54.5375543,31.9530259 54.3855459,31.9224331 54.2560042,31.9080926 C53.9104002,31.8712856 53.8162315,32.0175578 53.8104953,32.3531235 C53.8033251,32.7460509 54.0098271,32.7570452 54.3009375,32.7522651 C54.975893,32.7407927 55.6513266,32.7369686 56.3262821,32.7541771 C56.6279088,32.7623034 56.8984647,32.7116339 57.1475099,32.543851 C57.1886191,32.7465289 57.1561141,32.8674664 56.8984647,32.8645983 C55.9290526,32.854082 54.9591625,32.8669884 53.9897505,32.8579061 C53.4844899,32.853126 53.7617379,32.4544625 53.7158486,32.2360101 C53.6728273,32.0295082 53.6436685,31.7608644 54.0184313,31.7986275 C54.2239773,31.8191821 54.4323913,31.8124899 54.6398493,31.818226" id="Fill-89" fill="#FFFFFF"></path>
                <path d="M82.9560982,30.8602863 C82.7648927,30.6791191 83.0206301,30.2068414 82.4747383,30.2293081 C81.8222494,30.2555988 81.8198593,30.2092315 81.8179473,30.8789289 C81.8165132,31.3459484 81.8356338,31.8134459 81.8112551,32.2795094 C81.7926125,32.6370637 81.9106819,32.7900282 82.2806646,32.750353 C82.5024631,32.7269303 82.7290416,32.748441 82.9541861,32.749875 C82.6119282,32.9807557 82.2314292,32.819665 81.8705288,32.8488239 C81.6993998,32.8622083 81.7108722,32.7044637 81.7108722,32.5844822 C81.7094381,31.8588572 81.7137402,31.1327542 81.7075261,30.4071292 C81.705614,30.2125776 81.7687118,30.1150627 81.9728237,30.1298812 C82.0760747,30.1365734 82.1807598,30.1284471 82.2844888,30.1279691 C83.0015095,30.125101 83.0015095,30.125101 82.9560982,30.8602863" id="Fill-91" fill="#FFFFFF"></path>
                <path d="M92.2465361,31.8158838 C92.0902255,31.9846227 91.8851576,31.9090965 91.7039904,31.9076624 C91.4114459,31.9052724 91.2145042,31.9253489 91.2097241,32.3154082 C91.2054219,32.7265001 91.4085778,32.755659 91.726935,32.7518349 C92.7365002,32.7408405 93.7465435,32.7480107 94.7561087,32.7480107 C94.7135655,32.9315681 94.5644251,32.8579539 94.4606961,32.8584319 C93.4908061,32.8641681 92.519482,32.8316632 91.551982,32.8751624 C91.036205,32.8985851 91.1275057,32.6079527 91.1016929,32.2943756 C91.0715781,31.9186567 91.1662248,31.7398796 91.5734926,31.7934171 C91.794813,31.823054 92.0218696,31.8096696 92.2465361,31.8158838" id="Fill-93" fill="#FFFFFF"></path>
                <path d="M68.3510069,25.833206 C67.5637181,25.522975 66.7391443,25.6898019 65.9313009,25.6410445 C65.6158118,25.6219239 65.5096927,25.7438174 65.5116047,26.0573945 C65.5135168,26.3580652 65.589999,26.4976453 65.9188725,26.488085 C66.1263305,26.4823488 66.3682055,26.3752737 66.5488948,26.5841658 C66.3925842,26.5851218 66.2362737,26.5875119 66.0804412,26.5870338 C65.4088318,26.5860778 65.2639936,26.3915262 65.4030956,25.728521 C65.4437268,25.5325353 65.555104,25.5320573 65.7008982,25.5325353 C66.4470778,25.5344474 67.1937354,25.5444857 67.939437,25.5267992 C68.1841801,25.521063 68.2721346,25.6534728 68.3510069,25.833206" id="Fill-95" fill="#FFFFFF"></path>
                <path d="M47.3625189,32.7443778 C48.1794445,32.7462899 48.9968482,32.7477239 49.8137738,32.749636 C50.0049794,32.750114 50.1804104,32.750592 50.3357649,32.5851992 C50.476301,32.4355809 50.4863393,32.2802264 50.4619606,32.1067074 C50.4304117,31.8806068 50.2439863,31.9346224 50.09628,31.9135898 C49.9500078,31.8930352 49.7760107,31.9733415 49.6679796,31.8041246 C49.7554562,31.8022126 49.8419767,31.7983885 49.9289752,31.7988665 C50.5733378,31.8026906 50.751159,32.0493457 50.5833761,32.6779339 C50.5499151,32.8031735 50.4939875,32.8557551 50.3754401,32.854799 C49.3854734,32.8485849 48.3955068,32.8414146 47.4050621,32.8299423 C47.3907217,32.8299423 47.3768593,32.7740147 47.3625189,32.7443778" id="Fill-97" fill="#FFFFFF"></path>
                <path d="M76.5748047,31.8219545 C76.4686856,31.9514963 76.3181113,31.9209034 76.1885695,31.907041 C75.8357953,31.8692779 75.7516649,32.0308466 75.7502309,32.3582861 C75.7492748,32.6986319 75.9012832,32.7574276 76.1933497,32.7531255 C77.1565476,32.7392631 78.1197454,32.7445212 79.0829433,32.7421312 C79.0203235,32.9381168 78.8539747,32.8582885 78.7335152,32.8592446 C77.8338932,32.8664148 76.9333151,32.840602 76.0351271,32.873107 C75.6278593,32.8874474 75.6106508,32.6752092 75.650804,32.3979612 C75.685699,32.1589543 75.4591204,31.7469064 76.0059683,31.802356 C76.1943057,31.8209985 76.3855112,31.8162184 76.5748047,31.8219545" id="Fill-99" fill="#FFFFFF"></path>
                <path d="M120.24677,13.9438069 C120.694191,13.9524112 121.044097,14.2607301 121.087118,14.7578645 C121.125359,15.2043294 121.099547,15.6570085 121.099547,16.1072976 C121.099547,16.2588279 121.043141,16.3907598 120.886831,16.4237427 C120.725262,16.4581597 120.529276,16.5236476 120.480997,16.2583499 C120.92077,16.365425 120.978131,16.1751755 121.00968,15.7593035 C121.06752,14.9949594 120.767805,14.4366392 120.24677,13.9438069" id="Fill-101" fill="#FFFFFF"></path>
                <path d="M127.271439,20.8150168 C127.110939,20.7246722 127.159439,20.5726638 127.159439,20.44121 C127.157939,19.0559259 127.157939,17.6711198 127.166439,16.2858357 C127.167439,16.1142288 127.075439,15.8843041 127.368439,15.8188162 C127.192439,16.4952058 127.292439,17.1835457 127.280439,17.8661495 C127.262439,18.8489459 127.272939,19.8317423 127.271439,20.8150168" id="Fill-103" fill="#FFFFFF"></path>
                <path d="M144.519022,22.0819447 C146.250388,22.0829447 147.981754,22.0839447 149.71312,22.0844447 C149.690176,22.2464447 149.568282,22.2059447 149.474591,22.2059447 C147.919612,22.2089447 146.364633,22.2109447 144.809654,22.2059447 C144.707837,22.2059447 144.555351,22.2759447 144.519022,22.0819447" id="Fill-105" fill="#FFFFFF"></path>
                <path d="M50.6724301,26.4848823 C50.4735763,26.4824922 50.3846658,26.2989349 50.3602871,26.1818215 C50.2436517,25.6220673 49.8569385,25.610117 49.4104736,25.6368857 C48.9979476,25.6607864 48.5825536,25.6574403 48.1695497,25.6407099 C47.871269,25.6292375 47.5988011,25.6708247 47.3540581,25.8476898 C47.3048226,25.6349737 47.3631403,25.5264646 47.6078834,25.5288546 C48.4372374,25.5369809 49.2670694,25.540805 50.0964234,25.5250305 C50.3555069,25.5202504 50.4090445,25.6904233 50.4730983,25.8625083 C50.5491025,26.0666202 50.6069422,26.2769463 50.6724301,26.4848823" id="Fill-107" fill="#FFFFFF"></path>
                <path d="M103.985456,32.543612 C104.496931,32.8987763 105.075806,32.7348176 105.624566,32.7286034 C105.971126,32.7247793 105.817205,32.3920816 105.84015,32.1951399 C105.866919,31.9613912 105.709174,31.9250621 105.512233,31.9092877 C105.340626,31.8954253 105.240721,32.0393074 105.0868,32.0569939 C104.958215,31.884909 105.040433,31.6865332 105.003148,31.507278 C105.129344,31.7577573 105.334411,31.8366296 105.604967,31.8022126 C106.101146,31.7391147 105.943401,32.1100535 105.952961,32.3528845 C105.963,32.5957155 106.060036,32.8978203 105.609747,32.8667494 C105.194353,32.8375905 104.774179,32.8380686 104.358785,32.8657934 C104.0954,32.8830019 104.041384,32.7295594 103.985456,32.543612" id="Fill-109" fill="#FFFFFF"></path>
                <path d="M127.177015,28.1406744 C128.202832,28.1717453 128.202832,28.1717453 128.207612,27.158834 C128.208568,27.0034795 128.209524,26.848125 128.209524,26.6922925 C128.209046,25.6411401 128.209046,25.6411401 127.183229,25.6487883 C127.502542,25.395441 127.866311,25.5479274 128.206178,25.5613118 C128.374917,25.568482 128.314688,25.7883683 128.315644,25.915998 C128.321858,26.5747011 128.302737,27.2338822 128.322336,27.8916292 C128.331418,28.196602 128.218129,28.3065452 127.932754,28.2601779 C127.681319,28.2195467 127.395945,28.3873295 127.177015,28.1406744" id="Fill-111" fill="#FFFFFF"></path>
                <path d="M137.199913,15.5269888 C137.110524,14.8988786 137.622477,14.5408462 137.895423,14.0905572 C138.001542,13.9151261 138.390646,13.9380708 138.663113,13.9433289 C138.004888,14.3133116 137.556989,14.878802 137.199913,15.5269888" id="Fill-113" fill="#FFFFFF"></path>
                <path d="M99.065738,32.8419405 C99.271284,32.5866811 99.8520708,33.0063772 99.8195658,32.342894 C100.179988,32.8304681 101.620244,32.9126865 102.280859,32.5379237 C102.343957,32.7960511 102.234014,32.8677532 101.982578,32.8634511 C101.010298,32.8467206 100.038018,32.8476766 99.065738,32.8419405" id="Fill-115" fill="#FFFFFF"></path>
                <path d="M157.054313,17.0697784 C156.427159,17.1070635 155.868839,16.7667176 155.250767,16.743295 C155.126961,16.7385148 155.065298,16.5998908 155.059083,16.466525 C155.733083,16.6366979 156.465878,16.6156653 157.054313,17.0697784" id="Fill-117" fill="#FFFFFF"></path>
                <path d="M54.760022,27.6369912 C54.883022,27.7225557 54.865022,27.8497074 54.865022,27.9692108 C54.867522,29.1336525 54.867522,30.2976162 54.869022,31.4620579 C54.869022,31.5519245 54.855022,31.6341429 54.777522,31.6948507 C54.771522,30.3420715 54.765522,28.9897704 54.760022,27.6369912" id="Fill-119" fill="#FFFFFF"></path>
                <path d="M114.427525,14.9857337 C114.887375,15.2558115 115.405063,15.1391761 115.893594,15.1669009 C116.029828,15.1745492 116.064245,14.7247381 116.389294,14.7758856 C116.356311,15.2452952 116.098184,15.3734029 115.654587,15.3165193 C115.318065,15.273976 114.969593,15.2840143 114.630203,15.3141292 C114.295115,15.343288 114.380202,15.1649889 114.427525,14.9857337" id="Fill-121" fill="#FFFFFF"></path>
                <path d="M85.1473136,12.4945646 C85.0995122,12.7058467 84.9264712,12.8568991 84.9355535,13.1102464 C84.9503719,13.545717 85.1124186,13.7297523 85.5598396,13.7431367 C85.9781017,13.7550871 86.4164403,13.6040347 86.8165379,13.8478218 C86.2673,13.8459097 85.7175841,13.8363494 85.1688242,13.8463877 C84.9331634,13.8506898 84.8217862,13.7794658 84.8375606,13.5280305 C84.8528571,13.2713371 84.8466429,13.0127316 84.8394727,12.7555602 C84.8337365,12.5332837 84.918823,12.4333788 85.1473136,12.4945646" id="Fill-123" fill="#FFFFFF"></path>
                <path d="M153.282019,13.7355823 C153.292536,13.7010823 153.292536,13.6495823 153.314524,13.6350823 C153.746649,13.3625823 155.365204,13.5220823 155.764345,13.8765823 C155.7849,13.8950823 155.779164,13.9455823 155.785378,13.9810823 C154.971798,13.6675823 154.142444,13.5340823 153.282019,13.7355823" id="Fill-125" fill="#FFFFFF"></path>
                <path d="M71.2757824,26.7094532 C71.4662824,26.9216913 71.3622824,27.1736046 71.3662824,27.4063974 C71.3802824,28.2376634 71.3812824,29.0694075 71.3767824,29.9006735 C71.3757824,30.0832748 71.4462824,30.2849967 71.2767824,30.4427412 C71.2762824,29.1979932 71.2757824,27.9537232 71.2757824,26.7094532" id="Fill-127" fill="#FFFFFF"></path>
                <path d="M105.018014,26.8956874 C104.677668,26.5457812 104.442963,26.08641 103.946307,25.8971165 C103.806727,25.8440569 103.571544,25.9200611 103.551946,25.6590656 C104.32107,25.7197733 104.915719,26.2216879 105.018014,26.8956874" id="Fill-129" fill="#FFFFFF"></path>
                <path d="M85.250947,26.9050086 C85.6185396,26.9069207 85.767202,27.1091206 85.7882346,27.4585487 C85.8312558,28.1550148 85.836992,28.1550148 86.5530567,28.1488006 C86.6400552,28.1483226 86.7270537,28.1464106 86.8140522,28.1449765 C86.4976071,28.3882856 86.1376627,28.2334091 85.7992289,28.2434474 C85.6381382,28.2482275 85.6759013,28.0656262 85.6749453,27.954727 C85.6711212,27.5474592 85.5401454,27.194685 85.250947,26.9050086" id="Fill-131" fill="#FFFFFF"></path>
                <path d="M59.0231884,14.8844426 C59.0126721,15.2089426 59.2602832,15.1774426 59.4467086,15.2059426 C59.9491012,15.2824426 60.4213788,15.1084426 60.9008267,14.9964426 C60.946716,15.2904426 60.7502523,15.3254426 60.5537887,15.3289426 C60.1058897,15.3364426 59.6579907,15.3294426 59.2096138,15.3259426 C58.839153,15.3229426 58.8568396,15.1369426 59.0231884,14.8844426" id="Fill-133" fill="#FFFFFF"></path>
                <path d="M50.0436507,21.4694655 C50.6105751,21.5774967 51.0307493,21.9876325 51.5470042,22.2013047 C51.5498723,22.2027388 51.5283617,22.2639245 51.5183234,22.2969075 C50.9475749,22.1621076 50.4246277,21.9417432 50.0436507,21.4694655" id="Fill-135" fill="#FFFFFF"></path>
                <path d="M122.757251,14.7712011 C122.425987,14.7291359 122.501035,14.3801858 122.478091,14.2386937 C122.405911,13.7955749 121.894436,13.5905069 121.939369,13.1187073 C122.470921,13.5412715 122.67073,14.1282725 122.757251,14.7712011" id="Fill-137" fill="#FFFFFF"></path>
                <path d="M88.7356679,13.8456374 C88.8613855,13.6611374 89.0468549,13.7371374 89.2089016,13.7356374 C90.0827108,13.7296374 90.9565201,13.7316374 91.8308074,13.7311374 C91.7438089,13.9426374 91.5640757,13.8431374 91.4307099,13.8441374 C90.5325219,13.8536374 89.6338559,13.8471374 88.7356679,13.8456374" id="Fill-139" fill="#FFFFFF"></path>
                <path d="M103.531248,14.6655122 C103.428475,14.8455122 103.255912,14.7895122 103.11442,14.7790122 C102.290802,14.7195122 101.456668,14.9230122 100.641176,14.6755122 C101.604852,14.6720122 102.56805,14.6685122 103.531248,14.6655122" id="Fill-141" fill="#FFFFFF"></path>
                <path d="M51.7472442,13.7276491 C51.2959991,13.9083383 50.9776419,13.553174 50.6062252,13.4274564 C50.5029742,13.3920834 50.3198949,13.2615856 50.4403544,13.0608198 C50.876303,13.2830962 51.3117736,13.5053727 51.7472442,13.7276491" id="Fill-143" fill="#FFFFFF"></path>
                <path d="M100.837257,16.1285229 C101.169477,15.9275229 101.532289,16.0800229 101.877893,16.0300229 C102.425697,16.1060229 102.9931,15.8980229 103.528953,16.1505229 L100.837257,16.1285229 Z" id="Fill-145" fill="#FFFFFF"></path>
                <path d="M95.0936343,26.7033824 C95.2982242,26.999751 95.1906711,27.3353167 95.1772867,27.6450697 C95.1600782,28.0590296 95.3034823,28.2067359 95.7040579,28.1536764 C95.8723188,28.1316877 96.0453598,28.1474622 96.2164888,28.1460282 C95.8966975,28.3902932 95.533885,28.2354167 95.1925831,28.2401969 C95.0372286,28.2421089 95.0826399,28.0542495 95.0821619,27.9433503 C95.0816839,27.5298683 95.0888541,27.1163864 95.0936343,26.7033824" id="Fill-147" fill="#FFFFFF"></path>
                <path d="M69.2687457,30.0377679 C69.7104305,30.3910201 70.040738,30.8131063 70.1052699,31.3981953 C69.7233368,31.007658 69.5254391,30.5052654 69.2687457,30.0377679" id="Fill-149" fill="#FFFFFF"></path>
                <path d="M104.805155,28.7974654 C104.853655,28.1593169 105.131155,27.5455472 105.024155,26.8911462 C105.190655,27.5517614 105.308655,28.2071183 104.805155,28.7974654" id="Fill-151" fill="#FFFFFF"></path>
                <path d="M119.003169,31.8217404 C118.176205,31.9757404 117.349241,31.9837404 116.523233,31.8157404 L119.003169,31.8217404 Z" id="Fill-153" fill="#FFFFFF"></path>
                <path d="M79.2094736,13.7305369 C79.5120563,13.4340369 80.4580457,13.4305369 80.7606285,13.7250369 C80.2434175,13.6520369 79.7262065,13.6060369 79.2094736,13.7305369" id="Fill-155" fill="#FFFFFF"></path>
                <path d="M119.234241,27.7327292 C119.458908,27.6757292 119.661107,27.8477292 119.89868,27.7832292 C120.081282,27.7332292 120.04065,27.9312292 120.054513,28.0482292 C119.855181,28.0552292 119.655849,28.0552292 119.456996,28.0702292 C119.19122,28.0902292 119.207472,27.9177292 119.234241,27.7327292" id="Fill-157" fill="#FFFFFF"></path>
                <path d="M83.3972094,26.8225051 C83.3871711,26.6725051 83.4698675,26.5635051 83.591761,26.5520051 C84.0506543,26.5075051 84.5310582,26.2800051 84.9497983,26.6870051 C84.420159,26.5740051 83.8933877,26.5070051 83.3972094,26.8225051" id="Fill-159" fill="#FFFFFF"></path>
                <path d="M77.8459391,13.1299406 C77.8158242,13.5434226 77.6260527,13.8278408 77.2049226,13.9263116 C77.2694544,13.5410325 77.5428783,13.3235362 77.8459391,13.1299406" id="Fill-161" fill="#FFFFFF"></path>
                <path d="M63.0058862,32.7611561 C62.9033862,32.7549419 62.8008862,32.7492058 62.6978862,32.7429916 C62.8638862,32.4710017 62.7113862,32.1990119 62.6953862,31.927022 C62.8973862,31.8758745 63.0503862,31.8835227 63.0288862,32.1488204 C63.0123862,32.3524543 63.0128862,32.5565662 63.0058862,32.7611561" id="Fill-163" fill="#FFFFFF"></path>
                <path d="M124.429869,30.8691774 C124.397364,30.8586611 124.337612,30.8500568 124.336178,30.8366724 C124.257784,30.0680262 123.68847,30.2425012 123.208544,30.2463253 C123.984838,29.8792107 124.383024,30.0823666 124.429869,30.8691774" id="Fill-165" fill="#FFFFFF"></path>
                <path d="M51.5045088,32.5551532 C51.9251609,32.8036532 52.3453351,32.8586532 52.7631192,32.5481532 C52.7592951,32.6371532 52.7865419,32.7496532 52.7449547,32.8096532 C52.6737306,32.9121532 51.6321385,32.9181532 51.5499201,32.8156532 C51.5025967,32.7571532 51.5174151,32.6441532 51.5045088,32.5551532" id="Fill-167" fill="#FFFFFF"></path>
                <path d="M70.7282175,32.5459543 C71.2506866,32.8979543 71.8372096,32.7099543 72.3950518,32.7619543 C71.9074776,33.0044543 71.3974369,32.8469543 70.8979124,32.8409543 C70.779843,32.8394543 70.7196133,32.6874543 70.7282175,32.5459543" id="Fill-169" fill="#FFFFFF"></path>
                <path d="M53.4102543,8.09000739 L51.3987721,8.09000739 C52.0694255,7.91450739 52.7400789,7.91150739 53.4102543,8.09000739" id="Fill-171" fill="#FFFFFF"></path>
                <path d="M128.297861,29.8249083 C127.897764,29.6055 127.570802,29.2990931 127.267742,28.9635274 C127.724723,29.1155358 128.099486,29.364581 128.297861,29.8249083" id="Fill-173" fill="#FFFFFF"></path>
                <path d="M116.386722,31.6959023 C116.356222,31.7021165 116.325722,31.7045065 116.294222,31.7030725 C116.350222,31.0806985 116.177222,30.4478082 116.387722,29.8330824 C116.387222,30.4535443 116.386722,31.0749623 116.386722,31.6959023" id="Fill-175" fill="#FFFFFF"></path>
                <path d="M101.342796,31.6926518 C101.204796,31.0721898 101.161796,30.4531619 101.371296,29.8374801 C101.361796,30.45603 101.352296,31.0745799 101.342796,31.6926518" id="Fill-177" fill="#FFFFFF"></path>
                <path d="M47.9553791,10.8887727 C47.9538791,11.5312233 47.9528791,12.1736739 47.9513791,12.8161245 C47.7963791,12.1731959 47.7893791,11.5307453 47.9553791,10.8887727" id="Fill-179" fill="#FFFFFF"></path>
                <path d="M135.094643,16.3364574 L135.094643,18.2351283 C134.923643,17.602238 134.923643,16.9693477 135.094643,16.3364574" id="Fill-181" fill="#FFFFFF"></path>
                <path d="M129.460678,13.724113 C129.762783,13.431113 130.432002,13.436613 130.715464,13.735113 C130.29768,13.703113 129.880374,13.538113 129.460678,13.724113" id="Fill-183" fill="#FFFFFF"></path>
                <path d="M55.9205351,18.9389081 C55.8985351,19.3404397 56.0955351,19.8261018 55.4750351,19.9977087 C55.6235351,19.6449345 55.7720351,19.2916823 55.9205351,18.9389081" id="Fill-185" fill="#FFFFFF"></path>
                <path d="M103.120921,30.0419744 C103.680921,30.1801204 103.562421,30.6093769 103.563421,30.9865298 C103.415921,30.6715187 103.268421,30.3569855 103.120921,30.0419744" id="Fill-187" fill="#FFFFFF"></path>
                <path d="M141.283107,12.4850597 C140.969052,12.4045597 140.586163,12.6840597 140.333772,12.2860597 C140.670293,12.2460597 140.999167,12.2470597 141.283107,12.4850597" id="Fill-189" fill="#FFFFFF"></path>
                <path d="M103.566238,18.1212654 L105.202958,18.1212654 C104.657066,18.3152654 104.11213,18.3152654 103.566238,18.1212654" id="Fill-191" fill="#FFFFFF"></path>
                <path d="M150.150319,14.3725854 C150.147319,14.9304275 150.144819,15.4882696 150.142319,16.0456338 C149.973819,15.4873136 149.952319,14.9294715 150.150319,14.3725854" id="Fill-193" fill="#FFFFFF"></path>
                <path d="M64.0693892,12.2670371 C63.5368818,12.2670371 63.0043744,12.2670371 62.471867,12.2670371 C63.0043744,12.1020371 63.5368818,12.1040371 64.0693892,12.2670371" id="Fill-195" fill="#FFFFFF"></path>
                <path d="M119.441078,12.2698382 C118.911916,12.2688382 118.381799,12.2678382 117.85216,12.2673382 C118.382277,12.1003382 118.911916,12.0988382 119.441078,12.2698382" id="Fill-197" fill="#FFFFFF"></path>
                <path d="M114.838923,13.8193799 C114.887923,14.2113513 114.744923,14.5287525 114.431923,14.7806658 C114.536423,14.4479681 114.570423,14.0880237 114.838923,13.8193799" id="Fill-199" fill="#FFFFFF"></path>
                <path d="M85.5935164,30.449529 C85.9025164,30.758326 85.8880164,31.2478121 85.5625164,31.486341 C85.6870164,31.1436051 85.7540164,30.7994352 85.5935164,30.449529" id="Fill-201" fill="#FFFFFF"></path>
                <path d="M52.995082,32.0203303 C52.880582,31.7531206 52.897082,31.5289321 53.214082,31.4013024 C53.196582,31.6259689 53.150082,31.8405971 52.995082,32.0203303" id="Fill-203" fill="#FFFFFF"></path>
                <path d="M99.1711407,31.9246319 C99.1096407,32.1316119 99.3286407,32.4227223 98.9686407,32.5393577 C99.0426407,32.3362018 98.7281407,32.0164106 99.1711407,31.9246319" id="Fill-205" fill="#FFFFFF"></path>
                <path d="M141.813627,12.7851344 C141.509627,12.9271344 141.367127,12.8176344 141.363127,12.4941344 C141.574127,12.4961344 141.785627,12.4986344 141.813627,12.7851344" id="Fill-207" fill="#FFFFFF"></path>
                <path d="M135.703347,20.2188857 C136.163546,20.2427864 136.176482,20.572616 136.203347,20.8933633 C135.969019,20.7145861 135.868521,20.4445083 135.703347,20.2188857" id="Fill-209" fill="#FFFFFF"></path>
                <path d="M50.4338676,13.0478935 C49.9818676,13.2848935 50.0183676,12.9928935 50.0568676,12.6993935 C50.1828676,12.8153935 50.3083676,12.9318935 50.4338676,13.0478935" id="Fill-211" fill="#FFFFFF"></path>
                <path d="M115.062863,31.7038373 C115.248863,31.7348373 115.282863,31.8553373 115.232863,32.0103373 C115.222363,32.0423373 115.138863,32.0843373 115.119863,32.0723373 C115.015863,32.0078373 115.049363,31.8898373 115.031363,31.7913373 C115.029363,31.7573373 115.039863,31.7288373 115.062863,31.7038373" id="Fill-213" fill="#FFFFFF"></path>
                <path d="M142.018012,20.3092304 C142.041512,20.6827304 141.795512,20.6937304 141.526512,20.6747304 C141.690012,20.5527304 141.854012,20.4312304 142.018012,20.3092304" id="Fill-215" fill="#FFFFFF"></path>
                <path d="M53.2028526,31.4199838 C53.2048526,31.2439838 53.1148526,31.0289838 53.3963526,30.9744838 C53.4223526,31.1624838 53.3383526,31.3024838 53.2028526,31.4199838" id="Fill-217" fill="#FFFFFF"></path>
                <path d="M69.0586586,29.6178303 C69.5211586,29.5708303 69.1926586,29.9223303 69.2826586,30.0633303 C69.1536586,29.9418303 69.0716586,29.7968303 69.0586586,29.6178303" id="Fill-219" fill="#FFFFFF"></path>
                <path d="M102.587314,29.8293846 C102.776607,29.8733846 103.062938,29.6658846 103.120777,30.0523846 C102.927182,30.0193846 102.740756,29.9673846 102.587314,29.8293846" id="Fill-221" fill="#FFFFFF"></path>
                <path d="M83.0772621,27.1443495 C83.0442621,26.8878495 83.1402621,26.7598495 83.4122621,26.8073495 C83.3002621,26.9198495 83.1887621,27.0318495 83.0772621,27.1443495" id="Fill-223" fill="#FFFFFF"></path>
                <path d="M85.5837271,31.4797444 C85.5927271,31.7252444 85.4237271,31.7167444 85.2557271,31.7087444 C85.3652271,31.6327444 85.4742271,31.5562444 85.5837271,31.4797444" id="Fill-225" fill="#FFFFFF"></path>
                <path d="M124.644002,31.2982935 C124.416002,31.2772935 124.445502,31.1087935 124.448002,30.9557935 C124.575502,31.0342935 124.609002,31.1667935 124.644002,31.2982935" id="Fill-227" fill="#FFFFFF"></path>
                <path d="M136.198617,20.9206509 C136.259617,20.9056509 136.320617,20.8901509 136.381117,20.8751509 C136.374617,20.9401509 136.367117,21.0046509 136.359617,21.0696509 C136.306117,21.0196509 136.252117,20.9706509 136.198617,20.9206509" id="Fill-229" fill="#FFFFFF"></path>
                <path d="M138.46071,20.6359469 C138.30321,20.6384469 138.23271,20.5579469 138.23971,20.4034469 C138.36121,20.4354469 138.40921,20.5369469 138.46071,20.6359469" id="Fill-231" fill="#FFFFFF"></path>
                <path d="M65.505773,17.5860463 C64.401083,17.6435463 63.2925689,17.5540463 62.190747,17.6975463 C62.2012633,17.5285463 62.3131186,17.5020463 62.4431383,17.5020463 C63.4211546,17.5025463 64.3991709,17.5025463 65.3767092,17.5075463 C65.4197305,17.5075463 65.4627517,17.5585463 65.505773,17.5860463" id="Fill-233" fill="#FFFFFF"></path>
                <path d="M116.299427,20.4096133 C117.074766,21.1027333 117.968652,21.1309361 118.914641,20.8809349 C119.012156,20.8556002 119.114451,20.8460399 119.214356,20.8293094 C119.310915,21.3034991 118.857279,21.193556 118.692843,21.2222368 C118.011673,21.3412622 117.3458,21.2160226 116.701437,20.9421207 C116.437095,20.8297874 116.328108,20.6667847 116.299427,20.4096133" id="Fill-235" fill="#FFFFFF"></path>
                <path d="M120.875549,18.9489464 C120.867423,18.6195949 121.012739,18.313666 121.004613,17.9776223 C120.996965,17.6826877 120.911878,17.588041 120.616944,17.5995133 C119.735486,17.6324963 118.850683,17.5454978 117.972571,17.6869899 C118.021329,17.4274284 118.230221,17.5134708 118.387487,17.5000865 C119.188161,17.4307745 120.000784,17.6114637 120.794287,17.3925333 C120.887022,17.3667206 120.910922,17.4360326 120.95729,17.4757078 C121.210159,17.692726 121.152319,18.7209338 120.875549,18.9489464" id="Fill-237" fill="#FFFFFF"></path>
                <path d="M99.4828366,19.8662071 C99.6348366,20.1649658 99.5763366,20.4642024 99.5173366,20.7658292 C99.3053366,20.4751968 99.3513366,20.172136 99.4828366,19.8662071" id="Fill-239" fill="#FFFFFF"></path>
                <path d="M115.468255,31.4947063 C115.374755,31.4803659 115.269755,31.4464269 115.267755,31.3522582 C115.257755,30.8665961 115.263255,30.379978 115.263255,29.8938379 L115.468255,29.8914479 L115.468255,31.4947063 Z" id="Fill-241" fill="#FFFFFF"></path>
                <path d="M100.639712,30.5041182 C100.639712,30.7469492 100.640712,30.9897803 100.639212,31.2316553 C100.638212,31.3659771 100.598212,31.4735303 100.430712,31.4783104 C100.264212,31.4830905 100.210712,31.3817516 100.210212,31.2450396 C100.207212,30.7426471 100.204212,30.2402546 100.209712,29.737384 C100.211212,29.5944579 100.250212,29.4414935 100.443712,29.4543998 C100.597712,29.4639601 100.635212,29.598282 100.637712,29.7244776 C100.643712,29.9845172 100.639712,30.2445567 100.639712,30.5041182" id="Fill-243" fill="#FFFFFF"></path>
                <path d="M102.648978,26.6459251 C101.354038,26.4255608 101.354516,26.4255608 101.357862,27.7061598 C101.358818,28.0536759 101.356906,28.4011919 101.35595,28.748708 C101.124113,28.0656262 101.292852,27.364858 101.264171,26.6731719 C101.262737,26.6291947 101.296198,26.573267 101.329659,26.5402841 C101.475454,26.399748 102.441998,26.4805324 102.648978,26.6459251" id="Fill-245" fill="#FFFFFF"></path>
                <path d="M100.997047,29.8968016 L100.997047,31.4202317 C100.808547,30.9154491 100.817547,30.4073204 100.862047,29.8991917 C100.907047,29.8982357 100.952047,29.8977577 100.997047,29.8968016" id="Fill-247" fill="#FFFFFF"></path>
                <path d="M102.821896,26.6806681 C102.777896,26.6756681 102.733896,26.6711681 102.689896,26.6671681 C102.739896,26.6136681 102.782896,26.6301681 102.821896,26.6806681" id="Fill-249" fill="#FFFFFF"></path>
            </g>
        </g>
    </g>
</svg>