<?xml version="1.0" encoding="UTF-8" standalone="no"?>
<svg width="20px" height="18px" viewBox="0 0 20 18" version="1.1" xmlns="http://www.w3.org/2000/svg" xmlns:xlink="http://www.w3.org/1999/xlink">
    <!-- Generator: sketchtool 50.2 (55047) - http://www.bohemiancoding.com/sketch -->
    <title>D2FA1B20-571F-4CA1-B36A-C7AF3880532C</title>
    <desc>Created with sketchtool.</desc>
    <defs></defs>
    <g id="Reports" stroke="none" stroke-width="1" fill="none" fill-rule="evenodd">
        <g id="Report-1" transform="translate(-15.000000, -76.000000)" fill="#7A94B3">
            <g id="home-icon" transform="translate(15.000000, 76.000000)">
                <path d="M12.7005882,6.45025263 C11.9631269,5.73025263 11.2256656,5.01025263 10.4882043,4.2912 C10.4008978,4.20593684 10.3135913,4.12162105 10.2160681,4.02783158 C9.66343653,4.56593684 9.12009288,5.09646316 8.57582043,5.62793684 C6.98108359,7.18351579 5.38913313,8.74098947 3.79160991,10.2918316 C3.70244582,10.3789895 3.64486068,10.4680421 3.61235294,10.5760421 L3.57520124,10.5580421 L3.57520124,16.9480421 L3.57891641,16.9480421 C3.5928483,17.4473053 3.74145511,17.8044632 4.15941176,17.9996211 L8.73928793,17.9996211 C8.74114551,16.3606737 8.74021672,14.7207789 8.74021672,13.0818316 L8.74021672,12.7824632 L11.6919195,12.7824632 C11.6928483,14.5218316 11.6919195,16.2602526 11.6937771,17.9996211 L16.274582,17.9996211 C16.3080186,17.9787789 16.3405263,17.9541474 16.3748916,17.9361474 C16.6665325,17.7855158 16.8448607,17.5297263 16.8457895,17.1469895 C16.8504334,14.9320421 16.8513622,12.7161474 16.8430031,10.5002526 C15.4656037,9.14646316 14.0817028,7.79835789 12.7005882,6.45025263" id="Fill-1"></path>
                <path d="M18.5390712,7.55057142 C17.9799381,7.00409008 17.4152322,6.46343269 16.8468111,5.92956992 C16.8523839,3.98436812 16.8505263,2.03916631 16.8505263,0.0939645059 C16.8505263,0.0852285696 16.8440248,0.0784339526 16.8356656,0.0784339526 C15.8576471,0.0764926334 14.8796285,0.0764926334 13.9016099,0.0784339526 C13.8988235,1.06559475 13.8997523,2.03140103 13.8997523,3.08747866 C13.7827245,2.97682347 13.6972755,2.89625872 13.6127554,2.81569398 C12.8492879,2.07896335 12.0830341,1.34708603 11.3223529,0.604531447 C11.0251393,0.314304231 10.7121362,0.0716393355 10.3071827,0.00466382423 C10.2765325,0.00272250507 10.2245201,0.000781185899 10.1947988,-0.000189473684 C9.4898452,0.0648447184 9.07931889,0.646269809 8.60377709,1.10150915 C6.114613,3.48253711 3.63287926,5.87424232 1.14928793,8.26400622 C1.06848297,8.34165899 1.00160991,8.4396956 0.928235294,8.52802563 L0.928235294,8.80757558 C1.20037152,9.19195678 1.46414861,9.58604457 1.74835913,9.95780719 C1.89789474,10.1548511 2.1022291,10.1334966 2.30563467,9.93645268 C3.87157895,8.43290099 5.42452012,6.91187742 7.01832817,5.44715211 C8.07250774,4.47843384 9.0895356,3.45827062 10.1000619,2.42743014 C10.135356,2.39054508 10.1715789,2.36045463 10.2198762,2.31677495 C10.7985139,2.87393355 11.3715789,3.4252682 11.9437152,3.97660284 C14.1189474,6.07322754 16.2932508,8.1708229 18.468483,10.2664769 C18.8650774,9.73746747 19.2375232,9.18613282 19.619257,8.64450478 C19.2579567,8.28050743 18.9059443,7.90777415 18.5390712,7.55057142" id="Fill-3"></path>
            </g>
        </g>
    </g>
</svg>