<?xml version="1.0" encoding="UTF-8" standalone="no"?>
<svg width="41px" height="43px" viewBox="0 0 41 43" version="1.1" xmlns="http://www.w3.org/2000/svg" xmlns:xlink="http://www.w3.org/1999/xlink">
    <title>logo</title>
    <desc>Created with Sketch.</desc>
    <defs></defs>
    <g id="Export" stroke="none" stroke-width="1" fill="none" fill-rule="evenodd">
        <g transform="translate(-10.000000, -4.000000)" id="logo-with-text">
            <g transform="translate(10.000000, 4.000000)">
                <g id="logo">
                    <path d="M40.0312207,21.0530677 C39.0555945,20.6759148 38.0833144,20.2915917 37.10482,19.923999 C36.0230747,19.5172092 34.9384613,19.1185457 33.8490678,18.7337446 C33.6330056,18.6577404 33.5369248,18.5659617 33.5488751,18.3298229 C33.6057588,17.2246549 33.476695,16.1280912 33.3461973,15.0343955 C33.131091,13.2279812 32.3590987,11.6878207 31.0407365,10.4349464 C29.6167333,9.0807332 27.8652906,8.4311124 25.9675757,8.06112969 C24.59472,7.79344195 23.2428969,7.41724506 21.8781674,7.10558004 C20.8012022,6.8589249 19.7161108,6.6447747 18.6377116,6.40194368 C17.6639974,6.18205731 16.6969754,5.93157806 15.7218272,5.71551581 C14.7098719,5.49132732 13.6931365,5.2867374 12.675923,5.08453755 C12.2643531,5.00231917 11.8919804,4.75996616 11.3666432,4.88568379 C16.372404,9.39670035 21.3776869,13.9077169 26.3829697,18.4187334 C26.3676733,18.4674909 26.3518988,18.5162483 26.3361244,18.5650057 C17.5626585,16.6596425 8.78967058,14.7538014 -4.78013834e-05,12.8450921 C0.662479373,11.2824649 1.51764612,9.84459931 2.50426667,8.47317762 C3.6075226,6.93970924 4.92970887,5.62039106 6.40438155,4.46598765 C8.07599592,3.15766378 9.91634918,2.13471418 11.914925,1.37323814 C13.4880686,0.773330781 15.1037553,0.369409091 16.7557711,0.175335474 C18.7734675,-0.0612813735 20.7969001,-0.0416828063 22.8232007,0.311091403 C24.3805698,0.582603261 25.875319,1.00994763 27.3356513,1.5859543 C29.2343223,2.33404595 30.9475238,3.39571467 32.5479142,4.65528113 C34.3930476,6.10748715 35.9379883,7.84602347 37.1889505,9.80922628 C38.2759539,11.5152577 39.0895335,13.3747315 39.6186948,15.3489286 C40.1182192,17.2150946 40.3959453,19.0999032 40.3285453,21.0325131 C40.2295965,21.0392053 40.1301696,21.0458975 40.0312207,21.0530677" id="Fill-1" fill="#EAB603"></path>
                    <path d="M40.0312207,21.0530677 C40.1301696,21.0458975 40.2295965,21.0392053 40.3285453,21.0325131 C40.4394445,24.0105393 39.7697472,26.8241287 38.6038714,29.5497636 C37.7922039,31.4479565 36.7114146,33.1802787 35.3667617,34.7213953 C33.889221,36.4135642 32.2061343,37.893017 30.2558378,39.0541126 C27.9365147,40.4350946 25.4527548,41.3590954 22.8007341,41.7988681 C20.9995779,42.0971487 19.1812133,42.1334778 17.3518544,41.9647389 C14.7151301,41.7219079 12.2232439,41.0091892 9.86806979,39.8208468 C8.31882695,39.0383382 6.90008189,38.0588878 5.5769396,36.924561 C3.85178767,35.4460642 2.446427,33.7194783 1.28437537,31.7792201 C0.848426754,31.051205 0.482746171,30.2878169 0.117065588,29.5234728 C-0.00100382905,29.2763397 0.0597039279,29.2323624 0.320221467,29.1773908 C2.73705941,28.6687841 5.1486392,28.1338866 7.56308708,27.6138076 C10.9732378,26.8786223 14.3872126,26.1568214 17.7954512,25.4139879 C20.5641073,24.8107344 23.3275053,24.1840583 26.0937714,23.5712446 C26.1759897,23.552602 26.2653783,23.5688545 26.4322052,23.5688545 C25.97618,24.1859704 25.3877449,24.5860679 24.871012,25.038269 C24.3906081,25.4589212 23.9221545,25.8977379 23.4417506,26.3183901 C21.8399263,27.7194486 20.2878153,29.1773908 18.7103697,30.6066522 C17.3140913,31.8724328 15.9115987,33.1319993 14.507194,34.3882196 C13.6568074,35.1492176 12.7982946,35.9011334 11.9402598,36.6530492 C11.7299337,36.8375625 11.5478104,37.0421524 11.3432205,37.3576416 C11.8475251,37.2510445 12.2849077,37.1630899 12.7203783,37.0650971 C15.7189591,36.3910976 18.7256661,35.7515151 21.7113405,35.0268461 C23.8088652,34.5182394 25.9518013,34.1884098 28.0000905,33.4847735 C30.919799,32.4809444 32.6970545,30.4374353 33.303176,27.4292942 C33.5201943,26.350417 33.6167531,25.2318646 33.5369248,24.1228725 C33.5020298,23.6396005 33.6750708,23.4244943 34.1148435,23.2667498 C36.0359811,22.5784098 37.9461244,21.859477 39.8596138,21.1501045 C39.9203215,21.1276378 39.9738591,21.0855726 40.0312207,21.0530677" id="Fill-4" fill="#48B1FB"></path>
                </g>
            </g>
        </g>
    </g>
</svg>