<?xml version="1.0" encoding="UTF-8" standalone="no"?>
<svg width="18px" height="20px" viewBox="0 0 18 20" version="1.1" xmlns="http://www.w3.org/2000/svg" xmlns:xlink="http://www.w3.org/1999/xlink">
    <!-- Generator: Sketch 50.2 (55047) - http://www.bohemiancoding.com/sketch -->
    <title>person icon</title>
    <desc>Created with Sketch.</desc>
    <defs></defs>
    <g id="Users" stroke="none" stroke-width="1" fill="none" fill-rule="evenodd">
        <g transform="translate(-16.000000, -125.000000)" fill="#FFFFFF" id="Group">
            <g>
                <g id="Reports" transform="translate(12.000000, 125.000000)">
                    <g id="person-icon">
                        <g transform="translate(4.000000, 0.000000)">
                            <path d="M8.62809208,19.9994659 C7.78630444,20.0062163 6.91848212,19.9488385 6.05355255,19.8352079 C5.0661636,19.7058266 4.08745288,19.507817 3.13284834,19.1793009 C2.42991226,18.9385392 1.74433263,18.6426498 1.11950057,18.1881276 C0.7530867,17.9203646 0.415600244,17.6154747 0.188037948,17.1755782 C0.0694355651,16.9471921 -0.000954467092,16.7008051 9.77992419e-06,16.431917 C0.00193827396,15.3124874 0.210215629,14.2493106 0.635448564,13.2435115 C1.05200327,12.2602136 1.63055148,11.4310482 2.36820045,10.7548902 C3.15888301,10.032605 4.05177574,9.56345713 5.04012893,9.34407143 C5.13751788,9.32269539 5.21080066,9.3373211 5.29661864,9.40932461 C6.04101734,10.0348551 6.86737703,10.4252491 7.7814832,10.544505 C8.44006391,10.6300091 9.09960887,10.6300091 9.7543326,10.5163786 C10.3994139,10.4049982 11.008818,10.1541109 11.570974,9.76371689 C11.7503239,9.63996086 11.9209956,9.49595384 12.0993813,9.36544747 C12.1321657,9.34182132 12.1803781,9.32832066 12.218948,9.33507099 C12.8264236,9.44870153 13.4030433,9.67596261 13.9526641,9.99997841 C14.5090346,10.3284944 15.0094788,10.7447647 15.4568895,11.2487893 C15.9149068,11.7651895 16.2948201,12.350218 16.5995222,13.0038749 C16.9283304,13.7137845 17.1568569,14.4641961 17.2561744,15.2607349 C17.309208,15.6770052 17.3304214,16.1011509 17.3333141,16.5207963 C17.3352426,16.862813 17.1915698,17.1553273 17.0073987,17.4152149 C16.7451235,17.7898582 16.4134225,18.0654966 16.0566511,18.3006331 C15.2187204,18.853035 14.3103997,19.1781759 13.3799014,19.4279381 C12.7406056,19.6000715 12.0935959,19.7260776 11.4417649,19.8149569 C10.517052,19.9409631 9.58848211,20.0062163 8.62809208,19.9994659" id="Fill-1"></path>
                            <path d="M8.47179886,0 C9.51296775,0 10.3001457,0.199573891 11.0252801,0.599628828 C11.8250607,1.03959854 12.4387105,1.65192753 12.8516881,2.43117286 C13.2569103,3.19681088 13.4023249,4.00871375 13.3034429,4.8605314 C13.2035916,5.72323491 12.8827099,6.50792316 12.3795752,7.23183209 C12.0470604,7.71171659 11.6428076,8.13263607 11.1590616,8.48461184 C10.5628615,8.91913863 9.89880129,9.21305654 9.14458397,9.30377195 C8.38455007,9.3953945 7.65553796,9.27292871 6.96918082,8.95179617 C6.130623,8.55899847 5.47819594,7.97297695 4.96536695,7.24453225 C4.57953341,6.69751836 4.29645956,6.10786822 4.13941174,5.46923177 C3.90577887,4.51581287 3.95521985,3.58053704 4.36819745,2.67247583 C4.71719261,1.90411635 5.25522681,1.27818006 5.98423892,0.797388411 C6.78983608,0.265796137 7.68655975,0.00544292431 8.47179886,0" id="Fill-3"></path>
                        </g>
                    </g>
                </g>
            </g>
        </g>
    </g>
</svg>