<?xml version="1.0" encoding="UTF-8" standalone="no"?>
<svg width="19px" height="18px" viewBox="0 0 19 18" version="1.1" xmlns="http://www.w3.org/2000/svg" xmlns:xlink="http://www.w3.org/1999/xlink">
    <!-- Generator: sketchtool 50.2 (55047) - http://www.bohemiancoding.com/sketch -->
    <title>DC7AC519-E3C0-4CD3-880D-9FDF247E9A69</title>
    <desc>Created with sketchtool.</desc>
    <defs>
        <polygon id="path-1" points="0.7126875 0.6849375 14.0240625 0.6849375 14.0240625 7.4996618 0.7126875 7.4996618"></polygon>
        <polygon id="path-3" points="0.403200445 0.4340625 7.05030723 0.4340625 7.05030723 7.17921102 0.403200445 7.17921102"></polygon>
    </defs>
    <g id="Reports" stroke="none" stroke-width="1" fill="none" fill-rule="evenodd">
        <g id="Report-1" transform="translate(-16.000000, -176.000000)">
            <g id="Group">
                <g id="Predefined" transform="translate(16.000000, 175.000000)">
                    <g id="referrals-icon">
                        <g id="Group-3" transform="translate(0.000000, 0.503812)" fill="#FFFFFF">
                            <path d="M0.38334375,13.3067813 C0.47615625,13.3124063 0.53990625,13.3161563 0.60271875,13.3180313 C1.03771875,13.3311563 1.47365625,13.3470938 1.90865625,13.3564688 C1.97709375,13.3583438 2.00240625,13.3789688 2.01646875,13.4436563 C2.06053125,13.6320938 2.10834375,13.8195938 2.15990625,14.0061563 C2.44771875,15.0552188 2.99240625,15.9383438 3.85490625,16.6124063 C4.51115625,17.1261563 5.25740625,17.4542813 6.05428125,17.6755313 C6.14334375,17.7008438 6.23146875,17.7270938 6.32053125,17.7486563 C6.40865625,17.7711563 6.49865625,17.7870938 6.58865625,17.8058438 C6.56428125,17.7655313 6.53428125,17.7430313 6.50428125,17.7195938 C5.76459375,17.1336563 5.18334375,16.4305313 4.86084375,15.5295938 C4.65553125,14.9530313 4.55709375,14.3567813 4.52521875,13.7483438 C4.51865625,13.6124063 4.51115625,13.4783438 4.50271875,13.3208438 L6.17334375,13.3208438 L6.18271875,13.2870938 C5.21990625,12.3702188 4.25709375,11.4524063 3.28678125,10.5280313 C2.31740625,11.4561563 1.36021875,12.3730313 0.38334375,13.3067813 M2.27803125,3.84271875 C2.31271875,4.10709375 2.32115625,4.37709375 2.38490625,4.63396875 C2.69240625,5.86490625 3.85490625,7.05084375 5.26771875,7.15021875 C5.60053125,7.17365625 5.93334375,7.20553125 6.26615625,7.14084375 C6.32240625,7.12959375 6.33646875,7.10803125 6.34021875,7.05553125 C6.35803125,6.84271875 6.36084375,6.62709375 6.40303125,6.41896875 C6.69646875,4.97240625 7.39959375,3.82021875 8.77678125,3.15928125 C8.93240625,3.08428125 8.94740625,3.04115625 8.90428125,2.87053125 C8.89865625,2.84896875 8.89303125,2.82740625 8.88553125,2.80584375 C8.73084375,2.33053125 8.49271875,1.90490625 8.14959375,1.53834375 C7.31053125,0.64209375 6.27271875,0.29146875 5.07365625,0.48553125 C3.50428125,0.74053125 2.25553125,2.16459375 2.27803125,3.84271875 M15.8070938,7.25803125 C15.8408438,5.10834375 14.0727188,3.04959375 11.5649063,3.00553125 C9.22396875,2.96521875 7.23740625,4.94053125 7.23740625,7.27490625 C7.23740625,9.57178125 9.14803125,11.5377188 11.4402188,11.5705313 C14.0502188,11.6080313 15.8755312,9.41803125 15.8070938,7.25803125" id="Fill-1"></path>
                        </g>
                        <g id="Group-6" transform="translate(4.687500, 10.816312)">
                            <mask id="mask-2" fill="white">
                                <use xlink:href="#path-1"></use>
                            </mask>
                            <g id="Clip-5"></g>
                            <path d="M14.02425,7.495875 C13.9895625,7.4968125 13.954875,7.4986875 13.91925,7.4986875 C10.4355,7.4986875 6.9508125,7.4986875 3.4670625,7.499625 C3.3901875,7.5005625 3.3264375,7.4836875 3.2645625,7.43775 C2.898,7.158375 2.521125,6.8911875 2.163,6.6015 C1.5414375,6.100875 1.15425,5.44275 0.9245625,4.6843125 C0.8214375,4.345875 0.7539375,4.000875 0.7126875,3.6230625 L3.423,3.6230625 C3.428625,3.609 3.4351875,3.594 3.4408125,3.579 C3.1539375,3.284625 2.869875,2.988375 2.5801875,2.695875 C2.292375,2.403375 1.999875,2.1155625 1.699875,1.814625 C1.863,1.6805625 2.013,1.539 2.1808125,1.4218125 C2.5183125,1.1836875 2.8651875,0.95775 3.2064375,0.72525 C3.2701875,0.6811875 3.316125,0.68775 3.3705,0.742125 C3.633,1.0065 3.90675,1.25775 4.2245625,1.4574375 C4.743,1.7818125 5.2876875,2.049 5.89425,2.154 C7.4045625,2.4136875 8.768625,2.0949375 9.9451875,1.083375 C10.1008125,0.9493125 10.2583125,0.8143125 10.40925,0.6849375 C12.2308125,1.7424375 13.4383125,3.249 13.849875,5.335875 C13.9295625,5.7399375 13.95675,6.1543125 14.0083125,6.564 C14.013,6.6015 14.018625,6.6380625 14.02425,6.6755625 L14.02425,7.495875 Z" id="Fill-4" fill="#7A94B3" mask="url(#mask-2)"></path>
                        </g>
                        <path d="M0.0001875,11.4009375 C0.0705,11.14125 0.13425,10.87875 0.2120625,10.6209375 C0.5533125,9.49125 1.14675,8.5228125 2.074875,7.7784375 C2.3045625,7.5928125 2.5576875,7.4371875 2.7976875,7.265625 C2.8464375,7.2309375 2.87175,7.246875 2.9101875,7.2796875 C3.1201875,7.455 3.32175,7.6415625 3.543,7.8 C4.3033125,8.345625 5.15925,8.533125 6.08175,8.4459375 C6.24675,8.4309375 6.4108125,8.4121875 6.5870625,8.3934375 C6.62175,8.5340625 6.657375,8.6746875 6.68925,8.81625 C6.7483125,9.0759375 6.8064375,9.3365625 6.8626875,9.5971875 C6.8720625,9.643125 6.878625,9.6928125 6.8739375,9.7396875 C6.871125,9.7678125 6.8514375,9.8053125 6.8270625,9.819375 C6.361125,10.0884375 5.9551875,10.4353125 5.569875,10.8075 C5.4358125,10.9378125 5.3055,11.0728125 5.1676875,11.2115625 L3.552375,9.594375 L3.5476875,9.594375 C2.8839375,10.258125 2.2201875,10.9209375 1.5583125,11.585625 C1.5151875,11.62875 1.4570625,11.653125 1.3970625,11.6521875 C1.013625,11.649375 0.62925,11.65125 0.244875,11.649375 C0.153,11.6484375 0.05925,11.64375 0.0001875,11.55375 L0.0001875,11.4009375 Z" id="Fill-7" fill="#7A94B3"></path>
                        <path d="M15.8067188,7.76165625 C15.8770313,9.98353125 13.9448438,12.2354063 11.2167188,12.0657188 C9.71578125,11.9719688 8.34328125,11.0354063 7.68609375,9.68165625 C6.20859375,6.63384375 8.60296875,3.45853125 11.5654688,3.50915625 C14.0723438,3.55321875 15.8404688,5.61196875 15.8067188,7.76165625" id="Fill-9" fill="#7A94B3"></path>
                        <g id="Group-13" transform="translate(1.875000, 0.503812)">
                            <mask id="mask-4" fill="white">
                                <use xlink:href="#path-3"></use>
                            </mask>
                            <g id="Clip-12"></g>
                            <path d="M0.4035,3.84253125 C0.381,2.16440625 1.6288125,0.74034375 3.1981875,0.48534375 C4.39725,0.29128125 5.436,0.64190625 6.2750625,1.53815625 C6.61725,1.90565625 6.8563125,2.33128125 7.011,2.80659375 C7.0175625,2.82721875 7.024125,2.84878125 7.0288125,2.87034375 C7.072875,3.04190625 7.057875,3.08409375 6.9013125,3.15909375 C5.524125,3.82003125 4.8219375,4.97221875 4.5285,6.41971875 C4.4863125,6.62690625 4.4825625,6.84253125 4.4656875,7.05534375 C4.461,7.10784375 4.4469375,7.12940625 4.3906875,7.14065625 C4.057875,7.20534375 3.726,7.17440625 3.39225,7.15003125 C1.980375,7.05065625 0.817875,5.86471875 0.510375,4.63378125 C0.4456875,4.37690625 0.4381875,4.10690625 0.4035,3.84253125" id="Fill-11" fill="#7A94B3" mask="url(#mask-4)"></path>
                        </g>
                        <path d="M0.38334375,13.8105937 C1.36021875,12.8768437 2.31740625,11.9599687 3.28678125,11.0318437 C4.25709375,11.9562187 5.21990625,12.8740312 6.18271875,13.7909062 L6.17334375,13.8246562 L4.50271875,13.8246562 C4.51115625,13.9821562 4.51865625,14.1162187 4.52521875,14.2521562 C4.55709375,14.8605937 4.65553125,15.4568437 4.86084375,16.0334062 C5.18334375,16.9343437 5.76459375,17.6374687 6.50428125,18.2234062 C6.53428125,18.2468437 6.56428125,18.2693437 6.58865625,18.3096562 C6.49865625,18.2909062 6.40865625,18.2749687 6.32053125,18.2524687 C6.23146875,18.2309062 6.14334375,18.2046562 6.05428125,18.1793437 C4.90021875,17.8577812 3.85303125,17.3149687 3.03178125,16.3080937 C2.60053125,15.7802812 2.33053125,15.1380937 2.15146875,14.4799687 C2.10365625,14.3027812 2.05865625,14.1255937 2.01646875,13.9474687 C2.00240625,13.8827812 1.97709375,13.8621562 1.90865625,13.8602812 C1.47365625,13.8509062 1.03771875,13.8349687 0.60271875,13.8218437 C0.53990625,13.8199687 0.47615625,13.8162187 0.38334375,13.8105937" id="Fill-14" fill="#7A94B3"></path>
                    </g>
                </g>
            </g>
        </g>
    </g>
</svg>