<?xml version="1.0" encoding="UTF-8" standalone="no"?>
<svg width="17px" height="20px" viewBox="0 0 17 20" version="1.1" xmlns="http://www.w3.org/2000/svg" xmlns:xlink="http://www.w3.org/1999/xlink">
    <!-- Generator: sketchtool 50.2 (55047) - http://www.bohemiancoding.com/sketch -->
    <title>1F9ED2E3-7A6A-4061-8414-9FBFA1F4D1D7</title>
    <desc>Created with sketchtool.</desc>
    <defs></defs>
    <g id="Reports" stroke="none" stroke-width="1" fill="none" fill-rule="evenodd" opacity="0.967658548">
        <g id="Report-1" transform="translate(-16.000000, -225.000000)" fill="#FFFFFF">
            <g id="Group">
                <g id="Predefined" transform="translate(16.000000, 225.000000)">
                    <path d="M10.0035673,17.0782335 L14.0409405,17.0782335 L14.0409405,16.2670664 L10.0035673,16.2670664 L10.0035673,17.0782335 Z M10.0057592,13.7319173 L14.0431323,13.7319173 L14.0431323,12.9207502 L10.0057592,12.9207502 L10.0057592,13.7319173 Z M9.99589589,15.4025594 L14.505611,15.4025594 L14.505611,14.6014563 L9.99589589,14.6014563 L9.99589589,15.4025594 Z M9.99479997,12.0653009 L14.4946518,12.0653009 L14.4946518,11.2641979 L9.99479997,11.2641979 L9.99479997,12.0653009 Z M14.4990355,7.08859912 L14.4990355,5.42198271 C14.4990355,4.97010422 14.1012161,4.60477707 13.6102435,4.60477707 L13.6080517,4.60477707 C13.1159831,4.60477707 12.7181638,4.97010422 12.7181638,5.42198271 L12.7181638,7.08859912 C12.7181638,7.5394712 13.1159831,7.90479835 13.6080517,7.90479835 L13.6102435,7.90479835 C14.1012161,7.90479835 14.4990355,7.5394712 14.4990355,7.08859912 Z M2.72665157,4.5977322 L2.72117196,4.5977322 C2.23019933,4.5977322 1.83237999,4.96406576 1.83237999,5.41493783 L1.83237999,7.08155425 C1.83237999,7.53242632 2.23019933,7.89775347 2.72117196,7.89775347 L2.72665157,7.89775347 C3.2176242,7.89775347 3.61653946,7.53242632 3.61653946,7.08155425 L3.61653946,5.41493783 C3.61653946,4.96406576 3.2176242,4.5977322 2.72665157,4.5977322 Z M8.96463418,13.8617443 C8.71476418,12.5876282 7.4610305,11.573166 6.23359893,11.3577941 C6.06592301,11.3296146 5.91249406,11.4614544 5.91249406,11.6184545 L5.91249406,13.8979751 C5.91249406,14.0398791 6.03742906,14.1546099 6.19304985,14.1546099 L8.68407839,14.1546099 C8.85285023,14.1546099 8.99531997,14.0157252 8.96463418,13.8617443 Z M10.0024714,4.16195628 L10.0024714,7.07853502 C10.0024714,7.52940709 10.4002908,7.89574065 10.8912634,7.89574065 C11.382236,7.89574065 11.7811513,7.52940709 11.7811513,7.07853502 L11.7811513,4.16195628 C11.7811513,3.71108421 11.382236,3.34575706 10.8912634,3.34575706 C10.4002908,3.34575706 10.0024714,3.71108421 10.0024714,4.16195628 Z M4.55793564,3.74530218 L4.55793564,7.08759271 C4.55793564,7.53846479 4.95575498,7.90379194 5.44672761,7.90379194 C5.93879616,7.90379194 6.33661551,7.53846479 6.33661551,7.08759271 L6.33661551,3.74530218 C6.33661551,3.29342369 5.93879616,2.92809654 5.44672761,2.92809654 C4.95575498,2.92809654 4.55793564,3.29342369 4.55793564,3.74530218 Z M1.82799631,9.5653763 L14.4957477,9.5653763 L14.4957477,8.76326683 L1.82799631,8.76326683 L1.82799631,9.5653763 Z M8.17118734,1.68517911 L8.17009142,1.68517911 C7.67911879,1.68517911 7.28020353,2.05151267 7.28020353,2.50238474 L7.28020353,7.0865863 C7.28020353,7.53745838 7.67911879,7.90278553 8.17009142,7.90278553 L8.17118734,7.90278553 C8.66215997,7.90278553 9.05997931,7.53745838 9.05997931,7.0865863 L9.05997931,2.50238474 C9.05997931,2.05151267 8.66215997,1.68517911 8.17118734,1.68517911 Z M4.98644077,11.6104032 C4.98644077,11.4513903 4.8264363,11.3205569 4.65766446,11.3517556 C2.96665828,11.6647494 1.73045934,13.143167 1.81922894,14.7886488 C1.91238223,16.508605 3.5354413,17.9185866 5.43686432,17.914561 C7.42376919,17.9115417 8.69174984,16.5468486 8.96244234,15.2878286 C8.99641589,15.1338477 8.85285023,14.9919438 8.68079063,14.9919438 L5.26480472,14.9919438 C5.11137577,14.9919438 4.98644077,14.8772129 4.98644077,14.7363154 L4.98644077,11.6104032 Z M0,9.98605605 L0,0.257082068 C0.00109592105,0.115178134 0.124935,0.000447293725 0.280555789,0.000447293725 C5.53659314,0.000447293725 10.7948223,-0.000559117156 16.0530515,0.000447293725 C16.2075764,0.000447293725 16.3325114,0.115178134 16.3325114,0.257082068 C16.3336073,6.75145148 16.3336073,13.2468273 16.3325114,19.7422031 C16.3325114,19.8841071 16.2075764,19.9988379 16.0530515,19.9988379 C10.7948223,20.0008507 5.53768906,19.9998443 0.280555789,19.9988379 C0.126030921,19.9988379 0.00109592105,19.8841071 0.00109592105,19.7422031 C0,16.4904896 0,13.2377696 0,9.98605605 Z" id="report-icon"></path>
                </g>
            </g>
        </g>
    </g>
</svg>