<?xml version="1.0" encoding="UTF-8" standalone="no"?>
<svg width="20px" height="20px" viewBox="0 0 20 20" version="1.1" xmlns="http://www.w3.org/2000/svg" xmlns:xlink="http://www.w3.org/1999/xlink">
    <!-- Generator: sketchtool 50.2 (55047) - http://www.bohemiancoding.com/sketch -->
    <title>97396457-9CC2-4DF0-81FD-6570DB1CF401</title>
    <desc>Created with sketchtool.</desc>
    <defs></defs>
    <g id="Application" stroke="none" stroke-width="1" fill="none" fill-rule="evenodd">
        <g id="home-page-hide-side-nav" transform="translate(-20.000000, -285.000000)" fill="#7A94B3">
            <path d="M30.007,298.354 C31.852,298.358 33.333,296.894 33.351,295.049 C33.369,293.182 31.86,291.674 29.976,291.676 C28.171,291.678 26.668,293.207 26.672,295.036 C26.675,296.865 28.169,298.35 30.007,298.354 M29.155,285 L30.756,285 C30.87,285.026 30.983,285.064 31.099,285.076 C31.474,285.115 31.646,285.323 31.647,285.693 C31.649,286.678 32.082,287.421 32.984,287.805 C33.882,288.188 34.724,287.992 35.441,287.326 C35.758,287.031 36.07,287.014 36.377,287.311 C36.833,287.752 37.293,288.192 37.716,288.665 C38.08,289.072 38.053,289.236 37.676,289.655 C37.081,290.317 36.894,291.082 37.184,291.917 C37.481,292.774 38.115,293.297 39.019,293.371 C39.614,293.42 39.955,293.635 40,294.245 L40,295.756 C39.975,295.868 39.937,295.978 39.925,296.091 C39.886,296.493 39.658,296.646 39.271,296.649 C38.306,296.658 37.585,297.098 37.194,297.974 C36.792,298.875 36.993,299.705 37.654,300.428 C37.982,300.788 38.007,301.034 37.676,301.392 C37.245,301.858 36.794,302.307 36.321,302.731 C35.926,303.085 35.736,303.049 35.329,302.695 C34.654,302.107 33.877,301.894 33.025,302.207 C32.172,302.518 31.655,303.172 31.598,304.067 C31.562,304.623 31.383,304.919 30.845,305 L29.244,305 C29.145,304.976 29.047,304.934 28.946,304.929 C28.52,304.906 28.356,304.672 28.352,304.263 C28.341,303.297 27.902,302.569 27.015,302.196 C26.116,301.817 25.272,302.002 24.559,302.677 C24.238,302.981 23.929,302.984 23.623,302.694 C23.185,302.277 22.744,301.857 22.339,301.408 C21.916,300.938 21.936,300.793 22.353,300.313 C22.937,299.642 23.108,298.875 22.799,298.042 C22.491,297.211 21.875,296.688 20.985,296.624 C20.387,296.58 20.046,296.368 20,295.756 L20,294.245 C20.024,293.577 20.363,293.354 21.033,293.303 C21.913,293.236 22.57,292.719 22.872,291.854 C23.168,291.008 22.957,290.257 22.371,289.6 C22.01,289.195 21.986,288.963 22.355,288.568 C22.778,288.116 23.219,287.678 23.682,287.267 C24.079,286.914 24.265,286.951 24.676,287.306 C25.351,287.89 26.128,288.1 26.981,287.792 C27.837,287.483 28.344,286.824 28.402,285.933 C28.439,285.376 28.618,285.082 29.155,285" id="setting-icon"></path>
        </g>
    </g>
</svg>